<svg xmlns="http://www.w3.org/2000/svg" xmlns:xlink="http://www.w3.org/1999/xlink" viewBox="0 0 2827.56 2771.19"><defs><style>.cls-1{isolation:isolate;}.cls-2{fill:#f4f7fa;}.cls-3{fill:#b7c0ce;}.cls-4{fill:#fff;}.cls-18,.cls-26,.cls-31,.cls-44,.cls-5,.cls-50,.cls-55,.cls-68,.cls-76,.cls-95{opacity:0.3;}.cls-18,.cls-26,.cls-31,.cls-32,.cls-44,.cls-5,.cls-50,.cls-55,.cls-56,.cls-6,.cls-68,.cls-76,.cls-89,.cls-95{mix-blend-mode:multiply;}.cls-5{fill:url(#linear-gradient);}.cls-32,.cls-56,.cls-6{opacity:0.65;}.cls-6{fill:url(#linear-gradient-2);}.cls-7{fill:url(#linear-gradient-3);}.cls-8{fill:url(#linear-gradient-4);}.cls-9{fill:url(#linear-gradient-5);}.cls-10{fill:url(#linear-gradient-6);}.cls-11{fill:url(#linear-gradient-7);}.cls-12{fill:url(#linear-gradient-8);}.cls-13{fill:url(#linear-gradient-9);}.cls-14{fill:url(#linear-gradient-10);}.cls-15{fill:url(#linear-gradient-11);}.cls-16{fill:url(#linear-gradient-12);}.cls-17{fill:url(#linear-gradient-13);}.cls-18{fill:url(#linear-gradient-14);}.cls-19{fill:url(#linear-gradient-15);}.cls-20{fill:url(#linear-gradient-16);}.cls-21{fill:url(#linear-gradient-17);}.cls-22{fill:#c47eb7;}.cls-23{fill:#d8dee8;}.cls-24{fill:url(#linear-gradient-18);}.cls-25{fill:url(#linear-gradient-19);}.cls-26{fill:url(#linear-gradient-20);}.cls-27{fill:url(#linear-gradient-21);}.cls-28{fill:url(#linear-gradient-22);}.cls-29{fill:url(#linear-gradient-23);}.cls-30{fill:url(#linear-gradient-24);}.cls-31{fill:url(#linear-gradient-25);}.cls-32{fill:url(#linear-gradient-26);}.cls-33{fill:url(#linear-gradient-27);}.cls-34{fill:url(#linear-gradient-28);}.cls-35{fill:url(#linear-gradient-29);}.cls-36{fill:url(#linear-gradient-30);}.cls-37{fill:url(#linear-gradient-31);}.cls-38{fill:url(#linear-gradient-32);}.cls-39{fill:url(#linear-gradient-33);}.cls-40{fill:url(#linear-gradient-34);}.cls-41{fill:url(#linear-gradient-35);}.cls-42{fill:url(#linear-gradient-36);}.cls-43{fill:url(#linear-gradient-37);}.cls-44{fill:url(#linear-gradient-38);}.cls-45{fill:url(#linear-gradient-39);}.cls-46{fill:url(#linear-gradient-40);}.cls-47{fill:url(#linear-gradient-41);}.cls-48{fill:url(#linear-gradient-42);}.cls-49{fill:url(#linear-gradient-43);}.cls-50{fill:url(#linear-gradient-44);}.cls-51{fill:url(#linear-gradient-45);}.cls-52{fill:url(#linear-gradient-46);}.cls-53{fill:url(#linear-gradient-47);}.cls-54{fill:url(#linear-gradient-48);}.cls-55{fill:url(#linear-gradient-49);}.cls-56{fill:url(#linear-gradient-50);}.cls-57{fill:url(#linear-gradient-51);}.cls-58{fill:url(#linear-gradient-52);}.cls-59{fill:url(#linear-gradient-53);}.cls-60{fill:url(#linear-gradient-54);}.cls-61{fill:url(#linear-gradient-55);}.cls-62{fill:url(#linear-gradient-56);}.cls-63{fill:url(#linear-gradient-57);}.cls-64{fill:url(#linear-gradient-58);}.cls-65{fill:url(#linear-gradient-59);}.cls-66{fill:url(#linear-gradient-60);}.cls-67{fill:url(#linear-gradient-61);}.cls-68{fill:url(#linear-gradient-62);}.cls-69{fill:url(#linear-gradient-63);}.cls-70{fill:url(#linear-gradient-64);}.cls-71{fill:url(#linear-gradient-65);}.cls-72{fill:url(#linear-gradient-66);}.cls-73{fill:url(#linear-gradient-67);}.cls-74{fill:url(#linear-gradient-68);}.cls-75{fill:url(#linear-gradient-69);}.cls-76{fill:url(#linear-gradient-70);}.cls-77{fill:url(#linear-gradient-71);}.cls-78{fill:url(#linear-gradient-72);}.cls-79{fill:url(#linear-gradient-73);}.cls-80{fill:url(#linear-gradient-74);}.cls-81{fill:url(#linear-gradient-75);}.cls-82{fill:url(#linear-gradient-76);}.cls-83{fill:url(#linear-gradient-77);}.cls-84{fill:url(#linear-gradient-78);}.cls-85{fill:url(#linear-gradient-79);}.cls-86{fill:url(#linear-gradient-80);}.cls-87{fill:url(#linear-gradient-81);}.cls-88{fill:url(#linear-gradient-82);}.cls-89{opacity:0.4;}.cls-90{fill:url(#linear-gradient-83);}.cls-91{fill:url(#linear-gradient-84);}.cls-92{fill:url(#linear-gradient-85);}.cls-93{fill:url(#linear-gradient-86);}.cls-94{fill:url(#linear-gradient-87);}.cls-95{fill:url(#linear-gradient-88);}.cls-96{fill:url(#linear-gradient-89);}.cls-97{fill:url(#linear-gradient-90);}.cls-98{opacity:0.8;mix-blend-mode:soft-light;}.cls-99{fill:url(#linear-gradient-91);}</style><linearGradient id="linear-gradient" x1="-176.48" y1="1523.74" x2="84.09" y2="1523.74" gradientTransform="matrix(-1, 0, 0, 1, 1694.31, 0)" gradientUnits="userSpaceOnUse"><stop offset="0" stop-color="#aa80f9"/><stop offset="1" stop-color="#6165d7"/></linearGradient><linearGradient id="linear-gradient-2" x1="-88.2" y1="1403.31" x2="-53.73" y2="1403.31" xlink:href="#linear-gradient"/><linearGradient id="linear-gradient-3" x1="100.19" y1="1366.65" x2="36.98" y2="1284.28" gradientTransform="matrix(-1, 0, 0, 1, 1694.31, 0)" gradientUnits="userSpaceOnUse"><stop offset="0" stop-color="#311944"/><stop offset="1" stop-color="#893976"/></linearGradient><linearGradient id="linear-gradient-4" x1="-43.92" y1="1182.65" x2="37.31" y2="967.35" xlink:href="#linear-gradient-3"/><linearGradient id="linear-gradient-5" x1="-89.34" y1="1221.06" x2="-90.58" y2="1326.43" xlink:href="#linear-gradient-3"/><linearGradient id="linear-gradient-6" x1="-632.24" y1="813.06" x2="-238.35" y2="1080.62" gradientTransform="matrix(-1, 0, 0, 1, 1694.31, 0)" gradientUnits="userSpaceOnUse"><stop offset="0" stop-color="#ffc444"/><stop offset="1" stop-color="#f36f56"/></linearGradient><linearGradient id="linear-gradient-7" x1="-326.39" y1="1648.21" x2="-246.13" y2="1648.21" gradientTransform="matrix(-1, 0, 0, 1, 1694.31, 0)" gradientUnits="userSpaceOnUse"><stop offset="0" stop-color="#311944"/><stop offset="1" stop-color="#6b3976"/></linearGradient><linearGradient id="linear-gradient-8" x1="-291.19" y1="1694.6" x2="-157.12" y2="1292.38" gradientTransform="matrix(-1, 0, 0, 1, 1694.31, 0)" gradientUnits="userSpaceOnUse"><stop offset="0" stop-color="#311944"/><stop offset="1" stop-color="#a03976"/></linearGradient><linearGradient id="linear-gradient-9" x1="-483.03" y1="1593.74" x2="-402.77" y2="1593.74" xlink:href="#linear-gradient-7"/><linearGradient id="linear-gradient-10" x1="-447.84" y1="1640.13" x2="-313.77" y2="1237.92" xlink:href="#linear-gradient-8"/><linearGradient id="linear-gradient-11" x1="-309.52" y1="1590.91" x2="-214.32" y2="1289.63" gradientTransform="matrix(-1, 0, 0, 1, 1694.31, 0)" gradientUnits="userSpaceOnUse"><stop offset="0" stop-color="#444b8c"/><stop offset="1" stop-color="#3e4177"/></linearGradient><linearGradient id="linear-gradient-12" x1="-299.4" y1="1299.85" x2="-68.73" y2="1346.93" xlink:href="#linear-gradient-11"/><linearGradient id="linear-gradient-13" x1="-417.85" y1="757.89" x2="241.42" y2="1205.69" xlink:href="#linear-gradient-6"/><linearGradient id="linear-gradient-14" x1="-476.46" y1="844.17" x2="182.81" y2="1291.98" xlink:href="#linear-gradient-6"/><linearGradient id="linear-gradient-15" x1="-273.01" y1="729.72" x2="-229.44" y2="789.43" gradientTransform="matrix(-1, 0, 0, 1, 1694.31, 0)" gradientUnits="userSpaceOnUse"><stop offset="0" stop-color="#311944"/><stop offset="0.22" stop-color="#49204e"/><stop offset="0.31" stop-color="#532353"/><stop offset="1" stop-color="#a03976"/></linearGradient><linearGradient id="linear-gradient-16" x1="-748.39" y1="469.25" x2="-814.27" y2="301.93" gradientTransform="matrix(-0.95, -0.3, -0.3, 0.95, 1344.51, 141.34)" gradientUnits="userSpaceOnUse"><stop offset="0" stop-color="#444b8c"/><stop offset="1" stop-color="#26264f"/></linearGradient><linearGradient id="linear-gradient-17" x1="-180.35" y1="644.66" x2="-361.1" y2="789.91" xlink:href="#linear-gradient-15"/><linearGradient id="linear-gradient-18" x1="-812.17" y1="959.31" x2="-387.14" y2="959.31" xlink:href="#linear-gradient"/><linearGradient id="linear-gradient-19" x1="-519.41" y1="832.38" x2="-738.9" y2="1165.91" xlink:href="#linear-gradient"/><linearGradient id="linear-gradient-20" x1="-808.64" y1="1057.76" x2="-395.22" y2="1057.76" xlink:href="#linear-gradient"/><linearGradient id="linear-gradient-21" x1="-527.58" y1="1113.53" x2="-640.55" y2="1181.31" xlink:href="#linear-gradient"/><linearGradient id="linear-gradient-22" x1="-604.29" y1="975.08" x2="-686.05" y2="1319.37" xlink:href="#linear-gradient"/><linearGradient id="linear-gradient-23" x1="-227.07" y1="1096.58" x2="221.58" y2="544.64" xlink:href="#linear-gradient-6"/><linearGradient id="linear-gradient-24" x1="-330.42" y1="1065.99" x2="-354.09" y2="1145.07" xlink:href="#linear-gradient-15"/><linearGradient id="linear-gradient-25" x1="860.51" y1="1832.94" x2="1121.08" y2="1832.94" xlink:href="#linear-gradient"/><linearGradient id="linear-gradient-26" x1="948.78" y1="1712.51" x2="983.26" y2="1712.51" xlink:href="#linear-gradient"/><linearGradient id="linear-gradient-27" x1="1137.18" y1="1675.85" x2="1073.97" y2="1593.48" xlink:href="#linear-gradient-3"/><linearGradient id="linear-gradient-28" x1="993.07" y1="1491.86" x2="1074.3" y2="1276.55" xlink:href="#linear-gradient-3"/><linearGradient id="linear-gradient-29" x1="947.64" y1="1530.26" x2="946.41" y2="1635.63" xlink:href="#linear-gradient-3"/><linearGradient id="linear-gradient-30" x1="404.74" y1="1122.27" x2="798.64" y2="1389.82" xlink:href="#linear-gradient"/><linearGradient id="linear-gradient-31" x1="710.6" y1="1957.41" x2="790.86" y2="1957.41" xlink:href="#linear-gradient-7"/><linearGradient id="linear-gradient-32" x1="745.79" y1="2003.8" x2="879.87" y2="1601.58" xlink:href="#linear-gradient-8"/><linearGradient id="linear-gradient-33" x1="553.96" y1="1902.94" x2="634.22" y2="1902.94" xlink:href="#linear-gradient-7"/><linearGradient id="linear-gradient-34" x1="589.15" y1="1949.33" x2="723.22" y2="1547.12" xlink:href="#linear-gradient-8"/><linearGradient id="linear-gradient-35" x1="727.47" y1="1900.11" x2="822.67" y2="1598.83" xlink:href="#linear-gradient-11"/><linearGradient id="linear-gradient-36" x1="737.59" y1="1609.05" x2="968.26" y2="1656.13" xlink:href="#linear-gradient-11"/><linearGradient id="linear-gradient-37" x1="619.14" y1="1067.09" x2="1278.41" y2="1514.89" xlink:href="#linear-gradient"/><linearGradient id="linear-gradient-38" x1="560.53" y1="1153.38" x2="1219.8" y2="1601.18" xlink:href="#linear-gradient"/><linearGradient id="linear-gradient-39" x1="2981.07" y1="968.42" x2="2936.24" y2="854.56" gradientTransform="translate(-1463.79 -892.02) rotate(21.73)" xlink:href="#linear-gradient-7"/><linearGradient id="linear-gradient-40" x1="960.6" y1="1024.26" x2="879.66" y2="1088.72" gradientTransform="matrix(1, 0, 0, 1, 0, 0)" xlink:href="#linear-gradient-6"/><linearGradient id="linear-gradient-41" x1="6770.88" y1="-797.42" x2="6768.89" y2="-637.19" gradientTransform="translate(-5745.82 -236.27) rotate(17.41)" xlink:href="#linear-gradient-6"/><linearGradient id="linear-gradient-42" x1="224.82" y1="1268.51" x2="649.85" y2="1268.51" xlink:href="#linear-gradient"/><linearGradient id="linear-gradient-43" x1="517.58" y1="1141.58" x2="298.09" y2="1475.11" xlink:href="#linear-gradient"/><linearGradient id="linear-gradient-44" x1="228.35" y1="1366.96" x2="641.77" y2="1366.96" xlink:href="#linear-gradient"/><linearGradient id="linear-gradient-45" x1="509.41" y1="1422.73" x2="396.44" y2="1490.51" xlink:href="#linear-gradient"/><linearGradient id="linear-gradient-46" x1="432.7" y1="1284.28" x2="350.93" y2="1628.57" xlink:href="#linear-gradient"/><linearGradient id="linear-gradient-47" x1="809.92" y1="1405.78" x2="1258.57" y2="853.84" xlink:href="#linear-gradient"/><linearGradient id="linear-gradient-48" x1="706.57" y1="1375.19" x2="682.9" y2="1454.27" xlink:href="#linear-gradient-6"/><linearGradient id="linear-gradient-49" x1="251.17" y1="2608.99" x2="532.18" y2="2608.99" xlink:href="#linear-gradient"/><linearGradient id="linear-gradient-50" x1="346.38" y1="2479.12" x2="383.56" y2="2479.12" xlink:href="#linear-gradient"/><linearGradient id="linear-gradient-51" x1="549.55" y1="2439.58" x2="481.38" y2="2350.75" xlink:href="#linear-gradient-3"/><linearGradient id="linear-gradient-52" x1="394.14" y1="2241.15" x2="481.73" y2="2008.96" xlink:href="#linear-gradient-3"/><linearGradient id="linear-gradient-53" x1="345.15" y1="2282.57" x2="343.81" y2="2396.21" xlink:href="#linear-gradient-3"/><linearGradient id="linear-gradient-54" x1="-240.34" y1="1842.58" x2="184.46" y2="2131.11" gradientTransform="matrix(-1, 0, 0, 1, 1694.31, 0)" gradientUnits="userSpaceOnUse"><stop offset="0" stop-color="#ff9085"/><stop offset="1" stop-color="#fb6fbb"/></linearGradient><linearGradient id="linear-gradient-55" x1="89.51" y1="2743.22" x2="176.07" y2="2743.22" xlink:href="#linear-gradient-7"/><linearGradient id="linear-gradient-56" x1="127.46" y1="2793.26" x2="272.05" y2="2359.49" xlink:href="#linear-gradient-6"/><linearGradient id="linear-gradient-57" x1="-79.42" y1="2684.48" x2="7.14" y2="2684.48" xlink:href="#linear-gradient-7"/><linearGradient id="linear-gradient-58" x1="-41.47" y1="2734.52" x2="103.12" y2="2300.75" xlink:href="#linear-gradient-6"/><linearGradient id="linear-gradient-59" x1="107.71" y1="2681.44" x2="210.37" y2="2356.52" xlink:href="#linear-gradient-11"/><linearGradient id="linear-gradient-60" x1="118.61" y1="2367.54" x2="367.38" y2="2418.31" xlink:href="#linear-gradient-11"/><linearGradient id="linear-gradient-61" x1="-9.12" y1="1783.07" x2="701.85" y2="2266" xlink:href="#linear-gradient-54"/><linearGradient id="linear-gradient-62" x1="-72.33" y1="1876.13" x2="638.65" y2="2359.05" xlink:href="#linear-gradient-54"/><linearGradient id="linear-gradient-63" x1="140.22" y1="1743.31" x2="187.21" y2="1807.7" xlink:href="#linear-gradient-6"/><linearGradient id="linear-gradient-64" x1="6235.32" y1="876.03" x2="6235.32" y2="875.3" gradientTransform="matrix(-0.95, -0.31, -0.31, 0.95, 8295.84, 1267.51)" xlink:href="#linear-gradient-8"/><linearGradient id="linear-gradient-65" x1="-4871.05" y1="1186.29" x2="-4871.05" y2="1185.56" gradientTransform="translate(6848.71 842.13) rotate(14.78)" xlink:href="#linear-gradient-6"/><linearGradient id="linear-gradient-66" x1="6231.66" y1="876.01" x2="6231.66" y2="875.28" gradientTransform="matrix(-0.95, -0.31, -0.31, 0.95, 8295.84, 1267.51)" xlink:href="#linear-gradient-8"/><linearGradient id="linear-gradient-67" x1="6213.08" y1="876.1" x2="6213.08" y2="875.37" gradientTransform="matrix(-0.95, -0.31, -0.31, 0.95, 8295.84, 1267.51)" gradientUnits="userSpaceOnUse"><stop offset="0" stop-color="#ffc444"/><stop offset="1" stop-color="#f36f56"/></linearGradient><linearGradient id="linear-gradient-68" x1="-434.37" y1="2000.29" x2="24" y2="2000.29" xlink:href="#linear-gradient"/><linearGradient id="linear-gradient-69" x1="-118.65" y1="1863.41" x2="-355.35" y2="2223.1" xlink:href="#linear-gradient"/><linearGradient id="linear-gradient-70" x1="-430.57" y1="2106.46" x2="15.29" y2="2106.46" xlink:href="#linear-gradient"/><linearGradient id="linear-gradient-71" x1="-127.46" y1="2166.61" x2="-249.29" y2="2239.7" xlink:href="#linear-gradient"/><linearGradient id="linear-gradient-72" x1="-210.18" y1="2017.3" x2="-298.37" y2="2388.59" xlink:href="#linear-gradient"/><linearGradient id="linear-gradient-73" x1="196.62" y1="2148.33" x2="680.46" y2="1553.09" xlink:href="#linear-gradient-54"/><linearGradient id="linear-gradient-74" x1="85.16" y1="2115.34" x2="59.63" y2="2200.63" xlink:href="#linear-gradient-6"/><linearGradient id="linear-gradient-75" x1="2722.92" y1="2364.24" x2="2739.18" y2="2657" gradientTransform="matrix(1, 0, 0, 1, 0, 0)" xlink:href="#linear-gradient-16"/><linearGradient id="linear-gradient-76" x1="2729.42" y1="2397.01" x2="2769.17" y2="2491.34" gradientTransform="matrix(1, 0, 0, 1, 0, 0)" xlink:href="#linear-gradient-6"/><linearGradient id="linear-gradient-77" x1="3017.3" y1="2347.89" x2="3033.56" y2="2640.64" gradientTransform="matrix(1, 0, 0, 1, 0, 0)" xlink:href="#linear-gradient-16"/><linearGradient id="linear-gradient-78" x1="2969.47" y1="2343.87" x2="3037.7" y2="2496.35" gradientTransform="matrix(1, 0, 0, 1, 0, 0)" xlink:href="#linear-gradient-6"/><linearGradient id="linear-gradient-79" x1="2623.77" y1="1853.42" x2="2903.8" y2="2534.51" gradientTransform="matrix(1, 0, 0, 1, 0, 0)" xlink:href="#linear-gradient-3"/><linearGradient id="linear-gradient-80" x1="2791.09" y1="1784.62" x2="3071.12" y2="2465.71" gradientTransform="matrix(1, 0, 0, 1, 0, 0)" xlink:href="#linear-gradient-3"/><linearGradient id="linear-gradient-81" x1="3018.69" y1="1637.03" x2="2904.85" y2="1475.75" gradientTransform="matrix(1, 0, 0, 1, 0, 0)" xlink:href="#linear-gradient-16"/><linearGradient id="linear-gradient-82" x1="2799.05" y1="1311.22" x2="2893.02" y2="1885.88" gradientTransform="matrix(1, 0, 0, 1, 0, 0)" xlink:href="#linear-gradient"/><linearGradient id="linear-gradient-83" x1="2895.83" y1="1295.39" x2="2989.8" y2="1870.05" gradientTransform="matrix(1, 0, 0, 1, 0, 0)" xlink:href="#linear-gradient"/><linearGradient id="linear-gradient-84" x1="2876.39" y1="1298.57" x2="2970.36" y2="1873.23" gradientTransform="matrix(1, 0, 0, 1, 0, 0)" xlink:href="#linear-gradient"/><linearGradient id="linear-gradient-85" x1="2475.06" y1="1492.11" x2="2821.72" y2="1492.11" gradientTransform="matrix(1, 0, 0, 1, 0, 0)" xlink:href="#linear-gradient-16"/><linearGradient id="linear-gradient-86" x1="2672.4" y1="1277.43" x2="2817.55" y2="1277.43" gradientTransform="matrix(1, 0, 0, 1, 0, 0)" xlink:href="#linear-gradient-6"/><linearGradient id="linear-gradient-87" x1="2735.47" y1="1236.87" x2="2778.05" y2="1474.12" gradientTransform="matrix(1, 0, 0, 1, 0, 0)" xlink:href="#linear-gradient-6"/><linearGradient id="linear-gradient-88" x1="2475.06" y1="1490.77" x2="2792.38" y2="1490.77" gradientTransform="matrix(1, 0, 0, 1, 0, 0)" xlink:href="#linear-gradient-16"/><linearGradient id="linear-gradient-89" x1="2475.06" y1="1432.91" x2="2514.83" y2="1432.91" gradientTransform="matrix(1, 0, 0, 1, 0, 0)" xlink:href="#linear-gradient-6"/><linearGradient id="linear-gradient-90" x1="2431.54" y1="2313.26" x2="2103.3" y2="4854.44" gradientTransform="matrix(-1, 0, 0, 1, 3348.05, 0)" gradientUnits="userSpaceOnUse"><stop offset="0" stop-color="#ffc444"/><stop offset="0.23" stop-color="#fcb148"/><stop offset="1" stop-color="#f36f56"/></linearGradient><linearGradient id="linear-gradient-91" x1="2292.48" y1="2252.74" x2="2080.6" y2="3893.11" gradientTransform="matrix(-1, 0, 0, 1, 3348.05, 0)" gradientUnits="userSpaceOnUse"><stop offset="0" stop-color="#e38ddd"/><stop offset="1" stop-color="#9571f6"/></linearGradient></defs><g class="cls-1"><g id="Illustration"><path class="cls-2" d="M3005.19,2621.11c-571.67,731.23-1910.45,743-2281.07,336.8-147.91-162.08-187-440.47-244.38-849.37-27.63-196.85-31.59-355.52-33.94-464.38-8.09-370.31-12.12-555.48,47.5-681.45,170.75-360.6,763.92-500.95,1147.33-507.46q40.14-.69,81,.53c448.93,13.38,955.52,200.26,1268,599.6a1340.93,1340.93,0,0,1,90.3,130.46C3365.05,1654.8,3317.06,2222.24,3005.19,2621.11Z" transform="translate(-441.22 -455)"/><ellipse class="cls-3" cx="1324.05" cy="1104.99" rx="155.05" ry="63.28"/><path class="cls-4" d="M1610.22,1552.57c0,33,69.42,59.74,155,59.74s155.06-26.75,155.06-59.74-69.42-87-155.06-87S1610.22,1519.58,1610.22,1552.57Z" transform="translate(-441.22 -455)"/><path class="cls-5" d="M1610.22,1552.57c0-33,69.42-87,155-87a210.46,210.46,0,0,1,103,27.15,22.52,22.52,0,0,1,2.45,11.8c-1.78,18.57-32,30-49.43,33.74-43.76,9.48-65.13-16.69-101.21-15.69-22.31.62-53.22,11.82-89.89,59.28C1617.49,1573.22,1610.22,1563.23,1610.22,1552.57Z" transform="translate(-441.22 -455)"/><path class="cls-4" d="M1756.78,1495.56a35.16,35.16,0,0,0,17.41.1,11.19,11.19,0,0,0,8.32-10.9V1309.92H1748v174.63A11.41,11.41,0,0,0,1756.78,1495.56Z" transform="translate(-441.22 -455)"/><path class="cls-6" d="M1756.78,1495.56a35.16,35.16,0,0,0,17.41.1,11.19,11.19,0,0,0,8.32-10.9V1309.92H1748v174.63A11.41,11.41,0,0,0,1756.78,1495.56Z" transform="translate(-441.22 -455)"/><path class="cls-7" d="M1947.45,1236.34l-52.67-33.3c-2.19-12.44-27-142.56-127.82-183.42-41-16.62-85.1-14.65-109.31-13.56-48.32,2.16-82.79,3.7-99.37,26.75-21.29,29.6,14.42,56.44,7,141.11-3,34.53-10.68,49.86-1.13,72.74,11.44,27.4,38,42.58,58.6,51.13a300.16,300.16,0,0,0,124.3,39.7c95.52,8.37,166.82-32.61,191.35-48.28a31.58,31.58,0,0,0,21.41-23.7A27.83,27.83,0,0,0,1947.45,1236.34Z" transform="translate(-441.22 -455)"/><path class="cls-8" d="M1647,1013c-35.74,1.06-58,.64-70.23,16.6-12.9,16.76.13,31,2.55,90.67,2.2,54.38-7.39,75.88,10.19,106,0,0,8.92,15.31,23,26.81,49.81,40.65,178.33,40.15,232.42-44.7,43.15-67.69,25.16-167.48-25.55-200.5C1794.59,991.73,1788.89,1008.81,1647,1013Z" transform="translate(-441.22 -455)"/><path class="cls-9" d="M1951.28,1206.43l-52.67-33.29s-141.08-46.39-271.62,19a43.34,43.34,0,0,0-23.71,38.8,31.1,31.1,0,0,0,19.11,28.7c22.77,15.55,67.23,41.22,128.51,47.94,97.43,10.68,169.92-33.94,191.35-48.29a31.53,31.53,0,0,0,21.41-23.7A27.84,27.84,0,0,0,1951.28,1206.43Z" transform="translate(-441.22 -455)"/><path class="cls-10" d="M2300.19,1019.46s-224.47,70.46-218.85-188.1L1957,868.14s-12.06,300.15,297.8,189.62Z" transform="translate(-441.22 -455)"/><path class="cls-11" d="M1968.49,1622.74H1948.2c-5,8.1-10.6,19.62-6.13,27,3.09,5.13,8.31,3.79,23,8.44,20.49,6.5,25.43,13.91,43,15.15,6.43.45,11.12.78,12.38-1.51C2024,1665.28,1996.16,1642.93,1968.49,1622.74Z" transform="translate(-441.22 -455)"/><path class="cls-12" d="M1965.36,1629.52c-1.72.7-3.42,1.46-5.09,2.06a8.69,8.69,0,0,1-11.51-8.27c0-.19,0-.39,0-.58a69.91,69.91,0,0,0-3.3-20.41l22.39-1c-1.71,9.92-1.12,17,.47,22.14A5,5,0,0,1,1965.36,1629.52Z" transform="translate(-441.22 -455)"/><path class="cls-13" d="M2125.14,1568.27h-20.3c-5,8.1-10.6,19.62-6.13,27,3.1,5.13,8.31,3.79,23,8.44,20.49,6.5,25.44,13.91,43,15.15,6.43.45,11.12.78,12.38-1.5C2180.63,1610.81,2152.8,1588.47,2125.14,1568.27Z" transform="translate(-441.22 -455)"/><path class="cls-14" d="M2122,1575.06c-1.71.7-3.42,1.46-5.08,2a8.69,8.69,0,0,1-11.52-8.27v-.58a70.26,70.26,0,0,0-3.31-20.41l22.4-1c-1.72,9.92-1.12,17,.46,22.14A5,5,0,0,1,2122,1575.06Z" transform="translate(-441.22 -455)"/><path class="cls-15" d="M2124.92,1557.82a635,635,0,0,0,9.41-184.38c-8-82.64-12.24-126.42-45.41-166.94-31.19-38.09-60.21-39.41-129.61-103.91a720.09,720.09,0,0,1-50.94-52.4c-104.08-30.53-200.08-18.16-242.44,37.66-4.89,6.45-17.15,20.44-19.52,41.07-5.35,46.54,40.39,102.58,91.7,114.28,65.22,14.87,103.06-52.1,160.85-29.81,16.16,6.23,29.86,21.67,57.27,52.56a436.67,436.67,0,0,1,61.88,90.07c22.08,43.2,38.83,75.09,41.27,116.43.57,9.63.91,29.08,12.19,50.06a104.18,104.18,0,0,0,29.12,33.48Z" transform="translate(-441.22 -455)"/><path class="cls-16" d="M1982.85,1598.45c-6.29,11.73-18.65,18.66-45.51,14.12-37.94-43.09-50.48-81.33-54.92-108.27-9.6-58.18,14.51-88.09-7.85-135-14.54-30.49-39.06-47.81-59.57-62.3-49.43-34.92-70.19-21.31-112.43-53.47-15.86-12.07-53.82-41-58.92-88.58-4.43-41.38,18.59-72.34,22.28-77.15,29.74-38.75,85.55-54.48,141.17-40.18a345.35,345.35,0,0,0,47.07,83.16c31.71,41.27,52.33,48.33,84.74,89.45,15.14,19.2,41,52,54.63,98.37,7.93,26.95,9,49.06.29,157.4C1991.12,1510,1987.54,1551.29,1982.85,1598.45Z" transform="translate(-441.22 -455)"/><path class="cls-17" d="M2081.34,831.36c-5-64.8-182.27-149.44-322.78-90.37-166.41,70-168.13,293.92-168,310,.53,69.18,23.16,147.78,48.58,149.52,18.63,1.28,19.69-40,58.11-62.56,41.12-24.14,72.5,4.07,169.07,1.24,44-1.28,93.7-2.74,105.14-28.24,11.54-25.73-28.87-47.09-33.19-88.63C1929.39,937,2086.17,894.11,2081.34,831.36Z" transform="translate(-441.22 -455)"/><path class="cls-18" d="M1621.38,1096c12.21-22.25,38.43-48.35,72.63-56.49,44.52-10.6,64.3,18.35,96.83,4.84,40-16.59,24.43-66.22,64.55-90.37,34.23-20.61,67.5,2.25,111.57.51-18.74,19.86-31.4,41.88-28.7,67.84,4.32,41.54,44.73,62.9,33.19,88.63-11.44,25.5-61.18,27-105.14,28.24-96.57,2.83-128-25.38-169.07-1.24-38.42,22.54-39.48,63.84-58.11,62.56-10.71-.73-20.92-15.14-29.2-36.72C1606.93,1139.1,1610.68,1115.55,1621.38,1096Z" transform="translate(-441.22 -455)"/><path class="cls-19" d="M1978.28,733.65l-6.2,3a62.43,62.43,0,0,1-38.82,5.26l-17.63-3.29a4.52,4.52,0,0,0-4.69,6.83c9.94,15.66,35.56,45.19,77.56,21.53Z" transform="translate(-441.22 -455)"/><path class="cls-20" d="M2022,734.05c21.64-7.85,29-59.07,18.31-64.68-6.15-3.23-11.75,12-34.54,17.91-17.76,4.57-29-.92-36.63,8-3.56,4.17-5.69,10.8-5.63,16.66,0,3,.77,7,2.81,14.94,1.81,7,1.62,6.72,2.21,8.78,1.41,5,4.49,13.54,11.77,24.88a64.84,64.84,0,0,1,6.71-9.14,57.83,57.83,0,0,1,11-9.72C2008,735.23,2015.78,736.3,2022,734.05Z" transform="translate(-441.22 -455)"/><path class="cls-21" d="M1970.16,748.27s4.69,19.44,24.84,24.5c18,4.52,33.36-34.28,24.77-46.31-2.86-4-10-7.61-16.72-7.86-4-.15-5.65,1-12.1.6-6-.34-7.3-1.45-9.41-.58-2.63,1.08-5.52,4.86-5.78,17.56-2.28-4.5-5.9-7.11-9.21-6.67a6.33,6.33,0,0,0-3.09,1.54C1959.54,734.78,1961.82,741.89,1970.16,748.27Z" transform="translate(-441.22 -455)"/><path class="cls-22" d="M2331.62,1626.5h-.31a3.39,3.39,0,0,1-3.07-3.37v-617.8a3.38,3.38,0,1,1,6.75,0v581.15L2436.07,1043a3.38,3.38,0,1,1,6.65,1.23l-107.78,579.48A3.38,3.38,0,0,1,2331.62,1626.5Z" transform="translate(-441.22 -455)"/><path class="cls-22" d="M2894.2,1643.84a3.38,3.38,0,0,1-3.33-2.83l-94.55-569.47a3.38,3.38,0,1,1,6.67-1.11l87.83,529V1073a3.38,3.38,0,0,1,6.76,0v567.42a3.38,3.38,0,0,1-3.1,3.36Z" transform="translate(-441.22 -455)"/><path class="cls-22" d="M1508.78,1831.61l-.35,0a3.37,3.37,0,0,1-3-3.36V1202.85a3.38,3.38,0,0,1,6.76,0v593l125.22-593a3.38,3.38,0,1,1,6.61,1.4l-131.91,624.71A3.38,3.38,0,0,1,1508.78,1831.61Z" transform="translate(-441.22 -455)"/><path class="cls-22" d="M2165,1940.84a3.38,3.38,0,0,1-3.31-2.71L2017,1226.76a3.38,3.38,0,1,1,6.62-1.34l137.92,678.45V1309.62a3.38,3.38,0,0,1,6.76,0v627.84a3.37,3.37,0,0,1-3,3.36Z" transform="translate(-441.22 -455)"/><path class="cls-3" d="M1502.91,1195.2V1206l663.55,108.24,733.73-238.79v-10.77C2785.28,1030.78,1502.91,1195.2,1502.91,1195.2Z" transform="translate(-441.22 -455)"/><polygon class="cls-23" points="1849.6 553.83 1061.69 740.21 1725.24 848.44 2458.97 609.66 1849.6 553.83"/><polygon class="cls-3" points="1674.88 615.99 1537.45 637.17 1537.45 646.52 1594.64 674.07 1714.4 643.83 1674.88 615.99"/><polygon class="cls-4" points="1678.12 595.6 1537.45 637.17 1594.64 664.71 1714.4 634.47 1678.12 595.6"/><path class="cls-24" d="M2081.44,1159.61l22-289.78c.35-4.59,4.28-8.86,9.48-10.33l375.87-105.65c3.37-1,9.82,0,12.38,1.57s5.46,1.24,5.34,4.2l-15.71,267.79c-.26,4.46-3.93,8.68-8.94,10.31l-392.3,127.43Z" transform="translate(-441.22 -455)"/><path class="cls-25" d="M2089.52,1165.15,2112.28,873c.35-4.58,4.28-8.84,9.47-10.3L2497.64,757a11.83,11.83,0,0,1,9.36,1,7.88,7.88,0,0,1,3.85,7.18l-11.31,265.14c-.2,4.56-4,8.9-9.13,10.5Z" transform="translate(-441.22 -455)"/><path class="cls-26" d="M2089.52,1165.15l400.89-124.33c5.15-1.6,8.93-5.94,9.13-10.5l3.41-80c-119,75.93-268.85,105.26-408.31,149.11Z" transform="translate(-441.22 -455)"/><path class="cls-4" d="M2289,1174.05l-14.22,8.83-71.56-31.73c-.64-.29-3.41-3.74,0-5.17,18.1-7.53,87.13-25.37,87.13-25.37l35.93,17.07Z" transform="translate(-441.22 -455)"/><path class="cls-27" d="M2289,1168.89l-14.22,8.83L2203.22,1146c-4-1.79,87.13-30.53,87.13-30.53l35.93,17.06Z" transform="translate(-441.22 -455)"/><path class="cls-4" d="M2359.21,945.16s34.13,182.64,37.72,192.81c3.32,9.4-93.35,39.88-116.46,45.66-1.92.48-4.79-.36-5.69-.75-6.59.6,24.1-220.5,24.1-220.5l2.25-.45Z" transform="translate(-441.22 -455)"/><path class="cls-28" d="M2359.21,945.16s40.12,183.23,43.71,193.41-112,43.12-122.15,44.91c-6.59.6,20.36-221.55,20.36-221.55Z" transform="translate(-441.22 -455)"/><path class="cls-29" d="M2002.48,1063.14l3.46,30.6s-140.27,60.45-259.13,0-71.39-285-71.39-285,38.06-69.21,125.21-59.52,38.8,119.42,23.43,192S1836.37,1081.69,2002.48,1063.14Z" transform="translate(-441.22 -455)"/><path class="cls-30" d="M2002.48,1063.14l22.29-4.12a18,18,0,0,1,12.77,2.43l24.49,13.32c5.55,3,4.08,11.51-2.19,12.26a72.75,72.75,0,0,1-15.93.06c-21.51-2.16-28.07,5.78-38,6.65S1983.11,1075.24,2002.48,1063.14Z" transform="translate(-441.22 -455)"/><ellipse class="cls-3" cx="287.06" cy="1414.19" rx="155.05" ry="63.28"/><path class="cls-4" d="M573.23,1861.77c0,33,69.42,59.74,155,59.74s155.06-26.75,155.06-59.74-69.42-87-155.06-87S573.23,1828.78,573.23,1861.77Z" transform="translate(-441.22 -455)"/><path class="cls-31" d="M573.23,1861.77c0-33,69.42-87,155-87a210.46,210.46,0,0,1,103,27.15,22.56,22.56,0,0,1,2.45,11.81c-1.78,18.56-32.05,30-49.43,33.73-43.76,9.48-65.13-16.69-101.21-15.69-22.31.62-53.22,11.82-89.88,59.28C580.5,1882.42,573.23,1872.43,573.23,1861.77Z" transform="translate(-441.22 -455)"/><path class="cls-4" d="M719.79,1804.76a35,35,0,0,0,17.41.1,11.19,11.19,0,0,0,8.32-10.9V1619.12H711v174.63A11.41,11.41,0,0,0,719.79,1804.76Z" transform="translate(-441.22 -455)"/><path class="cls-32" d="M719.79,1804.76a35,35,0,0,0,17.41.1,11.19,11.19,0,0,0,8.32-10.9V1619.12H711v174.63A11.41,11.41,0,0,0,719.79,1804.76Z" transform="translate(-441.22 -455)"/><path class="cls-33" d="M910.46,1545.54l-52.67-33.3c-2.19-12.44-27-142.56-127.81-183.42-41-16.62-85.11-14.64-109.31-13.56-48.33,2.16-82.8,3.7-99.38,26.75-21.29,29.6,14.42,56.44,7,141.11-3,34.53-10.68,49.86-1.13,72.74,11.44,27.4,38,42.59,58.6,51.13a300.16,300.16,0,0,0,124.3,39.7c95.52,8.37,166.83-32.6,191.35-48.28a31.56,31.56,0,0,0,21.41-23.7A27.83,27.83,0,0,0,910.46,1545.54Z" transform="translate(-441.22 -455)"/><path class="cls-34" d="M610,1322.21c-35.74,1.06-57.95.65-70.23,16.61-12.9,16.75.13,31,2.55,90.67,2.2,54.37-7.38,75.87,10.19,106,0,0,8.93,15.31,23,26.81C625.38,1603,753.9,1602.46,808,1517.6c43.15-67.69,25.16-167.48-25.54-200.49C757.6,1300.93,751.9,1318,610,1322.21Z" transform="translate(-441.22 -455)"/><path class="cls-35" d="M914.29,1515.64l-52.67-33.3S720.54,1436,590,1501.35a43.36,43.36,0,0,0-23.71,38.8,31.1,31.1,0,0,0,19.11,28.7c22.77,15.55,67.23,41.22,128.51,47.94,97.43,10.68,169.92-33.94,191.35-48.28a31.59,31.59,0,0,0,21.42-23.71A27.82,27.82,0,0,0,914.29,1515.64Z" transform="translate(-441.22 -455)"/><path class="cls-36" d="M1263.2,1328.66s-224.47,70.46-218.85-188.1L920,1177.34S907.94,1477.49,1217.8,1367Z" transform="translate(-441.22 -455)"/><path class="cls-37" d="M931.5,1931.94H911.21c-5,8.1-10.6,19.62-6.13,27,3.09,5.13,8.31,3.79,23,8.44,20.49,6.5,25.44,13.91,43,15.15,6.43.45,11.12.78,12.38-1.51C987,1974.48,959.17,1952.13,931.5,1931.94Z" transform="translate(-441.22 -455)"/><path class="cls-38" d="M928.37,1938.73c-1.72.7-3.42,1.45-5.08,2a8.7,8.7,0,0,1-11.52-8.27c0-.19,0-.39,0-.58a69.91,69.91,0,0,0-3.3-20.41l22.39-1c-1.71,9.92-1.11,17,.47,22.14A5,5,0,0,1,928.37,1938.73Z" transform="translate(-441.22 -455)"/><path class="cls-39" d="M1088.15,1877.47h-20.3c-5,8.1-10.59,19.62-6.13,27,3.1,5.13,8.31,3.8,23,8.44,20.49,6.5,25.44,13.91,43,15.15,6.43.46,11.12.79,12.38-1.5C1143.64,1920,1115.81,1897.67,1088.15,1877.47Z" transform="translate(-441.22 -455)"/><path class="cls-40" d="M1085,1884.26c-1.71.7-3.42,1.46-5.08,2.06a8.7,8.7,0,0,1-11.52-8.28v-.58a70.26,70.26,0,0,0-3.31-20.41l22.4-1c-1.72,9.91-1.12,17,.46,22.13A5,5,0,0,1,1085,1884.26Z" transform="translate(-441.22 -455)"/><path class="cls-41" d="M1087.93,1867a635,635,0,0,0,9.41-184.38c-8-82.64-12.24-126.42-45.41-166.94-31.19-38.09-60.21-39.41-129.61-103.91a720.18,720.18,0,0,1-50.94-52.4c-104.08-30.53-200.08-18.16-242.44,37.66-4.89,6.45-17.15,20.44-19.52,41.07-5.35,46.55,40.39,102.58,91.71,114.28,65.21,14.87,103-52.1,160.84-29.81,16.16,6.23,29.86,21.67,57.27,52.56a436.67,436.67,0,0,1,61.88,90.07c22.08,43.2,38.83,75.1,41.27,116.43.57,9.63.91,29.08,12.19,50.07a104.24,104.24,0,0,0,29.12,33.47Z" transform="translate(-441.22 -455)"/><path class="cls-42" d="M945.86,1907.65c-6.29,11.73-18.65,18.66-45.51,14.12-37.94-43.09-50.47-81.33-54.92-108.27-9.6-58.18,14.51-88.09-7.84-135-14.55-30.49-39.07-47.81-59.58-62.3-49.43-34.92-70.19-21.31-112.43-53.47-15.86-12.07-53.82-41-58.92-88.58-4.43-41.38,18.59-72.33,22.28-77.15,29.74-38.75,85.55-54.48,141.17-40.18A344.92,344.92,0,0,0,817.19,1440c31.7,41.27,52.32,48.33,84.73,89.45,15.14,19.21,41,52,54.63,98.37,7.93,27,9,49.06.29,157.4C954.13,1819.17,950.55,1860.49,945.86,1907.65Z" transform="translate(-441.22 -455)"/><path class="cls-43" d="M1044.35,1140.56c-5-64.8-182.27-149.44-322.78-90.37-166.41,70-168.13,293.92-168,310,.52,69.18,23.15,147.79,48.57,149.53,18.63,1.27,19.69-40,58.11-62.57,41.12-24.14,72.5,4.07,169.07,1.25,44-1.29,93.7-2.75,105.14-28.25,11.54-25.73-28.87-47.09-33.19-88.63C892.4,1246.19,1049.19,1203.31,1044.35,1140.56Z" transform="translate(-441.22 -455)"/><path class="cls-44" d="M584.4,1405.24c12.2-22.25,38.42-48.35,72.62-56.49,44.52-10.6,64.3,18.36,96.83,4.84,40-16.59,24.43-66.22,64.56-90.37,34.22-20.61,67.49,2.25,111.56.51-18.74,19.86-31.39,41.88-28.7,67.84,4.32,41.54,44.73,62.9,33.19,88.63-11.44,25.5-61.18,27-105.14,28.25-96.57,2.82-128-25.39-169.07-1.25-38.42,22.54-39.48,63.84-58.11,62.57-10.71-.74-20.92-15.15-29.2-36.73C570,1448.3,573.69,1424.75,584.4,1405.24Z" transform="translate(-441.22 -455)"/><path class="cls-45" d="M944.54,1054.57a65.08,65.08,0,0,1-18.11-4.69c-7.46-3.11-21-8.91-26.09-22a24.81,24.81,0,0,1-1.45-14.36c.42-1.92,1.92-8.93,7.58-12.51,6.11-3.87,10.07.67,16.78-2.19,9.55-4.09,8-16,15.17-17.63,6.35-1.41,8.6,7.66,20.56,9.67,6.5,1.09,7.43-1.32,16.33-.15,5.91.78,13.35,1.76,15.63,6.47,2.2,4.55-2.75,7.72-1.91,15.4s6.3,8.44,6.9,14.19c1.1,10.64-16.06,22.83-30.77,26.65A57.53,57.53,0,0,1,944.54,1054.57Z" transform="translate(-441.22 -455)"/><path class="cls-46" d="M950.12,1071.66l-8.83-28.81-6.2,3a62.43,62.43,0,0,1-38.82,5.25l-17.63-3.29a4.52,4.52,0,0,0-4.69,6.83c9.59,15.11,33.78,43.13,73.2,23.83A5.74,5.74,0,0,0,950.12,1071.66Z" transform="translate(-441.22 -455)"/><path class="cls-47" d="M926.88,1048.39a33.7,33.7,0,0,0,23.84,23.73c17.91,5.07,35.13-29.58,27.1-41-2.68-3.82-9.7-7.49-16.4-8.08-4-.35-5.74.58-12.2-.11-6-.63-7.28-1.72-9.44-1-2.71.84-5.8,4.15-6.67,15.76-2.08-4.23-5.61-6.82-9-6.6a6.56,6.56,0,0,0-3.19,1.24C916.82,1035.47,918.77,1042.11,926.88,1048.39Z" transform="translate(-441.22 -455)"/><path class="cls-22" d="M1294.63,1935.7h-.31a3.38,3.38,0,0,1-3.07-3.37v-617.8a3.38,3.38,0,0,1,6.76,0v581.15l101.08-543.44a3.38,3.38,0,1,1,6.64,1.24L1298,1932.94A3.38,3.38,0,0,1,1294.63,1935.7Z" transform="translate(-441.22 -455)"/><path class="cls-22" d="M1857.21,1953a3.38,3.38,0,0,1-3.33-2.83l-94.55-569.47a3.38,3.38,0,1,1,6.67-1.11l87.83,529V1382.24a3.38,3.38,0,1,1,6.76,0v567.42a3.37,3.37,0,0,1-3.1,3.36Z" transform="translate(-441.22 -455)"/><path class="cls-22" d="M471.79,2140.81l-.35,0a3.38,3.38,0,0,1-3-3.36V1512.05a3.38,3.38,0,0,1,6.76,0v593L600.39,1512a3.38,3.38,0,1,1,6.61,1.4L475.1,2138.13A3.39,3.39,0,0,1,471.79,2140.81Z" transform="translate(-441.22 -455)"/><path class="cls-22" d="M1128,2250a3.38,3.38,0,0,1-3.31-2.71L980,1536a3.38,3.38,0,1,1,6.62-1.34l137.92,678.45V1618.82a3.38,3.38,0,1,1,6.76,0v627.84a3.37,3.37,0,0,1-3,3.36Z" transform="translate(-441.22 -455)"/><path class="cls-3" d="M465.92,1504.41v10.77l663.55,108.24,733.73-238.78v-10.78C1748.29,1340,465.92,1504.41,465.92,1504.41Z" transform="translate(-441.22 -455)"/><polygon class="cls-23" points="812.61 863.03 24.7 1049.41 688.25 1157.64 1421.98 918.86 812.61 863.03"/><polygon class="cls-3" points="637.89 925.18 500.46 946.37 500.46 955.72 557.65 983.27 677.41 953.03 637.89 925.18"/><polygon class="cls-4" points="641.13 904.8 500.46 946.37 557.65 973.91 677.41 943.67 641.13 904.8"/><path class="cls-48" d="M1044.46,1468.81l22-289.78c.34-4.59,4.27-8.86,9.47-10.32l375.87-105.66c3.37-1,9.82,0,12.38,1.57s5.47,1.24,5.34,4.2l-15.71,267.79c-.26,4.46-3.93,8.68-8.94,10.31l-392.3,127.43Z" transform="translate(-441.22 -455)"/><path class="cls-49" d="M1052.53,1474.35l22.76-292.2c.35-4.58,4.28-8.84,9.47-10.3l375.89-105.67a11.83,11.83,0,0,1,9.36,1,7.89,7.89,0,0,1,3.85,7.18l-11.31,265.14c-.2,4.56-4,8.9-9.13,10.5Z" transform="translate(-441.22 -455)"/><path class="cls-50" d="M1052.53,1474.35,1453.42,1350c5.16-1.6,8.93-5.94,9.13-10.5l3.41-80c-119,75.94-268.85,105.26-408.31,149.11Z" transform="translate(-441.22 -455)"/><path class="cls-4" d="M1252,1483.25l-14.22,8.83-71.55-31.73c-.65-.29-3.42-3.74,0-5.17,18.09-7.53,87.12-25.37,87.12-25.37l35.93,17.07Z" transform="translate(-441.22 -455)"/><path class="cls-51" d="M1252,1478.09l-14.22,8.83-71.55-31.74c-4-1.79,87.12-30.53,87.12-30.53l35.93,17.06Z" transform="translate(-441.22 -455)"/><path class="cls-4" d="M1322.22,1254.36S1356.35,1437,1360,1447.18c3.31,9.39-93.36,39.87-116.47,45.65-1.92.48-4.79-.36-5.69-.75-6.59.6,24.1-220.5,24.1-220.5l2.25-.45Z" transform="translate(-441.22 -455)"/><path class="cls-52" d="M1322.22,1254.36s40.12,183.24,43.71,193.41-112,43.12-122.15,44.91c-6.59.6,20.36-221.55,20.36-221.55Z" transform="translate(-441.22 -455)"/><path class="cls-53" d="M965.49,1372.34l3.46,30.6s-140.27,60.45-259.13,0-71.39-285-71.39-285,38.06-69.21,125.21-59.52,38.8,119.42,23.44,192S799.38,1390.89,965.49,1372.34Z" transform="translate(-441.22 -455)"/><path class="cls-54" d="M965.49,1372.34l22.3-4.12a18,18,0,0,1,12.77,2.43L1025,1384c5.55,3,4.08,11.51-2.19,12.26a72.75,72.75,0,0,1-15.93.06c-21.51-2.15-28.07,5.78-38,6.65S946.12,1384.44,965.49,1372.34Z" transform="translate(-441.22 -455)"/><ellipse class="cls-3" cx="888.12" cy="2193.09" rx="167.22" ry="68.25"/><path class="cls-4" d="M1162.12,2640.09c0,35.57,74.87,64.42,167.22,64.42s167.21-28.85,167.21-64.42-74.86-93.8-167.21-93.8S1162.12,2604.51,1162.12,2640.09Z" transform="translate(-441.22 -455)"/><path class="cls-55" d="M1162.12,2640.09c0-35.58,74.87-93.8,167.22-93.8a226.83,226.83,0,0,1,111.07,29.29,24.26,24.26,0,0,1,2.64,12.72c-1.92,20-34.57,32.33-53.31,36.39-47.19,10.22-70.24-18-109.15-16.93-24.06.67-57.39,12.76-96.94,63.94C1170,2662.36,1162.12,2651.58,1162.12,2640.09Z" transform="translate(-441.22 -455)"/><path class="cls-4" d="M1320.18,2578.61a37.92,37.92,0,0,0,18.78.1,12.08,12.08,0,0,0,9-11.76V2378.4h-37.18v188.33A12.31,12.31,0,0,0,1320.18,2578.61Z" transform="translate(-441.22 -455)"/><path class="cls-56" d="M1320.18,2578.61a37.92,37.92,0,0,0,18.78.1,12.08,12.08,0,0,0,9-11.76V2378.4h-37.18v188.33A12.31,12.31,0,0,0,1320.18,2578.61Z" transform="translate(-441.22 -455)"/><path class="cls-57" d="M1525.81,2299.05,1469,2263.14c-2.36-13.41-29.13-153.74-137.84-197.81-44.2-17.92-91.77-15.79-117.88-14.62-52.12,2.32-89.29,4-107.17,28.84-23,31.93,15.55,60.87,7.57,152.19-3.25,37.23-11.52,53.77-1.22,78.44,12.34,29.55,41,45.93,63.2,55.15a323.75,323.75,0,0,0,134,42.8c103,9,179.91-35.16,206.35-52.06a34.05,34.05,0,0,0,23.1-25.57A30,30,0,0,0,1525.81,2299.05Z" transform="translate(-441.22 -455)"/><path class="cls-58" d="M1201.83,2058.21c-38.55,1.14-62.5.69-75.75,17.9-13.91,18.07.15,33.46,2.75,97.78,2.38,58.64-8,81.83,11,114.32,0,0,9.63,16.52,24.83,28.92,53.72,43.83,192.31,43.3,250.64-48.21,46.54-73,27.14-180.61-27.54-216.22C1361,2035.25,1354.81,2053.68,1201.83,2058.21Z" transform="translate(-441.22 -455)"/><path class="cls-59" d="M1529.94,2266.8l-56.8-35.91s-152.15-50-292.93,20.51a46.75,46.75,0,0,0-25.57,41.84,33.54,33.54,0,0,0,20.61,31c24.55,16.77,72.5,44.45,138.59,51.7,105.07,11.51,183.25-36.6,206.36-52.07a34,34,0,0,0,23.09-25.56A30,30,0,0,0,1529.94,2266.8Z" transform="translate(-441.22 -455)"/><path class="cls-60" d="M1906.21,2065.16s-242.07,76-236-202.85L1536.09,1902s-13,323.7,321.16,204.49Z" transform="translate(-441.22 -455)"/><path class="cls-61" d="M1548.5,2715.76h-21.89c-5.42,8.73-11.43,21.16-6.61,29.14,3.34,5.53,9,4.09,24.76,9.1,22.1,7,27.43,15,46.34,16.34,6.93.49,12,.84,13.35-1.63C1608.34,2761.63,1578.33,2737.54,1548.5,2715.76Z" transform="translate(-441.22 -455)"/><path class="cls-62" d="M1545.12,2723.08c-1.85.75-3.69,1.57-5.48,2.22a9.39,9.39,0,0,1-12.43-8.93v-.62a75.07,75.07,0,0,0-3.57-22l24.16-1.12c-1.85,10.69-1.21,18.32.5,23.87A5.43,5.43,0,0,1,1545.12,2723.08Z" transform="translate(-441.22 -455)"/><path class="cls-63" d="M1717.43,2657h-21.89c-5.42,8.73-11.43,21.15-6.61,29.14,3.34,5.53,9,4.09,24.76,9.1,22.1,7,27.43,15,46.34,16.34,6.93.49,12,.84,13.35-1.63C1777.27,2702.89,1747.26,2678.8,1717.43,2657Z" transform="translate(-441.22 -455)"/><path class="cls-64" d="M1714.05,2664.34c-1.85.75-3.69,1.57-5.48,2.22a9.39,9.39,0,0,1-12.43-8.93V2657a75.07,75.07,0,0,0-3.57-22l24.16-1.12c-1.85,10.69-1.21,18.32.5,23.87A5.43,5.43,0,0,1,1714.05,2664.34Z" transform="translate(-441.22 -455)"/><path class="cls-65" d="M1717.19,2645.75c16.48-83.66,14.62-152.76,10.16-198.84-8.63-89.13-13.21-136.34-49-180-33.64-41.08-64.93-42.5-139.77-112.06a775.72,775.72,0,0,1-54.94-56.51c-112.24-32.93-215.77-19.58-261.45,40.61-5.28,7-18.5,22.05-21,44.29-5.77,50.2,43.55,110.63,98.89,123.25,70.34,16,111.14-56.18,173.46-32.15,17.43,6.72,32.21,23.37,61.77,56.69a471.36,471.36,0,0,1,66.73,97.12c23.81,46.6,41.87,81,44.5,125.57.62,10.38,1,31.36,13.15,54a112.59,112.59,0,0,0,31.4,36.11Z" transform="translate(-441.22 -455)"/><path class="cls-66" d="M1564,2689.56c-6.78,12.65-20.11,20.12-49.08,15.23-40.91-46.47-54.43-87.71-59.22-116.76-10.36-62.74,15.65-95-8.47-145.54-15.69-32.88-42.12-51.56-64.24-67.18-53.31-37.67-75.7-23-121.26-57.66-17.1-13-58-44.18-63.53-95.53-4.78-44.63,20-78,24-83.21,32.07-41.79,92.25-58.75,152.24-43.33a372.46,372.46,0,0,0,50.76,89.69c34.19,44.5,56.43,52.12,91.39,96.46,16.33,20.71,44.2,56.08,58.91,106.08,8.56,29.07,9.66,52.92.32,169.76C1572.9,2594.14,1569,2638.7,1564,2689.56Z" transform="translate(-441.22 -455)"/><path class="cls-67" d="M1670.19,1862.31c-5.39-69.89-196.56-161.16-348.09-97.47-179.46,75.44-181.31,317-181.18,334.38.56,74.6,25,159.37,52.38,161.25,20.09,1.37,21.24-43.16,62.67-67.48,44.35-26,78.18,4.4,182.33,1.35,47.41-1.39,101-3,113.39-30.46,12.44-27.75-31.13-50.78-35.79-95.59C1506.33,1976.22,1675.41,1930,1670.19,1862.31Z" transform="translate(-441.22 -455)"/><path class="cls-68" d="M1174.16,2147.74c13.17-24,41.45-52.14,78.32-60.91,48-11.44,69.35,19.79,104.43,5.22,43.09-17.9,26.35-71.42,69.62-97.47,36.91-22.22,72.78,2.43,120.31.56-20.2,21.41-33.85,45.16-30.94,73.15,4.66,44.81,48.23,67.84,35.79,95.59-12.34,27.5-66,29.07-113.39,30.46-104.15,3-138-27.37-182.33-1.35-41.43,24.32-42.58,68.85-62.67,67.48-11.55-.79-22.56-16.33-31.49-39.6C1158.58,2194.18,1162.62,2168.79,1174.16,2147.74Z" transform="translate(-441.22 -455)"/><path class="cls-69" d="M1559.06,1756.93l-6.69,3.26a67.37,67.37,0,0,1-41.87,5.67l-19-3.55a4.88,4.88,0,0,0-5.06,7.37c10.72,16.89,38.35,48.73,83.65,23.22Z" transform="translate(-441.22 -455)"/><path class="cls-70" d="M1602.21,1756.15c8.8-5.71,13.86-19.38,9.76-30.61-3.52-9.66-12.7-14.12-18.19-16.78-15.89-7.71-38.94-8.36-51.14,3.84-7.21,7.23-4.12,28.68-3.78,32.46.4,4.28,2.93,6.61,4.74,10.39,2.5,5.24,6.38,13.53,12.63,27.34a66.52,66.52,0,0,1,7.43-9.54,59.75,59.75,0,0,1,12.15-10C1587.88,1756.14,1593.87,1761.56,1602.21,1756.15Z" transform="translate(-441.22 -455)"/><path class="cls-71" d="M1545.27,1769.13s5,21.16,27,27.58c19.76,5.77,37-35.47,27.6-48.87-3.12-4.47-11-8.66-18.3-9.22-4.33-.33-6.21.79-13.27.11-6.51-.62-8-1.87-10.29-1-2.89,1-6.08,5-6.48,18.67-2.44-4.94-6.38-7.91-10-7.59a6.69,6.69,0,0,0-3.38,1.51C1533.81,1754.13,1536.23,1761.88,1545.27,1769.13Z" transform="translate(-441.22 -455)"/><path class="cls-72" d="M1558,1734.86c.7,1-3.29,3.37-5.12,8.09-3.55,9.14,2.32,23.74,11.84,28.23,5.64,2.65,8.4-.19,18.38,2.28a48.78,48.78,0,0,1,13.83,5.85c-.43,11.31-6.74,20.45-15.36,22.64-9.26,2.35-17.84-4.21-21.42-7-2.4-1.83-10.08-7.68-12-17-2-9.7,4.26-12.88.72-20.23-1.79-3.71-4.94-6.17-6.62-12.7a27.63,27.63,0,0,1-.74-4.26C1548.19,1737.46,1556.93,1733.4,1558,1734.86Z" transform="translate(-441.22 -455)"/><path class="cls-73" d="M1588.56,1780.57s-4.9.62-12-2.37c-.34-.15-.76-.19-.87,0-.39.61,3.23,5.26,7.89,5.63,3.32.26,6.62-1.68,6.46-2.54C1590,1780.9,1589.27,1780.7,1588.56,1780.57Z" transform="translate(-441.22 -455)"/><path class="cls-22" d="M1940.11,2719.81h-.34a3.65,3.65,0,0,1-3.31-3.63V2049.91a3.65,3.65,0,0,1,7.29,0v626.73l109-586.06a3.64,3.64,0,1,1,7.16,1.33l-116.23,624.92A3.66,3.66,0,0,1,1940.11,2719.81Z" transform="translate(-441.22 -455)"/><path class="cls-22" d="M2546.81,2738.51a3.65,3.65,0,0,1-3.59-3.05l-102-614.14a3.64,3.64,0,0,1,7.19-1.19l94.72,570.53V2122.94a3.65,3.65,0,0,1,7.29,0v611.92a3.65,3.65,0,0,1-3.34,3.64Z" transform="translate(-441.22 -455)"/><path class="cls-22" d="M1052.73,2941a2.36,2.36,0,0,1-.38,0,3.64,3.64,0,0,1-3.27-3.62V2262.93a3.65,3.65,0,0,1,7.29,0v639.54l135-639.57a3.65,3.65,0,0,1,7.14,1.51l-142.26,673.71A3.64,3.64,0,0,1,1052.73,2941Z" transform="translate(-441.22 -455)"/><path class="cls-22" d="M1760.37,3058.81a3.64,3.64,0,0,1-3.57-2.92l-156-767.17a3.64,3.64,0,0,1,7.14-1.45l148.73,731.67V2378.08a3.65,3.65,0,0,1,7.29,0v677.08a3.64,3.64,0,0,1-3.27,3.63Z" transform="translate(-441.22 -455)"/><path class="cls-3" d="M1046.4,2254.69v11.62L1762,2383l791.29-257.52V2113.9C2429.35,2077.36,1046.4,2254.69,1046.4,2254.69Z" transform="translate(-441.22 -455)"/><polygon class="cls-23" points="1454.89 1598.7 605.18 1799.69 1320.77 1916.42 2112.05 1658.9 1454.89 1598.7"/><polygon class="cls-3" points="1266.46 1665.73 1118.26 1688.57 1118.26 1698.66 1179.93 1728.36 1309.08 1695.75 1266.46 1665.73"/><polygon class="cls-4" points="1269.96 1643.74 1118.26 1688.57 1179.93 1718.27 1309.08 1685.66 1269.96 1643.74"/><path class="cls-74" d="M1670.31,2216.3,1694,1903.79c.38-4.94,4.61-9.55,10.22-11.13l405.35-114c3.63-1,10.59,0,13.35,1.7s5.9,1.34,5.76,4.53l-16.94,288.8c-.28,4.8-4.23,9.35-9.64,11.11L1679,2222.28Z" transform="translate(-441.22 -455)"/><path class="cls-75" d="M1679,2222.28l24.54-315.12c.39-4.94,4.62-9.54,10.22-11.11l405.37-114a12.76,12.76,0,0,1,10.1,1.1,8.54,8.54,0,0,1,4.15,7.75l-12.2,285.93c-.21,4.92-4.29,9.6-9.85,11.33Z" transform="translate(-441.22 -455)"/><path class="cls-76" d="M1679,2222.28l432.33-134.08c5.56-1.73,9.64-6.41,9.85-11.33l3.68-86.23c-128.34,81.89-289.94,113.51-440.34,160.8Z" transform="translate(-441.22 -455)"/><path class="cls-4" d="M1894.15,2231.88l-15.34,9.52-77.17-34.22c-.69-.31-3.68-4,0-5.57,19.51-8.12,94-27.37,94-27.37l38.75,18.41Z" transform="translate(-441.22 -455)"/><path class="cls-77" d="M1894.15,2226.31l-15.34,9.52-77.17-34.22c-4.36-1.94,94-32.94,94-32.94l38.75,18.41Z" transform="translate(-441.22 -455)"/><path class="cls-4" d="M1969.86,1985S2006.67,2182,2010.55,2193c3.57,10.14-100.68,43-125.6,49.24-2.08.52-5.17-.39-6.14-.81-7.1.65,26-237.8,26-237.8l2.42-.48Z" transform="translate(-441.22 -455)"/><path class="cls-78" d="M1969.86,1985s43.27,197.6,47.14,208.58-120.75,46.49-131.73,48.43c-7.1.64,22-238.93,22-238.93Z" transform="translate(-441.22 -455)"/><path class="cls-79" d="M1585.15,2112.27l3.73,33s-151.27,65.19-279.45,0-77-307.32-77-307.32,41-74.63,135-64.19,41.84,128.79,25.27,207.12S1406,2132.27,1585.15,2112.27Z" transform="translate(-441.22 -455)"/><path class="cls-80" d="M1585.15,2112.27l24-4.45a19.42,19.42,0,0,1,13.77,2.62l26.41,14.37c6,3.26,4.39,12.41-2.37,13.22a78.42,78.42,0,0,1-17.17.06c-23.21-2.32-30.28,6.24-41,7.18S1564.26,2125.31,1585.15,2112.27Z" transform="translate(-441.22 -455)"/><path class="cls-81" d="M2763.66,2468.34s2,16.18.67,21.6-48.42,9.34-64.39,7.46,9.51-18.2,19.69-21.26S2763.66,2468.34,2763.66,2468.34Z" transform="translate(-441.22 -455)"/><path class="cls-82" d="M2740,2441.34l5,32.47s12.64,5.69,18.72.07l.67-34Z" transform="translate(-441.22 -455)"/><path class="cls-83" d="M3005.23,2439.89s-10,7.41-7.32,16.28,26,44.43,42.56,54.52,11.39-10.93,6.56-24-17.17-41.93-22-46.77S3005.23,2439.89,3005.23,2439.89Z" transform="translate(-441.22 -455)"/><path class="cls-84" d="M2987.27,2404.22c4.83,13.45,9.47,24.51,13.1,32.67,8,18.05,12.42,24.82,17.39,30.69,4.34,5.12,14.61,16,17.37,14.21s-4.71-15.11-19.19-54c-2.1-5.64-8.74-23.61-8.74-23.61h-19.93Z" transform="translate(-441.22 -455)"/><path class="cls-85" d="M2641.44,1842.1a839.9,839.9,0,0,0-1.81,150c6.44,83,23,135.5,43.84,224,12.72,54.07,29.86,133.66,45.36,233.2a43.88,43.88,0,0,0,27.82,5.45,42.21,42.21,0,0,0,16.71-6.35c40.68-124.33,28.67-201.38,9-249.38-8.37-20.46-18.52-36.6-23.94-68.06-7.18-41.61,1.7-64.87,14.35-161.26,9-68.7,7.46-79.32,1.46-89.63C2750.27,1838.86,2676.89,1839.66,2641.44,1842.1Z" transform="translate(-441.22 -455)"/><path class="cls-86" d="M2781.49,1856.56c24.92,128.73,49.39,196.33,67.9,234.57a643.59,643.59,0,0,1,34.2,83.48c12.75,38.61,18.06,67,20.78,79.51,8.59,39.46,29.83,97.07,87,172.63.71.42,10.46,5.93,19.77,1a19.07,19.07,0,0,0,8-8.3c-7.47-72.25-16-132.95-23.49-179.81-1.56-9.82-8.44-52.82-19.23-109.62-4.22-22.23-10.41-54.8-17.82-88.25-9.22-41.66-23.37-98.34-45.18-166.25Z" transform="translate(-441.22 -455)"/><path class="cls-87" d="M2760.25,1347.41c-14.13-13.06-41.17-28.13-54.74-63.14-4.08-10.54-18.55-47.89,2.79-76.45,12.66-17,36.19-28.48,56.92-24.4,17.72,3.48,20.49,15.82,50.6,40.66,11.72,9.67,30.56,25.21,51.52,33.84,35.92,14.81,57.5.88,93.56,2.47,44.31,1.95,95.77,26.67,120.56,62.63,44,63.81-19.74,128.54,28.47,203.3,15.79,24.49,23.58,19,61,66.41s56.19,71.2,52.85,100.29c-4.62,40.37-48.1,78.93-89.05,81.55-40,2.56-65.42-28.91-85.78-15.14-14.5,9.79-6.21,28.85-21.6,51.74-19.84,29.53-58.85,35.41-65.14,36.36-58.47,8.81-137.29-59.74-170.77-141C2731.06,1560.11,2837.1,1418.45,2760.25,1347.41Z" transform="translate(-441.22 -455)"/><path class="cls-88" d="M2520.36,1388.07c-.39-40.88,92.47-73.55,135-84.07,66.1-16.38,119-6.1,131.89-3.38,82.43,17.47,133.77,66.93,153.09,87.72-15.82,10.31-59.48,41.74-81.11,101.38-6.73,18.56-26.6,82,1.82,141.41,16.38,34.24,45.36,59.94,67.36,79.47,33,29.28,50.1,33.78,61.17,60,12.05,28.57-.09,42.5,14.87,62.05,16.07,21,34.9,11.24,62.15,32.48,27.9,21.76,18,39.66,43.37,63.7,36.9,34.93,85.81,23.59,88.09,39.31,2,13.52-32.8,31.86-62.34,39.3-58.5,14.74-109.52-10-124.69-17.62-42-21.1-34.75-34.76-66.78-50.85-53.63-26.93-90.27,3-212.42,6.13-66.14,1.67-99.59,2.05-117.91-20.33-16.73-20.44-7.94-42.86,2.1-139.49,4.78-46,6.51-92.26,10-138.36,10-130.41,10.27-141.89,1.42-159.92C2595.75,1422.42,2520.72,1424.76,2520.36,1388.07Z" transform="translate(-441.22 -455)"/><g class="cls-89"><path class="cls-90" d="M3109.93,1928.84c-25.4-24-15.47-41.94-43.37-63.7-27.25-21.24-46.08-11.47-62.15-32.48-15-19.55-2.82-33.48-14.87-62.05-11.07-26.23-28.16-30.73-61.17-60-22-19.53-51-45.23-67.36-79.47-28.42-59.42-8.55-122.85-1.82-141.41,21.63-59.64,65.29-91.07,81.11-101.38-1.52-1.64-3.32-3.51-5.24-5.48-104.25,14.33-165,74.57-172.55,92.4-17.37,41.23,10.14,56.38,10.85,175.29.33,56.84-5.8,79.29,12.65,103,21.09,27.13,45.39,18.73,75.89,54.21,23.44,27.25,19.68,44.54,41.57,56,23.53,12.34,38.51-2,65.05,3.62,44.34,9.45,53.82,60.57,83.13,88.54,22.16,21.15,63.14,35.94,144,20.07,1.87-2.73,2.77-5.38,2.41-7.87C3195.74,1952.43,3146.83,1963.77,3109.93,1928.84Z" transform="translate(-441.22 -455)"/></g><path class="cls-91" d="M2794.14,1507.34c-11.09,23.53,39.84,78.34,96.44,104.37,11.53,5.31,94.34,43.38,131.25,6.77,30.5-30.26,10.81-92.82,3.79-115.16-34.51-109.67-140.47-165.46-184.88-185.59-33.15,82.87-13.63,119.8-5.94,131.33,8,12,30.42,37.35,54.21,59.64,16.73,15.67,27.15,23.3,25.75,25.75-1.74,3-21.36-2.71-97.54-39.79C2808.39,1496.09,2797.92,1499.3,2794.14,1507.34Z" transform="translate(-441.22 -455)"/><path class="cls-92" d="M2475.37,1372.14l37.38,186.15a15.28,15.28,0,0,0,11.77,11.93L2803.24,1630a15.27,15.27,0,0,0,18.43-16.12L2807,1424.6A15.25,15.25,0,0,0,2795.4,1411c-44.21-10.91-214.39-51.78-304.14-57.09A15.27,15.27,0,0,0,2475.37,1372.14Z" transform="translate(-441.22 -455)"/><path class="cls-93" d="M2753.37,1236.18s5.26,42,20.77,51.66,40.59,22.21,43.36,25.62-96.1,14-145.1-10.68h0c16.15-3.37,20.54-4.61,20.54-4.61a91,91,0,0,0,20.75-8.21,70.49,70.49,0,0,0,22.81-21.1l-.18-23.27Z" transform="translate(-441.22 -455)"/><path class="cls-94" d="M2752.08,1243.71s-2,17.06-18.66,19.8c-14.92,2.45-25.52-33.67-17.76-42.84,2.59-3.06,8.91-5.91,14.34-5.66,3.82.17,16.65,5.3,18.23,18.24,2.62-2.66,5.84-3.39,7.4-2.23,2,1.47.83,5.64.57,6.58A12,12,0,0,1,2752.08,1243.71Z" transform="translate(-441.22 -455)"/><path class="cls-95" d="M2726.37,1533.09c-29.93-8.44-54.76,12.52-78.61-4.06-24.43-17-8.48-46-33.88-74.55-27.16-30.51-61.61-15.56-86.74-43.37-9.33-10.32-17.72-27.14-17.85-55.82-6.3-.61-12.33-1.09-18-1.43a15.27,15.27,0,0,0-15.89,18.28l37.38,186.15a15.28,15.28,0,0,0,11.77,11.93l267.86,57.48C2773.47,1561.35,2748.23,1539.25,2726.37,1533.09Z" transform="translate(-441.22 -455)"/><path class="cls-96" d="M2495,1470.38s-17.77-16.43-19.71-35.52,11.48-34.37,24.48-38.26,19.94,1.85,11.21,20.64S2488.37,1448.24,2495,1470.38Z" transform="translate(-441.22 -455)"/><path class="cls-97" d="M1015.61,2938.33c-127.48-16.38-289.11-59.42-354-180.77-15.44-28.86-30.94-84.94,8-106.06,35.63-19.31,81.7,1.08,108.19,26.2,19.47,18.47,34.66,59.7,56.54,72.73,32,19.08,49.26-33,48.58-54.46-1.5-48-60.59-67.7-99.86-78.13-65.18-17.32-141.08-32.16-137-105.62s75.7-117.51,130.8-85.38c45.39,26.48,39,83,70,116.91,27.56,30.13,37.15-18.77,35.31-42.74-4-52.08-49.79-89.74-83.47-124.63-38.09-39.45-80.17-118.83-39.57-171,23.36-30,82.71-37,117.79-32,171.7,24.8,57.85,247,89.06,271.79s60.76-18.6,60.68-84.59,10-114.66,78.89-93.54,82,193.49,3.34,259.73,4.94,138.51,26,91c15.24-34.28,28.64-124,72.68-133.89,73.4-16.38,72.31,133.48,51.19,168.36-29.61,48.89-96.56,59.52-133.95,101.7-10.86,12.25-35.39,42.6-25.86,60.51,13.29,25,50.35-1.74,64-13.32,30.62-26,73-114.48,116.13-55.74C1332.39,2818,1243.32,2925.52,1015.61,2938.33Z" transform="translate(-441.22 -455)"/><g class="cls-98"><path class="cls-4" d="M997.25,2924c3,0,5.45-1.64,5.5-4.64,0-2.61,3.6-263.54-110.52-574.34a5.42,5.42,0,0,0-7.07-3.08,5.61,5.61,0,0,0-3.27,7.17c113.41,308.87,109.89,567.41,109.85,570-.06,3,2.36,4.9,5.4,4.9Z" transform="translate(-441.22 -455)"/></g><path class="cls-99" d="M950.36,2826.53c20.67-17.58,64.57,9.91,82.79,20.37,10.57,6.07,25,15.38,37.75,10,13.36-5.68,12.42-19.7,4.34-29.63-14.46-17.79-42.21-22.68-62.37-31.35-21.66-9.31-41.55-22-52.23-43.85-8.52-17.43-10.46-43.2-.88-60.36,26.54-47.51,65.16-10.44,86.76,17.9,10.48,13.75,34,37.44,51.75,21.22,18.92-17.24,2.68-48-12-61.56-19.2-17.72-42.43-30-63.32-45.45-18.85-13.89-38.2-33.79-25.66-58.42,9.7-19,34.09-29.55,54.92-27.94,48.15,3.73,55.66,74,87.37,101,11.22,9.55,36.71,17.14,50.08,7.77,13.61-9.55,4.77-31.39-.13-43.32-14.52-35.33-118.7-153.78-32.36-168.66,21.73-3.74,51.68,3.1,68.75,16.91,32.22,26.07,49.31,77.69,57.8,116.86,13.34,61.63,12.59,130.07-2.31,191.35-32.93,135.44-110.32,178.95-110.32,178.95-33.47,11-75.32,16.45-110,9.1-40.78-8.63-89.56-38.82-109.73-76.49C944.81,2858.75,937.56,2837.42,950.36,2826.53Z" transform="translate(-441.22 -455)"/></g></g></svg>