<svg xmlns="http://www.w3.org/2000/svg" xmlns:xlink="http://www.w3.org/1999/xlink" viewBox="0 0 3710 3710"><defs><style>.cls-1{isolation:isolate;}.cls-15,.cls-2{fill:#fff;}.cls-3{fill:url(#linear-gradient);}.cls-4{fill:#bdd0fb;}.cls-5{fill:#7d97f4;}.cls-13,.cls-6{fill:#91b3fa;}.cls-7{fill:url(#linear-gradient-2);}.cls-8{fill:url(#linear-gradient-3);}.cls-9{fill:#f0f0f0;}.cls-10{opacity:0.3;}.cls-11{fill:url(#linear-gradient-4);}.cls-12{fill:url(#linear-gradient-5);}.cls-13{opacity:0.32;}.cls-14{fill:url(#linear-gradient-6);}.cls-15{mix-blend-mode:soft-light;}.cls-16{fill:url(#linear-gradient-7);}.cls-17{fill:url(#linear-gradient-8);}.cls-18{fill:url(#linear-gradient-9);}.cls-19{fill:url(#linear-gradient-10);}.cls-20{fill:url(#linear-gradient-11);}.cls-21{fill:url(#linear-gradient-12);}.cls-22{fill:url(#linear-gradient-13);}.cls-23{fill:url(#linear-gradient-14);}.cls-24{fill:url(#linear-gradient-15);}.cls-25{fill:url(#linear-gradient-16);}.cls-26{fill:url(#linear-gradient-17);}.cls-27{fill:url(#linear-gradient-18);}.cls-28{fill:url(#linear-gradient-19);}.cls-29{fill:url(#linear-gradient-20);}.cls-30{fill:url(#linear-gradient-21);}.cls-31{fill:url(#linear-gradient-22);}.cls-32{fill:url(#linear-gradient-23);}.cls-33{fill:url(#linear-gradient-24);}.cls-34{fill:url(#linear-gradient-25);}.cls-35{fill:url(#linear-gradient-26);}.cls-36{fill:url(#linear-gradient-27);}.cls-37{fill:url(#linear-gradient-28);}.cls-38{fill:url(#linear-gradient-29);}.cls-39{fill:url(#linear-gradient-30);}.cls-40{fill:url(#linear-gradient-31);}.cls-41{fill:url(#linear-gradient-32);}.cls-42{fill:url(#linear-gradient-33);}</style><linearGradient id="linear-gradient" x1="3591.58" y1="4006.17" x2="1141.92" y2="963.84" gradientUnits="userSpaceOnUse"><stop offset="0" stop-color="#dae3fe"/><stop offset="1" stop-color="#e9effd"/></linearGradient><linearGradient id="linear-gradient-2" x1="266.99" y1="1468.78" x2="-9.6" y2="2810.63" gradientTransform="matrix(-0.99, -0.12, -0.12, 0.99, 1353.75, 151.22)" gradientUnits="userSpaceOnUse"><stop offset="0" stop-color="#09005d"/><stop offset="1" stop-color="#1a0f91"/></linearGradient><linearGradient id="linear-gradient-3" x1="502.24" y1="1418.23" x2="634.32" y2="1418.23" xlink:href="#linear-gradient"/><linearGradient id="linear-gradient-4" x1="1405.36" y1="2546" x2="3653.44" y2="1057.95" gradientTransform="matrix(1, 0, 0, 1, 0, 0)" xlink:href="#linear-gradient-2"/><linearGradient id="linear-gradient-5" x1="781.3" y1="2180.72" x2="3101.18" y2="2180.72" gradientUnits="userSpaceOnUse"><stop offset="0" stop-color="#4f52ff"/><stop offset="1" stop-color="#4042e2"/></linearGradient><linearGradient id="linear-gradient-6" x1="1919.67" y1="2867.37" x2="1496.72" y2="1081.6" gradientTransform="translate(3886.72 5934.83) rotate(-180)" xlink:href="#linear-gradient-2"/><linearGradient id="linear-gradient-7" x1="1353.66" y1="-61.87" x2="1343.58" y2="603.37" gradientUnits="userSpaceOnUse"><stop offset="0" stop-color="#ff928e"/><stop offset="1" stop-color="#fe7062"/></linearGradient><linearGradient id="linear-gradient-8" x1="333.54" y1="1802.49" x2="492.76" y2="1802.49" gradientTransform="translate(905.29 24.5) rotate(-6.43)" gradientUnits="userSpaceOnUse"><stop offset="0" stop-color="#febbba"/><stop offset="1" stop-color="#ff928e"/></linearGradient><linearGradient id="linear-gradient-9" x1="1886.93" y1="-53.8" x2="1876.85" y2="611.44" xlink:href="#linear-gradient-7"/><linearGradient id="linear-gradient-10" x1="1988.5" y1="1506.18" x2="1988.5" y2="2136.83" xlink:href="#linear-gradient-5"/><linearGradient id="linear-gradient-11" x1="1921.71" y1="2251.38" x2="1939.7" y2="1865.73" gradientTransform="matrix(0.74, -0.67, 0.67, 0.74, -879.95, 1400.9)" xlink:href="#linear-gradient-5"/><linearGradient id="linear-gradient-12" x1="2255.3" y1="884.83" x2="2100.75" y2="1335.06" xlink:href="#linear-gradient-5"/><linearGradient id="linear-gradient-13" x1="2280.27" y1="893.4" x2="2125.71" y2="1343.63" xlink:href="#linear-gradient-5"/><linearGradient id="linear-gradient-14" x1="6505.47" y1="2077.05" x2="6810.48" y2="1694.59" gradientTransform="matrix(-0.88, 0.48, 0.48, 0.88, 6749.69, -3253.15)" xlink:href="#linear-gradient-2"/><linearGradient id="linear-gradient-15" x1="3869.22" y1="3416.75" x2="4015.51" y2="3769.56" gradientTransform="matrix(-0.68, -0.73, -0.73, 0.68, 7241.38, 1811.61)" xlink:href="#linear-gradient-2"/><linearGradient id="linear-gradient-16" x1="6426.09" y1="-1292.04" x2="6253.06" y2="-961.08" gradientTransform="matrix(-0.68, -0.73, -0.73, 0.68, 7241.38, 1811.61)" xlink:href="#linear-gradient-2"/><linearGradient id="linear-gradient-17" x1="6246.64" y1="-1151.29" x2="6073.61" y2="-820.33" gradientTransform="matrix(-0.68, -0.73, -0.91, 0.85, 7425.94, 1639.61)" xlink:href="#linear-gradient-2"/><linearGradient id="linear-gradient-18" x1="199.46" y1="-1490.42" x2="189.38" y2="-825.18" gradientTransform="translate(905.29 24.5) rotate(-6.43)" xlink:href="#linear-gradient-7"/><linearGradient id="linear-gradient-19" x1="694.08" y1="1837.2" x2="350.05" y2="2265.21" xlink:href="#linear-gradient-8"/><linearGradient id="linear-gradient-20" x1="759.31" y1="1889.62" x2="415.27" y2="2317.64" xlink:href="#linear-gradient-8"/><linearGradient id="linear-gradient-21" x1="1378.89" y1="1472.68" x2="1231.89" y2="1989.73" gradientTransform="matrix(1, 0, 0, 1, 0, 0)" xlink:href="#linear-gradient-8"/><linearGradient id="linear-gradient-22" x1="9107.93" y1="2158.85" x2="8925.46" y2="2298.47" gradientTransform="translate(-7986.17 913.52) rotate(-8.49)" xlink:href="#linear-gradient-8"/><linearGradient id="linear-gradient-23" x1="8979.47" y1="2048.3" x2="9149.43" y2="2267.11" gradientTransform="translate(-7986.17 913.52) rotate(-8.49)" xlink:href="#linear-gradient-2"/><linearGradient id="linear-gradient-24" x1="9085.3" y1="2129.27" x2="8902.83" y2="2268.89" gradientTransform="translate(-7986.17 913.52) rotate(-8.49)" xlink:href="#linear-gradient-8"/><linearGradient id="linear-gradient-25" x1="1397.13" y1="3092.14" x2="817.43" y2="3722.69" gradientTransform="matrix(1, 0, 0, 1, 0, 0)" xlink:href="#linear-gradient-2"/><linearGradient id="linear-gradient-26" x1="1208.97" y1="3138.98" x2="1260.46" y2="3138.98" gradientTransform="matrix(1, 0, 0, 1, 0, 0)" xlink:href="#linear-gradient-8"/><linearGradient id="linear-gradient-27" x1="1442.77" y1="2379.07" x2="949.51" y2="3047.62" gradientTransform="matrix(1, 0, 0, 1, 0, 0)" xlink:href="#linear-gradient-2"/><linearGradient id="linear-gradient-28" x1="1267.08" y1="2972.59" x2="687.39" y2="3603.13" gradientTransform="matrix(1, 0, 0, 1, 0, 0)" xlink:href="#linear-gradient-2"/><linearGradient id="linear-gradient-29" x1="1023.39" y1="3136.34" x2="1067.85" y2="3136.34" gradientTransform="matrix(1, 0, 0, 1, 0, 0)" xlink:href="#linear-gradient-8"/><linearGradient id="linear-gradient-30" x1="1348.33" y1="2309.39" x2="855.07" y2="2977.94" gradientTransform="matrix(1, 0, 0, 1, 0, 0)" xlink:href="#linear-gradient-2"/><linearGradient id="linear-gradient-31" x1="1178.85" y1="2142.28" x2="1136.93" y2="2539.32" gradientTransform="matrix(1, 0, 0, 1, 0, 0)" xlink:href="#linear-gradient-2"/><linearGradient id="linear-gradient-32" x1="1219.66" y1="1939.77" x2="1166.9" y2="2439.4" gradientTransform="matrix(1, 0, 0, 1, 0, 0)" xlink:href="#linear-gradient-2"/><linearGradient id="linear-gradient-33" x1="1173.65" y1="1938.24" x2="1106.33" y2="2575.8" gradientTransform="matrix(1, 0, 0, 1, 0, 0)" xlink:href="#linear-gradient-2"/></defs><g class="cls-1"><g id="Background"><rect class="cls-2" width="3710" height="3710"/></g><g id="Illustration"><path class="cls-3" d="M2935.12,2794.21c-57.22,58.57-111.37,96.34-154.15,126.18-502.86,350.8-1097.88,248.54-1224.34,223.57-186.74-36.87-547.7-108.15-808.67-406.53C353.14,2286,414.62,1574.82,720.87,1105.35c56-85.87,351.92-562.49,953.35-638.93,364-46.26,788.26,47,1095.51,297.31C3414.68,1289.07,3368.77,2350.35,2935.12,2794.21Z"/><path class="cls-4" d="M1515.52,2936.73c-163.55,32.3-371.88-146.41-438.68-341.26-68.73-200.53,58.35-284.17,58-562.2-.37-315.84-164.55-363.82-272.23-789.79-24.29-96.11-164.88-652.28,11.22-756C1036.67,391.48,1492.75,669,1572,1023c56.49,252.44-120.21,358-53.5,652,58.52,258,213.92,262.08,272.88,511C1863.13,2489.05,1730.25,2894.31,1515.52,2936.73Z"/><path class="cls-5" d="M1503.47,3013.21c44.86-340.18-39.88-865.36-118.87-1246-85.51-412.14-182.88-748.38-183.85-751.73l-13.61,4c1,3.34,98.2,339.14,183.61,750.75,78.75,379.56,163.26,903,118.66,1241.2Z"/><path class="cls-6" d="M1209,2852.32c231.35-86.83,353.24-467,245-608.53-73.13-95.65-203.9-20.35-308.69-123-133.79-131.11.73-330.92-81.62-621.36-70.08-247.17-279.81-498.53-423.78-469.75-150.7,30.13-246.11,377.72-148.39,606.19,63.55,148.58,161.77,168.09,172.76,300.41,12.75,153.54-145.37,203.58-163.88,348.67C467.16,2545.54,903,2967.18,1209,2852.32Z"/><path class="cls-7" d="M1079.48,2937.68a8.76,8.76,0,0,0,4-.42,8.92,8.92,0,0,0,5.54-11.34C873,2296.53,872.5,1596.84,872.52,1589.85a8.93,8.93,0,1,0-17.85,0c0,7,.52,709.71,217.44,1341.92A8.93,8.93,0,0,0,1079.48,2937.68Z"/><path class="cls-8" d="M624.91,1740.85a4.22,4.22,0,0,0,2.7-.58,4.27,4.27,0,0,0,1.47-5.85c-76.79-127.94-156.28-315.77-98.91-484.09,34.17-100.25,101.59-146.48,102.27-146.94a4.26,4.26,0,1,0-4.77-7.07c-2.86,1.92-70.48,48.31-105.57,151.26-32.25,94.61-41.14,256.64,99.66,491.23A4.28,4.28,0,0,0,624.91,1740.85Z"/><path class="cls-9" d="M1235,2802.81a4.25,4.25,0,0,0,3.72-1.41c164.78-187.11,231.71-339.05,198.93-451.59-29.13-100.06-129.81-130.29-130.83-130.59a4.27,4.27,0,0,0-2.37,8.2c1,.28,97.28,29.33,125,124.88,31.83,109.55-34.51,258.75-197.17,443.46a4.26,4.26,0,0,0,2.68,7Z"/><g class="cls-10"><path class="cls-6" d="M2565.37,1116.45a12.73,12.73,0,0,1-12.2-13.25c.55-13.65.53-27.53-.08-41.25a12.73,12.73,0,0,1,11.91-13.27l.25,0a12.74,12.74,0,0,1,13.29,12.16c.64,14.44.66,29.06.07,43.43a12.73,12.73,0,0,1-11.9,12.18A12,12,0,0,1,2565.37,1116.45Zm-19.82-121.09c-2.48-13.51-5.55-27-9.14-40.22a12.73,12.73,0,1,1,24.57-6.69c3.78,13.87,7,28.11,9.62,42.32a12.73,12.73,0,0,1-25,4.59ZM2514.34,891.9c-5.4-12.58-11.42-25.08-17.88-37.16a12.73,12.73,0,0,1,22.45-12c6.81,12.72,13.14,25.88,18.83,39.13a12.73,12.73,0,1,1-23.4,10ZM2460.78,798C2452.69,787,2444,776.1,2435,765.78a12.74,12.74,0,0,1,19.21-16.73c9.47,10.87,18.59,22.29,27.1,33.94a12.73,12.73,0,0,1-20.56,15Zm-73.14-79.61c-10.32-9-21.17-17.64-32.25-25.73a12.73,12.73,0,1,1,15-20.56c11.66,8.52,23.07,17.63,33.93,27.08a12.73,12.73,0,1,1-16.71,19.21ZM2298.7,657c-12.06-6.48-24.55-12.52-37.13-18a12.73,12.73,0,1,1,10.1-23.38c13.24,5.72,26.39,12.09,39.09,18.91A12.73,12.73,0,0,1,2298.7,657ZM1825.85,651a12.74,12.74,0,0,1,5.25-17.23c12.71-6.77,25.9-13.09,39.18-18.76a12.73,12.73,0,0,1,10,23.42c-12.61,5.38-25.13,11.38-37.2,17.82a12.71,12.71,0,0,1-17.23-5.25Zm372.58-34.24c-13.2-3.63-26.72-6.74-40.18-9.22a12.74,12.74,0,1,1,4.63-25.05c14.17,2.62,28.41,5.89,42.31,9.72a12.74,12.74,0,0,1-2.58,25A13,13,0,0,1,2198.43,616.8ZM1928,607.55a12.75,12.75,0,0,1,9-15.62c13.91-3.76,28.16-7,42.37-9.54a12.73,12.73,0,1,1,4.54,25.06c-13.5,2.45-27,5.5-40.26,9.07a13.1,13.1,0,0,1-2.53.42A12.76,12.76,0,0,1,1928,607.55Zm163.74-7.5c-13.67-.59-27.54-.6-41.24,0a12.73,12.73,0,0,1-1.35-25.43h.27c14.42-.61,29-.61,43.42,0a12.73,12.73,0,0,1,.27,25.43C2092.62,600.06,2092.16,600.06,2091.7,600.05Z"/><path class="cls-6" d="M1763.13,706.81a12.68,12.68,0,0,0,7.1-2.74c5.14-4.08,10.46-8.12,15.79-12a12.73,12.73,0,1,0-15-20.57c-5.62,4.1-11.2,8.35-16.61,12.64a12.74,12.74,0,0,0,8.73,22.69Z"/></g><g class="cls-10"><path class="cls-6" d="M1577.48,1047.79a12.74,12.74,0,0,0,11.86-11.5c.62-6.53,1.4-13.17,2.3-19.71a12.74,12.74,0,0,0-25.24-3.47c-.94,6.89-1.76,13.87-2.42,20.75a12.76,12.76,0,0,0,11.47,13.9A13.78,13.78,0,0,0,1577.48,1047.79Z"/><path class="cls-6" d="M2077,1591.43a12.74,12.74,0,0,1-.36-25.47c13.39-.19,27-1,40.54-2.28a12.74,12.74,0,0,1,2.47,25.36q-8.82.86-17.59,1.41C2093.73,1591,2085.3,1591.31,2077,1591.43Zm95.78-23.24a12.73,12.73,0,0,1,9.45-15.32c13.14-3.12,26.29-6.82,39.08-11a12.73,12.73,0,1,1,7.93,24.2c-13.47,4.41-27.31,8.31-41.14,11.58a12.16,12.16,0,0,1-2.14.32A12.72,12.72,0,0,1,2172.8,1568.19Zm-165.07,19.48c-14.06-1.73-28.24-4.09-42.15-7a12.73,12.73,0,1,1,5.25-24.92c13.2,2.78,26.66,5,40,6.66a12.74,12.74,0,1,1-3.12,25.28Zm268.83-53.56a12.74,12.74,0,0,1,5.86-17c12.11-5.91,24.12-12.42,35.68-19.33a12.73,12.73,0,0,1,13.07,21.86c-12.18,7.28-24.82,14.13-37.58,20.36a12.72,12.72,0,0,1-17-5.86Zm-377.69,27.64c-13.33-4.78-26.64-10.2-39.56-16.11a12.73,12.73,0,1,1,10.59-23.16c12.27,5.61,24.91,10.76,37.57,15.3a12.74,12.74,0,0,1-3.5,24.7A12.54,12.54,0,0,1,1898.87,1561.75Zm-100.54-49.17c-12-7.6-23.8-15.79-35.1-24.35a12.73,12.73,0,1,1,15.38-20.3c10.74,8.13,22,15.92,33.35,23.14a12.73,12.73,0,1,1-13.63,21.51Zm-87.44-69.91c-10.06-10-19.8-20.6-29-31.41a12.74,12.74,0,0,1,19.43-16.47c8.71,10.28,18,20.31,27.52,29.85a12.74,12.74,0,0,1-18,18Zm-70.11-87.32c-7.61-12-14.81-24.44-21.37-37a12.73,12.73,0,1,1,22.57-11.79c6.24,11.93,13.07,23.75,20.3,35.14a12.74,12.74,0,1,1-21.5,13.66Zm-49.22-100.65c-4.78-13.33-9-27.06-12.69-40.78a12.74,12.74,0,0,1,24.62-6.54c3.45,13,7.51,26.07,12,38.74a12.73,12.73,0,1,1-24,8.58Zm-25.91-108.88c-1.29-10.36-2.28-20.89-2.94-31.29-.24-3.77-.44-7.52-.59-11.28a12.57,12.57,0,0,1,12.19-13.24,12.72,12.72,0,0,1,13.25,12.19c.15,3.56.34,7.14.56,10.72.63,9.89,1.57,19.89,2.8,29.74a12.73,12.73,0,0,1-11.05,14.22l-.79.07A12.74,12.74,0,0,1,1565.65,1145.82Z"/><path class="cls-6" d="M2381.27,1482.57a12.67,12.67,0,0,0,7.15-2.77c5.38-4.32,10.77-8.83,16-13.4a12.74,12.74,0,1,0-16.74-19.2c-5,4.35-10.11,8.63-15.21,12.73a12.73,12.73,0,0,0,8.78,22.64Z"/></g><path class="cls-6" d="M2405.33,1265.59a6,6,0,0,0,0-6.92l-42-59.05a315.4,315.4,0,0,0,23.17-99.57l63.66-34.48a6,6,0,0,0,3-6.21L2439,973.64a5.94,5.94,0,0,0-4.88-4.89l-71.38-12.09a315.28,315.28,0,0,0-54.07-86.76l20.64-69.43a6,6,0,0,0-2.24-6.54l-70.66-50.56a6,6,0,0,0-6.92,0l-59.05,41.95a315.4,315.4,0,0,0-99.57-23.17l-34.48-63.66a6,6,0,0,0-6.21-3l-85.72,14.22a5.94,5.94,0,0,0-4.89,4.88l-12.09,71.37A315.55,315.55,0,0,0,1860.76,840l-69.43-20.64a5.94,5.94,0,0,0-6.54,2.24l-50.56,70.66a6,6,0,0,0,0,6.91l42,59.06a315.34,315.34,0,0,0-23.17,99.57l-63.66,34.48a6,6,0,0,0-3,6.2l14.22,85.73a5.94,5.94,0,0,0,4.88,4.89l71.37,12.08a315.6,315.6,0,0,0,54.08,86.77l-20.64,69.43a5.94,5.94,0,0,0,2.24,6.54l70.66,50.56a6,6,0,0,0,6.91,0l59.06-42a315.34,315.34,0,0,0,99.57,23.17l34.48,63.66a6,6,0,0,0,6.21,3l85.72-14.22a6,6,0,0,0,4.89-4.88l12.08-71.38a315.37,315.37,0,0,0,86.76-54.07l69.44,20.64a6,6,0,0,0,6.54-2.24Z"/><path class="cls-4" d="M2062.54,1166a87.28,87.28,0,1,1,12.83.13A88.8,88.8,0,0,1,2062.54,1166Zm-36-138.15a67,67,0,1,0,48.82-15.63,68.65,68.65,0,0,0-9.93-.09A66.49,66.49,0,0,0,2026.51,1027.81Z"/><path class="cls-4" d="M2081.58,1292.1q11-.7,21.92-2.51h0c2.31-.38,4.6-.8,6.89-1.26a214.72,214.72,0,0,0,33.09-9.37l.44-.16,1.24-.47,2.41-.94a5.09,5.09,0,0,0-3.75-9.47A204.85,204.85,0,0,1,1916,1214.15a203.24,203.24,0,0,1-49.45-103,207.09,207.09,0,0,1-2.4-20.92A204.63,204.63,0,0,1,2034.9,875.91c111.33-18.45,216.83,57.07,235.28,168.35a204.64,204.64,0,0,1-11.41,108.37,5.22,5.22,0,0,0-.35,2.19,5.1,5.1,0,0,0,9.83,1.54,214.72,214.72,0,0,0,12-113.77c-19.37-116.83-130.21-196.1-247-176.73a214.83,214.83,0,0,0-179.25,225,218.52,218.52,0,0,0,2.52,21.95,214.79,214.79,0,0,0,225.07,179.25Z"/><g class="cls-10"><path class="cls-6" d="M3021.66,1423.82a7.87,7.87,0,0,0,7.17-6.12c1.47-6.51,2.77-13.16,3.84-19.75a7.86,7.86,0,1,0-15.52-2.54c-1,6.28-2.26,12.61-3.66,18.83a7.88,7.88,0,0,0,5.93,9.41A8.16,8.16,0,0,0,3021.66,1423.82Z"/><path class="cls-6" d="M3028.71,1363.84a7.87,7.87,0,0,1-7.56-8.16,327.24,327.24,0,0,0-.41-33c-.15-2.31-.33-4.62-.52-6.94a7.87,7.87,0,0,1,7.17-8.5,8.15,8.15,0,0,1,8.51,7.18q.3,3.64.53,7.26a341.3,341.3,0,0,1,.44,34.6,7.87,7.87,0,0,1-7.35,7.55C3029.25,1363.84,3029,1363.85,3028.71,1363.84Zm-14.28-87.62a325.4,325.4,0,0,0-10.56-38.52,7.87,7.87,0,0,1,14.89-5.08,341.13,341.13,0,0,1,11.07,40.37,7.88,7.88,0,0,1-6.09,9.32,8.57,8.57,0,0,1-1.12.14A7.87,7.87,0,0,1,3014.43,1276.22Zm-25.81-75.44a321.37,321.37,0,0,0-19.7-34.74,7.86,7.86,0,0,1,13.17-8.6,338.18,338.18,0,0,1,20.67,36.44,7.87,7.87,0,0,1-14.14,6.9ZM2945.07,1134a324.47,324.47,0,0,0-27.6-28.86,7.87,7.87,0,0,1,10.67-11.56,340.55,340.55,0,0,1,28.94,30.26,7.87,7.87,0,1,1-12,10.16Zm-58.54-54.13a326.66,326.66,0,0,0-33.79-21.29,7.87,7.87,0,0,1,7.56-13.8,345.24,345.24,0,0,1,35.41,22.31,7.87,7.87,0,0,1-9.18,12.78Zm-69.91-38.28a321,321,0,0,0-37.92-12.39,7.87,7.87,0,1,1,4-15.23,338.42,338.42,0,0,1,39.78,13,7.87,7.87,0,0,1-5.81,14.62Zm-77.11-20a322.62,322.62,0,0,0-39.84-2.71,7.87,7.87,0,1,1,.1-15.73,340.08,340.08,0,0,1,41.77,2.84,7.87,7.87,0,0,1-.51,15.65A7.76,7.76,0,0,1,2739.51,1021.58Zm-128.54.8a7.85,7.85,0,0,1,5.78-9.5,341.3,341.3,0,0,1,35.75-6.71c1.82-.26,3.64-.48,5.47-.7a7.8,7.8,0,0,1,8.72,6.92,7.88,7.88,0,0,1-6.91,8.72c-1.71.19-3.43.41-5.17.65a325.13,325.13,0,0,0-34.14,6.4,8.27,8.27,0,0,1-1.37.21A7.87,7.87,0,0,1,2611,1022.38Z"/></g><g class="cls-10"><path class="cls-6" d="M2714.18,1682.18a342.65,342.65,0,0,1-41.17-.42,7.86,7.86,0,0,1,1.11-15.69,325.57,325.57,0,0,0,39.27.39,7.87,7.87,0,0,1,.9,15.71Zm31.87-11a7.85,7.85,0,0,1,6.41-9.08,329.39,329.39,0,0,0,38.26-9,7.87,7.87,0,0,1,4.51,15.08,345.72,345.72,0,0,1-40.1,9.4,7.85,7.85,0,0,1-9.08-6.42Zm-113.88,5.13A342.14,342.14,0,0,1,2592.3,1666a7.87,7.87,0,0,1,4.87-15,325.64,325.64,0,0,0,38,9.88,7.87,7.87,0,0,1-1,15.57A7.63,7.63,0,0,1,2632.17,1676.34ZM2823.55,1650a7.87,7.87,0,0,1,4-10.36,324.31,324.31,0,0,0,35-17.94,7.87,7.87,0,0,1,8,13.53,337.81,337.81,0,0,1-36.66,18.82,7.72,7.72,0,0,1-2.66.64A7.87,7.87,0,0,1,2823.55,1650Zm-269.53.9a341.8,341.8,0,0,1-36.2-19.63,7.87,7.87,0,0,1,8.33-13.35,324,324,0,0,0,34.52,18.72,7.87,7.87,0,0,1-2.84,15A7.78,7.78,0,0,1,2554,1650.87Zm-69.77-43.48a343.49,343.49,0,0,1-30.46-27.73,7.86,7.86,0,0,1,11.28-11,329.57,329.57,0,0,0,29,26.44,7.87,7.87,0,1,1-9.87,12.25Zm-57.35-58.94a338.24,338.24,0,0,1-22.93-34.24,7.87,7.87,0,0,1,13.58-7.94,323,323,0,0,0,21.86,32.65,7.85,7.85,0,0,1-1.49,11,7.74,7.74,0,0,1-4.26,1.59A7.83,7.83,0,0,1,2426.9,1548.45Z"/><path class="cls-6" d="M2900.66,1613.46a7.76,7.76,0,0,0,4.31-1.63c5.33-4.11,10.55-8.41,15.54-12.76a7.86,7.86,0,1,0-10.34-11.85c-4.76,4.15-9.75,8.24-14.83,12.17a7.87,7.87,0,0,0,5.32,14.07Z"/></g><path class="cls-6" d="M2921.53,1465.19a4,4,0,0,0,0-4.62l-28.07-39.52a211.1,211.1,0,0,0,15.51-66.63l42.59-23.07a4,4,0,0,0,2-4.16l-9.52-57.35a4,4,0,0,0-3.26-3.28l-47.76-8.09a211.38,211.38,0,0,0-36.19-58l13.81-46.46a4,4,0,0,0-1.5-4.38l-47.28-33.83a4,4,0,0,0-4.62,0l-39.52,28.07a211.31,211.31,0,0,0-66.63-15.51l-23.07-42.59a4,4,0,0,0-4.15-2l-57.36,9.51a4,4,0,0,0-3.28,3.26l-8.09,47.77a211.12,211.12,0,0,0-58.05,36.18l-46.46-13.81a4,4,0,0,0-4.38,1.5l-33.83,47.28a4,4,0,0,0,0,4.63l28.07,39.51a211.37,211.37,0,0,0-15.51,66.63l-42.59,23.07a4,4,0,0,0-2,4.16l9.51,57.36a4,4,0,0,0,3.26,3.27l47.77,8.09a211,211,0,0,0,36.18,58.05l-13.81,46.47a4,4,0,0,0,1.5,4.37l47.28,33.83a4,4,0,0,0,4.63,0l39.51-28.07a211.1,211.1,0,0,0,66.63,15.51l23.07,42.59a4,4,0,0,0,4.16,2l57.36-9.52a4,4,0,0,0,3.27-3.26l8.09-47.76a211,211,0,0,0,58.05-36.19l46.47,13.81a4,4,0,0,0,4.37-1.5Z"/><path class="cls-4" d="M2692.08,1399.57a59.22,59.22,0,1,1,8.82.09A61.9,61.9,0,0,1,2692.08,1399.57Zm-38.69-62.92a43.75,43.75,0,0,0,40,47.24h0a43.76,43.76,0,0,0,7.25-87.22,44.6,44.6,0,0,0-6.43-.07A43.83,43.83,0,0,0,2653.39,1336.65Z"/><path class="cls-4" d="M2705.33,1487.36q7.46-.48,15-1.71a149.41,149.41,0,0,0,29.13-7.92l1.26-.5a7.87,7.87,0,0,0-5.78-14.63,132.13,132.13,0,0,1-27.18,7.52h0l-1.53.25a131.16,131.16,0,0,1-64.58-6.07,133.31,133.31,0,0,1-31.65-16.42l-.24-.17-.73-.53a131.57,131.57,0,0,1-53.59-86,136.23,136.23,0,0,1-1.55-13.54,132.44,132.44,0,0,1,262.85-29.79,134.23,134.23,0,0,1,1.53,13.36,132.09,132.09,0,0,1-8.92,56.79,7.67,7.67,0,0,0-.53,3.38,7.86,7.86,0,0,0,15.16,2.38,147.78,147.78,0,0,0,10-63.53q-.48-7.5-1.71-15a148.17,148.17,0,0,0-294.07,33.32,150.44,150.44,0,0,0,1.73,15.15C2562.43,1439.31,2630.45,1492.11,2705.33,1487.36Z"/><path class="cls-11" d="M771.43,2873.9a42.35,42.35,0,0,0,42.25,42.2H3098.37a42.35,42.35,0,0,0,42.25-42.2l19-1312.95c0-23.21-27.35-68.54-77.48-65.13L849.31,1438.05a106.45,106.45,0,0,0-109.25,108.89Z"/><path class="cls-12" d="M813.15,2833.4a40.09,40.09,0,0,0,40,40H3043.27a40.09,40.09,0,0,0,40-40l17.94-1191.9c-2.11-71.73-65-97.51-103.11-96l-2140-57.42a74.83,74.83,0,0,0-76.77,76.57Z"/><path class="cls-13" d="M872.88,2807.46a38,38,0,0,0,37.94,37.94H2989.51a38,38,0,0,0,37.94-37.94l17-1131.24c-2-68.08-61.69-92.54-97.87-91.1L915.54,1530.63a71,71,0,0,0-72.86,72.67Z"/><path class="cls-6" d="M3059.58,2103.37h-.09c-3.24,0-5.82-2.09-5.77-4.59l1.42-74.59c0-2.47,2.66-4.45,5.85-4.45h.09c3.23,0,5.82,2.09,5.77,4.59l-1.42,74.58C3065.38,2101.39,3062.77,2103.37,3059.58,2103.37Z"/><path class="cls-6" d="M3063.06,1920.59H3063c-3.27,0-5.85-2.09-5.8-4.59l5.43-285.67c-.1-17-6.78-30.52-19.84-40.18-24.39-18-63.11-17.11-64.74-17.05l-684-14.15c-3.24-.06-5.79-2.14-5.7-4.64s2.57-4.62,6-4.39L2978,1564.07c4.26-.19,45.48-.74,72.93,19.55,15.45,11.42,23.34,27.16,23.46,46.75l-5.44,285.77C3068.86,1918.61,3066.25,1920.59,3063.06,1920.59Z"/><rect class="cls-14" x="654.5" y="2909.74" width="2577.73" height="115.36" rx="5.65" transform="translate(3886.72 5934.83) rotate(180)"/><path class="cls-6" d="M1539.69,1669.49l-591.56-4.15a2.47,2.47,0,0,1-2.45-2.49l.33-47.65a2.48,2.48,0,0,1,2.49-2.46l591.55,4.15a2.47,2.47,0,0,1,2.46,2.49l-.34,47.65A2.47,2.47,0,0,1,1539.69,1669.49Z"/><path class="cls-6" d="M1913.16,1673.24l-204.56-1.43a2.37,2.37,0,0,1-2.35-2.39l.33-47.85a2.38,2.38,0,0,1,2.39-2.36l204.56,1.44a2.38,2.38,0,0,1,2.36,2.38l-.34,47.86A2.37,2.37,0,0,1,1913.16,1673.24Z"/><rect class="cls-6" x="1958.84" y="1622.41" width="413.37" height="52.6" rx="4.78" transform="translate(11.6 -15.13) rotate(0.4)"/><rect class="cls-6" x="944.3" y="1705.72" width="159.91" height="52.6" rx="4.73" transform="translate(12.16 -7.13) rotate(0.4)"/><path class="cls-6" d="M1540.22,1762l-428.86-3a2.47,2.47,0,0,1-2.46-2.48l.34-47.66a2.46,2.46,0,0,1,2.49-2.45l428.86,3a2.47,2.47,0,0,1,2.45,2.49l-.33,47.65A2.48,2.48,0,0,1,1540.22,1762Z"/><rect class="cls-6" x="1707.45" y="1712.47" width="209.31" height="52.6" rx="2.37" transform="translate(12.22 -12.65) rotate(0.4)"/><rect class="cls-6" x="2104.43" y="1716.64" width="605.57" height="52.6" rx="4.78" transform="translate(12.27 -16.82) rotate(0.4)"/><path class="cls-6" d="M1098.53,1851.24l-150.45-1a4.73,4.73,0,0,1-4.7-4.76l.31-43.15a4.71,4.71,0,0,1,4.75-4.69l150.46,1.06a4.71,4.71,0,0,1,4.69,4.75l-.3,43.15A4.72,4.72,0,0,1,1098.53,1851.24Z"/><path class="cls-6" d="M1539.36,1854.43l-428.86-3a2.47,2.47,0,0,1-2.45-2.49l.33-47.65a2.48,2.48,0,0,1,2.49-2.46l428.86,3a2.47,2.47,0,0,1,2.46,2.49l-.34,47.65A2.48,2.48,0,0,1,1539.36,1854.43Z"/><path class="cls-6" d="M1913.4,1858.19l-204.56-1.44a2.36,2.36,0,0,1-2.36-2.38l.34-47.86a2.37,2.37,0,0,1,2.39-2.35l204.55,1.43a2.38,2.38,0,0,1,2.36,2.39l-.34,47.85A2.37,2.37,0,0,1,1913.4,1858.19Z"/><rect class="cls-6" x="2177.88" y="1810.2" width="789.09" height="52.6" rx="4.78" transform="translate(12.92 -17.97) rotate(0.4)"/><path class="cls-6" d="M1099.16,1943.79l-150.45-1.06A4.72,4.72,0,0,1,944,1938l.3-43.14a4.74,4.74,0,0,1,4.76-4.7l150.45,1.06a4.74,4.74,0,0,1,4.7,4.76l-.31,43.14A4.73,4.73,0,0,1,1099.16,1943.79Z"/><path class="cls-6" d="M1541,1947l-428.86-3a2.47,2.47,0,0,1-2.46-2.49l.34-47.65a2.46,2.46,0,0,1,2.48-2.46l428.86,3a2.47,2.47,0,0,1,2.46,2.48l-.34,47.66A2.46,2.46,0,0,1,1541,1947Z"/><rect class="cls-6" x="1707.68" y="1897.42" width="209.31" height="52.6" rx="2.37" transform="translate(13.52 -12.64) rotate(0.4)"/><rect class="cls-6" x="2181.38" y="1902.76" width="789.09" height="52.6" rx="4.78" transform="translate(13.57 -17.99) rotate(0.4)"/><path class="cls-6" d="M1098,2039.8l-150.45-1.06a4.73,4.73,0,0,1-4.7-4.76l.3-43.14a4.72,4.72,0,0,1,4.76-4.69l150.46,1a4.72,4.72,0,0,1,4.69,4.76l-.3,43.14A4.73,4.73,0,0,1,1098,2039.8Z"/><path class="cls-6" d="M1539.46,2043l-428.86-3a2.47,2.47,0,0,1-2.45-2.49l.33-47.65a2.48,2.48,0,0,1,2.49-2.46l428.86,3a2.48,2.48,0,0,1,2.46,2.48l-.34,47.66A2.46,2.46,0,0,1,1539.46,2043Z"/><path class="cls-6" d="M1913.12,2046.74l-204.56-1.43a2.38,2.38,0,0,1-2.35-2.39l.34-47.85a2.36,2.36,0,0,1,2.38-2.36l204.56,1.44a2.37,2.37,0,0,1,2.36,2.38l-.34,47.86A2.37,2.37,0,0,1,1913.12,2046.74Z"/><rect class="cls-6" x="2179.14" y="1998.77" width="789.09" height="52.6" rx="4.78" transform="translate(14.25 -17.97) rotate(0.4)"/><path class="cls-6" d="M1098.64,2132.34l-150.45-1.05a4.72,4.72,0,0,1-4.69-4.76l.3-43.15a4.72,4.72,0,0,1,4.76-4.69l150.45,1a4.74,4.74,0,0,1,4.7,4.76l-.31,43.15A4.72,4.72,0,0,1,1098.64,2132.34Z"/><path class="cls-6" d="M1541.1,2135.53l-428.87-3a2.47,2.47,0,0,1-2.45-2.49l.33-47.65a2.48,2.48,0,0,1,2.49-2.46l428.86,3a2.47,2.47,0,0,1,2.46,2.48l-.34,47.66A2.46,2.46,0,0,1,1541.1,2135.53Z"/><rect class="cls-6" x="1707.41" y="2085.97" width="209.31" height="52.6" rx="2.37" transform="matrix(1, 0.01, -0.01, 1, 14.84, -12.64)"/><rect class="cls-6" x="1955.58" y="2088.67" width="483.45" height="52.6" rx="4.78" transform="translate(14.87 -15.34) rotate(0.4)"/><path class="cls-6" d="M1540.56,2227.93l-594.8-4.16a2.48,2.48,0,0,1-2.46-2.49l.34-47.66a2.47,2.47,0,0,1,2.48-2.45l594.81,4.17a2.47,2.47,0,0,1,2.45,2.48l-.33,47.66A2.47,2.47,0,0,1,1540.56,2227.93Z"/><path class="cls-6" d="M1913.36,2231.69l-204.56-1.44a2.37,2.37,0,0,1-2.36-2.38l.34-47.86a2.38,2.38,0,0,1,2.39-2.36l204.56,1.44a2.38,2.38,0,0,1,2.35,2.39l-.34,47.85A2.37,2.37,0,0,1,1913.36,2231.69Z"/><rect class="cls-6" x="2063.89" y="2182.25" width="602.74" height="52.6" rx="4.78" transform="translate(15.52 -16.51) rotate(0.4)"/><path class="cls-6" d="M1092.5,2317.24l-144.06-1a4.72,4.72,0,0,1-4.69-4.76l.3-43.15a4.72,4.72,0,0,1,4.76-4.69l144.06,1a4.72,4.72,0,0,1,4.69,4.76l-.3,43.14A4.73,4.73,0,0,1,1092.5,2317.24Z"/><path class="cls-6" d="M1541.87,2320.48l-428.86-3a2.48,2.48,0,0,1-2.45-2.49l.33-47.66a2.48,2.48,0,0,1,2.49-2.45l428.86,3a2.47,2.47,0,0,1,2.45,2.49l-.33,47.66A2.47,2.47,0,0,1,1541.87,2320.48Z"/><rect class="cls-6" x="1707.64" y="2270.92" width="209.31" height="52.6" rx="2.37" transform="translate(16.13 -12.64) rotate(0.4)"/><rect class="cls-6" x="2155.6" y="2276.18" width="815.9" height="52.6" rx="4.78" transform="translate(16.19 -17.9) rotate(0.4)"/><rect class="cls-6" x="938.27" y="2540.27" width="159.91" height="52.6" rx="4.73" transform="translate(18 -7.07) rotate(0.4)"/><path class="cls-6" d="M1535.93,2596.59l-428.86-3a2.48,2.48,0,0,1-2.46-2.49l.34-47.66a2.47,2.47,0,0,1,2.49-2.45l428.86,3a2.47,2.47,0,0,1,2.45,2.49l-.33,47.66A2.48,2.48,0,0,1,1535.93,2596.59Z"/><rect class="cls-6" x="1702.03" y="2547.02" width="209.31" height="52.6" rx="2.37" transform="translate(18.07 -12.59) rotate(0.4)"/><rect class="cls-6" x="1950.2" y="2549.72" width="483.45" height="52.6" rx="4.78" transform="translate(18.09 -15.29) rotate(0.4)"/><path class="cls-6" d="M1535.39,2689l-594.8-4.17a2.46,2.46,0,0,1-2.45-2.48l.33-47.66a2.46,2.46,0,0,1,2.49-2.45l594.8,4.16a2.48,2.48,0,0,1,2.46,2.49l-.34,47.66A2.47,2.47,0,0,1,1535.39,2689Z"/><path class="cls-6" d="M1908,2692.74l-204.56-1.44a2.35,2.35,0,0,1-2.35-2.38l.33-47.86a2.37,2.37,0,0,1,2.39-2.35l204.56,1.43a2.37,2.37,0,0,1,2.35,2.39l-.33,47.85A2.38,2.38,0,0,1,1908,2692.74Z"/><rect class="cls-6" x="2058.18" y="2643.3" width="602.74" height="52.6" rx="4.78" transform="translate(18.75 -16.46) rotate(0.4)"/><path class="cls-6" d="M1087.12,2778.29l-144.06-1a4.72,4.72,0,0,1-4.69-4.76l.3-43.14a4.73,4.73,0,0,1,4.76-4.7l144.06,1a4.72,4.72,0,0,1,4.69,4.76l-.3,43.15A4.72,4.72,0,0,1,1087.12,2778.29Z"/><path class="cls-6" d="M1536.71,2781.54l-428.86-3a2.47,2.47,0,0,1-2.46-2.49l.34-47.65a2.47,2.47,0,0,1,2.48-2.46l428.86,3a2.47,2.47,0,0,1,2.46,2.49l-.34,47.65A2.47,2.47,0,0,1,1536.71,2781.54Z"/><rect class="cls-6" x="1702.27" y="2731.97" width="209.31" height="52.6" rx="2.37" transform="translate(19.36 -12.59) rotate(0.4)"/><rect class="cls-6" x="2149.9" y="2737.23" width="815.9" height="52.6" rx="4.78" transform="translate(19.42 -17.85) rotate(0.4)"/><rect class="cls-6" x="941.44" y="2358.23" width="153.51" height="52.6" rx="4.73" transform="translate(16.72 -7.07) rotate(0.4)"/><path class="cls-6" d="M1537.9,2414.57l-428.86-3a2.48,2.48,0,0,1-2.46-2.49l.34-47.66a2.47,2.47,0,0,1,2.48-2.45l428.87,3a2.47,2.47,0,0,1,2.45,2.49l-.33,47.65A2.48,2.48,0,0,1,1537.9,2414.57Z"/><path class="cls-6" d="M1911.29,2418.32l-204.56-1.43a2.38,2.38,0,0,1-2.36-2.39l.34-47.85a2.37,2.37,0,0,1,2.38-2.36l204.56,1.44a2.36,2.36,0,0,1,2.36,2.38l-.34,47.86A2.37,2.37,0,0,1,1911.29,2418.32Z"/><rect class="cls-6" x="2148.7" y="2370.24" width="815.9" height="52.6" rx="4.78" transform="translate(16.85 -17.85) rotate(0.4)"/><rect class="cls-6" x="942.03" y="2450.77" width="153.51" height="52.6" rx="4.73" transform="translate(17.37 -7.07) rotate(0.4)"/><path class="cls-6" d="M1539.53,2507.12l-428.86-3a2.47,2.47,0,0,1-2.46-2.48l.34-47.66a2.47,2.47,0,0,1,2.49-2.45l428.86,3a2.47,2.47,0,0,1,2.45,2.49l-.33,47.65A2.48,2.48,0,0,1,1539.53,2507.12Z"/><rect class="cls-6" x="1705.57" y="2457.55" width="209.31" height="52.6" rx="2.37" transform="translate(17.44 -12.62) rotate(0.4)"/><rect class="cls-6" x="2152.34" y="2462.81" width="815.9" height="52.6" rx="4.78" transform="translate(17.49 -17.87) rotate(0.4)"/><path class="cls-6" d="M1626.65,2844.46l-13.69-.09a2.81,2.81,0,0,1-2.79-2.83l9-1290.6a2.8,2.8,0,0,1,2.82-2.79l13.7.1a2.8,2.8,0,0,1,2.78,2.83l-9,1290.59A2.81,2.81,0,0,1,1626.65,2844.46Z"/><path class="cls-4" d="M2835.23,3004.08s161.21-372.41,39.16-764.76c-.8-2.56-5.33-2.07-5.67.62C2839.3,2477.24,2830.53,2734.23,2835.23,3004.08Z"/><path class="cls-15" d="M2835.88,2996.24a1.87,1.87,0,0,1-.57-.08,2.07,2.07,0,0,1-1.43-2.55c28.49-101.2,39.33-273.5,43.41-400.21,4.43-137.36,2.07-252.22,2.05-253.36a2.07,2.07,0,0,1,2-2.12h0a2.08,2.08,0,0,1,2.07,2c0,1.14,2.38,116.11-2.05,253.59-4.09,126.94-15,299.59-43.56,401.19A2.07,2.07,0,0,1,2835.88,2996.24Z"/><path class="cls-4" d="M2798.32,2943.39s99.59-456.94-88.62-919.34a2.89,2.89,0,0,0-5.59,1.11C2714.26,2311.54,2748.44,2620.2,2798.32,2943.39Z"/><path class="cls-15" d="M2797.3,2933.54h-.19a2.07,2.07,0,0,1-1.87-2.26c22.37-235.93-62.83-781.19-63.7-786.67a2.07,2.07,0,0,1,1.73-2.37,2.05,2.05,0,0,1,2.36,1.72c.87,5.49,86.15,551.26,63.73,787.71A2.07,2.07,0,0,1,2797.3,2933.54Z"/><path class="cls-4" d="M2782.52,3067.29s47.71-398.62-189.31-757.34c-1.55-2.35-5.86-.91-5.39,1.79C2629.56,2550.36,2697.49,2803.94,2782.52,3067.29Z"/><path class="cls-15" d="M2780.19,3059.52a2.07,2.07,0,0,1-2.07-2c-2.11-105.11-42.76-276.15-76.5-401.12-36.57-135.49-73.11-247.52-73.47-248.64a2.07,2.07,0,1,1,3.93-1.29c.37,1.12,36.94,113.24,73.53,248.83,33.8,125.2,74.53,296.61,76.65,402.14a2.07,2.07,0,0,1-2,2.11Z"/><path class="cls-6" d="M2684.43,2847.64h219.1a22.34,22.34,0,0,1,21.76,27.36c-14,60.73-30.82,122.35-65.2,184.91a36.12,36.12,0,0,1-31.62,18.79H2757a35.27,35.27,0,0,1-31-18.56c-27.54-51.18-54-112.19-67.12-181.43A26.15,26.15,0,0,1,2684.43,2847.64Z"/><path class="cls-16" d="M1348.3,1885c-163.5,4.81-202.06,43.11-202.06,43.11l91.7,114.11s158.81-21.09,263-121.85c-23.94-20.58-41.63-44.31-53.36-63C1419.49,1872.87,1386.44,1883.85,1348.3,1885Z"/><path class="cls-17" d="M1575.15,1618.61a5,5,0,0,0-9.67-.83l-15.7,46.43a46.27,46.27,0,0,0-.58,27.75l10.14,24.86a44.59,44.59,0,0,1-5.06,36.29c-16.31,25.88-51.87,73.8-106.75,104.22,11.73,18.71,29.42,42.44,53.36,63,38.21-37,69.07-84.65,82-146a21.83,21.83,0,0,0,12.86-23.27Z"/><circle class="cls-18" cx="1862.64" cy="1549.31" r="462.99"/><circle class="cls-2" cx="1865.09" cy="1551.47" r="416.76"/><path class="cls-6" d="M1691.57,1292.59l-51.89-25.41a12.87,12.87,0,0,0-14.29,2l-5.64,5.08-9.12,8.21-5.83,5.26a12.88,12.88,0,0,0-3.48,14l19.86,54.26a25.4,25.4,0,0,0,18.44,16.32l35.07,7.67,227.73,252.87,13.12-11.82,9.11-8.21,12.39-11.15-227.73-252.87-3.7-35.92A25.49,25.49,0,0,0,1691.57,1292.59Z"/><path class="cls-5" d="M1688,1295.65l-47-23.2c-4.26-2.09-9.64-1.7-13.16,1.48l-5.08,4.57-8.21,7.4-5.26,4.73a12,12,0,0,0-2.84,12.93l18,49a23.15,23.15,0,0,0,16.76,14.71l31.74,6.91,205.36,228,11.66-10.5,8.21-7.39,12.83-11.56-205.36-228-4.17-31.6C1700.69,1305.32,1695.13,1299.13,1688,1295.65Z"/><path class="cls-19" d="M2088.55,1687.13l-161.9-144.5-81.77,73.89,124.59,172.11a109,109,0,0,0,46.27,36.67l49.67,21.17c8.41,3.52,18.66,2.51,25.43-3.59l34-30.62c6.15-5.53,8.37-14.53,6.78-22.65l-8.36-41.68A110.33,110.33,0,0,0,2088.55,1687.13Z"/><path class="cls-20" d="M1934.73,1533.32a13.5,13.5,0,0,1-1,19.06l-81.9,73.76a13.5,13.5,0,0,1-19.06-1l-1-1.1a13.5,13.5,0,0,1,1-19.06l81.9-73.76a13.49,13.49,0,0,1,19.06,1Z"/><path class="cls-21" d="M2056.38,1792.2a11.53,11.53,0,0,1-.85,16.29l-.17.15a11.54,11.54,0,0,1-16.29-.85l-154.34-171.38a11.52,11.52,0,0,1,.86-16.28l.17-.16a11.54,11.54,0,0,1,16.29.85Z"/><path class="cls-22" d="M2096.78,1755.82a11.54,11.54,0,0,1-.85,16.29l-.17.15a11.54,11.54,0,0,1-16.29-.85L1925.13,1600a11.53,11.53,0,0,1,.85-16.28l.17-.16a11.54,11.54,0,0,1,16.29.85Z"/><path class="cls-23" d="M1581.32,1678.78,1570.39,1689c-18.74,17.47-24.39,41.88-12.61,54.51l14,15c11.78,12.64,36.52,8.72,55.27-8.75l10.92-10.18c.72-.68,1.43-1.37,2.12-2.07l310.81-315.82L1920.4,1389,1583.53,1676.8C1582.78,1677.44,1582,1678.1,1581.32,1678.78Zm15,14.41c14.12-13.16,31.89-17,39.71-8.64s2.71,25.85-11.4,39-31.89,17-39.71,8.64S1582.24,1706.34,1596.35,1693.19Z"/><path class="cls-24" d="M2015.68,1269.29l-63.38,59.08a19.88,19.88,0,0,0-6.24,16.41l3,31.48a19.87,19.87,0,0,0,16.54,17.75l31.2,5.17a19.86,19.86,0,0,0,16.81-5.07L2077,1335c9.56-8.91,25.36-2.51,25.72,10.55a114.4,114.4,0,0,1-36.78,86.68c-45.59,42.48-110.07,36.17-150.93-7.68s-42.64-108.6,2.94-151.09a114.41,114.41,0,0,1,89-30.61C2020,1244.17,2025.24,1260.38,2015.68,1269.29Z"/><path class="cls-25" d="M2021.25,1275.27l-63.38,59.07a19.86,19.86,0,0,0-6.24,16.41l3,31.49a19.91,19.91,0,0,0,16.55,17.75l31.2,5.17a19.91,19.91,0,0,0,16.81-5.07l63.38-59.08c9.56-8.91,25.36-2.51,25.72,10.56a114.35,114.35,0,0,1-36.79,86.67c-45.58,42.49-110.06,36.17-150.92-7.67s-42.64-108.61,2.94-151.1a114.36,114.36,0,0,1,89-30.6C2025.53,1250.14,2030.81,1266.36,2021.25,1275.27Z"/><path class="cls-26" d="M1585.76,1683.54l-10.93,10.18c-18.74,17.47-24.39,41.88-12.61,54.52l14,15c11.78,12.64,36.52,8.73,55.27-8.75l10.92-10.18q1.08-1,2.13-2.07l310.8-315.81-30.51-32.74L1588,1681.57C1587.22,1682.21,1586.48,1682.87,1585.76,1683.54Zm15,14.41c14.11-13.15,31.88-17,39.7-8.63s2.71,25.85-11.4,39-31.89,17-39.71,8.63S1586.68,1711.11,1600.8,1698Z"/><path class="cls-27" d="M1409.65,1950.22c-64-55-175.7-70.54-239.87-74.85a58,58,0,0,0-60.35,43.85c-19.72,79.26-67.58,284.68-78.67,320.38-9.09,29.29-11.87,59.17-18.07,77.12-3.71,10.73,3.25,27.36,14,31.11,55.78,19.54,105.47,33,145.34,39.86,8.77,1.52,37.34-5.19,36.34-14-.84-7.5-3.13-19,0-25.91l135.08-257c102.5,90.75,183.33,91,242.13,62a463.92,463.92,0,0,1-31.08-93.44C1462.17,2054,1409.65,1950.22,1409.65,1950.22Z"/><path class="cls-28" d="M1702.23,2025.48l-18.8-20c-48.81,42.3-92.06,55.9-129,53.78a463.92,463.92,0,0,0,31.08,93.44C1663,2114.52,1702.23,2025.48,1702.23,2025.48Z"/><path class="cls-29" d="M1690.75,2027.17l92.47-6.79,79.42-56.9c-13-6.26-80.07,17.09-80.07,17.09s-73.15-2.77-92.62-.6c-16.18,1.8-11.24,24.79-9.11,32.53.44,1.58.76,2.53.76,2.53Z"/><path class="cls-30" d="M1243.55,1752.77l-35.21,124s60.17,32.34,104.66,23.6l12.22-109.32Z"/><path class="cls-31" d="M1324.07,1641.45s42.39,67.8,50.2,105.55,19.69,61.21-23.18,75.45-83.21-2.15-109-37.07c0,0-40.19-53.72-36.7-78.7S1324.07,1641.45,1324.07,1641.45Z"/><path class="cls-32" d="M1253.1,1755.88l2.34-1.48a6.1,6.1,0,0,0,1.71-8.74c-8-11.07-24.19-36.74-9.52-45.48,18.91-11.27,96.27-39.45,109.25-70.33,12.48-29.68-7.42-62.62-30.94-69.32a3.08,3.08,0,0,0-3.78,1.89l-1.31,3.75a3,3,0,0,1-5.61.25,3,3,0,0,0-5.5,0c-4,9.26-16.26,25.12-53.41,37.88-52.8,18.12-85.41,45.45-80.7,83.11a3,3,0,0,1-4.26,3.15c-4.38-1.84-11-2-18.46,6.46-13,14.77-2.08,46.38,34.6,68.25a3,3,0,0,1,.57,4.81c-5.35,4.74-12.81,15.24,11.91,24.06,25.56,9.12,43.09,5.44,49.73,3.3a3,3,0,0,0,1.87-4l-12.19-31.89a3,3,0,0,1,2.38-4.07Z"/><path class="cls-33" d="M1255.51,1762.63s-19-44.52-37.79-28.44,18.52,50.3,35.48,49.54Z"/><path class="cls-34" d="M1213.88,3139.12s-6,34-8.94,67.63a23.18,23.18,0,0,0,22.17,25.11c44.8,1.87,140.64,5.49,175,4a7.53,7.53,0,0,0,6.63-10.33,16.86,16.86,0,0,0-8.63-9.1l-158.3-72.75Z"/><path class="cls-35" d="M1209,3119.15l4.82,40.65s27.73,12.91,46.67-1.63l-11.49-45.3Z"/><path class="cls-36" d="M1212.59,2354.87c-2.08,10.62-11.18,529.77,44.31,762.42a7.88,7.88,0,0,1-4.63,9.18,137.37,137.37,0,0,1-45.2,9.19,13.61,13.61,0,0,1-13.49-9.76c-15.86-54-91.87-324.43-101.79-582.78-11.08-288.68,0-9.83,0-9.83l6.5-178.44Z"/><path class="cls-37" d="M1031.79,3156.85s-9.56,17.15-18.81,62.75a14.14,14.14,0,0,0,12.44,16.93c14.8,1.46,37.57,3.33,55.81,3.2a14.1,14.1,0,0,0,14-15.73c-2-16.64-8.31-43.94-27.76-65.22Z"/><path class="cls-38" d="M1023.39,3104.56l11.27,61.48s11.15,8.28,33.19,2.28l-5.38-66.15Z"/><path class="cls-39" d="M1012.69,2316.72c-60.64,183.83-9.9,731.07,8.73,810a12.32,12.32,0,0,0,9.93,9.35c8.32,1.37,22,2.5,35.5-1.42a11.27,11.27,0,0,0,8.11-10.38c2.5-63.79-2-455.35,40.29-610.09a35.15,35.15,0,0,1,13.56-19.4l82.08-58.35,6.29-94.32Z"/><path class="cls-40" d="M1012.13,2316.2l18.35-76.86c44.27,13.08,94.37,21.5,150,25.52,60-38,107.19-88.54,147.55-145.79l.75,6.91a8,8,0,0,1-.84,4.53l-115.32,224.36Z"/><path class="cls-41" d="M1369.77,1923.52l-324.34,260.89c5.75-24.37,4.06-26.48,12.77-52.84l267-229.69C1347,1905.3,1367.15,1909.71,1369.77,1923.52Z"/><path class="cls-42" d="M1137.61,1882.45l8.63,388.54h34.21l-10.67-395.73C1148.12,1872.86,1141.22,1877,1137.61,1882.45Z"/></g></g></svg>