<svg id="Layer_1" data-name="Layer 1" xmlns="http://www.w3.org/2000/svg" xmlns:xlink="http://www.w3.org/1999/xlink" viewBox="0 0 407.52 257.93"><defs><style>.cls-1{fill:none;}.cls-2{fill:#054ddd;}.cls-3{fill:#4779f6;}.cls-4{fill:#130751;}.cls-5{fill:#b6ceff;}.cls-6{fill:#e4eafe;}.cls-12,.cls-7{fill:#fff;}.cls-7{opacity:0.24;}.cls-8{fill:#fca232;}.cls-9{fill:#f98816;}.cls-10{font-size:18.95px;fill:#fbfffd;font-family:Montserrat-Black, Montserrat;font-weight:800;}.cls-11{clip-path:url(#clip-path);}.cls-13{clip-path:url(#clip-path-2);}.cls-14{opacity:0.51;}.cls-15{fill:#ffb564;}</style><clipPath id="clip-path" transform="translate(-195.52 -212.88)"><path class="cls-1" d="M226.07,331a4.59,4.59,0,1,1-4.59-4.59A4.59,4.59,0,0,1,226.07,331Z"/></clipPath><clipPath id="clip-path-2" transform="translate(-195.52 -212.88)"><path class="cls-1" d="M226.07,351a4.59,4.59,0,1,1-4.59-4.59A4.59,4.59,0,0,1,226.07,351Z"/></clipPath></defs><polygon class="cls-2" points="168.32 208.52 162.46 249.15 232 249.15 225.41 208.52 168.32 208.52"/><rect class="cls-2" x="138.3" y="255" width="117.85" height="2.93"/><polygon class="cls-3" points="162.46 249.15 138.3 255 256.15 255 232 249.15 162.46 249.15"/><path class="cls-4" d="M72.63,35.44h249.2a11.25,11.25,0,0,1,11.25,11.25V187.6a0,0,0,0,1,0,0H61.38a0,0,0,0,1,0,0V46.69A11.25,11.25,0,0,1,72.63,35.44Z"/><path class="cls-3" d="M61.38,187.6H333.08a0,0,0,0,1,0,0v14.84a11.21,11.21,0,0,1-11.21,11.21H72.58a11.21,11.21,0,0,1-11.21-11.21V187.6A0,0,0,0,1,61.38,187.6Z"/><rect class="cls-5" x="71.4" y="44.22" width="251.66" height="133.95"/><path class="cls-4" d="M398.06,412.47a5.31,5.31,0,1,1-5.31-5.3A5.31,5.31,0,0,1,398.06,412.47Z" transform="translate(-195.52 -212.88)"/><rect class="cls-3" x="111.08" y="59.51" width="89.11" height="104.01"/><rect class="cls-6" x="123.95" y="73.7" width="63.35" height="5.67"/><rect class="cls-6" x="123.95" y="84.1" width="63.35" height="5.67"/><rect class="cls-6" x="123.95" y="94.5" width="63.35" height="5.67"/><rect class="cls-6" x="123.95" y="104.9" width="63.35" height="5.67"/><rect class="cls-6" x="123.95" y="115.3" width="63.35" height="5.67"/><rect class="cls-6" x="123.95" y="125.7" width="63.35" height="5.67"/><rect class="cls-6" x="123.95" y="136.1" width="63.35" height="5.67"/><rect class="cls-6" x="123.95" y="146.51" width="63.35" height="5.67"/><path class="cls-4" d="M455.71,310.13v-9.07h-5.64a19.22,19.22,0,0,0-2.34-5.75l4-4-6.41-6.41-4,4a19.46,19.46,0,0,0-5.72-2.41v-5.69h-9.07v5.64a19.62,19.62,0,0,0-5.75,2.35l-4-4-6.41,6.41,4,4a19.63,19.63,0,0,0-2.41,5.73h-5.69v9.06h5.64a19.68,19.68,0,0,0,2.35,5.76l-4,4,6.41,6.4,4-4a19.44,19.44,0,0,0,5.72,2.4v5.69h9.06v-5.64a19.55,19.55,0,0,0,5.76-2.34l4,4,6.41-6.41-4-4a19.46,19.46,0,0,0,2.41-5.72ZM431,314.2a8.71,8.71,0,1,1,8.72-8.71A8.71,8.71,0,0,1,431,314.2Z" transform="translate(-195.52 -212.88)"/><path class="cls-4" d="M489.52,337.92v-7.13h-4.44a15.25,15.25,0,0,0-1.84-4.53l3.16-3.17-5-5-3.14,3.14a15.21,15.21,0,0,0-4.5-1.9v-4.48h-7.14v4.45A15.25,15.25,0,0,0,462,321.1l-3.16-3.16-5.05,5,3.14,3.14a15.13,15.13,0,0,0-1.89,4.51H450.6v7.13H455a15.15,15.15,0,0,0,1.84,4.53l-3.16,3.17,5,5,3.14-3.14a15.27,15.27,0,0,0,4.51,1.9v4.48h7.14V349.3a15.55,15.55,0,0,0,4.53-1.85l3.16,3.17,5.05-5.05-3.14-3.14a15.4,15.4,0,0,0,1.89-4.51Zm-19.46,3.21a6.86,6.86,0,1,1,6.86-6.85A6.86,6.86,0,0,1,470.06,341.13Z" transform="translate(-195.52 -212.88)"/><path class="cls-4" d="M450.46,354.43v-5.06h-3.15a11.18,11.18,0,0,0-1.31-3.21l2.24-2.25-3.58-3.58-2.23,2.23a10.59,10.59,0,0,0-3.19-1.34V338h-5.07v3.15A10.9,10.9,0,0,0,431,342.5l-2.25-2.25-3.58,3.58,2.23,2.23a10.8,10.8,0,0,0-1.34,3.2h-3.18v5.06H426a10.9,10.9,0,0,0,1.31,3.21l-2.25,2.25,3.58,3.58,2.23-2.23a10.93,10.93,0,0,0,3.2,1.35v3.17h5.06V362.5a10.7,10.7,0,0,0,3.22-1.31l2.24,2.25,3.58-3.58-2.23-2.23a10.82,10.82,0,0,0,1.35-3.2Zm-13.81,2.28a4.87,4.87,0,1,1,4.86-4.86A4.87,4.87,0,0,1,436.65,356.71Z" transform="translate(-195.52 -212.88)"/><polygon class="cls-7" points="190.83 44.22 136.72 178.18 166.67 178.18 220.29 44.22 190.83 44.22"/><polygon class="cls-7" points="238.92 44.22 188.4 178.18 200.44 178.18 251.83 44.22 238.92 44.22"/><path class="cls-2" d="M479.49,271.78a2,2,0,0,1-.91-.21,4.68,4.68,0,0,0-3.83,0,2.09,2.09,0,0,1-2.77-.95,2.07,2.07,0,0,1,.9-2.77,9,9,0,0,1,7.52,0,2.07,2.07,0,0,1-.91,3.94Z" transform="translate(-195.52 -212.88)"/><path class="cls-2" d="M484.53,266.14a2,2,0,0,1-1.19-.38c-6.68-4.68-13.09-.07-13.15,0a2.08,2.08,0,1,1-2.47-3.34,15.7,15.7,0,0,1,18,0,2.08,2.08,0,0,1-1.2,3.78Z" transform="translate(-195.52 -212.88)"/><path class="cls-2" d="M489.58,260.87a2.08,2.08,0,0,1-1.27-.44c-12.38-9.57-22.47-.51-22.9-.12a2.08,2.08,0,0,1-2.83-3c.13-.12,13.05-11.89,28.27-.13a2.08,2.08,0,0,1-1.27,3.73Z" transform="translate(-195.52 -212.88)"/><circle class="cls-8" cx="530.32" cy="269.39" r="32.28" transform="translate(-230.69 241.01) rotate(-45)"/><path class="cls-9" d="M505.72,248.51a32.27,32.27,0,0,0,47,44.12C515.75,287.4,507.34,263.18,505.72,248.51Z" transform="translate(-195.52 -212.88)"/><text class="cls-10" transform="translate(311.41 62.09)">CMS</text><path class="cls-3" d="M558.75,446.19h2.38a24.81,24.81,0,0,0,0-49.57h-2.38a24.82,24.82,0,0,0,0,49.56Zm-15-8.74a28,28,0,0,1,5.07-2.92,29.59,29.59,0,0,0,7.07,9.38A22.9,22.9,0,0,1,543.77,437.45Zm15.35,6.62a28.29,28.29,0,0,1-8.49-10.26,28.77,28.77,0,0,1,8.49-1.68Zm0-13.86a30.44,30.44,0,0,0-9.27,1.85,28.51,28.51,0,0,1-2-8.88h11.25Zm0-8.95H547.81a28.71,28.71,0,0,1,1.54-9.18,30.47,30.47,0,0,0,9.77,2.07Zm4.8,22.71a29.45,29.45,0,0,0,7.3-9.78,27.4,27.4,0,0,1,5.46,3A22.81,22.81,0,0,1,563.92,444Zm14-8.27a29,29,0,0,0-6-3.28,30.23,30.23,0,0,0,2-9.25h8.95A22.63,22.63,0,0,1,578,435.7Zm.72-27.64a22.71,22.71,0,0,1,4.3,13.19h-9a30.25,30.25,0,0,0-1.57-9.55A30,30,0,0,0,578.67,408.06Zm-1.18-1.5a28.79,28.79,0,0,1-5.72,3.34,30,30,0,0,0-7.85-11.06A22.83,22.83,0,0,1,577.49,406.56ZM561,399A28,28,0,0,1,570,410.61a28.34,28.34,0,0,1-8.94,1.65Zm0,15.23a30,30,0,0,0,9.6-1.77,28.47,28.47,0,0,1,1.44,8.84H561Zm0,9h11a28.08,28.08,0,0,1-1.86,8.58,30.57,30.57,0,0,0-9.12-1.56Zm0,8.92a28.92,28.92,0,0,1,8.37,1.42A28.31,28.31,0,0,1,561,443.87Zm-1.92-33.35v13.48a27.94,27.94,0,0,1-9.08-1.94A28.23,28.23,0,0,1,559.12,398.75Zm-3.21.15a30.15,30.15,0,0,0-7.63,10.63,29,29,0,0,1-5.32-3.3A22.86,22.86,0,0,1,555.91,398.9Zm-14.16,8.81a29.86,29.86,0,0,0,5.84,3.61,30.67,30.67,0,0,0-1.7,9.95h-8.71A22.67,22.67,0,0,1,541.75,407.71Zm-4.49,15.48H546a30.42,30.42,0,0,0,2.12,9.6,29.46,29.46,0,0,0-5.6,3.24A22.62,22.62,0,0,1,537.26,423.19Z" transform="translate(-195.52 -212.88)"/><rect class="cls-3" x="18.26" y="111.52" width="70.38" height="14.85"/><g class="cls-11"><path class="cls-12" d="M226.07,331a4.59,4.59,0,1,1-4.59-4.59A4.59,4.59,0,0,1,226.07,331Z" transform="translate(-195.52 -212.88)"/><path class="cls-3" d="M223.08,329.35a1.6,1.6,0,1,1-1.6-1.6A1.6,1.6,0,0,1,223.08,329.35Z" transform="translate(-195.52 -212.88)"/><path class="cls-3" d="M25.44,118.17h1a2.66,2.66,0,0,1,2.66,2.66v2a0,0,0,0,1,0,0H22.78a0,0,0,0,1,0,0v-2A2.66,2.66,0,0,1,25.44,118.17Z"/></g><rect class="cls-12" x="32.78" y="115.3" width="46.84" height="0.71"/><rect class="cls-12" x="32.78" y="117.43" width="46.84" height="0.71"/><rect class="cls-12" x="32.78" y="119.56" width="46.84" height="0.71"/><rect class="cls-12" x="32.78" y="121.69" width="46.84" height="0.71"/><rect class="cls-3" x="18.26" y="131.52" width="70.38" height="14.85"/><g class="cls-13"><path class="cls-12" d="M226.07,351a4.59,4.59,0,1,1-4.59-4.59A4.59,4.59,0,0,1,226.07,351Z" transform="translate(-195.52 -212.88)"/><path class="cls-3" d="M223.08,349.35a1.6,1.6,0,1,1-1.6-1.6A1.6,1.6,0,0,1,223.08,349.35Z" transform="translate(-195.52 -212.88)"/><path class="cls-3" d="M25.44,138.17h1a2.66,2.66,0,0,1,2.66,2.66v2a0,0,0,0,1,0,0H22.78a0,0,0,0,1,0,0v-2A2.66,2.66,0,0,1,25.44,138.17Z"/></g><rect class="cls-12" x="32.78" y="135.3" width="46.84" height="0.71"/><rect class="cls-12" x="32.78" y="137.43" width="46.84" height="0.71"/><rect class="cls-12" x="32.78" y="139.56" width="46.84" height="0.71"/><rect class="cls-12" x="32.78" y="141.69" width="46.84" height="0.71"/><polygon class="cls-3" points="61.59 26.89 46.06 0 30.54 26.89 40.89 26.89 40.89 60.46 51.24 60.46 51.24 26.89 61.59 26.89"/><polygon class="cls-8" points="62.3 33.57 77.83 60.46 93.35 33.57 83 33.57 83 0 72.65 0 72.65 33.57 62.3 33.57"/><g class="cls-14"><rect class="cls-3" x="301.1" y="111.05" width="106.42" height="57.72"/><rect class="cls-6" x="305.93" y="116.93" width="88.63" height="4.15"/><rect class="cls-6" x="305.93" y="123.67" width="61.96" height="4.15"/><rect class="cls-6" x="305.93" y="130.42" width="75.83" height="4.15"/><rect class="cls-6" x="305.93" y="137.16" width="88.63" height="4.15"/><rect class="cls-6" x="305.93" y="143.9" width="81.79" height="4.15"/><rect class="cls-6" x="305.93" y="150.65" width="72.68" height="4.15"/><rect class="cls-6" x="305.93" y="157.39" width="83.54" height="4.15"/></g><rect class="cls-8" y="193.71" width="68.48" height="39.87"/><polygon class="cls-15" points="0 233.58 34.24 211.19 68.48 233.58 0 233.58"/><polygon class="cls-9" points="0 193.71 34.24 221.2 68.48 193.71 0 193.71"/></svg>