<svg xmlns="http://www.w3.org/2000/svg" xmlns:xlink="http://www.w3.org/1999/xlink" viewBox="0 0 2892.8 2912.26"><defs><style>.cls-1{fill:none;}.cls-2{isolation:isolate;}.cls-3{fill:#f4f7fa;}.cls-4{clip-path:url(#clip-path);}.cls-5{clip-path:url(#clip-path-2);}.cls-6{fill:url(#linear-gradient);}.cls-51,.cls-7{opacity:0.5;mix-blend-mode:soft-light;}.cls-8{fill:#beb8f2;}.cls-9{fill:url(#linear-gradient-2);}.cls-10{clip-path:url(#clip-path-3);}.cls-11{fill:#fcfdfe;}.cls-12{fill:url(#linear-gradient-3);}.cls-13{clip-path:url(#clip-path-4);}.cls-14{fill:url(#linear-gradient-4);}.cls-15{fill:url(#linear-gradient-5);}.cls-16,.cls-20,.cls-30,.cls-33,.cls-38,.cls-45,.cls-57{opacity:0.3;}.cls-16,.cls-20,.cls-24,.cls-30,.cls-33,.cls-38,.cls-45,.cls-52,.cls-57{mix-blend-mode:multiply;}.cls-16{fill:url(#linear-gradient-6);}.cls-17{fill:url(#linear-gradient-7);}.cls-18{fill:url(#linear-gradient-8);}.cls-19{fill:url(#linear-gradient-9);}.cls-20{fill:url(#linear-gradient-10);}.cls-21,.cls-52{fill:#d8dee8;}.cls-22{fill:url(#linear-gradient-11);}.cls-23{fill:url(#linear-gradient-12);}.cls-24{opacity:0.2;}.cls-25{fill:url(#linear-gradient-13);}.cls-26{fill:url(#linear-gradient-14);}.cls-27{fill:url(#linear-gradient-15);}.cls-28{fill:url(#linear-gradient-16);}.cls-29{fill:url(#linear-gradient-17);}.cls-30{fill:url(#linear-gradient-18);}.cls-31{fill:url(#linear-gradient-19);}.cls-32{fill:url(#linear-gradient-20);}.cls-33{fill:url(#linear-gradient-21);}.cls-34{fill:url(#linear-gradient-22);}.cls-35{fill:url(#linear-gradient-23);}.cls-36{fill:url(#linear-gradient-24);}.cls-37{fill:url(#linear-gradient-25);}.cls-38{fill:url(#linear-gradient-26);}.cls-39{fill:url(#linear-gradient-27);}.cls-40{fill:url(#linear-gradient-28);}.cls-41{fill:url(#linear-gradient-29);}.cls-42{fill:url(#linear-gradient-30);}.cls-43{fill:url(#linear-gradient-31);}.cls-44{fill:url(#linear-gradient-32);}.cls-45{fill:url(#linear-gradient-33);}.cls-46{fill:url(#linear-gradient-34);}.cls-47{fill:url(#linear-gradient-35);}.cls-48{fill:url(#linear-gradient-36);}.cls-49{fill:url(#linear-gradient-37);}.cls-50{fill:url(#linear-gradient-38);}.cls-51{fill:#fff;}.cls-53{fill:url(#linear-gradient-39);}.cls-54{fill:url(#linear-gradient-40);}.cls-55{fill:url(#linear-gradient-41);}.cls-56{fill:url(#linear-gradient-42);}.cls-57{fill:url(#linear-gradient-43);}</style><clipPath id="clip-path" transform="translate(-488.58 -455)"><rect class="cls-1" x="2356.43" y="1468.97" width="994.76" height="1034.12"/></clipPath><clipPath id="clip-path-2" transform="translate(-488.58 -455)"><path class="cls-1" d="M2136.72,2772.19l146.8,150.73s105-46.94,123.55-137c37.93-183.8,196.26-137.75,265.46-128.39,104.36,14.13,202.49-18.94,146.52-134.65s164.92-159.79,330.17-112.69c161.72,46.09,337-214.77-3.88-346.67-203.55-78.77-332.59,90.3-418.06,160.19s-206.11-40.94-263.3,92.91c-48.85,114.33-45.41,237.81-150.31,243.19S2140.39,2621.75,2136.72,2772.19Z"/></clipPath><linearGradient id="linear-gradient" x1="8443.34" y1="97.58" x2="8024.47" y2="1288.06" gradientTransform="matrix(0.7, 0.72, -0.72, 0.7, -2547.2, -3932.36)" gradientUnits="userSpaceOnUse"><stop offset="0" stop-color="#ffc444"/><stop offset="1" stop-color="#f36f56"/></linearGradient><linearGradient id="linear-gradient-2" x1="-2088.34" y1="2713.64" x2="-1539.99" y2="4154.47" gradientTransform="matrix(-0.98, 0.22, 0.22, 0.98, 45.92, -748.55)" xlink:href="#linear-gradient"/><clipPath id="clip-path-3" transform="translate(-488.58 -455)"><path class="cls-1" d="M2706.51,2746.57l-195.85,7.6s-86-113-29-165.51-6.31-166.42-32.42-230.92c-70.84-175,144.06-217.36,72.52-449.27-19-61.68-77.65-173.09-36.54-238,46.83-73.88,110.66-32.08,137.42-90.4,41.84-91.16,138.34-146.63,224-88.8,84.55,57.08,55.53,225.86-93.6,396.67-92.2,133.57-84.93,163.81-52.86,233.43,22.46,48.77,115.66,166.12,57.49,239.64s-97.47,146.38-51.06,195.58C2777.21,2631.5,2706.51,2746.57,2706.51,2746.57Z"/></clipPath><linearGradient id="linear-gradient-3" x1="3215.03" y1="2375.61" x2="3867.77" y2="3450.19" gradientTransform="matrix(-0.99, 0.1, 0.1, 0.99, 5945.16, -947.37)" gradientUnits="userSpaceOnUse"><stop offset="0" stop-color="#ff9085"/><stop offset="1" stop-color="#fb6fbb"/></linearGradient><clipPath id="clip-path-4" transform="translate(-488.58 -455)"><path class="cls-1" d="M2688.17,2822.26l-297.84,28.42c-21.68-38.13-51.84-109.42,8.5-133.47,83.89-33.42,69.08-177.67,39.31-226.17-36.84-60-119.6-201.47,9.23-255.08,107.25-44.62,186.16-52.72,178.08-188.57s60.14-228.17,190.86-233.49c137.57-5.61,229.41-188.71,348-142.84,206.71,79.93,65,395.74-161.95,506.37s-81.51,177.27-62.13,287.13c26.45,150-193.48,140-243.61,205.16C2657.36,2720.8,2673.19,2784.07,2688.17,2822.26Z"/></clipPath><linearGradient id="linear-gradient-4" x1="4276.84" y1="1790.7" x2="2557.04" y2="2522.26" gradientTransform="matrix(1, 0.02, 0, 1, -488.58, -469.43)" gradientUnits="userSpaceOnUse"><stop offset="0" stop-color="#e38ddd"/><stop offset="1" stop-color="#9571f6"/></linearGradient><linearGradient id="linear-gradient-5" x1="2946.12" y1="2395.07" x2="3559.82" y2="3405.37" xlink:href="#linear-gradient-4"/><linearGradient id="linear-gradient-6" x1="2224.04" y1="2580.03" x2="2782.88" y2="2580.03" gradientTransform="matrix(1, 0, 0, 1, 0, 0)" xlink:href="#linear-gradient-4"/><linearGradient id="linear-gradient-7" x1="3086.33" y1="1501.83" x2="1596.84" y2="2135.42" gradientTransform="matrix(1, 0, 0, 1, 0, 0)" xlink:href="#linear-gradient-4"/><linearGradient id="linear-gradient-8" x1="2013.18" y1="2728.69" x2="2468.08" y2="3477.56" xlink:href="#linear-gradient-4"/><linearGradient id="linear-gradient-9" x1="1068.65" y1="1584.66" x2="1333.75" y2="2026.89" gradientUnits="userSpaceOnUse"><stop offset="0" stop-color="#e38ddd"/><stop offset="1" stop-color="#ac79ef"/><stop offset="1" stop-color="#9571f6"/></linearGradient><linearGradient id="linear-gradient-10" x1="1240.01" y1="2832.36" x2="1761.09" y2="2832.36" gradientTransform="matrix(1, 0, 0, 1, 0, 0)" xlink:href="#linear-gradient-4"/><linearGradient id="linear-gradient-11" x1="210.59" y1="2164.27" x2="267.35" y2="2164.27" gradientTransform="matrix(0.99, -0.15, 0.15, 0.99, 280.47, 249.08)" gradientUnits="userSpaceOnUse"><stop offset="0" stop-color="#f36f56"/><stop offset="1" stop-color="#ffc444"/></linearGradient><linearGradient id="linear-gradient-12" x1="1245.2" y1="2413.49" x2="828.02" y2="2846.72" gradientTransform="matrix(0.97, -0.24, 0.24, 0.97, -590.41, -211.84)" gradientUnits="userSpaceOnUse"><stop offset="0" stop-color="#ab316d"/><stop offset="1" stop-color="#792d3d"/></linearGradient><linearGradient id="linear-gradient-13" x1="1209.57" y1="2400.56" x2="802.67" y2="2823.11" xlink:href="#linear-gradient-12"/><linearGradient id="linear-gradient-14" x1="6372.39" y1="-6497.64" x2="6265.25" y2="-6121.76" gradientTransform="translate(-4021.17 -4819.37) rotate(100.22)" gradientUnits="userSpaceOnUse"><stop offset="0" stop-color="#444b8c"/><stop offset="1" stop-color="#26264f"/></linearGradient><linearGradient id="linear-gradient-15" x1="-3593.25" y1="-7.26" x2="-3550.09" y2="-7.26" gradientTransform="matrix(0.55, -0.84, 0.84, 0.55, 3706.57, -1059.03)" xlink:href="#linear-gradient-11"/><linearGradient id="linear-gradient-16" x1="-2628.17" y1="579.89" x2="-2740.91" y2="975.43" gradientTransform="matrix(0.81, -0.58, 0.58, 0.81, 3416.04, -529.54)" xlink:href="#linear-gradient-14"/><linearGradient id="linear-gradient-17" x1="-932.68" y1="1392.6" x2="-1304.26" y2="1697.82" gradientTransform="translate(1792.95 -49.47) rotate(-24.47)" xlink:href="#linear-gradient-12"/><linearGradient id="linear-gradient-18" x1="-346.16" y1="1926.57" x2="-1299.14" y2="1413.09" gradientTransform="translate(1792.95 -49.47) rotate(-24.47)" xlink:href="#linear-gradient-12"/><linearGradient id="linear-gradient-19" x1="-289.49" y1="-3168.79" x2="-275.44" y2="-3123.91" gradientTransform="matrix(0.84, -0.55, 0.55, 0.84, 3575.37, 3506.38)" xlink:href="#linear-gradient-11"/><linearGradient id="linear-gradient-20" x1="254.81" y1="943.88" x2="371.74" y2="1947.82" gradientTransform="translate(877.21 75.2) rotate(-11.77)" xlink:href="#linear-gradient-11"/><linearGradient id="linear-gradient-21" x1="293.67" y1="1108.13" x2="360.05" y2="1678.07" gradientTransform="translate(877.21 75.2) rotate(-11.77)" xlink:href="#linear-gradient-11"/><linearGradient id="linear-gradient-22" x1="-2179.73" y1="1258.96" x2="-2188.65" y2="1151.85" gradientTransform="matrix(-1, -0.05, -0.05, 1, -872.44, -222.46)" xlink:href="#linear-gradient-14"/><linearGradient id="linear-gradient-23" x1="1757.4" y1="984.96" x2="1786.81" y2="1426.07" gradientTransform="translate(-376.23 -116.28) rotate(5.8)" xlink:href="#linear-gradient-11"/><linearGradient id="linear-gradient-24" x1="4756.83" y1="1925.83" x2="4841.01" y2="2014.56" gradientTransform="translate(-3811.45 -60.39) rotate(-9.17)" xlink:href="#linear-gradient-11"/><linearGradient id="linear-gradient-25" x1="1788.6" y1="4597.37" x2="1923.37" y2="852.81" gradientTransform="matrix(1, 0.02, -0.02, 1, -95.89, -37.35)" gradientUnits="userSpaceOnUse"><stop offset="0" stop-color="#aa80f9"/><stop offset="1" stop-color="#6165d7"/></linearGradient><linearGradient id="linear-gradient-26" x1="1887.75" y1="1267.28" x2="1897.58" y2="994.35" xlink:href="#linear-gradient-25"/><linearGradient id="linear-gradient-27" x1="1965.18" y1="581.4" x2="1908.92" y2="1001.1" gradientTransform="matrix(1, 0.02, -0.02, 1, -584.47, -492.35)" xlink:href="#linear-gradient-25"/><linearGradient id="linear-gradient-28" x1="1957.66" y1="462.38" x2="1884.18" y2="1396.12" gradientTransform="matrix(1, 0.02, -0.02, 1, -584.47, -492.35)" xlink:href="#linear-gradient-25"/><linearGradient id="linear-gradient-29" x1="2379.53" y1="591" x2="1886.1" y2="1449.23" gradientTransform="matrix(1, 0.02, -0.02, 1, -95.89, -37.35)" xlink:href="#linear-gradient"/><linearGradient id="linear-gradient-30" x1="2325.07" y1="1363.19" x2="2357.42" y2="1060.8" gradientTransform="matrix(1, 0.02, -0.02, 1, -95.89, -37.35)" xlink:href="#linear-gradient"/><linearGradient id="linear-gradient-31" x1="-2254" y1="1168.16" x2="-2230.59" y2="1242.93" gradientTransform="matrix(-0.99, -0.11, -0.11, 0.99, -372.21, -127.17)" xlink:href="#linear-gradient-11"/><linearGradient id="linear-gradient-32" x1="186.79" y1="981.52" x2="355.78" y2="2432.47" gradientTransform="translate(877.21 75.2) rotate(-11.77)" xlink:href="#linear-gradient-11"/><linearGradient id="linear-gradient-33" x1="-12.83" y1="1294.84" x2="393.44" y2="1733.19" gradientTransform="translate(877.21 75.2) rotate(-11.77)" xlink:href="#linear-gradient-11"/><linearGradient id="linear-gradient-34" x1="3912.48" y1="3000.73" x2="3731.67" y2="3609.77" gradientTransform="translate(-1675.05)" gradientUnits="userSpaceOnUse"><stop offset="0" stop-color="#40447e"/><stop offset="1" stop-color="#3c3b6b"/></linearGradient><linearGradient id="linear-gradient-35" x1="3986" y1="3224.7" x2="4803.8" y2="3224.7" xlink:href="#linear-gradient-34"/><linearGradient id="linear-gradient-36" x1="3571.34" y1="2998.59" x2="4105.03" y2="3004.42" gradientTransform="translate(-1675.05)" xlink:href="#linear-gradient"/><linearGradient id="linear-gradient-37" x1="-1238.98" y1="2392.93" x2="-2672.06" y2="2259.75" gradientTransform="translate(-1675.05)" xlink:href="#linear-gradient"/><linearGradient id="linear-gradient-38" x1="-1253.84" y1="2552.97" x2="-2686.93" y2="2419.79" gradientTransform="translate(-1675.05)" xlink:href="#linear-gradient"/><linearGradient id="linear-gradient-39" x1="3736.8" y1="3118.89" x2="3683.99" y2="3040.7" gradientTransform="translate(-1675.05)" xlink:href="#linear-gradient-25"/><linearGradient id="linear-gradient-40" x1="2576.15" y1="1634.72" x2="1293.6" y2="2180.29" gradientTransform="matrix(1, 0, 0, 1, 0, 0)" xlink:href="#linear-gradient-4"/><linearGradient id="linear-gradient-41" x1="1317.45" y1="3042.96" x2="1635.4" y2="3566.39" xlink:href="#linear-gradient-4"/><linearGradient id="linear-gradient-42" x1="396.32" y1="2087.56" x2="676.36" y2="2554.73" gradientTransform="matrix(1, 0, 0, 1, 0, 0)" xlink:href="#linear-gradient-4"/><linearGradient id="linear-gradient-43" x1="488.58" y1="3076.72" x2="995.34" y2="3076.72" gradientTransform="matrix(1, 0, 0, 1, 0, 0)" xlink:href="#linear-gradient-4"/></defs><g class="cls-2"><g id="Illustration"><path class="cls-3" d="M2446.55,512.17c-212.42-45.19-433.27-66.85-649.2-53C1606,471.36,1389,504.76,1235,624.39c-73.39,57-160.92,159.46-184.93,249.84,0,0-126.37,475.72-379.1,577.65s-428.25,1841.7,1488.34,1671.8c0,0,1125.7-44.52,1193.48-1326.88,16.37-309.78,7.23-650.33-188.93-909.36C3013.55,689,2803,600.69,2561,538.94Q2504.23,524.46,2446.55,512.17Z" transform="translate(-488.58 -455)"/><g class="cls-4"><g class="cls-5"><path class="cls-6" d="M2136.72,2772.19l146.8,150.73s105-46.94,123.55-137c37.93-183.8,196.26-137.75,265.46-128.39,104.36,14.13,189.94-18.2,159.32-127.6-34.64-123.78,152.12-166.84,317.37-119.74,161.72,46.09,337-214.77-3.88-346.67-203.55-78.77-332.59,90.3-418.06,160.19s-206.11-40.94-263.3,92.91c-48.85,114.33-45.41,237.81-150.31,243.19S2140.39,2621.75,2136.72,2772.19Z" transform="translate(-488.58 -455)"/><g class="cls-7"><path class="cls-8" d="M2186.27,2851.05l3.62,2.57c1.59-2.24,161.83-226.28,387.66-400.47,208-160.49,515.94-310.28,801.3-112.51l2.53-3.65c-127-88-269-115.71-422-82.26-122.19,26.73-251.61,92.32-384.65,194.95C2348.44,2624.29,2187.86,2848.8,2186.27,2851.05Z" transform="translate(-488.58 -455)"/><path class="cls-8" d="M2896.1,2271.47l3.47,2.78c92.35-115.45,280.64-220.81,282.53-221.87l-2.16-3.88C3178,2049.56,2989,2155.35,2896.1,2271.47Z" transform="translate(-488.58 -455)"/><path class="cls-8" d="M2998.63,2252c171.07,42.11,236.52,173.38,237.16,174.7l4-1.94c-.65-1.34-66.93-134.45-240.1-177.08Z" transform="translate(-488.58 -455)"/><path class="cls-8" d="M2436.12,2575.07c184.67-110.54,420.2,57.67,422.36,59.5l3.08-3.19c-1.94-2-241.41-171.64-427.72-60.12Z" transform="translate(-488.58 -455)"/><path class="cls-8" d="M2498.73,2512.17l3.69,2.49c76.81-113.86,41.32-282.9,40.95-284.59l-4.34.94C2539.39,2232.69,2574.47,2399.91,2498.73,2512.17Z" transform="translate(-488.58 -455)"/><path class="cls-8" d="M2215.88,2818.92c62.86-52.28,190.3-14,191.58-13.55l1.3-4.25c-5.32-1.64-131-39.44-195.72,14.39Z" transform="translate(-488.58 -455)"/><path class="cls-8" d="M2253.11,2765.36l3.6,2.61c38.05-52.25,21.7-170.79,16.33-209.74-.76-5.51-1.42-10.26-1.37-11.13l-4.43-.31c-.09,1.22.34,4.38,1.4,12.05C2274,2597.35,2290.12,2714.55,2253.11,2765.36Z" transform="translate(-488.58 -455)"/></g></g><path class="cls-9" d="M2706.59,2556.64c40.6,43,32.17,99.78,19.64,139.89-5.46,1.57-8.21,3.86-13.36,6.65-46.46,25.17-71.64,26-121.35,43.59-10.7,3.78-45.49,5.33-59.74,5.06l-26.57-.94s-80.6-109.75-23.57-162.23-6.31-166.42-32.42-230.92c-16-39.6-10.68-62.85-14.23-78.35-37.63-164.07-100.21-197.64-79.68-258.51,22.67-67.19,105.43-45.52,134-117.31,32.21-81.07-51.69-163.14-4.07-233,8.16-12,16.88-24.07,33.17-34.5,40.22-25.74,83.44-10.55,104.25-55.9,41.84-91.16,138.34-146.63,224-88.8,84.55,57.08,55.53,225.86-93.6,396.67-92.2,133.57-84.93,163.81-52.86,233.43,22.46,48.77,115.66,166.12,57.49,239.64S2660.18,2507.44,2706.59,2556.64Z" transform="translate(-488.58 -455)"/><g class="cls-10"><g class="cls-7"><path class="cls-11" d="M2618.53,2741.26l-3.84.61c-3.55-21.15-6.86-42.53-9.82-63.55-21.92-155.57-27.36-307.63-16.16-452,9.49-122.3,31-240.78,64-352.14,26.53-89.56,60.58-175,101.2-254,28.56-55.53,60-107.32,93.58-153.92,5.85-8.12,12.31-16.13,18.56-23.88,8.32-10.32,16.93-21,24.14-32l3.31,1.83c-7.31,11.17-16,21.92-24.35,32.31-6.22,7.71-12.65,15.68-18.44,23.72-33.43,46.45-64.82,98.08-93.29,153.46-40.52,78.8-74.49,164.06-101,253.41-32.93,111.14-54.43,229.38-63.9,351.45-11.18,144.1-5.75,295.92,16.14,451.25C2611.68,2698.79,2615,2720.14,2618.53,2741.26Z" transform="translate(-488.58 -455)"/><path class="cls-11" d="M2622.36,2012l-3.84-.52c26.61-153-109.8-383.83-111.18-386.15l3.4-1.78C2512.13,1625.91,2649.18,1857.79,2622.36,2012Z" transform="translate(-488.58 -455)"/><path class="cls-11" d="M2588.27,2445.53l-3.88-.1c5-105.76,176.81-234.34,178.55-235.63l2.39,2.8C2763.61,2213.88,2593.19,2341.42,2588.27,2445.53Z" transform="translate(-488.58 -455)"/><path class="cls-11" d="M2591,2505.68l-3.85.54c-9.94-68.3-62.93-155.94-149.2-246.77-4.34-4.57-4.34-4.57-4.45-5.24l3.84-.58-1.92.29,1.67-.94c.25.34,1.89,2.06,3.79,4.06C2527.66,2348.4,2581,2436.7,2591,2505.68Z" transform="translate(-488.58 -455)"/><path class="cls-11" d="M2612.63,2702.56l-3.84-.5c12.77-75.32,118.21-133.11,119.27-133.68l1.92,3.1C2728.93,2572.05,2625.1,2629,2612.63,2702.56Z" transform="translate(-488.58 -455)"/><path class="cls-11" d="M2613,2743.11c-31.8-53.32-81.29-99.68-151.29-141.72l2.15-3c70.54,42.36,120.44,89.13,152.54,143Z" transform="translate(-488.58 -455)"/><path class="cls-11" d="M2734.33,1668.57l-3.79-.72c19.89-84.38,19.77-177,19.73-207.44,0-7.37,0-10,.17-10.87l3.83.57c-.12.7-.12,4.91-.11,10.24C2754.2,1490.88,2754.32,1583.8,2734.33,1668.57Z" transform="translate(-488.58 -455)"/><path class="cls-11" d="M2680.17,1801.64l-3.38-1.73c42.87-70.88,210.8-115.93,217.93-117.81l1,3.46C2894,1686,2722.24,1732.08,2680.17,1801.64Z" transform="translate(-488.58 -455)"/></g></g><path class="cls-12" d="M2654.43,2862.09c-12.92-.3-52.69,119.33-98.49,38.91-11.44-20.09-29.5-91.81-124.32-85.41l-55.23,3.72c-20-39.57-31.58-80.57,22.44-102.1,83.89-33.42,69.08-177.67,39.31-226.17-36.84-60-119.6-201.47,9.23-255.08,107.25-44.62,186.16-52.72,178.08-188.57s60.14-228.17,190.86-233.49c137.57-5.61,229.41-188.71,348-142.84,206.71,79.93,65,395.74-161.95,506.37s-81.5,177.27-62.13,287.13a193,193,0,0,1,0,45.58c-14.19,118.24-132.76,150.6-209.26,254.11C2626.68,2905.43,2676.19,2862.59,2654.43,2862.09Z" transform="translate(-488.58 -455)"/><g class="cls-13"><g class="cls-7"><path class="cls-11" d="M2543.11,2791.43l-6.46-.58c43.51-445.63,316-868.78,711.27-1104.31l3.47,5.18C2857.84,1926.26,2586.45,2347.64,2543.11,2791.43Z" transform="translate(-488.58 -455)"/><path class="cls-11" d="M2588.9,2550.42l-6.45.64c-19.9-174.93-194.08-295.47-195.84-296.67l3.79-5C2392.18,2250.64,2568.69,2372.73,2588.9,2550.42Z" transform="translate(-488.58 -455)"/><path class="cls-11" d="M2553.49,2709.66l-6-2.33c71.48-165,410.4-221.08,413.81-221.63l1.1,6C2959,2492.28,2623.6,2547.82,2553.49,2709.66Z" transform="translate(-488.58 -455)"/><path class="cls-11" d="M2774.92,2148.66l-6.2-1.83c44.65-135-67.2-324.69-68.33-326.6l5.65-3C2707.19,1819.16,2820.39,2011.19,2774.92,2148.66Z" transform="translate(-488.58 -455)"/><path class="cls-11" d="M2957.33,1922.74l-4-4.85c135.17-98.37,364.58-74.32,366.88-74.07l-.74,6.08C3317.22,1849.65,3090.39,1825.91,2957.33,1922.74Z" transform="translate(-488.58 -455)"/></g></g></g><polygon class="cls-14" points="2326.07 2745.86 1737.83 2723.1 1737.83 1501.25 2326.07 1486.95 2326.07 2745.86"/><polygon class="cls-15" points="2752.94 2718.61 2326.07 2745.86 2326.07 1486.95 2752.94 1507.91 2752.94 2718.61"/><path class="cls-16" d="M2782.88,3199.68,2224,3178.1V1960.37c35.78,11.93,117.11,57,117.11,201.09,0,51.67,12.32,105.35,60,132.35,52.76,29.88,119.36,30.84,175.54,51.21,125.21,45.41,154.74,197.9,98.5,307-23.72,46-59.94,83.13-79.52,132.26-16.86,42.31-22.52,87.55-13.23,132.37,17.24,83.06,75.33,152.11,131.92,212.26C2737,3152.93,2759.67,3176.27,2782.88,3199.68Z" transform="translate(-488.58 -455)"/><polygon class="cls-17" points="1320.38 1957.92 1320.38 2805.8 1272.55 2802.92 751.43 2771.07 751.43 1942.24 1320.38 1957.92"/><polygon class="cls-18" points="1817.07 2765.26 1320.3 2805.81 1320.3 1957.91 1817.07 1947.96 1817.07 2765.26"/><polygon class="cls-19" points="752.37 1942.24 1292.53 1919.8 1817.07 1947.96 1314.38 1965.81 752.37 1942.24"/><path class="cls-20" d="M1761.09,3257.92,1240,3226.07V2406.81c35.79,11.93,115.8,57,115.8,201.08,0,178.2,155.92,103.17,244.08,180.07s95.55,172.35,29.9,288.76C1574,3175.65,1701,3197.25,1761.09,3257.92Z" transform="translate(-488.58 -455)"/><path class="cls-21" d="M756,2204.56s1441.62,141.77,1880.8-1020.48L2769,1346.26,2624.78,696.42l-355.7,415.43,180.41-6.09S2228.27,1918.13,756,2204.56Z" transform="translate(-488.58 -455)"/><path class="cls-22" d="M842.33,2330.25l-23,32.42s-4.74,20.52,9.29,13.61l41.58-43Z" transform="translate(-488.58 -455)"/><path class="cls-23" d="M1359.2,1688.21c-30.8,99.82-92,251.52-218.54,406.7C1047,2209.8,947.43,2290,870,2343a65.92,65.92,0,0,1-25.15.73,63.37,63.37,0,0,1-18.48-6.1,380.34,380.34,0,0,1,49.29-113.91c52.2-80.8,93.17-76.05,144.87-147.08,37.85-52,53-108.53,83.31-221.56,23.39-87.29,24.92-108.36,50.11-132.45C1204.91,1673.93,1293.7,1677.85,1359.2,1688.21Z" transform="translate(-488.58 -455)"/><g class="cls-24"><path class="cls-25" d="M892.07,2243.43c18.24-23.49,49.33-47.35,110.66-94.4,63.38-48.64,60.41-39.41,73.25-54.08,57.49-65.68,34.26-140.15,53.59-227.62,10.78-48.8,38.62-111.88,111.43-180.42-32.09,3.86-63.29,14.06-87,35.73-29.14,26.6-29.11,54.09-50.11,132.45-30.31,113-45.46,169.55-83.31,221.56-51.7,71-92.67,66.28-144.87,147.08a380.34,380.34,0,0,0-49.29,113.91,63.37,63.37,0,0,0,18.48,6.1,64.92,64.92,0,0,0,16.83.57C862,2286.34,882.81,2255.35,892.07,2243.43Z" transform="translate(-488.58 -455)"/></g><path class="cls-26" d="M805.17,2358.18l-3.82,72.68c-.24,4.48,4.82,6.9,7.76,3.73a18.86,18.86,0,0,0,5.28-13.59c-.31-13.91,20-43.13,17.2-57.55-.92-4.7-10.72-9.4-13.37-11.57C813,2347.6,805.54,2351.22,805.17,2358.18Z" transform="translate(-488.58 -455)"/><path class="cls-27" d="M1712.82,1916.89l34.59,36.45s10.37-.08,15.86-13.68l-25.87-44.5Z" transform="translate(-488.58 -455)"/><path class="cls-28" d="M1760.33,1975l56.66-51.37a5.09,5.09,0,0,0-3.53-8.86,19.35,19.35,0,0,0-14.29,6c-10,10.66-48,16.62-56.33,29.6-2.72,4.24,1.75,15.42,2.28,19.11A9.16,9.16,0,0,0,1760.33,1975Z" transform="translate(-488.58 -455)"/><path class="cls-29" d="M1750.89,1912.48c-.15.07-3.39,1.69-29.41,25.13a35.8,35.8,0,0,1-13-3.54c-44.66-20.06-117.47-120.32-138.17-176.24-22.91-61.79-81.65.57-277.09,57.16-147.84,42.83-179.57-44.36-186.22-89.39-2.16-14.49-10-34.1-10-34.1s80.17-24.15,173.31-49c96.66-25.81,190.16-21.5,300.66-13.8S1750.89,1912.48,1750.89,1912.48Z" transform="translate(-488.58 -455)"/><path class="cls-30" d="M1570.27,1757.83c-22.91-61.79-81.65.57-277.09,57.16-147.84,42.83-179.57-44.36-186.22-89.39,13.51,1.94,33.71,9.75,63.61,27.26a323.38,323.38,0,0,0,121.21,41.58c39.33,5.1,83.33-21.42,99.06-29.68,56.69-29.74,65.13-93.7,109.43-94.06,43.78-.34,81.58,54.25,111.94,99,32,47,29.22,61.72,53.49,104.19a377.14,377.14,0,0,0,42.74,60.22C1663.78,1914,1591,1813.75,1570.27,1757.83Z" transform="translate(-488.58 -455)"/><path class="cls-31" d="M1570.52,1029.15c1.62-3.17,2.3-16.27-1.37-23.1s-10.67-16.76-6.43-24,1.51-29.19,15.39-27.7,34.82,20.23,24,36.78-10.74,33.63-9.62,38.17S1570.52,1029.15,1570.52,1029.15Z" transform="translate(-488.58 -455)"/><path class="cls-32" d="M1602.86,1027.85c.92,38.44-2.43,72.37-9.25,102.33-23,101.47-85.5,157.35-153.9,188.5-99.23,45.23-211,38.4-233.46,43.11-3.54.77-5.48,1.11-5.48,1.11s13.72-71.75,20.12-133.5a334.78,334.78,0,0,0,52.1-12c.65-.2,1.3-.44,2-.64,7.75-2.54,15.13-5.3,22.26-8.3,71.26-29.77,136,6.83,202.09-63.93,40-42.78,58.84-122.49,58.84-122.49l12.82,1.68Z" transform="translate(-488.58 -455)"/><path class="cls-33" d="M1593.61,1130.18c-23,101.47-85.5,157.35-153.9,188.5-22.58.42-44.08,1.1-62.07,13.89-40.35,28.7-108.56-18.68-108.56-18.68s-.22-47.3-.43-85.5c8.16,0,16-.24,23.77-.9,77.06-6.42,126.41,57.2,211.9,4.18C1544.48,1206.8,1579.76,1153.06,1593.61,1130.18Z" transform="translate(-488.58 -455)"/><path class="cls-34" d="M1272.23,1125.15c8.85-13.79,11.89-13.39,14.48-20.88,5.91-17.06-2.5-40.34-11.51-41.57-5.81-.79-7.21,8.22-21,21.09-16.87,15.76-25.82,12.56-36.24,26.68-2.44,3.3-13.41,18.16-8.85,30.55,5.82,15.81,34.56,21.14,47.85,10.75C1263.28,1146.85,1261.32,1142.13,1272.23,1125.15Z" transform="translate(-488.58 -455)"/><path class="cls-35" d="M1248.91,1138.62s2.37,28.15-3.6,50.23c-5.39,20-45.14,37.22-53,42.54s17.84,14.55,42.3,13.84,92.73-15.14,104-25.91-11.09-7.17-29.15-11.26-32.4-36.51-31.34-52.21S1248.91,1138.62,1248.91,1138.62Z" transform="translate(-488.58 -455)"/><path class="cls-36" d="M1254.69,1160s17.66,10,35.36-1.44c15.85-10.23-2.29-48.45-17.15-50.43-5-.66-12.58,2.17-17.4,6.95-2.85,2.82-3.2,4.86-7.94,9.38-4.37,4.17-6.13,4.4-7,6.56-1,2.7-.22,7.47,9,16.46-4.91-1.44-9.36-.56-11.32,2.19a6.4,6.4,0,0,0-1,3.35C1237.34,1158.56,1244.18,1161.8,1254.69,1160Z" transform="translate(-488.58 -455)"/><path class="cls-37" d="M2079.34,848.34l-4.42,278.43c-.48,30-18.92,57.48-51,79.67a219.79,219.79,0,0,1-24.94,15c-49.83,25.56-119.52,40.85-196.58,39.63s-146-18.72-195-45.84c-46.35-25.64-74.13-59.85-73.54-97l4.41-278.43Z" transform="translate(-488.58 -455)"/><path class="cls-38" d="M2024.55,1206.45a223.18,223.18,0,0,1-25.27,15c-49.82,25.56-119.67,40.85-196.74,39.63s-146.12-18.72-195.11-45.84c-46.35-25.64-74.21-59.85-73.62-97l2.28-144.08c36.25,17.41,91,51.24,100.18,104.65,14.32,83.58,128.25,113.61,242.41,96.6C1929,1167.85,1981.12,1181.72,2024.55,1206.45Z" transform="translate(-488.58 -455)"/><polygon class="cls-39" points="1733.75 422.18 1329.68 214.59 919.23 409.25 903.15 409 903.05 415.6 903.05 415.6 1322.99 631.51 1749.58 429.03 1749.58 429.03 1749.68 422.43 1733.75 422.18"/><polygon class="cls-40" points="1329.83 205.06 902.92 407.54 1323.19 623.45 1750.1 420.98 1329.83 205.06"/><path class="cls-41" d="M2232,1166.37c-3.11,0-4.94-2.59-4.89-5.7l4.35-274.21c.1-6.2-5.17-12.54-11.37-12.64l-405-6.43c-3.11,0-5.59-2-5.55-5.06s2.6-4.94,5.71-4.89l405,6.42c12.4.2,21.36,10.35,21.17,22.76l-4.35,274.21C2237,1163.93,2235.12,1166.42,2232,1166.37Z" transform="translate(-488.58 -455)"/><path class="cls-42" d="M2246.23,1116.75l-4.47-8.58a10,10,0,0,0-17.66,0l-4.66,8.79a14.84,14.84,0,0,0-1.69,6.92l-1.18,74.6c0,1.6,6.35,3,14.89,3.14s15-1.06,15-2.67l1.19-74.8A14.6,14.6,0,0,0,2246.23,1116.75Z" transform="translate(-488.58 -455)"/><path class="cls-43" d="M1727.23,1271.34s15.08-.47,13.49-29.34c-1.24-22.63,2.31-29.82,7.14-25.31s4.19,17.44,4.19,17.44,20.9-14.28,31.09-34.84,13.32-2,13.85,8.9-16,42.72-24,48.13-21.62,31.57-21.62,31.57Z" transform="translate(-488.58 -455)"/><path class="cls-44" d="M1765.28,1288.54s-9.91,52.48-44.08,98.44l0,0c-1.77,2.41-3.65,4.82-5.59,7.2-1.13,1.39-2.28,2.82-3.48,4.19-26.61,30.79-60.35,52.57-100,61.66-53.91,12.36-104.15,3.36-154.88-17.31-12.51-5.08-24.77-11.47-37-17.24-4.68-2.22-15-10.6-20.21-10.07-7.92.79,7.12,40.81,8.36,44.85,13.88,45.9,15.26,95.9,11.14,143.38-3.47,40.18-17.66,82-49.92,108.46-19.44,16-47.69,22.41-72.4,23.37,0,0-16.09,2.46-39.65,3.55a446.34,446.34,0,0,1-46.94-.25c-26.46-1.58-55-6.09-79.37-16.22-31.24-13-55.69-35.28-60.14-72.66-1.17-9.86-2.07-20.85-2.6-32.75-2.9-60,2.53-142.83,21.83-218.06,2-7.81,4.15-15.55,6.46-23.15,21.44-70.63,56.32-131.22,109.55-154.29a115.28,115.28,0,0,1,17.7-6.13c140.66-36.37,207.25,5.12,251.3,72.58s174.11,117,251.41-37.41Z" transform="translate(-488.58 -455)"/><path class="cls-45" d="M1721.17,1387c-1.77,2.41-3.65,4.82-5.59,7.2-1.13,1.39-2.28,2.82-3.48,4.19-26.61,30.79-60.35,52.57-100,61.66-53.91,12.36-104.15,3.36-154.88-17.31-12.51-5.08-24.77-11.47-37-17.24-4.68-2.22-15-10.6-20.21-10.07-7.92.79,7.12,40.81,8.36,44.85,13.88,45.9,15.26,95.9,11.14,143.38-3.47,40.18-17.66,82-49.92,108.46-19.44,16-47.69,22.41-72.4,23.37,0,0-16.09,2.46-39.65,3.55a446.34,446.34,0,0,1-46.94-.25c-29.34-4.18-57-9.5-79.37-16.22-31.24-13-55.69-35.28-60.14-72.66-1.17-9.86-2.07-20.85-2.6-32.75,6.24-19.25,23.93-36.66,64.84-43.51,106.27-17.76,114.36,1.94,114.25-68.12s6.79-116.56,69.9-114.34,53.81-79.38,112.53-50.94S1597.89,1513.44,1721.17,1387Z" transform="translate(-488.58 -455)"/><path class="cls-46" d="M2399.11,3359.88l-404-11.26c-46.08-2.11-82.77-59.81-82.77-128.67v-.76c0-68.86,36.69-125.64,82.77-126.58l432.3-14.62Z" transform="translate(-488.58 -455)"/><path class="cls-3" d="M3114.12,3326l-671,26.46c-62.77,2.48-114.3-43.39-114.3-102.48v-40.09c0-59.09,51.53-107.59,114.3-108.32l671-7.79Z" transform="translate(-488.58 -455)"/><path class="cls-47" d="M3120.61,3338.16l-709.68,29c-54.85,2.25-100-58.72-100-135.92v-.85c0-77.2,45.12-140.47,100-141l709.68-7.26c4.5,0,8.14,5.45,8.14,12.28s-3.64,12.41-8.14,12.47l-709.68,9.36c-44.16.59-80.41,51.58-80.41,113.68v.85c0,62.1,36.25,111.24,80.41,109.56l709.68-26.93c4.5-.17,8.14,5.23,8.14,12.06S3125.11,3338,3120.61,3338.16Z" transform="translate(-488.58 -455)"/><path class="cls-21" d="M2374.87,3082.63l-384.61,8.66c-35.35.8-63.53-27.19-63.53-62.49v-24c0-35.31,28.18-65.69,63.53-67.9l384.61-24Z" transform="translate(-488.58 -455)"/><path class="cls-48" d="M2320.75,3090.32l-325.67,9.11c-46.08.94-82.77-35.63-82.77-81.49v-.51c0-45.86,36.69-85.54,82.77-88.5l325.67-25.47c5.71-.36,72,3.92,72,8.94s-61.88,8.82-67.55,9.16l-330.08,23.85c-37.23,2.24-67,34.23-67,71.35v.51c0,37.12,29.76,66.59,67,65.67l325.67-10.69c5.67-.15,72,5,72,10S2326.45,3090.19,2320.75,3090.32Z" transform="translate(-488.58 -455)"/><polygon class="cls-3" points="2625.54 2618.96 1840.26 2626.21 1840.26 2457 2625.54 2464.3 2625.54 2618.96"/><path class="cls-49" d="M3120.61,2928.12l-799.86-6.6c-5.41,0-9.79-4.13-9.79-9.12s4.38-9,9.79-8.94l799.86,8.17a8.29,8.29,0,0,1,8.14,8.32A8.11,8.11,0,0,1,3120.61,2928.12Z" transform="translate(-488.58 -455)"/><path class="cls-50" d="M3120.61,3082.14l-799.86,8.18c-5.41,0-9.79-4-9.79-8.94s4.38-9.08,9.79-9.13l799.86-6.59a8.1,8.1,0,0,1,8.14,8.16A8.28,8.28,0,0,1,3120.61,3082.14Z" transform="translate(-488.58 -455)"/><path class="cls-51" d="M2290.82,3328.55l-85.87-4.9c-20.76-59.16-19.19-116.22,0-185.62l85.87.26C2273.61,3209.15,2276.23,3271.82,2290.82,3328.55Z" transform="translate(-488.58 -455)"/><path class="cls-52" d="M2112.81,3098.09,2110.08,2991,2011.5,3099.5s-53.27,28.71-44.12,79.13l60.94-24.25,54.13,18.76S2083.81,3120.19,2112.81,3098.09Z" transform="translate(-488.58 -455)"/><path class="cls-53" d="M2000.41,2997.68l109.67-6.7s-51.58,39.19-27.63,182.16c0,0-46.88-14.89-67.28-40.39l-47.79,45.88S1938.19,3051.51,2000.41,2997.68Z" transform="translate(-488.58 -455)"/><polygon class="cls-54" points="543.89 2397.19 543.89 2861.89 506.4 2859.53 0 2827.86 0 2367.85 543.89 2397.19"/><polygon class="cls-55" points="1130.01 2822.02 544.63 2861.88 544.63 2397.18 1130.01 2371.1 1130.01 2822.02"/><polygon class="cls-56" points="0.61 2367.85 546.29 2347.69 1130.01 2371.1 544.63 2397.18 0.61 2367.85"/><path class="cls-57" d="M995.34,3314.53l-506.76-31.67v-444c54.86,15.68,123.17,61.11,150.7,188.51C683.44,3231.92,943.64,3165.52,995.34,3314.53Z" transform="translate(-488.58 -455)"/></g></g></svg>