<svg id="Ñëîé_1" data-name="Ñëîé 1" xmlns="http://www.w3.org/2000/svg" viewBox="0 0 314.17 365.69"><defs><style>.cls-1{fill:#f6f6f6;}.cls-2{fill:#66becc;}.cls-3{fill:#f1484b;}.cls-4{fill:#f5b500;}.cls-5{fill:#5ebfd2;}.cls-6{fill:#f6b968;}.cls-7{fill:#eeaa59;}.cls-8{fill:#ffcc90;}.cls-9{fill:#ffe0bc;}.cls-10{fill:#999;}.cls-11{fill:#fff;}.cls-12{fill:#fefefe;}.cls-13{fill:#fdfdfd;}.cls-14{fill:#fcfdfd;}.cls-15{fill:#fbfcfc;}.cls-16{fill:#fafbfb;}.cls-17{fill:#f9fafa;}.cls-18{fill:#f8f9f9;}.cls-19{fill:#f7f9f9;}.cls-20{fill:#f6f8f8;}.cls-21{fill:#f5f7f7;}.cls-22{fill:#f4f6f6;}.cls-23{fill:#f3f6f6;}.cls-24{fill:#f2f5f5;}.cls-25{fill:#f1f4f4;}.cls-26{fill:#f0f3f3;}.cls-27{fill:#eff2f2;}.cls-28{fill:#eef2f2;}.cls-29{fill:#edf1f1;}.cls-30{fill:#edf0f0;}.cls-31{fill:#ecefef;}.cls-32{fill:#ebeeee;}.cls-33{fill:#eaeeee;}.cls-34{fill:#e9eded;}.cls-35{fill:#e8ecec;}.cls-36{fill:#e7ebeb;}.cls-37{fill:#e6eaea;}.cls-38{fill:#e5eaea;}.cls-39{fill:#e4e9e9;}.cls-40{fill:#e3e8e8;}.cls-41{fill:#e2e7e7;}.cls-42{fill:#e1e7e7;}.cls-43{fill:#e0e6e6;}.cls-44{fill:#dfe5e5;}.cls-45{fill:#dee4e4;}.cls-46{fill:#dde3e3;}.cls-47{fill:#dce3e3;}.cls-48{fill:#dbe2e2;}.cls-49{fill:#dae1e1;}.cls-50{fill:#ccc;}.cls-51{fill:#ffdba8;}.cls-52{fill:#f0bd6d;}.cls-53{fill:#c94d4d;}.cls-54{fill:#dfe1de;}.cls-55{fill:#a83d0d;}.cls-56{fill:#d47171;}.cls-57{fill:#faf8fa;}.cls-58{fill:#3b556c;}.cls-59{fill:#60768e;}.cls-60{fill:#597d90;}.cls-61{fill:#3d5b73;}.cls-62{fill:#598997;}.cls-63{fill:#4dbbc9;}.cls-64{fill:#c6c6c6;}.cls-65{fill:#6aa7f1;}.cls-66{fill:#ffeed2;}.cls-67{fill:#ffdaaf;}.cls-68{fill:#2e4150;}.cls-69{fill:#647988;}.cls-70{fill:#9cdbd7;}.cls-71{fill:#e5e5e5;}.cls-72{fill:#ffc186;}.cls-73{fill:#375273;}.cls-74{fill:#496d99;}.cls-75{fill:#ff7956;}.cls-76{fill:#f33f37;}.cls-77{fill:#b62f29;}.cls-78{fill:#f5f5f5;}.cls-79{fill:#f4f5f5;}.cls-80{fill:#f3f4f4;}.cls-81{fill:#f2f3f3;}.cls-82{fill:#f1f2f2;}.cls-83{fill:#f0f2f2;}.cls-84{fill:#eff1f1;}.cls-85{fill:#eef0f0;}.cls-86{fill:#edefef;}.cls-87{fill:#eaeded;}.cls-88{fill:#e8ebeb;}.cls-89{fill:#e7eaea;}.cls-90{fill:#e5e9e9;}.cls-91{fill:#e4e8e8;}.cls-92{fill:#e1e6e6;}.cls-93{fill:#e0e5e5;}.cls-94{fill:#dce2e2;}.cls-95{fill:#f5763d;}.cls-96{fill:#fbc56d;}.cls-97{fill:#bd632e;}.cls-98{fill:#fdb88d;}.cls-99{fill:#48596b;}.cls-100{fill:#f8ba54;}.cls-101{fill:#ffd4a4;}.cls-102{fill:#b8592e;}.cls-103{fill:#fbc8b1;}.cls-104{fill:#5ed26a;}.cls-105{fill:#47a759;}.cls-106{fill:#ecedeb;}.cls-107{fill:#4799af;}.cls-108{fill:#3d576a;}.cls-109{fill:#f9962d;}.cls-110{fill:#fafafa;}.cls-111{fill:#f2f2f2;}</style></defs><path class="cls-1" d="M242.14,130.19A31.21,31.21,0,1,1,210.93,99,31.21,31.21,0,0,1,242.14,130.19Z" transform="translate(-42.16 -34.31)"/><path class="cls-2" d="M210.93,163.58a33.39,33.39,0,1,1,33.39-33.39A33.43,33.43,0,0,1,210.93,163.58Zm0-62.42a29,29,0,1,0,29,29A29.07,29.07,0,0,0,210.93,101.16Z" transform="translate(-42.16 -34.31)"/><path class="cls-1" d="M180.41,67.69a31.21,31.21,0,1,1-31.21-31.2A31.21,31.21,0,0,1,180.41,67.69Z" transform="translate(-42.16 -34.31)"/><path class="cls-3" d="M149.2,101.09a33.39,33.39,0,1,1,33.39-33.4A33.43,33.43,0,0,1,149.2,101.09Zm0-62.42a29,29,0,1,0,29,29A29.06,29.06,0,0,0,149.2,38.67Z" transform="translate(-42.16 -34.31)"/><path class="cls-1" d="M106.76,122.27A31.21,31.21,0,1,1,75.55,91.06,31.21,31.21,0,0,1,106.76,122.27Z" transform="translate(-42.16 -34.31)"/><path class="cls-4" d="M75.55,155.66a33.39,33.39,0,1,1,33.39-33.39A33.43,33.43,0,0,1,75.55,155.66Zm0-62.42a29,29,0,1,0,29,29A29.07,29.07,0,0,0,75.55,93.24Z" transform="translate(-42.16 -34.31)"/><path class="cls-1" d="M298.72,73.82a31.21,31.21,0,1,1-31.21-31.21A31.22,31.22,0,0,1,298.72,73.82Z" transform="translate(-42.16 -34.31)"/><path class="cls-4" d="M267.51,107.21A33.39,33.39,0,1,1,300.9,73.82,33.43,33.43,0,0,1,267.51,107.21Zm0-62.42a29,29,0,1,0,29,29A29.06,29.06,0,0,0,267.51,44.79Z" transform="translate(-42.16 -34.31)"/><path class="cls-1" d="M353.38,126.7a27.89,27.89,0,1,1-27.89-27.89A27.89,27.89,0,0,1,353.38,126.7Z" transform="translate(-42.16 -34.31)"/><path class="cls-5" d="M325.49,156.76a30.07,30.07,0,1,1,30.07-30.06A30.09,30.09,0,0,1,325.49,156.76Zm0-55.77A25.71,25.71,0,1,0,351.2,126.7,25.73,25.73,0,0,0,325.49,101Z" transform="translate(-42.16 -34.31)"/><rect class="cls-4" x="220.74" y="87.97" width="7.93" height="95.5"/><polygon class="cls-4" points="215.08 89.31 224.71 72.64 234.33 89.31 215.08 89.31"/><rect class="cls-3" x="103.07" y="84.2" width="7.93" height="114.07"/><polygon class="cls-3" points="116.66 85.54 107.04 68.87 97.42 85.54 116.66 85.54"/><rect class="cls-5" x="164.8" y="147.38" width="7.93" height="95.51"/><polygon class="cls-5" points="159.15 148.72 168.77 132.05 178.39 148.72 159.15 148.72"/><path class="cls-4" d="M59.91,172.54a57.53,57.53,0,0,0,65.44,79.78l2.54-.59-1.69-7.33-2.54.59a50,50,0,0,1-57.47-68.12l6.23,4.3,1.86-22.94-20.81,9.86Z" transform="translate(-42.16 -34.31)"/><path class="cls-5" d="M349.9,172.54a57.54,57.54,0,0,1-65.45,79.78l-2.54-.59,1.7-7.33,2.54.59a50,50,0,0,0,57.47-68.12l-6.23,4.3-1.86-22.94,20.8,9.86Z" transform="translate(-42.16 -34.31)"/><path class="cls-6" d="M145.23,284.76c2.35-.23,4.48,1.91,4.76,4.78h0c.29,2.88-1.38,5.39-3.73,5.63L109,298.85c-2.35.24-4.48-1.91-4.76-4.77h0c-.29-2.87,1.38-5.39,3.73-5.62Z" transform="translate(-42.16 -34.31)"/><path class="cls-7" d="M145.35,284.92l-38.84,0c-1.26.12-2.74,4.62-3.41,5.76l42.86-3.5a18.34,18.34,0,0,1,2.92-.57A4,4,0,0,0,145.35,284.92Z" transform="translate(-42.16 -34.31)"/><path class="cls-6" d="M151.1,274.93c2.36-.14,4.4,2.09,4.57,5h0c.17,2.88-1.6,5.33-4,5.47l-37.92,2.4c-2.36.14-3.85-2.3-4-5.18h0c-.16-2.89,1.61-5.33,4-5.47Z" transform="translate(-42.16 -34.31)"/><path class="cls-7" d="M150.94,274.94l-38.3,2.1c-1.26.13-1.26,2.5-1.93,3.65L153,276.5a4.75,4.75,0,0,1,1.51.12A4,4,0,0,0,150.94,274.94Z" transform="translate(-42.16 -34.31)"/><path class="cls-6" d="M152,264.41c2.36-.14,4.4,2.09,4.57,5h0c.17,2.88-1.6,5.33-3.95,5.47L115.21,277c-2.35.13-4.4-2.09-4.57-5h0c-.16-2.87,1.61-5.32,4-5.46Z" transform="translate(-42.16 -34.31)"/><path class="cls-8" d="M92.49,299.64c1-2.91,19.46-37.09,24.39-38,4.18-.8,30.21-.5,37.36-.28h.89c2.85,0,5.15,2.61,5.15,5.83S158,273,155.13,273H125.25a5,5,0,0,0-1.92,1c-1.7,2-9.49,18.61-10,26.57L101.81,306l-9.39-6A1.61,1.61,0,0,1,92.49,299.64Z" transform="translate(-42.16 -34.31)"/><path class="cls-9" d="M115.76,262.61a.4.4,0,0,1,.53.12l1.42,2.08a.38.38,0,0,1-.09.53h0a.42.42,0,0,1-.55-.13l-1.42-2.07a.38.38,0,0,1,.11-.53Z" transform="translate(-42.16 -34.31)"/><path class="cls-9" d="M117.09,261.78a.39.39,0,0,1,.54.12L119,264a.38.38,0,0,1-.09.53h0a.42.42,0,0,1-.55-.12L117,262.3a.36.36,0,0,1,.11-.52Z" transform="translate(-42.16 -34.31)"/><path class="cls-10" d="M302.83,314.6a6.9,6.9,0,0,1-7.16,6.62H123.82a6.9,6.9,0,0,1-7.16-6.62V200.77a6.9,6.9,0,0,1,7.16-6.61H295.67a6.9,6.9,0,0,1,7.16,6.62Z" transform="translate(-42.16 -34.31)"/><rect class="cls-11" x="85.93" y="170.2" width="153.62" height="104.15"/><path class="cls-11" d="M260.76,251.3c0,1-9,1.86-20.11,1.86s-20.11-.83-20.11-1.86,9-1.86,20.11-1.86S260.76,250.27,260.76,251.3Z" transform="translate(-42.16 -34.31)"/><path class="cls-12" d="M260.52,251.28c0,1-8.9,1.84-19.87,1.84s-19.87-.82-19.87-1.84,8.9-1.84,19.87-1.84S260.52,250.26,260.52,251.28Z" transform="translate(-42.16 -34.31)"/><path class="cls-13" d="M260.28,251.26c0,1-8.79,1.82-19.63,1.82S221,252.27,221,251.26s8.79-1.82,19.63-1.82S260.28,250.26,260.28,251.26Z" transform="translate(-42.16 -34.31)"/><path class="cls-14" d="M260,251.24c0,1-8.68,1.79-19.39,1.79s-19.39-.8-19.39-1.79,8.69-1.79,19.39-1.79S260,250.25,260,251.24Z" transform="translate(-42.16 -34.31)"/><path class="cls-15" d="M259.8,251.22c0,1-8.57,1.77-19.15,1.77s-19.15-.79-19.15-1.77,8.58-1.77,19.15-1.77S259.8,250.24,259.8,251.22Z" transform="translate(-42.16 -34.31)"/><path class="cls-16" d="M259.56,251.2c0,1-8.46,1.75-18.91,1.75s-18.91-.78-18.91-1.75,8.47-1.75,18.91-1.75S259.56,250.23,259.56,251.2Z" transform="translate(-42.16 -34.31)"/><path class="cls-17" d="M259.32,251.18c0,1-8.36,1.73-18.67,1.73S222,252.14,222,251.18s8.36-1.73,18.67-1.73S259.32,250.23,259.32,251.18Z" transform="translate(-42.16 -34.31)"/><path class="cls-18" d="M259.08,251.16c0,1-8.25,1.71-18.43,1.71s-18.43-.76-18.43-1.71,8.25-1.7,18.43-1.7S259.08,250.22,259.08,251.16Z" transform="translate(-42.16 -34.31)"/><path class="cls-19" d="M258.84,251.14c0,.93-8.14,1.68-18.19,1.68s-18.19-.75-18.19-1.68,8.15-1.68,18.19-1.68S258.84,250.21,258.84,251.14Z" transform="translate(-42.16 -34.31)"/><path class="cls-20" d="M258.6,251.12c0,.92-8,1.66-18,1.66s-18-.74-18-1.66,8-1.66,18-1.66S258.6,250.2,258.6,251.12Z" transform="translate(-42.16 -34.31)"/><path class="cls-21" d="M258.36,251.1c0,.91-7.93,1.64-17.71,1.64s-17.71-.73-17.71-1.64,7.93-1.64,17.71-1.64S258.36,250.2,258.36,251.1Z" transform="translate(-42.16 -34.31)"/><path class="cls-22" d="M258.12,251.08c0,.9-7.82,1.62-17.47,1.62s-17.47-.72-17.47-1.62,7.82-1.61,17.47-1.61S258.12,250.19,258.12,251.08Z" transform="translate(-42.16 -34.31)"/><path class="cls-23" d="M257.88,251.06c0,.89-7.71,1.6-17.23,1.6s-17.23-.71-17.23-1.6,7.72-1.59,17.23-1.59S257.88,250.18,257.88,251.06Z" transform="translate(-42.16 -34.31)"/><path class="cls-24" d="M257.64,251c0,.87-7.6,1.57-17,1.57s-17-.7-17-1.57,7.61-1.57,17-1.57S257.64,250.17,257.64,251Z" transform="translate(-42.16 -34.31)"/><path class="cls-25" d="M257.4,251c0,.86-7.5,1.55-16.75,1.55s-16.75-.69-16.75-1.55,7.5-1.55,16.75-1.55S257.4,250.17,257.4,251Z" transform="translate(-42.16 -34.31)"/><path class="cls-26" d="M257.16,251c0,.85-7.39,1.53-16.51,1.53s-16.51-.68-16.51-1.53,7.39-1.52,16.51-1.52S257.16,250.16,257.16,251Z" transform="translate(-42.16 -34.31)"/><path class="cls-27" d="M256.92,251c0,.84-7.28,1.51-16.27,1.51s-16.27-.67-16.27-1.51,7.29-1.5,16.27-1.5S256.92,250.15,256.92,251Z" transform="translate(-42.16 -34.31)"/><path class="cls-28" d="M256.68,251c0,.82-7.17,1.49-16,1.49s-16-.67-16-1.49,7.18-1.48,16-1.48S256.68,250.14,256.68,251Z" transform="translate(-42.16 -34.31)"/><path class="cls-29" d="M256.44,250.94c0,.81-7.06,1.47-15.79,1.47s-15.79-.66-15.79-1.47,7.07-1.46,15.79-1.46S256.44,250.14,256.44,250.94Z" transform="translate(-42.16 -34.31)"/><path class="cls-30" d="M256.21,250.92c0,.8-7,1.44-15.56,1.44s-15.55-.64-15.55-1.44,7-1.43,15.55-1.43S256.21,250.13,256.21,250.92Z" transform="translate(-42.16 -34.31)"/><path class="cls-31" d="M256,250.91c0,.78-6.85,1.41-15.31,1.41s-15.31-.63-15.31-1.41,6.86-1.42,15.31-1.42S256,250.12,256,250.91Z" transform="translate(-42.16 -34.31)"/><path class="cls-32" d="M255.72,250.89c0,.77-6.74,1.39-15.07,1.39s-15.07-.62-15.07-1.39,6.75-1.4,15.07-1.4S255.72,250.12,255.72,250.89Z" transform="translate(-42.16 -34.31)"/><path class="cls-33" d="M255.49,250.87c0,.75-6.64,1.37-14.84,1.37s-14.83-.62-14.83-1.37,6.64-1.38,14.83-1.38S255.49,250.11,255.49,250.87Z" transform="translate(-42.16 -34.31)"/><path class="cls-34" d="M255.25,250.85c0,.74-6.54,1.35-14.6,1.35s-14.59-.61-14.59-1.35,6.53-1.35,14.59-1.35S255.25,250.1,255.25,250.85Z" transform="translate(-42.16 -34.31)"/><path class="cls-35" d="M255,250.83c0,.73-6.43,1.32-14.36,1.32s-14.35-.59-14.35-1.32,6.42-1.33,14.35-1.33S255,250.09,255,250.83Z" transform="translate(-42.16 -34.31)"/><path class="cls-36" d="M254.77,250.81c0,.72-6.32,1.3-14.12,1.3s-14.11-.58-14.11-1.3,6.32-1.31,14.11-1.31S254.77,250.08,254.77,250.81Z" transform="translate(-42.16 -34.31)"/><path class="cls-37" d="M254.53,250.79c0,.71-6.21,1.28-13.88,1.28s-13.87-.57-13.87-1.28,6.21-1.29,13.87-1.29S254.53,250.08,254.53,250.79Z" transform="translate(-42.16 -34.31)"/><path class="cls-38" d="M254.29,250.77c0,.69-6.11,1.26-13.64,1.26S227,251.46,227,250.77s6.1-1.26,13.63-1.26S254.29,250.07,254.29,250.77Z" transform="translate(-42.16 -34.31)"/><path class="cls-39" d="M254.05,250.75c0,.68-6,1.24-13.4,1.24s-13.39-.56-13.39-1.24,6-1.24,13.39-1.24S254.05,250.06,254.05,250.75Z" transform="translate(-42.16 -34.31)"/><path class="cls-40" d="M253.81,250.73c0,.67-5.89,1.21-13.16,1.21s-13.15-.54-13.15-1.21,5.89-1.22,13.15-1.22S253.81,250.06,253.81,250.73Z" transform="translate(-42.16 -34.31)"/><path class="cls-41" d="M253.57,250.71c0,.66-5.78,1.19-12.92,1.19s-12.91-.53-12.91-1.19,5.78-1.2,12.91-1.2S253.57,250.05,253.57,250.71Z" transform="translate(-42.16 -34.31)"/><path class="cls-42" d="M253.33,250.69c0,.65-5.68,1.17-12.68,1.17S228,251.34,228,250.69s5.67-1.17,12.67-1.17S253.33,250,253.33,250.69Z" transform="translate(-42.16 -34.31)"/><path class="cls-43" d="M253.09,250.67c0,.63-5.57,1.15-12.44,1.15s-12.43-.52-12.43-1.15,5.56-1.15,12.43-1.15S253.09,250,253.09,250.67Z" transform="translate(-42.16 -34.31)"/><path class="cls-44" d="M252.85,250.65c0,.62-5.46,1.13-12.2,1.13s-12.19-.51-12.19-1.13,5.46-1.13,12.19-1.13S252.85,250,252.85,250.65Z" transform="translate(-42.16 -34.31)"/><path class="cls-45" d="M252.61,250.63c0,.61-5.35,1.11-12,1.11s-12-.5-12-1.11,5.35-1.11,12-1.11S252.61,250,252.61,250.63Z" transform="translate(-42.16 -34.31)"/><path class="cls-46" d="M252.37,250.61c0,.6-5.25,1.08-11.72,1.08s-11.71-.48-11.71-1.08,5.24-1.08,11.71-1.08S252.37,250,252.37,250.61Z" transform="translate(-42.16 -34.31)"/><path class="cls-47" d="M252.13,250.59c0,.58-5.14,1.06-11.48,1.06s-11.47-.48-11.47-1.06,5.13-1.06,11.47-1.06S252.13,250,252.13,250.59Z" transform="translate(-42.16 -34.31)"/><path class="cls-48" d="M251.89,250.57c0,.57-5,1-11.24,1s-11.23-.47-11.23-1,5-1,11.23-1S251.89,250,251.89,250.57Z" transform="translate(-42.16 -34.31)"/><path class="cls-49" d="M251.65,250.55c0,.56-4.92,1-11,1s-11-.46-11-1,4.92-1,11-1S251.65,250,251.65,250.55Z" transform="translate(-42.16 -34.31)"/><path class="cls-11" d="M240.86,244c0,1-9,1.86-20.11,1.86s-20.1-.84-20.1-1.86,9-1.87,20.1-1.87S240.86,242.94,240.86,244Z" transform="translate(-42.16 -34.31)"/><path class="cls-12" d="M240.62,244c0,1-8.9,1.83-19.87,1.83S200.89,245,200.89,244s8.89-1.84,19.86-1.84S240.62,242.93,240.62,244Z" transform="translate(-42.16 -34.31)"/><path class="cls-13" d="M240.38,243.93c0,1-8.79,1.81-19.63,1.81s-19.63-.81-19.63-1.81,8.79-1.82,19.63-1.82S240.38,242.92,240.38,243.93Z" transform="translate(-42.16 -34.31)"/><path class="cls-14" d="M240.14,243.91c0,1-8.68,1.79-19.39,1.79s-19.38-.8-19.38-1.79,8.67-1.8,19.38-1.8S240.14,242.92,240.14,243.91Z" transform="translate(-42.16 -34.31)"/><path class="cls-15" d="M239.9,243.89c0,1-8.57,1.77-19.15,1.77s-19.15-.79-19.15-1.77,8.58-1.78,19.15-1.78S239.9,242.91,239.9,243.89Z" transform="translate(-42.16 -34.31)"/><path class="cls-16" d="M239.66,243.87c0,1-8.46,1.75-18.91,1.75s-18.91-.79-18.91-1.75,8.47-1.75,18.91-1.75S239.66,242.9,239.66,243.87Z" transform="translate(-42.16 -34.31)"/><path class="cls-17" d="M239.42,243.85c0,1-8.36,1.73-18.67,1.73s-18.67-.78-18.67-1.73,8.36-1.73,18.67-1.73S239.42,242.89,239.42,243.85Z" transform="translate(-42.16 -34.31)"/><path class="cls-18" d="M239.18,243.83c0,.94-8.25,1.7-18.43,1.7s-18.43-.76-18.43-1.7,8.25-1.71,18.43-1.71S239.18,242.89,239.18,243.83Z" transform="translate(-42.16 -34.31)"/><ellipse class="cls-19" cx="178.59" cy="209.5" rx="18.19" ry="1.68"/><path class="cls-20" d="M238.7,243.79c0,.92-8,1.66-17.95,1.66s-17.95-.74-17.95-1.66,8-1.66,17.95-1.66S238.7,242.87,238.7,243.79Z" transform="translate(-42.16 -34.31)"/><path class="cls-21" d="M238.46,243.77c0,.9-7.93,1.64-17.71,1.64S203,244.67,203,243.77s7.93-1.64,17.71-1.64S238.46,242.87,238.46,243.77Z" transform="translate(-42.16 -34.31)"/><ellipse class="cls-22" cx="178.59" cy="209.44" rx="17.47" ry="1.62"/><path class="cls-23" d="M238,243.73c0,.88-7.71,1.59-17.23,1.59s-17.23-.71-17.23-1.59,7.72-1.6,17.23-1.6S238,242.85,238,243.73Z" transform="translate(-42.16 -34.31)"/><path class="cls-24" d="M237.74,243.71c0,.87-7.61,1.57-17,1.57s-17-.7-17-1.57,7.61-1.57,17-1.57S237.74,242.84,237.74,243.71Z" transform="translate(-42.16 -34.31)"/><path class="cls-25" d="M237.5,243.69c0,.86-7.5,1.55-16.75,1.55S204,244.55,204,243.69s7.5-1.55,16.75-1.55S237.5,242.83,237.5,243.69Z" transform="translate(-42.16 -34.31)"/><path class="cls-26" d="M237.26,243.67c0,.84-7.39,1.53-16.51,1.53s-16.51-.69-16.51-1.53,7.39-1.53,16.51-1.53S237.26,242.83,237.26,243.67Z" transform="translate(-42.16 -34.31)"/><path class="cls-27" d="M237,243.65c0,.83-7.28,1.51-16.27,1.51s-16.27-.68-16.27-1.51,7.29-1.51,16.27-1.51S237,242.82,237,243.65Z" transform="translate(-42.16 -34.31)"/><path class="cls-28" d="M236.79,243.63c0,.82-7.18,1.48-16,1.48s-16-.66-16-1.48,7.18-1.48,16-1.48S236.79,242.81,236.79,243.63Z" transform="translate(-42.16 -34.31)"/><path class="cls-29" d="M236.54,243.61c0,.81-7.07,1.46-15.79,1.46S205,244.42,205,243.61s7.07-1.46,15.79-1.46S236.54,242.81,236.54,243.61Z" transform="translate(-42.16 -34.31)"/><path class="cls-30" d="M236.3,243.59c0,.8-7,1.44-15.55,1.44s-15.55-.64-15.55-1.44,7-1.44,15.55-1.44S236.3,242.8,236.3,243.59Z" transform="translate(-42.16 -34.31)"/><path class="cls-31" d="M236.07,243.57c0,.78-6.86,1.42-15.32,1.42s-15.31-.64-15.31-1.42,6.85-1.42,15.31-1.42S236.07,242.79,236.07,243.57Z" transform="translate(-42.16 -34.31)"/><path class="cls-32" d="M235.83,243.55c0,.77-6.75,1.4-15.08,1.4s-15.07-.63-15.07-1.4,6.75-1.39,15.07-1.39S235.83,242.78,235.83,243.55Z" transform="translate(-42.16 -34.31)"/><path class="cls-33" d="M235.59,243.53c0,.76-6.65,1.38-14.84,1.38s-14.83-.62-14.83-1.38,6.64-1.37,14.83-1.37S235.59,242.78,235.59,243.53Z" transform="translate(-42.16 -34.31)"/><path class="cls-34" d="M235.35,243.51c0,.75-6.54,1.35-14.6,1.35s-14.59-.6-14.59-1.35,6.53-1.35,14.59-1.35S235.35,242.77,235.35,243.51Z" transform="translate(-42.16 -34.31)"/><path class="cls-35" d="M235.11,243.49c0,.74-6.43,1.33-14.36,1.33s-14.35-.59-14.35-1.33,6.43-1.33,14.35-1.33S235.11,242.76,235.11,243.49Z" transform="translate(-42.16 -34.31)"/><path class="cls-36" d="M234.87,243.47c0,.72-6.32,1.31-14.12,1.31s-14.11-.59-14.11-1.31,6.32-1.3,14.11-1.3S234.87,242.75,234.87,243.47Z" transform="translate(-42.16 -34.31)"/><path class="cls-37" d="M234.63,243.45c0,.71-6.22,1.29-13.88,1.29s-13.87-.58-13.87-1.29,6.21-1.28,13.87-1.28S234.63,242.75,234.63,243.45Z" transform="translate(-42.16 -34.31)"/><path class="cls-38" d="M234.39,243.43c0,.7-6.11,1.27-13.64,1.27s-13.63-.57-13.63-1.27,6.1-1.26,13.63-1.26S234.39,242.74,234.39,243.43Z" transform="translate(-42.16 -34.31)"/><path class="cls-39" d="M234.15,243.41c0,.69-6,1.25-13.4,1.25s-13.39-.56-13.39-1.25,6-1.24,13.39-1.24S234.15,242.73,234.15,243.41Z" transform="translate(-42.16 -34.31)"/><path class="cls-40" d="M233.91,243.39c0,.68-5.89,1.22-13.16,1.22s-13.15-.54-13.15-1.22,5.89-1.21,13.15-1.21S233.91,242.72,233.91,243.39Z" transform="translate(-42.16 -34.31)"/><path class="cls-41" d="M233.67,243.37c0,.66-5.79,1.2-12.92,1.2s-12.91-.54-12.91-1.2,5.78-1.19,12.91-1.19S233.67,242.72,233.67,243.37Z" transform="translate(-42.16 -34.31)"/><path class="cls-42" d="M233.43,243.35c0,.65-5.68,1.18-12.68,1.18s-12.67-.53-12.67-1.18,5.67-1.17,12.67-1.17S233.43,242.71,233.43,243.35Z" transform="translate(-42.16 -34.31)"/><path class="cls-43" d="M233.19,243.33c0,.64-5.57,1.16-12.44,1.16s-12.43-.52-12.43-1.16,5.56-1.15,12.43-1.15S233.19,242.7,233.19,243.33Z" transform="translate(-42.16 -34.31)"/><path class="cls-44" d="M233,243.31c0,.63-5.46,1.14-12.2,1.14s-12.19-.51-12.19-1.14,5.46-1.12,12.19-1.12S233,242.69,233,243.31Z" transform="translate(-42.16 -34.31)"/><path class="cls-45" d="M232.71,243.29c0,.62-5.35,1.11-12,1.11s-12-.49-12-1.11,5.36-1.1,12-1.1S232.71,242.69,232.71,243.29Z" transform="translate(-42.16 -34.31)"/><path class="cls-46" d="M232.47,243.28c0,.59-5.25,1.08-11.72,1.08S209,243.87,209,243.28s5.24-1.09,11.71-1.09S232.47,242.68,232.47,243.28Z" transform="translate(-42.16 -34.31)"/><path class="cls-47" d="M232.23,243.25c0,.59-5.14,1.07-11.48,1.07s-11.47-.48-11.47-1.07,5.13-1.06,11.47-1.06S232.23,242.67,232.23,243.25Z" transform="translate(-42.16 -34.31)"/><path class="cls-48" d="M232,243.24c0,.57-5,1-11.24,1s-11.23-.47-11.23-1,5-1,11.23-1S232,242.66,232,243.24Z" transform="translate(-42.16 -34.31)"/><path class="cls-49" d="M231.75,243.22c0,.56-4.92,1-11,1s-11-.46-11-1,4.93-1,11-1S231.75,242.66,231.75,243.22Z" transform="translate(-42.16 -34.31)"/><path class="cls-11" d="M278.15,243.53c0,1-9,1.86-20.11,1.86s-20.11-.83-20.11-1.86,9-1.86,20.11-1.86S278.15,242.5,278.15,243.53Z" transform="translate(-42.16 -34.31)"/><path class="cls-12" d="M277.91,243.51c0,1-8.9,1.84-19.87,1.84s-19.87-.82-19.87-1.84,8.9-1.84,19.87-1.84S277.91,242.5,277.91,243.51Z" transform="translate(-42.16 -34.31)"/><path class="cls-13" d="M277.67,243.49c0,1-8.79,1.82-19.63,1.82s-19.63-.81-19.63-1.82,8.79-1.82,19.63-1.82S277.67,242.49,277.67,243.49Z" transform="translate(-42.16 -34.31)"/><path class="cls-14" d="M277.43,243.47c0,1-8.68,1.8-19.39,1.8s-19.39-.81-19.39-1.8,8.68-1.79,19.39-1.79S277.43,242.48,277.43,243.47Z" transform="translate(-42.16 -34.31)"/><path class="cls-15" d="M277.19,243.45c0,1-8.58,1.78-19.15,1.78s-19.15-.8-19.15-1.78,8.57-1.77,19.15-1.77S277.19,242.47,277.19,243.45Z" transform="translate(-42.16 -34.31)"/><path class="cls-16" d="M277,243.43c0,1-8.47,1.75-18.91,1.75s-18.91-.78-18.91-1.75,8.47-1.75,18.91-1.75S277,242.47,277,243.43Z" transform="translate(-42.16 -34.31)"/><path class="cls-17" d="M276.71,243.41c0,1-8.36,1.73-18.67,1.73s-18.67-.77-18.67-1.73,8.36-1.73,18.67-1.73S276.71,242.46,276.71,243.41Z" transform="translate(-42.16 -34.31)"/><path class="cls-18" d="M276.47,243.39c0,1-8.25,1.71-18.43,1.71s-18.43-.76-18.43-1.71,8.25-1.7,18.43-1.7S276.47,242.45,276.47,243.39Z" transform="translate(-42.16 -34.31)"/><path class="cls-19" d="M276.23,243.37c0,.93-8.15,1.69-18.19,1.69s-18.19-.76-18.19-1.69,8.14-1.68,18.19-1.68S276.23,242.44,276.23,243.37Z" transform="translate(-42.16 -34.31)"/><path class="cls-20" d="M276,243.35c0,.92-8,1.67-17.95,1.67s-18-.75-18-1.67,8-1.66,18-1.66S276,242.44,276,243.35Z" transform="translate(-42.16 -34.31)"/><path class="cls-21" d="M275.75,243.33c0,.91-7.93,1.64-17.71,1.64s-17.71-.73-17.71-1.64,7.93-1.63,17.71-1.63S275.75,242.43,275.75,243.33Z" transform="translate(-42.16 -34.31)"/><path class="cls-22" d="M275.51,243.32c0,.89-7.82,1.61-17.47,1.61s-17.47-.72-17.47-1.61,7.82-1.62,17.47-1.62S275.51,242.42,275.51,243.32Z" transform="translate(-42.16 -34.31)"/><path class="cls-23" d="M275.27,243.3c0,.87-7.72,1.59-17.23,1.59s-17.23-.72-17.23-1.59,7.71-1.6,17.23-1.6S275.27,242.41,275.27,243.3Z" transform="translate(-42.16 -34.31)"/><path class="cls-24" d="M275,243.28c0,.86-7.61,1.57-17,1.57s-17-.71-17-1.57,7.61-1.58,17-1.58S275,242.41,275,243.28Z" transform="translate(-42.16 -34.31)"/><path class="cls-25" d="M274.79,243.26c0,.85-7.5,1.55-16.75,1.55s-16.75-.7-16.75-1.55,7.5-1.55,16.75-1.55S274.79,242.4,274.79,243.26Z" transform="translate(-42.16 -34.31)"/><path class="cls-26" d="M274.55,243.24c0,.84-7.39,1.53-16.51,1.53s-16.51-.69-16.51-1.53,7.39-1.53,16.51-1.53S274.55,242.39,274.55,243.24Z" transform="translate(-42.16 -34.31)"/><ellipse class="cls-27" cx="215.88" cy="208.91" rx="16.27" ry="1.51"/><path class="cls-28" d="M274.07,243.2c0,.81-7.18,1.48-16,1.48s-16-.67-16-1.48,7.18-1.49,16-1.49S274.07,242.38,274.07,243.2Z" transform="translate(-42.16 -34.31)"/><path class="cls-29" d="M273.83,243.18c0,.8-7.07,1.46-15.79,1.46s-15.79-.66-15.79-1.46,7.07-1.47,15.79-1.47S273.83,242.37,273.83,243.18Z" transform="translate(-42.16 -34.31)"/><path class="cls-30" d="M273.59,243.16c0,.79-7,1.44-15.55,1.44s-15.55-.65-15.55-1.44,7-1.44,15.55-1.44S273.59,242.36,273.59,243.16Z" transform="translate(-42.16 -34.31)"/><path class="cls-31" d="M273.35,243.14c0,.78-6.85,1.42-15.31,1.42s-15.31-.64-15.31-1.42,6.85-1.42,15.31-1.42S273.35,242.35,273.35,243.14Z" transform="translate(-42.16 -34.31)"/><ellipse class="cls-32" cx="215.88" cy="208.81" rx="15.07" ry="1.4"/><path class="cls-33" d="M272.87,243.1c0,.76-6.64,1.37-14.83,1.37s-14.83-.61-14.83-1.37,6.64-1.37,14.83-1.37S272.87,242.34,272.87,243.1Z" transform="translate(-42.16 -34.31)"/><path class="cls-34" d="M272.63,243.08c0,.74-6.53,1.35-14.59,1.35s-14.59-.61-14.59-1.35,6.53-1.35,14.59-1.35S272.63,242.33,272.63,243.08Z" transform="translate(-42.16 -34.31)"/><path class="cls-35" d="M272.39,243.06c0,.73-6.42,1.33-14.35,1.33s-14.35-.6-14.35-1.33,6.42-1.33,14.35-1.33S272.39,242.32,272.39,243.06Z" transform="translate(-42.16 -34.31)"/><path class="cls-36" d="M272.15,243c0,.72-6.32,1.31-14.11,1.31s-14.11-.59-14.11-1.31,6.31-1.31,14.11-1.31S272.15,242.32,272.15,243Z" transform="translate(-42.16 -34.31)"/><path class="cls-37" d="M271.91,243c0,.71-6.21,1.28-13.87,1.28s-13.87-.57-13.87-1.28,6.21-1.28,13.87-1.28S271.91,242.31,271.91,243Z" transform="translate(-42.16 -34.31)"/><path class="cls-38" d="M271.67,243c0,.7-6.1,1.26-13.63,1.26S244.4,243.7,244.4,243s6.11-1.26,13.64-1.26S271.67,242.3,271.67,243Z" transform="translate(-42.16 -34.31)"/><path class="cls-39" d="M271.43,243c0,.68-6,1.24-13.39,1.24s-13.4-.56-13.4-1.24,6-1.24,13.4-1.24S271.43,242.29,271.43,243Z" transform="translate(-42.16 -34.31)"/><path class="cls-40" d="M271.19,243c0,.67-5.89,1.22-13.15,1.22s-13.16-.55-13.16-1.22,5.89-1.22,13.16-1.22S271.19,242.29,271.19,243Z" transform="translate(-42.16 -34.31)"/><path class="cls-41" d="M271,242.94c0,.66-5.78,1.2-12.91,1.2s-12.92-.54-12.92-1.2,5.79-1.19,12.92-1.19S271,242.28,271,242.94Z" transform="translate(-42.16 -34.31)"/><path class="cls-42" d="M270.71,242.92c0,.65-5.67,1.17-12.67,1.17s-12.68-.52-12.68-1.17,5.68-1.17,12.68-1.17S270.71,242.27,270.71,242.92Z" transform="translate(-42.16 -34.31)"/><path class="cls-43" d="M270.47,242.9c0,.64-5.56,1.15-12.43,1.15s-12.44-.51-12.44-1.15,5.57-1.15,12.44-1.15S270.47,242.26,270.47,242.9Z" transform="translate(-42.16 -34.31)"/><path class="cls-44" d="M270.23,242.88c0,.62-5.45,1.13-12.19,1.13s-12.2-.51-12.2-1.13,5.46-1.13,12.2-1.13S270.23,242.26,270.23,242.88Z" transform="translate(-42.16 -34.31)"/><path class="cls-45" d="M270,242.86c0,.61-5.35,1.11-11.95,1.11s-12-.5-12-1.11,5.36-1.11,12-1.11S270,242.25,270,242.86Z" transform="translate(-42.16 -34.31)"/><path class="cls-46" d="M269.76,242.84c0,.6-5.25,1.09-11.72,1.09s-11.72-.49-11.72-1.09,5.25-1.08,11.72-1.08S269.76,242.24,269.76,242.84Z" transform="translate(-42.16 -34.31)"/><path class="cls-47" d="M269.52,242.82c0,.59-5.14,1.06-11.48,1.06s-11.48-.47-11.48-1.06,5.14-1.06,11.48-1.06S269.52,242.23,269.52,242.82Z" transform="translate(-42.16 -34.31)"/><path class="cls-48" d="M269.28,242.8c0,.58-5,1-11.24,1s-11.24-.46-11.24-1,5-1,11.24-1S269.28,242.23,269.28,242.8Z" transform="translate(-42.16 -34.31)"/><path class="cls-49" d="M269,242.78c0,.56-4.93,1-11,1s-11-.46-11-1,4.92-1,11-1S269,242.22,269,242.78Z" transform="translate(-42.16 -34.31)"/><path class="cls-50" d="M219.68,242.22a18.91,18.91,0,0,1-2.61,0,24.84,24.84,0,0,1-.92-4.47c0-.59.18-2.55.92-2.55s6.25-1.46,7-.29S222.25,243.71,219.68,242.22Z" transform="translate(-42.16 -34.31)"/><path class="cls-51" d="M219.68,228.78,216.21,227v7.86a4.88,4.88,0,0,0,3.47,1.61,4.06,4.06,0,0,0,3.47-1.48V228.2Z" transform="translate(-42.16 -34.31)"/><path class="cls-52" d="M223.15,230.1a39.23,39.23,0,0,1-6.94,4.4v-5.14Z" transform="translate(-42.16 -34.31)"/><path class="cls-53" d="M219.68,234.6v2.92l-.88.32-1.26-2.15A4.9,4.9,0,0,1,219.68,234.6Z" transform="translate(-42.16 -34.31)"/><path class="cls-54" d="M216.21,232.63l-.66.34,1.59,5.46,2.54-3.83A8,8,0,0,1,216.21,232.63Z" transform="translate(-42.16 -34.31)"/><path class="cls-51" d="M214.24,222.89s.82,6.36,1,6.67,3.38,2.06,4.44,2V216.16S213,213.36,214.24,222.89Z" transform="translate(-42.16 -34.31)"/><path class="cls-51" d="M225.12,222.89s-.82,6.36-1,6.67-3.38,2.06-4.44,2V216.16S226,214.82,225.12,222.89Z" transform="translate(-42.16 -34.31)"/><path class="cls-51" d="M224.16,226.66s.94.35,1.52-1.5c.66-2.13.2-3.09-.4-3a1.09,1.09,0,0,0-1,.82Z" transform="translate(-42.16 -34.31)"/><path class="cls-51" d="M215.2,226.66s-.94.35-1.52-1.5c-.66-2.13-.2-3.09.4-3a1.19,1.19,0,0,1,.51.14,1.23,1.23,0,0,1,.52.68Z" transform="translate(-42.16 -34.31)"/><path class="cls-55" d="M213.64,217.17c-.46,1.28.5,5.09.5,5.09l.62,1-.15-2.13s1.34-2.9,1-4l-.85-1.23A6.32,6.32,0,0,0,213.64,217.17Z" transform="translate(-42.16 -34.31)"/><path class="cls-55" d="M225.72,217.17c.46,1.28-.5,5.09-.5,5.09l-.62,1,.15-2.13s-1.34-2.9-1-4l.85-1.23A6,6,0,0,1,225.72,217.17Z" transform="translate(-42.16 -34.31)"/><path class="cls-55" d="M219.68,213.22a5.65,5.65,0,0,0-4.94,2.67l.85,1.23a12.6,12.6,0,0,0,4.15,1.35,6.38,6.38,0,0,0,4.5-1l.38-1.6A5.2,5.2,0,0,0,219.68,213.22Z" transform="translate(-42.16 -34.31)"/><path class="cls-56" d="M219.68,234.6v2.92l.88.32,1.26-2.15A4.9,4.9,0,0,0,219.68,234.6Z" transform="translate(-42.16 -34.31)"/><path class="cls-57" d="M223.15,232.57l.74.47-1.6,5.36-2.61-3.8A8.63,8.63,0,0,0,223.15,232.57Z" transform="translate(-42.16 -34.31)"/><path class="cls-58" d="M213.36,238.83l.73-1.05.37-.53-1.33-2.19-.5-.81v0l-5.19,2.38c-.37.4-1,4-1.48,7.09h11.11Z" transform="translate(-42.16 -34.31)"/><path class="cls-59" d="M226,238.83l-3.7,4.87h11.12c-.45-3.11-1.12-6.69-1.49-7.09l-5.19-2.38-1.84,3Z" transform="translate(-42.16 -34.31)"/><path class="cls-53" d="M219.68,243.7v-6.18l-.88.32s-.57,2.56-.71,3.87l.58,2Z" transform="translate(-42.16 -34.31)"/><path class="cls-56" d="M220.69,243.7l.58-2c-.14-1.31-.71-3.87-.71-3.87l-.88-.32v6.18Z" transform="translate(-42.16 -34.31)"/><polygon class="cls-60" points="172.29 202.94 171.93 203.47 171.2 204.52 174.9 209.39 176.51 209.39 175.93 207.4 173.97 200.69 173.38 198.66 170.46 199.93 170.96 200.76 172.29 202.94"/><polygon class="cls-61" points="183.84 204.52 182.74 202.94 184.57 199.93 181.72 198.73 181.15 200.69 179.28 206.93 178.55 209.39 180.14 209.39 183.84 204.52"/><path class="cls-50" d="M260,242.22a18.91,18.91,0,0,0,2.61,0,24.84,24.84,0,0,0,.92-4.47c0-.59-.18-2.55-.92-2.55s-6.25-1.46-7-.29S257.42,243.71,260,242.22Z" transform="translate(-42.16 -34.31)"/><path class="cls-51" d="M260,228.78l3.47-1.74v7.86a4.88,4.88,0,0,1-3.47,1.61,4.06,4.06,0,0,1-3.47-1.48V228.2Z" transform="translate(-42.16 -34.31)"/><path class="cls-52" d="M256.52,230.1a39.23,39.23,0,0,0,6.94,4.4v-5.14Z" transform="translate(-42.16 -34.31)"/><path class="cls-56" d="M260,234.6v2.92l.88.32,1.26-2.15A4.84,4.84,0,0,0,260,234.6Z" transform="translate(-42.16 -34.31)"/><path class="cls-54" d="M263.46,232.63l.66.34-1.59,5.46L260,234.6A8,8,0,0,0,263.46,232.63Z" transform="translate(-42.16 -34.31)"/><path class="cls-51" d="M265.42,222.89s-.81,6.36-1,6.67-3.38,2.06-4.44,2V216.16S266.71,213.36,265.42,222.89Z" transform="translate(-42.16 -34.31)"/><path class="cls-51" d="M254.55,222.89s.82,6.36,1,6.67,3.39,2.06,4.45,2V216.16S253.67,214.82,254.55,222.89Z" transform="translate(-42.16 -34.31)"/><path class="cls-51" d="M255.51,226.66s-.94.35-1.52-1.5c-.66-2.13-.2-3.09.4-3a1.09,1.09,0,0,1,1,.82Z" transform="translate(-42.16 -34.31)"/><path class="cls-51" d="M264.47,226.66s.94.35,1.52-1.5c.66-2.13.2-3.09-.4-3a1.27,1.27,0,0,0-.51.14,1.23,1.23,0,0,0-.52.68Z" transform="translate(-42.16 -34.31)"/><path class="cls-55" d="M266,217.17c.46,1.28-.49,5.09-.49,5.09l-.63,1,.15-2.13s-1.34-2.9-1-4l.85-1.23A6,6,0,0,1,266,217.17Z" transform="translate(-42.16 -34.31)"/><path class="cls-55" d="M254,217.17c-.46,1.28.5,5.09.5,5.09l.62,1-.15-2.13s1.34-2.9,1-4l-.85-1.23A6.32,6.32,0,0,0,254,217.17Z" transform="translate(-42.16 -34.31)"/><path class="cls-55" d="M260,213.22a5.65,5.65,0,0,1,4.94,2.67l-.85,1.23a12.6,12.6,0,0,1-4.15,1.35,6.39,6.39,0,0,1-4.5-1l-.38-1.6A5.2,5.2,0,0,1,260,213.22Z" transform="translate(-42.16 -34.31)"/><path class="cls-53" d="M260,234.6v2.92l-.88.32-1.26-2.15A4.9,4.9,0,0,1,260,234.6Z" transform="translate(-42.16 -34.31)"/><path class="cls-57" d="M256.52,232.57l-.74.47,1.6,5.36,2.61-3.8A8.63,8.63,0,0,1,256.52,232.57Z" transform="translate(-42.16 -34.31)"/><path class="cls-58" d="M266.31,238.83l-.73-1.05-.37-.53,1.33-2.19.5-.81v0l5.19,2.38c.37.4,1,4,1.49,7.09H262.61Z" transform="translate(-42.16 -34.31)"/><path class="cls-59" d="M253.67,238.83l3.7,4.87H246.25c.45-3.11,1.12-6.69,1.49-7.09l5.19-2.38,1.84,3Z" transform="translate(-42.16 -34.31)"/><path class="cls-56" d="M260,243.7v-6.18l.88.32s.57,2.56.71,3.87l-.58,2Z" transform="translate(-42.16 -34.31)"/><path class="cls-53" d="M259,243.7l-.58-2c.14-1.31.71-3.87.71-3.87l.88-.32v6.18Z" transform="translate(-42.16 -34.31)"/><polygon class="cls-60" points="223.05 202.94 223.41 203.47 224.15 204.52 220.45 209.39 218.83 209.39 219.41 207.4 221.37 200.69 221.96 198.66 224.88 199.93 224.38 200.76 223.05 202.94"/><polygon class="cls-61" points="211.51 204.52 212.6 202.94 210.77 199.93 213.62 198.73 214.2 200.69 216.06 206.93 216.79 209.39 215.21 209.39 211.51 204.52"/><path class="cls-50" d="M239.84,249.34a25.05,25.05,0,0,1-3.47,0,33.19,33.19,0,0,1-1.21-5.93c0-.78.23-3.37,1.21-3.37s8.29-1.94,9.29-.39S243.25,251.31,239.84,249.34Z" transform="translate(-42.16 -34.31)"/><path class="cls-51" d="M239.84,231.53l-4.6-2.31v10.42a6.48,6.48,0,0,0,4.6,2.14c3.33,0,4.59-2,4.59-2v-9.05Z" transform="translate(-42.16 -34.31)"/><path class="cls-52" d="M244.43,233.28s-2.19,2-9.19,5.83V232.3Z" transform="translate(-42.16 -34.31)"/><path class="cls-62" d="M239.84,239.24v3.87l-1.17.42L237,240.68A6.6,6.6,0,0,1,239.84,239.24Z" transform="translate(-42.16 -34.31)"/><path class="cls-54" d="M235.25,236.63l-.89.45,2.11,7.24,3.37-5.08A10.48,10.48,0,0,1,235.25,236.63Z" transform="translate(-42.16 -34.31)"/><path class="cls-51" d="M232.63,223.72s1.09,8.43,1.32,8.84,4.48,2.73,5.89,2.63V214.8S230.92,211.1,232.63,223.72Z" transform="translate(-42.16 -34.31)"/><path class="cls-51" d="M247,223.72s-1.09,8.43-1.31,8.84-4.48,2.73-5.89,2.63V214.8S248.22,213,247,223.72Z" transform="translate(-42.16 -34.31)"/><path class="cls-51" d="M245.77,228.72s1.24.47,2-2c.89-2.82.27-4.09-.53-4a1.77,1.77,0,0,0-.67.18,1.64,1.64,0,0,0-.69.9Z" transform="translate(-42.16 -34.31)"/><path class="cls-51" d="M233.9,228.72s-1.25.47-2-2c-.88-2.82-.27-4.09.52-4a1.77,1.77,0,0,1,.68.18,1.64,1.64,0,0,1,.69.9Z" transform="translate(-42.16 -34.31)"/><path class="cls-55" d="M231.84,216.15c-.62,1.69.65,6.73.65,6.73l.83,1.29-.2-2.83s1.78-3.84,1.29-5.26l-1.12-1.62A7.78,7.78,0,0,0,231.84,216.15Z" transform="translate(-42.16 -34.31)"/><path class="cls-55" d="M247.84,216.15c.61,1.69-.66,6.73-.66,6.73l-.83,1.29.2-2.83s-1.78-3.84-1.29-5.26l1.12-1.62A7.76,7.76,0,0,1,247.84,216.15Z" transform="translate(-42.16 -34.31)"/><path class="cls-55" d="M239.84,210.92c-2.14,0-5.22,1-6.55,3.54l1.12,1.62a17,17,0,0,0,5.51,1.79c1.56.12,4.06.2,6-1.31l.5-2.1S244.84,210.92,239.84,210.92Z" transform="translate(-42.16 -34.31)"/><path class="cls-63" d="M239.84,239.24v3.87l1.16.42,1.68-2.85A6.6,6.6,0,0,0,239.84,239.24Z" transform="translate(-42.16 -34.31)"/><path class="cls-57" d="M244.43,236.55l1,.62-2.11,7.1-3.46-5A11.25,11.25,0,0,0,244.43,236.55Z" transform="translate(-42.16 -34.31)"/><path class="cls-58" d="M231.46,244.84l1-1.39.48-.7-1.76-2.9-.65-1.07,0,0s-6.87,3.14-6.88,3.16c-.49.53-1.37,5.27-2,9.39h14.73Z" transform="translate(-42.16 -34.31)"/><path class="cls-59" d="M248.21,244.84l-4.9,6.46H258c-.59-4.12-1.48-8.86-2-9.39,0,0-6.88-3.16-6.88-3.16l-2.43,4Z" transform="translate(-42.16 -34.31)"/><path class="cls-62" d="M239.84,251.3v-8.19l-1.17.42s-.75,3.4-.94,5.13l.77,2.64Z" transform="translate(-42.16 -34.31)"/><path class="cls-63" d="M241.17,251.3l.77-2.64c-.19-1.73-.94-5.13-.94-5.13l-1.16-.42v8.19Z" transform="translate(-42.16 -34.31)"/><polygon class="cls-60" points="190.75 208.45 190.26 209.15 189.3 210.54 194.2 216.99 196.34 216.99 195.57 214.35 192.98 205.46 192.2 202.77 188.32 204.45 188.99 205.55 190.75 208.45"/><polygon class="cls-61" points="206.04 210.54 204.59 208.45 207.02 204.45 203.25 202.87 202.48 205.46 200.01 213.73 199.04 216.99 201.15 216.99 206.04 210.54"/><rect class="cls-64" x="97.4" y="184.68" width="54.24" height="0.22"/><rect class="cls-64" x="97.4" y="188.85" width="54.24" height="0.22"/><rect class="cls-64" x="97.4" y="193.02" width="54.24" height="0.22"/><rect class="cls-64" x="97.4" y="197.19" width="54.24" height="0.22"/><rect class="cls-64" x="97.4" y="201.36" width="54.24" height="0.22"/><rect class="cls-64" x="97.4" y="205.53" width="54.6" height="0.22"/><rect class="cls-64" x="97.4" y="209.69" width="54.6" height="0.22"/><rect class="cls-64" x="97.4" y="213.87" width="54.6" height="0.22"/><rect class="cls-64" x="97.4" y="218.04" width="52.05" height="0.22"/><path class="cls-3" d="M143.63,232.68a1.12,1.12,0,1,1-1.12-1.11A1.12,1.12,0,0,1,143.63,232.68Z" transform="translate(-42.16 -34.31)"/><path class="cls-3" d="M151,225.29a1.12,1.12,0,1,1-1.12-1.12A1.12,1.12,0,0,1,151,225.29Z" transform="translate(-42.16 -34.31)"/><path class="cls-3" d="M159.22,222.32a1.11,1.11,0,1,1-1.11-1.12A1.11,1.11,0,0,1,159.22,222.32Z" transform="translate(-42.16 -34.31)"/><path class="cls-3" d="M167.64,229a1.12,1.12,0,1,1-1.11-1.11A1.12,1.12,0,0,1,167.64,229Z" transform="translate(-42.16 -34.31)"/><path class="cls-3" d="M175.22,220.64a1.12,1.12,0,1,1-1.12-1.12A1.12,1.12,0,0,1,175.22,220.64Z" transform="translate(-42.16 -34.31)"/><path class="cls-3" d="M183.75,227.47a1.12,1.12,0,1,1-1.11-1.12A1.11,1.11,0,0,1,183.75,227.47Z" transform="translate(-42.16 -34.31)"/><path class="cls-3" d="M192.5,219.72a1.12,1.12,0,1,1-1.12-1.11A1.12,1.12,0,0,1,192.5,219.72Z" transform="translate(-42.16 -34.31)"/><polygon class="cls-3" points="101.05 197.98 100.89 197.84 106.57 191.5 106.73 191.65 101.05 197.98"/><rect class="cls-3" x="150.32" y="223.33" width="6.87" height="0.22" transform="translate(-106.8 28.29) rotate(-19.1)"/><polygon class="cls-3" points="123.74 194.37 116.45 188.62 116.59 188.44 123.88 194.19 123.74 194.37"/><polygon class="cls-3" points="125.35 194.26 125.18 194.12 130.92 186.83 131.1 186.97 125.35 194.26"/><polygon class="cls-3" points="139.87 192.83 132.58 187.08 132.72 186.91 140.01 192.66 139.87 192.83"/><polygon class="cls-3" points="141.67 192.32 141.51 192.16 148.34 185.86 148.49 186.03 141.67 192.32"/><path class="cls-65" d="M143.78,249.14h0a1.47,1.47,0,0,1-1.18-2.35,1.47,1.47,0,1,1,1.4,2.33Zm0-2.06h-.1a.6.6,0,0,0-.38.24.58.58,0,0,0,.47.93h.09a.58.58,0,0,0-.08-1.16Z" transform="translate(-42.16 -34.31)"/><path class="cls-65" d="M150.55,245.53h0a1.47,1.47,0,0,1-1.46-1.25,1.48,1.48,0,0,1,2.92-.44,1.46,1.46,0,0,1-.27,1.09,1.49,1.49,0,0,1-1,.59Zm0-2.06h-.09a.59.59,0,0,0-.49.67.58.58,0,0,0,.58.49h.09a.61.61,0,0,0,.39-.23.57.57,0,0,0,.1-.44A.59.59,0,0,0,150.55,243.47Z" transform="translate(-42.16 -34.31)"/><path class="cls-65" d="M158.44,247.11a1.49,1.49,0,0,1-1.46-1.25,1.46,1.46,0,0,1,.28-1.09,1.41,1.41,0,0,1,1-.59,1.47,1.47,0,0,1,1.41,2.33,1.47,1.47,0,0,1-1,.58A.82.82,0,0,1,158.44,247.11Zm0-2.06h-.09a.53.53,0,0,0-.38.23.62.62,0,0,0-.11.44.58.58,0,0,0,.67.48.57.57,0,0,0,.38-.22.59.59,0,0,0-.47-.94Z" transform="translate(-42.16 -34.31)"/><path class="cls-65" d="M165.19,239.8h0a1.48,1.48,0,1,1,1.46-1.7,1.46,1.46,0,0,1-1.23,1.67A.91.91,0,0,1,165.19,239.8Zm0-2.07h-.09a.59.59,0,0,0,.08,1.17h.09a.59.59,0,0,0,.49-.67A.58.58,0,0,0,165.2,237.73Z" transform="translate(-42.16 -34.31)"/><path class="cls-65" d="M173.29,246.42a1.48,1.48,0,0,1-1.19-2.35,1.42,1.42,0,0,1,1-.58,1.49,1.49,0,0,1,1.69,1.23,1.54,1.54,0,0,1-.27,1.1,1.47,1.47,0,0,1-1,.58Zm0-2.06h-.09a.62.62,0,0,0-.39.24.59.59,0,0,0-.1.43.58.58,0,0,0,.67.49.55.55,0,0,0,.38-.23.6.6,0,0,0,.11-.43A.59.59,0,0,0,173.29,244.36Z" transform="translate(-42.16 -34.31)"/><path class="cls-65" d="M180.13,239h0a1.48,1.48,0,0,1-1.45-1.26,1.42,1.42,0,0,1,.27-1.09,1.44,1.44,0,0,1,1-.59,1.48,1.48,0,0,1,1.68,1.24,1.41,1.41,0,0,1-.27,1.09,1.44,1.44,0,0,1-1,.59Zm0-2.06H180a.6.6,0,0,0-.38.24.54.54,0,0,0-.1.43.59.59,0,0,0,.57.5h.1a.59.59,0,0,0,.38-.23.57.57,0,0,0,.1-.44A.58.58,0,0,0,180.13,236.93Z" transform="translate(-42.16 -34.31)"/><rect class="cls-65" x="144.32" y="245.68" width="5.62" height="0.22" transform="translate(-130.28 48.02) rotate(-24.3)"/><polygon class="cls-65" points="115.24 211.59 109 210.45 109.04 210.23 115.28 211.38 115.24 211.59"/><polygon class="cls-65" points="116.81 210.85 116.65 210.71 122.51 204.44 122.68 204.58 116.81 210.85"/><rect class="cls-65" x="169.12" y="237.33" width="0.22" height="8.58" transform="translate(-165 165.88) rotate(-46.92)"/><polygon class="cls-65" points="131.76 210.01 131.6 209.86 137.46 203.59 137.62 203.74 131.76 210.01"/><polygon class="cls-65" points="145.2 208.13 139.06 203.99 139.18 203.8 145.33 207.95 145.2 208.13"/><path class="cls-65" d="M187.92,245h0a1.47,1.47,0,1,1,1.46-1.7,1.54,1.54,0,0,1-.27,1.1,1.47,1.47,0,0,1-1,.58Zm0-2.06h-.09a.57.57,0,0,0-.39.23.55.55,0,0,0-.1.43.58.58,0,0,0,.58.5H188a.59.59,0,0,0-.09-1.17Z" transform="translate(-42.16 -34.31)"/><rect class="cls-65" x="98.32" y="228.9" width="3.06" height="29.88"/><rect class="cls-3" x="110.22" y="232.57" width="3.07" height="26.21"/><rect class="cls-65" x="122.13" y="237.17" width="3.06" height="21.61"/><rect class="cls-3" x="134.03" y="239.66" width="3.07" height="19.12"/><rect class="cls-65" x="145.94" y="241.25" width="3.06" height="17.53"/><rect class="cls-4" x="104.69" y="237.28" width="3.06" height="21.5"/><rect class="cls-4" x="116" y="241.25" width="3.06" height="17.53"/><rect class="cls-4" x="128.18" y="245.67" width="3.06" height="13.1"/><rect class="cls-4" x="139.99" y="249.22" width="3.06" height="9.56"/><rect class="cls-4" x="152.3" y="251.41" width="3.07" height="7.37"/><rect class="cls-64" x="96.72" y="258.78" width="61.22" height="0.62"/><rect class="cls-65" x="162.84" y="231.34" width="20.59" height="2.32"/><rect class="cls-65" x="162.84" y="239.74" width="26.96" height="2.32"/><rect class="cls-65" x="162.84" y="257.08" width="25.73" height="2.32"/><rect class="cls-65" x="162.84" y="249.16" width="11.86" height="2.32"/><rect class="cls-65" x="193.6" y="231.34" width="36.56" height="2.32"/><rect class="cls-65" x="193.6" y="239.74" width="36.56" height="2.32"/><rect class="cls-65" x="193.6" y="257.08" width="36.56" height="2.32"/><rect class="cls-65" x="178.91" y="249.16" width="27.84" height="2.32"/><rect class="cls-65" x="213.64" y="249.16" width="16.52" height="2.32"/><path class="cls-8" d="M254.39,293.4c.65,3.9-2,5.68-5.5,6.26h0c-3.48.57-6.49-.56-7.14-4.46l-6.49-38.68c-.65-3.9,1.63-7.53,5.1-8.11h0c3.46-.58,6.81,2.12,7.45,6Z" transform="translate(-42.16 -34.31)"/><path class="cls-8" d="M273.26,324.82c.69,4.1-1.44,7.88-4.74,8.43h0c-3.31.55-6.54-2.35-7.23-6.45l-6.5-39.06c-.68-4.11,1.44-7.89,4.75-8.44h0c3.3-.55,6.53,2.34,7.22,6.44Z" transform="translate(-42.16 -34.31)"/><path class="cls-8" d="M286.66,321.46c.65,3.89-1.34,7.46-4.45,8h0c-3.1.52-6.14-2.22-6.79-6.1l-6.15-37c-.65-3.88,1.34-7.46,4.44-8h0c3.11-.52,6.15,2.22,6.79,6.11Z" transform="translate(-42.16 -34.31)"/><path class="cls-8" d="M298.6,317a6,6,0,0,1-4.64,7h0a6,6,0,0,1-6.68-5.16l-5.35-32.13a6,6,0,0,1,4.65-7.05h0a6,6,0,0,1,6.67,5.16Z" transform="translate(-42.16 -34.31)"/><polygon class="cls-8" points="199.58 260.89 203.98 287.7 255.61 279.84 251.09 252.38 199.58 260.89"/><path class="cls-8" d="M296.67,307.4s2.46,12.63,1.49,16.29c-1.23,4.66-5.7,5.61-6,6.24s2.95,17.76,2.95,17.76l-39.81,7.67-2.83-17.9s-11.3,3-14.53-4.3c-3.13-7.06-5.2-12.91-8.18-20.3l16.2,5.48,21.33-6.71Z" transform="translate(-42.16 -34.31)"/><polygon class="cls-66" points="257.5 318 254.75 301.46 207.85 309.29 210.6 325.82 257.5 318"/><polygon class="cls-65" points="272.8 365.69 211.28 365.69 205.56 326.26 263.29 317.47 272.8 365.69"/><path class="cls-8" d="M247.19,320a6.78,6.78,0,0,1-3.76,8.83h0a6.79,6.79,0,0,1-8.83-3.75l-14-34.76a6.8,6.8,0,0,1,3.76-8.84h0a6.79,6.79,0,0,1,8.83,3.76Z" transform="translate(-42.16 -34.31)"/><path class="cls-9" d="M236.3,303.53c-.08-.2-.47-.22-.88,0l-4.69,2c-.41.17-.67.46-.59.66h0c.08.2.48.21.89,0l4.68-2c.41-.17.67-.47.59-.66Z" transform="translate(-42.16 -34.31)"/><path class="cls-9" d="M235.68,302.06c-.08-.19-.48-.21-.89,0l-4.68,2c-.41.17-.67.47-.59.67h0c.09.19.48.21.89,0l4.69-2c.4-.17.67-.47.58-.66Z" transform="translate(-42.16 -34.31)"/><path class="cls-9" d="M222.57,286a14.6,14.6,0,0,1,2.82-1.18h0a14.56,14.56,0,0,1,3-.57c.59,2,1.51,4.87.73,6.34a2.51,2.51,0,0,1-1.64,1.19h0a2.59,2.59,0,0,1-2-.1C224,290.85,223.16,287.91,222.57,286Z" transform="translate(-42.16 -34.31)"/><path class="cls-9" d="M247.26,271.45c0-.2-.43-.3-.86-.21l-5,1c-.43.09-.74.33-.7.54h0c0,.21.42.3.86.21l5-1c.43-.08.75-.33.71-.54Z" transform="translate(-42.16 -34.31)"/><path class="cls-9" d="M246.93,269.9c0-.21-.43-.31-.86-.21l-5,1c-.43.09-.75.33-.71.54h0c.05.21.43.3.86.21l5-1c.43-.09.75-.33.7-.53Z" transform="translate(-42.16 -34.31)"/><path class="cls-9" d="M238.28,253a14.37,14.37,0,0,1,3-.64h0a13.73,13.73,0,0,1,3.06,0c.22,2,.59,5.06-.44,6.36a2.54,2.54,0,0,1-1.82.88h0s0,0,0,0h0a2.53,2.53,0,0,1-2-.47C238.79,258.09,238.51,255,238.28,253Z" transform="translate(-42.16 -34.31)"/><path class="cls-67" d="M278,290.34c0-.15-.31-.23-.64-.17l-3.74.69c-.33.06-.57.24-.54.39h0c0,.16.32.24.64.17l3.74-.69c.33-.05.57-.23.54-.39Z" transform="translate(-42.16 -34.31)"/><path class="cls-67" d="M277.77,289.18c0-.16-.31-.24-.64-.18l-3.74.69c-.32.06-.56.24-.53.39h0c0,.16.31.23.63.17l3.75-.68c.32-.07.56-.24.53-.39Z" transform="translate(-42.16 -34.31)"/><path class="cls-67" d="M264.77,292.3c0-.15-.31-.23-.64-.17l-3.74.69c-.32.06-.56.23-.54.39h0c0,.15.32.23.64.17l3.74-.69c.33-.05.57-.23.54-.39Z" transform="translate(-42.16 -34.31)"/><path class="cls-67" d="M264.55,291.14c0-.16-.31-.24-.63-.18l-3.75.69c-.32.06-.56.23-.53.38h0c0,.16.31.24.64.18l3.74-.69c.33-.06.57-.23.53-.38Z" transform="translate(-42.16 -34.31)"/><path class="cls-67" d="M250.19,294.76c0-.15-.32-.23-.64-.17l-3.75.69c-.32.06-.56.23-.53.39h0c0,.16.31.23.64.17l3.74-.69c.33,0,.56-.23.54-.39Z" transform="translate(-42.16 -34.31)"/><path class="cls-67" d="M250,293.6c0-.16-.31-.24-.64-.18l-3.74.69c-.33.06-.56.23-.54.39h0c0,.15.32.23.65.17l3.74-.69c.32-.06.56-.23.53-.38Z" transform="translate(-42.16 -34.31)"/><path class="cls-67" d="M291.79,287.89c0-.16-.32-.23-.64-.17l-3.74.68c-.33.06-.57.24-.54.39h0c0,.16.31.24.64.18l3.74-.69c.33-.06.56-.24.54-.39Z" transform="translate(-42.16 -34.31)"/><path class="cls-67" d="M291.57,286.72c0-.15-.31-.24-.64-.17l-3.74.68c-.33.06-.57.24-.54.39h0c0,.16.32.24.64.17l3.75-.68c.32-.06.56-.24.53-.39Z" transform="translate(-42.16 -34.31)"/><path class="cls-8" d="M92.42,300l20.89.51c-.11,1.65.08,2.94.71,3.64,4.83,5.33,8.79,4.75,15,.91,3.6-2.24,7.48-4.74,13.95-8.91,13.85-8.94,17-3.07,17.34.23.65,7.18-16.43,14.09-20.78,22.8-5.21,10.42-15.31,19.35-15.31,19.35v30H92.49S91.52,305.92,92.42,300Z" transform="translate(-42.16 -34.31)"/><path class="cls-9" d="M159.49,299a17.63,17.63,0,0,0-1.9-3.1h0a17.1,17.1,0,0,0-2.5-2.64c-1.93,1.47-4.84,3.64-5.1,5.61a3,3,0,0,0,.74,2.28h0s0,0,0,0h0a3,3,0,0,0,2,1.32C154.71,302.72,157.56,300.46,159.49,299Z" transform="translate(-42.16 -34.31)"/><path class="cls-9" d="M138.37,304.68c.18-.11.51.09.75.46l2.74,4.23c.24.37.29.75.12.87h0c-.18.12-.51-.09-.75-.46l-2.74-4.23c-.24-.36-.29-.75-.12-.87Z" transform="translate(-42.16 -34.31)"/><path class="cls-9" d="M139.7,303.83c.17-.12.51.09.75.45l2.74,4.23c.23.37.28.76.11.88h0c-.18.11-.51-.1-.75-.47l-2.74-4.23c-.24-.36-.29-.76-.11-.86Z" transform="translate(-42.16 -34.31)"/><polygon class="cls-65" points="102.91 334.24 102.75 365.69 36.93 365.69 37.27 334.24 102.91 334.24"/><rect class="cls-66" x="44.3" y="317.8" width="50.11" height="16.44"/><path class="cls-68" d="M288.34,257.34a5.24,5.24,0,0,0-2.29,6.39,5.11,5.11,0,0,1-.51-.71,5.26,5.26,0,1,1,9.1-5.26,5.61,5.61,0,0,1,.37.79A5.26,5.26,0,0,0,288.34,257.34Z" transform="translate(-42.16 -34.31)"/><path class="cls-69" d="M292.73,264.94a4.45,4.45,0,1,1,2.28-6.39A5.25,5.25,0,0,1,292.73,264.94Z" transform="translate(-42.16 -34.31)"/><path class="cls-68" d="M121.55,250.07v12a1.65,1.65,0,0,0,1,1.51,1.46,1.46,0,0,1-.52.11,1.57,1.57,0,0,1-1.51-1.62v-12a1.58,1.58,0,0,1,1.51-1.63,1.27,1.27,0,0,1,.52.11A1.63,1.63,0,0,0,121.55,250.07Z" transform="translate(-42.16 -34.31)"/><path class="cls-69" d="M123.5,250.07v12a1.62,1.62,0,0,1-1,1.51,1.65,1.65,0,0,1-1-1.51v-12a1.63,1.63,0,0,1,1-1.52A1.61,1.61,0,0,1,123.5,250.07Z" transform="translate(-42.16 -34.31)"/><polygon class="cls-70" points="33.77 98.2 19.92 98.2 11.48 103.31 33.77 103.31 33.77 98.2"/><polygon class="cls-70" points="33.77 98.2 47.63 98.2 56.06 103.31 33.77 103.31 33.77 98.2"/><path class="cls-71" d="M72.37,119.9c.24-1.91,1.26-3.71,2.86-3.88s3.89-.83,4,1.22-.47,5.08-1.87,5.18S72.17,121.51,72.37,119.9Z" transform="translate(-42.16 -34.31)"/><path class="cls-51" d="M75.94,110.09l-3.07-1.54v7a4.3,4.3,0,0,0,3.07,1.43A3.58,3.58,0,0,0,79,115.62v-6Z" transform="translate(-42.16 -34.31)"/><path class="cls-72" d="M79,111.26a34.51,34.51,0,0,1-6.13,3.89V110.6Z" transform="translate(-42.16 -34.31)"/><path class="cls-62" d="M75.94,115.24v2.58l-.78.28L74,116.2A4.41,4.41,0,0,1,75.94,115.24Z" transform="translate(-42.16 -34.31)"/><path class="cls-54" d="M72.87,113.49l-.59.3,1.41,4.84,2.25-3.39A7.1,7.1,0,0,1,72.87,113.49Z" transform="translate(-42.16 -34.31)"/><path class="cls-51" d="M71.13,104.88s.72,5.63.88,5.9,3,1.82,3.93,1.75V98.93S70,96.46,71.13,104.88Z" transform="translate(-42.16 -34.31)"/><path class="cls-51" d="M80.74,104.88s-.72,5.63-.88,5.9-3,1.82-3.92,1.75V98.93S81.53,97.75,80.74,104.88Z" transform="translate(-42.16 -34.31)"/><path class="cls-51" d="M79.9,108.22s.83.31,1.34-1.33c.59-1.88.18-2.73-.35-2.68a1.14,1.14,0,0,0-.45.13,1,1,0,0,0-.46.6Z" transform="translate(-42.16 -34.31)"/><path class="cls-51" d="M72,108.22s-.83.31-1.35-1.33c-.59-1.88-.18-2.73.36-2.68a1.14,1.14,0,0,1,.44.13,1,1,0,0,1,.46.6Z" transform="translate(-42.16 -34.31)"/><path class="cls-55" d="M70.6,99.83c-.41,1.13.43,4.49.43,4.49l.56.86-.13-1.89s1.18-2.56.86-3.51l-.75-1.08A5,5,0,0,0,70.6,99.83Z" transform="translate(-42.16 -34.31)"/><path class="cls-55" d="M81.27,99.83c.42,1.13-.43,4.49-.43,4.49l-.56.86.13-1.89s-1.18-2.56-.86-3.51l.75-1.08A5,5,0,0,1,81.27,99.83Z" transform="translate(-42.16 -34.31)"/><path class="cls-55" d="M75.94,96.34a5,5,0,0,0-4.37,2.36l.75,1.08A11.24,11.24,0,0,0,76,101a5.61,5.61,0,0,0,4-.88l.33-1.4A4.57,4.57,0,0,0,75.94,96.34Z" transform="translate(-42.16 -34.31)"/><path class="cls-63" d="M75.94,115.24v2.58l.77.28,1.12-1.9A4.42,4.42,0,0,0,75.94,115.24Z" transform="translate(-42.16 -34.31)"/><path class="cls-57" d="M79,113.44l.66.42-1.41,4.73-2.31-3.35A7.63,7.63,0,0,0,79,113.44Z" transform="translate(-42.16 -34.31)"/><path class="cls-73" d="M70.35,119l.64-.93.33-.47-1.18-1.93-.44-.72v0L65.1,117c-.32.35-.91,3.52-1.31,6.26l3.31.45-.58,7.18,11.94-1.53Z" transform="translate(-42.16 -34.31)"/><path class="cls-74" d="M81.52,119,75,127.57l10.26,3.34-.37-7.63h3.2c-.4-2.74-1-5.91-1.31-6.26l-4.59-2.11-1.63,2.67Z" transform="translate(-42.16 -34.31)"/><path class="cls-62" d="M75.94,126v-8.19l-.78.28s-.5,2.27-.63,3.42l.52,1.76Z" transform="translate(-42.16 -34.31)"/><path class="cls-63" d="M76.83,123.28l.51-1.76c-.13-1.15-.63-3.42-.63-3.42l-.77-.28v4.69l0,3.19Z" transform="translate(-42.16 -34.31)"/><polygon class="cls-74" points="29.15 83.27 28.83 83.74 28.18 84.67 33.77 92.87 33.77 91.71 32.37 87.22 30.64 81.28 30.12 79.49 27.53 80.61 27.98 81.34 29.15 83.27"/><polygon class="cls-73" points="39.36 84.67 38.39 83.27 40.01 80.61 37.49 79.55 36.98 81.28 35.33 86.8 33.72 91.56 33.72 92.66 39.36 84.67"/><path class="cls-73" d="M64.61,118.59s-7.09,10.19-6.39,11.57,7,5.23,7,5.23-.65-3.94,3.1-4.75L65,128.72l2.71-4.1Z" transform="translate(-42.16 -34.31)"/><path class="cls-51" d="M65.18,135.39a2.91,2.91,0,0,0,2.42-.4,2,2,0,0,1,2.52.75L72.36,133s.25-3.19-4.08-2.35C65.59,131.16,65,133.49,65.18,135.39Z" transform="translate(-42.16 -34.31)"/><path class="cls-74" d="M87.27,118.63s7.08,10.15,6.39,11.53-7,5.23-7,5.23.64-3.94-3.11-4.75l3.28-1.92-2.71-4.1Z" transform="translate(-42.16 -34.31)"/><path class="cls-51" d="M86.7,135.39a2.93,2.93,0,0,1-2.43-.4,2,2,0,0,0-2.52.75L79.51,133s-.24-3.19,4.08-2.35C86.28,131.16,86.91,133.49,86.7,135.39Z" transform="translate(-42.16 -34.31)"/><rect class="cls-75" x="25.11" y="90.08" width="17.04" height="11.36" rx="0.28"/><path class="cls-76" d="M84.31,135.63a.28.28,0,0,1-.27.27H67.55a.28.28,0,0,1-.28-.27V125.09a.28.28,0,0,1,.28-.27H84a.27.27,0,0,1,.27.27Z" transform="translate(-42.16 -34.31)"/><path class="cls-77" d="M74.72,130.94c0,.11-.18.2-.41.2h0c-.23,0-.41-.09-.41-.2v-.54c0-.11.18-.21.41-.21h0c.23,0,.41.1.41.21Z" transform="translate(-42.16 -34.31)"/><path class="cls-77" d="M75.82,130.94c0,.11-.18.2-.41.2h0c-.23,0-.41-.09-.41-.2v-.54c0-.11.18-.21.41-.21h0c.23,0,.41.1.41.21Z" transform="translate(-42.16 -34.31)"/><path class="cls-77" d="M76.89,130.94c0,.11-.18.2-.41.2h0c-.22,0-.41-.09-.41-.2v-.54c0-.11.19-.21.41-.21h0c.23,0,.41.1.41.21Z" transform="translate(-42.16 -34.31)"/><path class="cls-1" d="M340.36,138.85c0,.61-7.3,1.1-16.3,1.1s-16.3-.49-16.3-1.1,7.3-1.09,16.3-1.09S340.36,138.25,340.36,138.85Z" transform="translate(-42.16 -34.31)"/><path class="cls-78" d="M340.1,138.84c0,.59-7.18,1.08-16,1.08s-16-.49-16-1.08,7.18-1.08,16-1.08S340.1,138.24,340.1,138.84Z" transform="translate(-42.16 -34.31)"/><path class="cls-79" d="M339.85,138.82c0,.59-7.07,1.06-15.79,1.06s-15.79-.47-15.79-1.06,7.07-1.06,15.79-1.06S339.85,138.24,339.85,138.82Z" transform="translate(-42.16 -34.31)"/><path class="cls-80" d="M339.59,138.81c0,.57-6.95,1-15.53,1s-15.53-.47-15.53-1,7-1.05,15.53-1.05S339.59,138.23,339.59,138.81Z" transform="translate(-42.16 -34.31)"/><path class="cls-81" d="M339.34,138.79c0,.57-6.84,1-15.28,1s-15.28-.46-15.28-1,6.84-1,15.28-1S339.34,138.23,339.34,138.79Z" transform="translate(-42.16 -34.31)"/><path class="cls-82" d="M339.09,138.78c0,.56-6.73,1-15,1s-15-.45-15-1,6.73-1,15-1S339.09,138.22,339.09,138.78Z" transform="translate(-42.16 -34.31)"/><path class="cls-83" d="M338.83,138.76c0,.55-6.61,1-14.77,1s-14.77-.45-14.77-1,6.62-1,14.77-1S338.83,138.21,338.83,138.76Z" transform="translate(-42.16 -34.31)"/><path class="cls-84" d="M338.58,138.75c0,.54-6.5,1-14.52,1s-14.51-.43-14.51-1,6.5-1,14.51-1S338.58,138.21,338.58,138.75Z" transform="translate(-42.16 -34.31)"/><path class="cls-85" d="M338.32,138.73c0,.53-6.38,1-14.26,1s-14.26-.43-14.26-1,6.39-1,14.26-1S338.32,138.2,338.32,138.73Z" transform="translate(-42.16 -34.31)"/><path class="cls-86" d="M338.07,138.72c0,.52-6.28.94-14,.94s-14-.42-14-.94,6.27-.95,14-.95S338.07,138.2,338.07,138.72Z" transform="translate(-42.16 -34.31)"/><path class="cls-31" d="M337.81,138.7c0,.51-6.16.92-13.75.92s-13.75-.41-13.75-.92,6.16-.92,13.75-.92S337.81,138.19,337.81,138.7Z" transform="translate(-42.16 -34.31)"/><path class="cls-32" d="M337.56,138.69c0,.5-6.05.9-13.5.9s-13.5-.4-13.5-.9,6.05-.91,13.5-.91S337.56,138.19,337.56,138.69Z" transform="translate(-42.16 -34.31)"/><ellipse class="cls-87" cx="281.9" cy="104.37" rx="13.24" ry="0.89"/><path class="cls-34" d="M337.05,138.66c0,.48-5.82.87-13,.87s-13-.39-13-.87,5.82-.88,13-.88S337.05,138.17,337.05,138.66Z" transform="translate(-42.16 -34.31)"/><path class="cls-35" d="M336.79,138.64c0,.47-5.7.86-12.73.86s-12.73-.39-12.73-.86,5.7-.86,12.73-.86S336.79,138.17,336.79,138.64Z" transform="translate(-42.16 -34.31)"/><path class="cls-88" d="M336.54,138.62c0,.47-5.59.84-12.48.84s-12.48-.37-12.48-.84,5.59-.83,12.48-.83S336.54,138.16,336.54,138.62Z" transform="translate(-42.16 -34.31)"/><path class="cls-89" d="M336.29,138.61c0,.45-5.48.82-12.23.82s-12.22-.37-12.22-.82,5.47-.82,12.22-.82S336.29,138.16,336.29,138.61Z" transform="translate(-42.16 -34.31)"/><path class="cls-37" d="M336,138.59c0,.45-5.36.81-12,.81s-12-.36-12-.81,5.36-.8,12-.8S336,138.15,336,138.59Z" transform="translate(-42.16 -34.31)"/><path class="cls-90" d="M335.78,138.58c0,.43-5.25.79-11.72.79s-11.71-.36-11.71-.79,5.24-.79,11.71-.79S335.78,138.14,335.78,138.58Z" transform="translate(-42.16 -34.31)"/><ellipse class="cls-91" cx="281.9" cy="104.26" rx="11.46" ry="0.77"/><path class="cls-40" d="M335.27,138.55c0,.41-5,.75-11.21.75s-11.2-.34-11.2-.75,5-.76,11.2-.76S335.27,138.13,335.27,138.55Z" transform="translate(-42.16 -34.31)"/><path class="cls-41" d="M335,138.53c0,.41-4.9.74-10.95.74s-10.95-.33-10.95-.74,4.9-.73,10.95-.73S335,138.13,335,138.53Z" transform="translate(-42.16 -34.31)"/><path class="cls-92" d="M334.76,138.52c0,.4-4.79.72-10.7.72s-10.69-.32-10.69-.72,4.79-.72,10.69-.72S334.76,138.12,334.76,138.52Z" transform="translate(-42.16 -34.31)"/><path class="cls-93" d="M334.5,138.5c0,.39-4.67.71-10.44.71s-10.44-.32-10.44-.71,4.67-.7,10.44-.7S334.5,138.12,334.5,138.5Z" transform="translate(-42.16 -34.31)"/><path class="cls-44" d="M334.25,138.49c0,.38-4.56.68-10.19.68s-10.18-.3-10.18-.68,4.56-.69,10.18-.69S334.25,138.11,334.25,138.49Z" transform="translate(-42.16 -34.31)"/><path class="cls-45" d="M334,138.47c0,.37-4.45.67-9.93.67s-9.93-.3-9.93-.67,4.45-.67,9.93-.67S334,138.1,334,138.47Z" transform="translate(-42.16 -34.31)"/><ellipse class="cls-46" cx="281.9" cy="104.15" rx="9.68" ry="0.65"/><path class="cls-94" d="M333.48,138.44c0,.35-4.22.64-9.42.64s-9.42-.29-9.42-.64,4.22-.63,9.42-.63S333.48,138.09,333.48,138.44Z" transform="translate(-42.16 -34.31)"/><ellipse class="cls-48" cx="281.9" cy="104.12" rx="9.17" ry="0.62"/><path class="cls-49" d="M333,138.41c0,.33-4,.6-8.92.6s-8.91-.27-8.91-.6,4-.6,8.91-.6S333,138.08,333,138.41Z" transform="translate(-42.16 -34.31)"/><path class="cls-51" d="M324.06,125.07l-3.2-1.61v7.26a4.51,4.51,0,0,0,3.2,1.49,3.78,3.78,0,0,0,3.21-1.37v-6.31Z" transform="translate(-42.16 -34.31)"/><path class="cls-52" d="M327.27,126.29a36.2,36.2,0,0,1-6.41,4.06V125.6Z" transform="translate(-42.16 -34.31)"/><path class="cls-62" d="M324.06,130.44v2.71l-.81.29-1.17-2A4.7,4.7,0,0,1,324.06,130.44Z" transform="translate(-42.16 -34.31)"/><path class="cls-54" d="M320.86,128.62l-.62.32,1.47,5.05,2.35-3.55A7.32,7.32,0,0,1,320.86,128.62Z" transform="translate(-42.16 -34.31)"/><path class="cls-51" d="M319,119.63s.76,5.87.92,6.16,3.12,1.9,4.1,1.83V113.41S317.85,110.82,319,119.63Z" transform="translate(-42.16 -34.31)"/><path class="cls-51" d="M329.09,119.63s-.76,5.87-.92,6.16-3.13,1.9-4.11,1.83V113.41S329.9,112.17,329.09,119.63Z" transform="translate(-42.16 -34.31)"/><path class="cls-51" d="M328.2,123.11s.87.32,1.4-1.39c.62-2,.19-2.85-.37-2.79a1,1,0,0,0-.46.12,1.1,1.1,0,0,0-.48.63Z" transform="translate(-42.16 -34.31)"/><path class="cls-51" d="M319.93,123.11s-.87.32-1.41-1.39c-.62-2-.19-2.85.37-2.79a1.08,1.08,0,0,1,.47.12,1.15,1.15,0,0,1,.48.63Z" transform="translate(-42.16 -34.31)"/><path class="cls-55" d="M318.48,114.34c-.43,1.18.46,4.7.46,4.7l.58.9-.14-2s1.24-2.67.9-3.67l-.78-1.13A5.53,5.53,0,0,0,318.48,114.34Z" transform="translate(-42.16 -34.31)"/><path class="cls-55" d="M329.64,114.34c.43,1.18-.45,4.7-.45,4.7l-.59.9.14-2s-1.23-2.67-.9-3.67l.78-1.13A5.53,5.53,0,0,1,329.64,114.34Z" transform="translate(-42.16 -34.31)"/><path class="cls-55" d="M324.06,110.7a5.16,5.16,0,0,0-4.56,2.46l.78,1.13a11.81,11.81,0,0,0,3.84,1.26,5.88,5.88,0,0,0,4.15-.92l.35-1.47A4.78,4.78,0,0,0,324.06,110.7Z" transform="translate(-42.16 -34.31)"/><path class="cls-63" d="M324.06,130.44v2.71l.82.29,1.16-2A4.7,4.7,0,0,0,324.06,130.44Z" transform="translate(-42.16 -34.31)"/><path class="cls-57" d="M327.27,128.57l.68.43L326.47,134l-2.41-3.51A7.89,7.89,0,0,0,327.27,128.57Z" transform="translate(-42.16 -34.31)"/><path class="cls-58" d="M318.22,134.35l.68-1,.34-.49-1.23-2-.46-.75h0l-4.8,2.19c-.34.37-1,3.68-1.37,6.55h10.27Z" transform="translate(-42.16 -34.31)"/><path class="cls-59" d="M329.9,134.35l-3.42,4.5h10.27c-.41-2.87-1-6.18-1.37-6.55l-4.8-2.19-1.69,2.78Z" transform="translate(-42.16 -34.31)"/><path class="cls-62" d="M324.06,138.85v-5.7l-.81.29s-.53,2.36-.65,3.57l.53,1.84Z" transform="translate(-42.16 -34.31)"/><path class="cls-63" d="M325,138.85l.54-1.84c-.13-1.21-.65-3.57-.65-3.57l-.82-.29v5.7Z" transform="translate(-42.16 -34.31)"/><polygon class="cls-60" points="277.07 98.59 276.74 99.08 276.06 100.05 279.48 104.55 280.97 104.55 280.43 102.71 278.63 96.5 278.08 94.63 275.38 95.8 275.84 96.57 277.07 98.59"/><polygon class="cls-61" points="287.74 100.05 286.72 98.59 288.42 95.8 285.79 94.7 285.25 96.5 283.53 102.27 282.85 104.55 284.32 104.55 287.74 100.05"/><path class="cls-95" d="M335.46,117.79a4.27,4.27,0,0,0,.89.91l-.6,1.43h0l2.08.88.61-1.44a4.5,4.5,0,0,0,1.27,0l.58,1.44h0l2.09-.85-.59-1.45a4.46,4.46,0,0,0,.9-.89l1.43.6h0l.89-2.08-1.45-.61a4.91,4.91,0,0,0,0-1.27l1.44-.59h0l-.84-2.09-1.46.59a4.47,4.47,0,0,0-.89-.9l.6-1.44h0l-2.08-.88-.61,1.45a4.5,4.5,0,0,0-1.27,0l-.59-1.44v0l-2.09.85.59,1.45a4.51,4.51,0,0,0-.9.9l-1.44-.61h0l-.88,2.07,1.45.61a4.23,4.23,0,0,0,0,1.28l-1.44.58h0l.84,2.08Zm.44-1.44a3.44,3.44,0,0,1,0-2.58,3.4,3.4,0,0,1,1.78-1.85l.12-.06a3.45,3.45,0,0,1,4.5,4.48,3.5,3.5,0,0,1-1.78,1.85l-.13,0A3.43,3.43,0,0,1,335.9,116.35Z" transform="translate(-42.16 -34.31)"/><path class="cls-96" d="M340.38,118.24l.13,0a3.45,3.45,0,0,0-2.72-6.33l-.12.06a3.44,3.44,0,0,0,2.71,6.32Zm-4.16-2a3.09,3.09,0,0,1,1.6-4l.11,0a3.1,3.1,0,0,1,2.44,5.7l-.11.05A3.11,3.11,0,0,1,336.22,116.22Z" transform="translate(-42.16 -34.31)"/><path class="cls-95" d="M340.26,117.93l.11-.05a3.1,3.1,0,0,0-2.44-5.7l-.11,0a3.1,3.1,0,0,0,2.44,5.7Zm-3.64-1.82a2.69,2.69,0,1,1,3.5,1.48A2.68,2.68,0,0,1,336.62,116.11Z" transform="translate(-42.16 -34.31)"/><path class="cls-95" d="M337,128.93a3.83,3.83,0,0,0,1,.43l0,1.29h0l1.87.05,0-1.31a3.75,3.75,0,0,0,1-.38l.89.94h0l1.35-1.29-.9-.94a3.51,3.51,0,0,0,.43-1l1.29,0h0l.05-1.88-1.31,0a3.5,3.5,0,0,0-.38-1l.94-.89h0l-1.3-1.36-.94.9a3.61,3.61,0,0,0-1-.42l0-1.3h0l-1.87,0,0,1.3a3.58,3.58,0,0,0-1,.39l-.89-.94h0l-1.36,1.3.9.94a3.8,3.8,0,0,0-.42,1l-1.3,0h0l0,1.87,1.3,0a3.83,3.83,0,0,0,.38,1l-.93.89h0l1.3,1.35Zm-.1-1.25a2.8,2.8,0,0,1-.79-2,2.86,2.86,0,0,1,.8-2,.3.3,0,0,0,.08-.08,2.86,2.86,0,0,1,4,4.06l-.08.08A2.87,2.87,0,0,1,336.88,127.68Z" transform="translate(-42.16 -34.31)"/><path class="cls-96" d="M340.93,127.77l.08-.08a2.86,2.86,0,0,0-4-4.06.3.3,0,0,1-.08.08,2.86,2.86,0,0,0,4,4.06Zm-3.84-.29a2.56,2.56,0,0,1,0-3.57l.08-.07a2.49,2.49,0,0,1,1.83-.71,2.54,2.54,0,0,1,1.81.79,2.59,2.59,0,0,1,0,3.58l-.08.07A2.58,2.58,0,0,1,337.09,127.48Z" transform="translate(-42.16 -34.31)"/><path class="cls-95" d="M340.73,127.57l.08-.07a2.59,2.59,0,0,0,0-3.58,2.54,2.54,0,0,0-1.81-.79,2.49,2.49,0,0,0-1.83.71l-.08.07a2.58,2.58,0,0,0,3.63,3.66Zm-3.36-.29a2.23,2.23,0,1,1,3.15.07A2.22,2.22,0,0,1,337.37,127.28Z" transform="translate(-42.16 -34.31)"/><path class="cls-1" d="M283.56,92.2c0,.63-7.68,1.15-17.15,1.15s-17.15-.52-17.15-1.15S256.94,91,266.41,91,283.56,91.56,283.56,92.2Z" transform="translate(-42.16 -34.31)"/><path class="cls-78" d="M283.29,92.18c0,.63-7.55,1.13-16.88,1.13s-16.88-.5-16.88-1.13S257.09,91,266.41,91,283.29,91.55,283.29,92.18Z" transform="translate(-42.16 -34.31)"/><path class="cls-79" d="M283,92.16c0,.62-7.44,1.12-16.62,1.12s-16.61-.5-16.61-1.12,7.44-1.11,16.61-1.11S283,91.55,283,92.16Z" transform="translate(-42.16 -34.31)"/><path class="cls-80" d="M282.76,92.15c0,.6-7.32,1.1-16.35,1.1s-16.34-.5-16.34-1.1,7.31-1.1,16.34-1.1S282.76,91.54,282.76,92.15Z" transform="translate(-42.16 -34.31)"/><path class="cls-81" d="M282.49,92.13c0,.6-7.2,1.08-16.08,1.08s-16.08-.48-16.08-1.08,7.2-1.08,16.08-1.08S282.49,91.53,282.49,92.13Z" transform="translate(-42.16 -34.31)"/><path class="cls-82" d="M282.22,92.12c0,.58-7.08,1.06-15.81,1.06s-15.81-.48-15.81-1.06,7.08-1.07,15.81-1.07S282.22,91.53,282.22,92.12Z" transform="translate(-42.16 -34.31)"/><ellipse class="cls-83" cx="224.25" cy="57.79" rx="15.54" ry="1.05"/><path class="cls-84" d="M281.69,92.08c0,.57-6.84,1-15.28,1s-15.27-.46-15.27-1,6.84-1,15.27-1S281.69,91.52,281.69,92.08Z" transform="translate(-42.16 -34.31)"/><path class="cls-85" d="M281.42,92.07c0,.55-6.72,1-15,1s-15-.46-15-1,6.71-1,15-1S281.42,91.51,281.42,92.07Z" transform="translate(-42.16 -34.31)"/><path class="cls-86" d="M281.15,92.05c0,.55-6.6,1-14.74,1s-14.74-.44-14.74-1,6.6-1,14.74-1S281.15,91.5,281.15,92.05Z" transform="translate(-42.16 -34.31)"/><path class="cls-31" d="M280.88,92c0,.53-6.48,1-14.47,1s-14.47-.44-14.47-1,6.48-1,14.47-1S280.88,91.5,280.88,92Z" transform="translate(-42.16 -34.31)"/><path class="cls-32" d="M280.62,92c0,.53-6.36,1-14.21,1s-14.2-.42-14.2-1,6.36-1,14.2-1S280.62,91.49,280.62,92Z" transform="translate(-42.16 -34.31)"/><path class="cls-87" d="M280.35,92c0,.52-6.24.94-13.94.94s-13.93-.42-13.93-.94,6.24-.93,13.93-.93S280.35,91.49,280.35,92Z" transform="translate(-42.16 -34.31)"/><path class="cls-34" d="M280.08,92c0,.5-6.12.92-13.67.92s-13.66-.42-13.66-.92,6.12-.92,13.66-.92S280.08,91.48,280.08,92Z" transform="translate(-42.16 -34.31)"/><path class="cls-35" d="M279.81,92c0,.5-6,.9-13.4.9S253,92.47,253,92s6-.9,13.4-.9S279.81,91.47,279.81,92Z" transform="translate(-42.16 -34.31)"/><path class="cls-88" d="M279.54,92c0,.48-5.88.88-13.13.88s-13.13-.4-13.13-.88,5.88-.89,13.13-.89S279.54,91.47,279.54,92Z" transform="translate(-42.16 -34.31)"/><path class="cls-89" d="M279.28,91.94c0,.48-5.76.86-12.87.86s-12.86-.38-12.86-.86,5.76-.87,12.86-.87S279.28,91.46,279.28,91.94Z" transform="translate(-42.16 -34.31)"/><path class="cls-37" d="M279,91.92c0,.47-5.64.85-12.6.85s-12.59-.38-12.59-.85,5.64-.84,12.59-.84S279,91.46,279,91.92Z" transform="translate(-42.16 -34.31)"/><path class="cls-90" d="M278.74,91.91c0,.45-5.52.83-12.33.83s-12.32-.38-12.32-.83,5.52-.83,12.32-.83S278.74,91.45,278.74,91.91Z" transform="translate(-42.16 -34.31)"/><path class="cls-91" d="M278.47,91.89c0,.45-5.4.81-12.06.81s-12.06-.36-12.06-.81,5.4-.81,12.06-.81S278.47,91.44,278.47,91.89Z" transform="translate(-42.16 -34.31)"/><path class="cls-40" d="M278.2,91.88c0,.43-5.27.79-11.79.79s-11.79-.36-11.79-.79,5.28-.8,11.79-.8S278.2,91.44,278.2,91.88Z" transform="translate(-42.16 -34.31)"/><path class="cls-41" d="M277.94,91.86c0,.43-5.16.77-11.53.77s-11.52-.34-11.52-.77,5.16-.78,11.52-.78S277.94,91.43,277.94,91.86Z" transform="translate(-42.16 -34.31)"/><path class="cls-92" d="M277.67,91.84c0,.42-5,.76-11.26.76s-11.25-.34-11.25-.76,5-.75,11.25-.75S277.67,91.43,277.67,91.84Z" transform="translate(-42.16 -34.31)"/><path class="cls-93" d="M277.4,91.83c0,.41-4.92.74-11,.74s-11-.33-11-.74,4.91-.74,11-.74S277.4,91.42,277.4,91.83Z" transform="translate(-42.16 -34.31)"/><path class="cls-44" d="M277.13,91.81c0,.4-4.8.72-10.72.72s-10.72-.32-10.72-.72,4.8-.72,10.72-.72S277.13,91.41,277.13,91.81Z" transform="translate(-42.16 -34.31)"/><path class="cls-45" d="M276.87,91.8c0,.38-4.68.7-10.46.7S256,92.18,256,91.8s4.68-.71,10.45-.71S276.87,91.41,276.87,91.8Z" transform="translate(-42.16 -34.31)"/><ellipse class="cls-46" cx="224.25" cy="57.47" rx="10.18" ry="0.68"/><path class="cls-94" d="M276.33,91.76c0,.37-4.44.67-9.92.67s-9.91-.3-9.91-.67,4.44-.66,9.91-.66S276.33,91.4,276.33,91.76Z" transform="translate(-42.16 -34.31)"/><path class="cls-48" d="M276.06,91.75c0,.36-4.32.65-9.65.65s-9.64-.29-9.64-.65,4.31-.65,9.64-.65S276.06,91.39,276.06,91.75Z" transform="translate(-42.16 -34.31)"/><path class="cls-49" d="M275.79,91.73c0,.35-4.2.63-9.38.63s-9.38-.28-9.38-.63,4.2-.63,9.38-.63S275.79,91.38,275.79,91.73Z" transform="translate(-42.16 -34.31)"/><path class="cls-97" d="M262.52,80.93s.57-2.59,3.89-2.32c0,0-4.19-6.51-5.74-6.47S261.64,80.29,262.52,80.93Z" transform="translate(-42.16 -34.31)"/><path class="cls-97" d="M270.3,80.93s-.56-2.59-3.89-2.32c0,0,4.19-6.51,5.74-6.47S271.18,80.29,270.3,80.93Z" transform="translate(-42.16 -34.31)"/><path class="cls-51" d="M266.39,77.11l-3-1.51v6.84a4.26,4.26,0,0,0,3,1.4,3.54,3.54,0,0,0,3-1.29V76.61Z" transform="translate(-42.16 -34.31)"/><path class="cls-52" d="M269.13,77.76s-1.38,1.52-5.76,3.9V77.4Z" transform="translate(-42.16 -34.31)"/><path class="cls-51" d="M261.38,71.14s.75,5.87.91,6.15,3.12,1.9,4.1,1.83V64.93S260.55,63.7,261.38,71.14Z" transform="translate(-42.16 -34.31)"/><path class="cls-51" d="M271.4,71.14s-.75,5.87-.91,6.15-3.12,1.9-4.1,1.83V64.93s2.29-.84,3.88-.08C271.46,65.43,271.74,68.1,271.4,71.14Z" transform="translate(-42.16 -34.31)"/><path class="cls-51" d="M270.63,74.53s.74.36,1.44-1.29c.8-1.89.75-2.71,0-2.76a1,1,0,0,0-1,.65Z" transform="translate(-42.16 -34.31)"/><path class="cls-51" d="M262.15,74.53s-.74.36-1.44-1.29c-.8-1.89-.75-2.71,0-2.76a1,1,0,0,1,1,.65Z" transform="translate(-42.16 -34.31)"/><path class="cls-98" d="M264.62,75.55l.49.07Z" transform="translate(-42.16 -34.31)"/><path class="cls-95" d="M262.52,65.45s-2.76,6.47,0,15.48c0,0-7.93-6-2.76-15.61.64-1.2,3.05-3.92,6.58-3.28v2.58S263.33,64.41,262.52,65.45Z" transform="translate(-42.16 -34.31)"/><path class="cls-95" d="M270.16,65.45s2.76,6.47,0,15.48c0,0,7.92-6,2.76-15.61-.64-1.2-3.05-3.92-6.58-3.28v2.58S269.35,64.41,270.16,65.45Z" transform="translate(-42.16 -34.31)"/><path class="cls-95" d="M261.5,69.61h4.84v-6C265.11,63.63,260.9,64,261.5,69.61Z" transform="translate(-42.16 -34.31)"/><path class="cls-95" d="M266.5,63.61h-.16v6h5C271.75,63.85,267.63,63.62,266.5,63.61Z" transform="translate(-42.16 -34.31)"/><path class="cls-50" d="M267.33,92.18h-2a39.13,39.13,0,0,1-2.44-5.75c0-.56,2.69-3,3.41-3s3.51-.83,4.24.3S267.33,92.18,267.33,92.18Z" transform="translate(-42.16 -34.31)"/><path class="cls-54" d="M263.37,81.44l-1,.38,1.54,5.27,2.45-3.7A9.06,9.06,0,0,1,263.37,81.44Z" transform="translate(-42.16 -34.31)"/><path class="cls-57" d="M269.41,81.44l1,.45-1.54,5.17-2.52-3.67A8.69,8.69,0,0,0,269.41,81.44Z" transform="translate(-42.16 -34.31)"/><path class="cls-58" d="M260.24,87.48l.7-1,.36-.51L260,83.84l-.47-.79h0l-5,2.29c-.36.39-1,3.85-1.44,6.85h10.73Z" transform="translate(-42.16 -34.31)"/><path class="cls-59" d="M272.44,87.48l-3.57,4.7H279.6c-.43-3-1.08-6.46-1.44-6.85l-5-2.29L271.38,86Z" transform="translate(-42.16 -34.31)"/><polygon class="cls-60" points="219.13 51.65 218.78 52.15 218.08 53.17 221.65 57.87 223.21 57.87 222.64 55.95 220.76 49.47 220.19 47.51 217.36 48.73 217.85 49.53 219.13 51.65"/><polygon class="cls-60" points="218.08 53.17 218.78 52.15 218.08 53.17 221.65 57.87 221.65 57.87 218.08 53.17"/><polygon class="cls-60" points="217.85 49.53 217.36 48.73 217.37 48.75 217.85 49.53"/><polygon class="cls-61" points="230.28 53.17 229.22 51.65 230.99 48.73 228.24 47.58 227.68 49.47 225.88 55.49 225.17 57.87 226.71 57.87 230.28 53.17"/><path class="cls-58" d="M264.1,82.68c-.41.14-.24,1.72-.24,1.72s-.17,1.58.24,1.73,2.74-1.73,2.74-1.73S264.51,82.53,264.1,82.68Z" transform="translate(-42.16 -34.31)"/><path class="cls-59" d="M268.68,82.68c-.41-.15-2.74,1.72-2.74,1.72s2.33,1.88,2.74,1.73.24-1.73.24-1.73S269.09,82.82,268.68,82.68Z" transform="translate(-42.16 -34.31)"/><path class="cls-99" d="M266.78,83.75H266a3.54,3.54,0,0,0,0,1.31h.78A3.54,3.54,0,0,0,266.78,83.75Z" transform="translate(-42.16 -34.31)"/><path class="cls-95" d="M277.66,64.1a1.43,1.43,0,0,1-1.61-1.52l-.29-1.85a4,4,0,0,1-2-3.47,3.82,3.82,0,1,1,7.64,0,4,4,0,0,1-1.82,3.37l-.4,2A1.37,1.37,0,0,1,277.66,64.1Zm-.07-10.31a3.4,3.4,0,0,0-3.32,3.47,3.45,3.45,0,0,0,1.84,3.09l.11.06.33,2.15c0,.7.36,1,1.11,1s1-.3,1-1v-.05l.45-2.19.1-.06a3.51,3.51,0,0,0,1.67-3A3.4,3.4,0,0,0,277.59,53.79Z" transform="translate(-42.16 -34.31)"/><path class="cls-100" d="M273,61.5a.27.27,0,0,1,.36,0h0a.27.27,0,0,1,0,.36L272.23,63a.24.24,0,0,1-.35,0h0a.24.24,0,0,1,0-.35Z" transform="translate(-42.16 -34.31)"/><path class="cls-101" d="M271.86,62.94l.05,0a.27.27,0,0,1,0-.36l1.09-1.1a.28.28,0,0,1,.36,0,.1.1,0,0,0,0,0,.29.29,0,0,0-.41-.05l-1.09,1.09A.3.3,0,0,0,271.86,62.94Z" transform="translate(-42.16 -34.31)"/><path class="cls-102" d="M273.37,61.9,272.27,63a.27.27,0,0,1-.36,0l0,.05a.3.3,0,0,0,.41,0l1.09-1.1a.28.28,0,0,0-.05-.4l0,0A.26.26,0,0,1,273.37,61.9Z" transform="translate(-42.16 -34.31)"/><path class="cls-95" d="M273,61.5a.29.29,0,0,1,.39,0h0a.27.27,0,0,1,0,.38L272.3,63a.28.28,0,0,1-.39,0h0a.27.27,0,0,1,0-.39Z" transform="translate(-42.16 -34.31)"/><path class="cls-100" d="M271.68,58.43a.26.26,0,0,1,.3.19h0a.25.25,0,0,1-.19.3l-1.51.35a.25.25,0,0,1-.3-.19h0a.26.26,0,0,1,.19-.3Z" transform="translate(-42.16 -34.31)"/><path class="cls-101" d="M270,59.06a.14.14,0,0,0,0,.06.27.27,0,0,1,.18-.31l1.51-.35a.27.27,0,0,1,.29.2V58.6a.31.31,0,0,0-.32-.26l-1.51.35A.29.29,0,0,0,270,59.06Z" transform="translate(-42.16 -34.31)"/><path class="cls-102" d="M271.8,59l-1.51.34a.27.27,0,0,1-.29-.2v.06a.3.3,0,0,0,.32.26l1.51-.35c.14,0,.21-.19.17-.37a.14.14,0,0,0,0-.06A.28.28,0,0,1,271.8,59Z" transform="translate(-42.16 -34.31)"/><path class="cls-95" d="M271.68,58.43a.29.29,0,0,1,.31.24h0a.27.27,0,0,1-.18.34l-1.51.35a.28.28,0,0,1-.31-.23h0a.29.29,0,0,1,.18-.35Z" transform="translate(-42.16 -34.31)"/><path class="cls-100" d="M272.21,55.14a.26.26,0,0,1,.16.32h0a.27.27,0,0,1-.33.16l-1.46-.51a.24.24,0,0,1-.15-.32h0a.24.24,0,0,1,.32-.15Z" transform="translate(-42.16 -34.31)"/><path class="cls-101" d="M270.43,54.78s0,0,0,.06a.27.27,0,0,1,.32-.17l1.46.5a.27.27,0,0,1,.15.33.14.14,0,0,0,0-.06.3.3,0,0,0-.13-.39l-1.46-.5C270.64,54.5,270.49,54.61,270.43,54.78Z" transform="translate(-42.16 -34.31)"/><path class="cls-102" d="M272,55.67l-1.47-.5a.28.28,0,0,1-.14-.33l0,0a.29.29,0,0,0,.13.39l1.47.51a.3.3,0,0,0,.34-.23s0,0,0-.06A.28.28,0,0,1,272,55.67Z" transform="translate(-42.16 -34.31)"/><path class="cls-95" d="M272.21,55.14a.29.29,0,0,1,.14.37h0a.29.29,0,0,1-.33.2l-1.47-.51a.27.27,0,0,1-.14-.36h0a.27.27,0,0,1,.34-.2Z" transform="translate(-42.16 -34.31)"/><path class="cls-100" d="M274.4,52.64a.24.24,0,0,1,0,.35h0a.24.24,0,0,1-.35,0l-1-1.2a.26.26,0,0,1,0-.36h0a.26.26,0,0,1,.36,0Z" transform="translate(-42.16 -34.31)"/><path class="cls-101" d="M273.09,51.38l0,0c.14-.08.29-.08.36,0l1,1.2a.28.28,0,0,1-.05.36l.05,0a.3.3,0,0,0,.07-.43l-1-1.2A.31.31,0,0,0,273.09,51.38Z" transform="translate(-42.16 -34.31)"/><path class="cls-102" d="M274,53l-1-1.21a.28.28,0,0,1,.05-.35l-.05,0a.29.29,0,0,0-.09.4l1,1.2a.3.3,0,0,0,.42,0s0,0,0,0A.28.28,0,0,1,274,53Z" transform="translate(-42.16 -34.31)"/><path class="cls-95" d="M274.4,52.64a.27.27,0,0,1-.07.38h0a.28.28,0,0,1-.39,0l-1-1.2a.28.28,0,0,1,.08-.38h0a.27.27,0,0,1,.39,0Z" transform="translate(-42.16 -34.31)"/><path class="cls-100" d="M277.59,51.67a.25.25,0,0,1-.22.28h0a.25.25,0,0,1-.28-.22l-.19-1.54a.26.26,0,0,1,.22-.28h0a.26.26,0,0,1,.28.22Z" transform="translate(-42.16 -34.31)"/><path class="cls-102" d="M277.14,49.91l-.06,0a.29.29,0,0,1,.3.21l.18,1.53a.27.27,0,0,1-.23.28h.06c.18,0,.31-.15.29-.29l-.18-1.54A.31.31,0,0,0,277.14,49.91Z" transform="translate(-42.16 -34.31)"/><path class="cls-101" d="M277,51.74l-.19-1.54c0-.12.08-.23.23-.27H277c-.18,0-.31.15-.29.29l.19,1.53a.28.28,0,0,0,.35.21h.06A.27.27,0,0,1,277,51.74Z" transform="translate(-42.16 -34.31)"/><path class="cls-95" d="M277.59,51.67a.28.28,0,0,1-.26.29h0a.28.28,0,0,1-.33-.22l-.19-1.53a.28.28,0,0,1,.26-.29h0a.28.28,0,0,1,.33.21Z" transform="translate(-42.16 -34.31)"/><path class="cls-100" d="M280.8,52.54a.24.24,0,0,1-.33.12h0a.25.25,0,0,1-.12-.33l.65-1.4a.25.25,0,0,1,.34-.12h0a.25.25,0,0,1,.12.33Z" transform="translate(-42.16 -34.31)"/><path class="cls-102" d="M281.36,50.81l-.06,0a.29.29,0,0,1,.14.34l-.66,1.4a.27.27,0,0,1-.34.11l.05,0a.29.29,0,0,0,.4-.09l.65-1.4A.3.3,0,0,0,281.36,50.81Z" transform="translate(-42.16 -34.31)"/><path class="cls-101" d="M280.3,52.31,281,50.9a.29.29,0,0,1,.35-.11l-.05,0a.32.32,0,0,0-.41.09l-.65,1.41c-.06.12,0,.28.19.36l.06,0A.27.27,0,0,1,280.3,52.31Z" transform="translate(-42.16 -34.31)"/><path class="cls-95" d="M280.8,52.54a.26.26,0,0,1-.37.1h0a.27.27,0,0,1-.16-.35l.65-1.4a.28.28,0,0,1,.38-.1h0a.27.27,0,0,1,.16.35Z" transform="translate(-42.16 -34.31)"/><path class="cls-100" d="M283.07,55a.25.25,0,0,1-.35-.07h0a.26.26,0,0,1,.08-.35l1.3-.84a.25.25,0,0,1,.34.07h0a.24.24,0,0,1-.07.35Z" transform="translate(-42.16 -34.31)"/><path class="cls-102" d="M284.46,53.81l0-.05a.28.28,0,0,1-.07.36l-1.3.84a.27.27,0,0,1-.35-.09l0,.06a.29.29,0,0,0,.39.13l1.3-.84A.3.3,0,0,0,284.46,53.81Z" transform="translate(-42.16 -34.31)"/><path class="cls-101" d="M282.77,54.52l1.29-.85a.3.3,0,0,1,.36.09l0,0a.31.31,0,0,0-.39-.14l-1.3.85c-.12.07-.13.25,0,.41l0,0A.27.27,0,0,1,282.77,54.52Z" transform="translate(-42.16 -34.31)"/><path class="cls-95" d="M283.07,55a.27.27,0,0,1-.37-.11h0a.29.29,0,0,1,0-.39l1.3-.84a.29.29,0,0,1,.38.12h0a.27.27,0,0,1-.05.38Z" transform="translate(-42.16 -34.31)"/><path class="cls-100" d="M283.7,58.26a.26.26,0,0,1-.26-.25h0a.25.25,0,0,1,.25-.25l1.55,0a.25.25,0,0,1,.25.24h0a.26.26,0,0,1-.25.26Z" transform="translate(-42.16 -34.31)"/><path class="cls-102" d="M285.49,58a.13.13,0,0,0,0-.06.26.26,0,0,1-.24.27l-1.54,0a.27.27,0,0,1-.25-.26.13.13,0,0,0,0,.06.3.3,0,0,0,.26.32l1.55,0A.29.29,0,0,0,285.49,58Z" transform="translate(-42.16 -34.31)"/><path class="cls-101" d="M283.69,57.7l1.55,0a.27.27,0,0,1,.24.26.13.13,0,0,0,0-.06.3.3,0,0,0-.26-.32l-1.54,0a.28.28,0,0,0-.25.33.13.13,0,0,0,0,.06A.26.26,0,0,1,283.69,57.7Z" transform="translate(-42.16 -34.31)"/><path class="cls-95" d="M283.7,58.26a.28.28,0,0,1-.26-.3h0a.28.28,0,0,1,.25-.3l1.54,0a.28.28,0,0,1,.26.3h0a.28.28,0,0,1-.25.3Z" transform="translate(-42.16 -34.31)"/><path class="cls-100" d="M282.5,61.36a.25.25,0,0,1-.09-.34h0a.25.25,0,0,1,.34-.09l1.33.8a.25.25,0,0,1,.09.34h0a.26.26,0,0,1-.35.09Z" transform="translate(-42.16 -34.31)"/><path class="cls-102" d="M284.16,62.09s0,0,0-.05a.29.29,0,0,1-.35.1l-1.32-.8a.27.27,0,0,1-.08-.35l0,0a.29.29,0,0,0,.05.4l1.32.8A.3.3,0,0,0,284.16,62.09Z" transform="translate(-42.16 -34.31)"/><path class="cls-101" d="M282.78,60.89l1.33.79a.29.29,0,0,1,.07.36l0,0a.3.3,0,0,0-.05-.41l-1.33-.8a.3.3,0,0,0-.38.15l0,.06A.27.27,0,0,1,282.78,60.89Z" transform="translate(-42.16 -34.31)"/><path class="cls-95" d="M282.5,61.36a.28.28,0,0,1-.07-.38h0a.28.28,0,0,1,.37-.13l1.33.8a.27.27,0,0,1,.06.38h0a.28.28,0,0,1-.37.13Z" transform="translate(-42.16 -34.31)"/><path class="cls-95" d="M279.59,62.78c0,.12-.16.23-.35.23h-3.18c-.19,0-.35-.11-.35-.23v-.17c0-.13.16-.23.35-.23h3.18c.19,0,.35.1.35.23Z" transform="translate(-42.16 -34.31)"/><path class="cls-95" d="M279.59,63.4c0,.13-.16.23-.35.23h-3.18c-.19,0-.34-.1-.34-.23v-.16c0-.13.15-.23.34-.23h3.18c.19,0,.35.1.35.23Z" transform="translate(-42.16 -34.31)"/><path class="cls-103" d="M276.16,55.53a3.47,3.47,0,0,1,3.24-.78,3,3,0,1,0-3,5.15,1.22,1.22,0,0,1-.39-.32A3.47,3.47,0,0,1,276.16,55.53Z" transform="translate(-42.16 -34.31)"/><path class="cls-95" d="M279.61,62.15c0,.13-.16.23-.35.23h-3.18c-.19,0-.34-.1-.34-.23V62c0-.13.15-.23.34-.23h3.18c.19,0,.35.1.35.23Z" transform="translate(-42.16 -34.31)"/><polygon class="cls-95" points="233.77 29.31 234.73 30.76 235.31 30.76 234.72 29.32 233.77 29.31"/><polygon class="cls-95" points="236.25 30.76 237.19 29.31 235.49 29.32 234.72 29.32 235.31 30.76 235.49 30.76 236.25 30.76"/><path class="cls-51" d="M211.06,126.17l-5.26-2.65v11.94a7.4,7.4,0,0,0,5.26,2.44c3.81,0,5.26-2.25,5.26-2.25V125.29Z" transform="translate(-42.16 -34.31)"/><path class="cls-52" d="M216.32,128.17s-2.51,2.32-10.52,6.67V127Z" transform="translate(-42.16 -34.31)"/><path class="cls-51" d="M202.81,117.23s1.25,9.65,1.51,10.12,5.12,3.12,6.74,3V107S200.86,102.78,202.81,117.23Z" transform="translate(-42.16 -34.31)"/><path class="cls-51" d="M219.31,117.23s-1.24,9.65-1.51,10.12-5.12,3.12-6.74,3V107S220.66,105,219.31,117.23Z" transform="translate(-42.16 -34.31)"/><path class="cls-51" d="M217.85,122.18s1.43.53,2.31-2.28c1-3.23.31-4.69-.6-4.59a2.07,2.07,0,0,0-.78.2,1.84,1.84,0,0,0-.78,1Z" transform="translate(-42.16 -34.31)"/><path class="cls-51" d="M204.27,122.18s-1.43.53-2.31-2.28c-1-3.23-.31-4.69.61-4.59a2,2,0,0,1,.76.2,1.83,1.83,0,0,1,.79,1Z" transform="translate(-42.16 -34.31)"/><path class="cls-104" d="M229.65,138.05l-7.88-3.61-4.32-1.81-.89,3-.31,1.06-2.82,1.51.89-1.51a7.62,7.62,0,0,0-3.26-1.65v13.8h1.53l0,0v0h19.29C231.22,144.09,230.21,138.66,229.65,138.05Z" transform="translate(-42.16 -34.31)"/><path class="cls-105" d="M207.81,136.65l1.09,1.87-2.69-1.15-.52-1.77-.9-3.08-4.44,1.92-7.87,3.61c-.56.61-1.58,6-2.26,10.75h20.84V135A7.56,7.56,0,0,0,207.81,136.65Z" transform="translate(-42.16 -34.31)"/><path class="cls-54" d="M205.8,132.05l-2.74,1.22L208,140.1l3.09-5.1S208.9,134.71,205.8,132.05Z" transform="translate(-42.16 -34.31)"/><path class="cls-106" d="M216.32,132.05l2.75,1.22-4.91,6.83-3.1-5.1S213.23,134.71,216.32,132.05Z" transform="translate(-42.16 -34.31)"/><path class="cls-5" d="M211.19,111.8v-8.1s8.85-.8,8.79,11.54A22,22,0,0,0,211.19,111.8Z" transform="translate(-42.16 -34.31)"/><path class="cls-107" d="M211.19,111.8v-8.1s-8.84-.8-8.78,11.54A12,12,0,0,1,211.19,111.8Z" transform="translate(-42.16 -34.31)"/><path class="cls-69" d="M211.19,111.8v4a7.71,7.71,0,0,1,6.27,3.19l2.52-3.8S217.44,111.76,211.19,111.8Z" transform="translate(-42.16 -34.31)"/><path class="cls-108" d="M211.19,111.8v4a7.69,7.69,0,0,0-6.26,3.19l-2.52-3.8S205,111.76,211.19,111.8Z" transform="translate(-42.16 -34.31)"/><rect class="cls-2" x="160.66" y="111.73" width="2.81" height="0.46"/><rect class="cls-2" x="160.66" y="110.84" width="2.81" height="0.46"/><rect class="cls-2" x="160.66" y="110.03" width="2.81" height="0.47"/><polygon class="cls-2" points="160.9 108.35 160.9 107.16 159.98 107.16 159.98 108.35 159.98 108.61 160.9 108.61 160.9 108.35"/><path class="cls-54" d="M206,142.66h-2.78v.44H202v-.44h-2.85a.16.16,0,0,0-.16.14v4.57a.15.15,0,0,0,.16.14H206a.15.15,0,0,0,.16-.14V142.8A.16.16,0,0,0,206,142.66Zm-.39,3.83h-2.81V146h2.81Zm0-.89h-2.81v-.46h2.81Zm0-.79h-2.81v-.47h2.81Z" transform="translate(-42.16 -34.31)"/><path class="cls-2" d="M202.31,145.68l-.58-.27-.2-.08h0l-.2-.1h0V145l.11-.07a3,3,0,0,0,.06-.38s.08-.06.12-.17,0-.31,0-.33h0c0-.9-.65-.85-.65-.85s-.65-.05-.64.85h0c-.06,0-.11.11,0,.33s.07.15.11.17a3,3,0,0,0,.06.38.33.33,0,0,0,.11.07v.27l-.2.1h0l-.2.08-.58.27a3.62,3.62,0,0,0-.17.79h3.07A3.62,3.62,0,0,0,202.31,145.68Z" transform="translate(-42.16 -34.31)"/><path class="cls-1" d="M172,84.4c0,1.14-9.86,2.06-22,2.06s-22-.92-22-2.06,9.86-2.05,22-2.05S172,83.27,172,84.4Z" transform="translate(-42.16 -34.31)"/><path class="cls-78" d="M171.69,84.39c0,1.12-9.7,2-21.68,2s-21.67-.91-21.67-2,9.7-2,21.67-2S171.69,83.28,171.69,84.39Z" transform="translate(-42.16 -34.31)"/><path class="cls-79" d="M171.35,84.38c0,1.1-9.55,2-21.34,2s-21.33-.89-21.33-2,9.55-2,21.33-2S171.35,83.28,171.35,84.38Z" transform="translate(-42.16 -34.31)"/><path class="cls-80" d="M171,84.37c0,1.09-9.4,2-21,2s-21-.87-21-2,9.4-2,21-2S171,83.29,171,84.37Z" transform="translate(-42.16 -34.31)"/><path class="cls-81" d="M170.66,84.36c0,1.07-9.24,1.93-20.65,1.93s-20.64-.86-20.64-1.93,9.24-1.92,20.64-1.92S170.66,83.3,170.66,84.36Z" transform="translate(-42.16 -34.31)"/><path class="cls-82" d="M170.32,84.35c0,1.05-9.09,1.9-20.31,1.9s-20.3-.85-20.3-1.9,9.09-1.89,20.3-1.89S170.32,83.31,170.32,84.35Z" transform="translate(-42.16 -34.31)"/><path class="cls-83" d="M170,84.34c0,1-8.93,1.87-20,1.87s-19.95-.84-19.95-1.87S139,82.48,150,82.48,170,83.31,170,84.34Z" transform="translate(-42.16 -34.31)"/><path class="cls-84" d="M169.63,84.33c0,1-8.78,1.83-19.62,1.83s-19.61-.82-19.61-1.83S139.18,82.5,150,82.5,169.63,83.32,169.63,84.33Z" transform="translate(-42.16 -34.31)"/><path class="cls-85" d="M169.29,84.32c0,1-8.63,1.8-19.27,1.8s-19.28-.8-19.28-1.8,8.63-1.8,19.28-1.8S169.29,83.33,169.29,84.32Z" transform="translate(-42.16 -34.31)"/><path class="cls-86" d="M168.94,84.31c0,1-8.47,1.77-18.93,1.77s-18.92-.79-18.92-1.77,8.47-1.76,18.92-1.76S168.94,83.34,168.94,84.31Z" transform="translate(-42.16 -34.31)"/><path class="cls-31" d="M168.6,84.3c0,1-8.32,1.74-18.59,1.74s-18.58-.78-18.58-1.74,8.32-1.73,18.58-1.73S168.6,83.34,168.6,84.3Z" transform="translate(-42.16 -34.31)"/><path class="cls-32" d="M168.25,84.29c0,.94-8.16,1.7-18.24,1.7s-18.23-.76-18.23-1.7,8.16-1.7,18.23-1.7S168.25,83.35,168.25,84.29Z" transform="translate(-42.16 -34.31)"/><path class="cls-87" d="M167.91,84.28c0,.93-8,1.67-17.9,1.67s-17.89-.74-17.89-1.67,8-1.67,17.89-1.67S167.91,83.36,167.91,84.28Z" transform="translate(-42.16 -34.31)"/><path class="cls-34" d="M167.57,84.27c0,.91-7.86,1.64-17.56,1.64s-17.55-.73-17.55-1.64,7.86-1.64,17.55-1.64S167.57,83.37,167.57,84.27Z" transform="translate(-42.16 -34.31)"/><path class="cls-35" d="M167.22,84.26c0,.89-7.7,1.61-17.21,1.61s-17.2-.72-17.2-1.61,7.7-1.6,17.2-1.6S167.22,83.37,167.22,84.26Z" transform="translate(-42.16 -34.31)"/><path class="cls-88" d="M166.88,84.25c0,.87-7.55,1.58-16.87,1.58s-16.86-.71-16.86-1.58,7.55-1.57,16.86-1.57S166.88,83.38,166.88,84.25Z" transform="translate(-42.16 -34.31)"/><path class="cls-89" d="M166.53,84.24c0,.85-7.39,1.54-16.52,1.54s-16.51-.69-16.51-1.54S140.89,82.7,150,82.7,166.53,83.39,166.53,84.24Z" transform="translate(-42.16 -34.31)"/><path class="cls-37" d="M166.19,84.23c0,.84-7.24,1.51-16.18,1.51s-16.17-.67-16.17-1.51,7.24-1.51,16.17-1.51S166.19,83.4,166.19,84.23Z" transform="translate(-42.16 -34.31)"/><path class="cls-90" d="M165.85,84.22c0,.82-7.09,1.48-15.84,1.48s-15.83-.66-15.83-1.48,7.09-1.48,15.83-1.48S165.85,83.4,165.85,84.22Z" transform="translate(-42.16 -34.31)"/><ellipse class="cls-91" cx="107.85" cy="49.91" rx="15.49" ry="1.45"/><path class="cls-40" d="M165.16,84.2c0,.78-6.78,1.41-15.15,1.41S134.87,85,134.87,84.2s6.78-1.41,15.14-1.41S165.16,83.42,165.16,84.2Z" transform="translate(-42.16 -34.31)"/><path class="cls-41" d="M164.81,84.19c0,.76-6.62,1.38-14.8,1.38s-14.79-.62-14.79-1.38,6.62-1.38,14.79-1.38S164.81,83.43,164.81,84.19Z" transform="translate(-42.16 -34.31)"/><path class="cls-92" d="M164.47,84.18c0,.75-6.47,1.35-14.46,1.35s-14.45-.6-14.45-1.35S142,82.83,150,82.83,164.47,83.44,164.47,84.18Z" transform="translate(-42.16 -34.31)"/><ellipse class="cls-93" cx="107.85" cy="49.87" rx="14.11" ry="1.32"/><path class="cls-44" d="M163.78,84.16c0,.71-6.16,1.29-13.77,1.29s-13.76-.58-13.76-1.29,6.16-1.28,13.76-1.28S163.78,83.45,163.78,84.16Z" transform="translate(-42.16 -34.31)"/><path class="cls-45" d="M163.44,84.15c0,.69-6,1.25-13.43,1.25s-13.42-.56-13.42-1.25,6-1.25,13.42-1.25S163.44,83.46,163.44,84.15Z" transform="translate(-42.16 -34.31)"/><path class="cls-46" d="M163.09,84.14c0,.67-5.85,1.22-13.08,1.22s-13.07-.55-13.07-1.22,5.85-1.22,13.07-1.22S163.09,83.47,163.09,84.14Z" transform="translate(-42.16 -34.31)"/><path class="cls-94" d="M162.75,84.13c0,.66-5.7,1.19-12.74,1.19s-12.73-.53-12.73-1.19S143,82.94,150,82.94,162.75,83.47,162.75,84.13Z" transform="translate(-42.16 -34.31)"/><path class="cls-48" d="M162.4,84.12c0,.64-5.54,1.16-12.39,1.16s-12.39-.52-12.39-1.16S143.17,83,150,83,162.4,83.48,162.4,84.12Z" transform="translate(-42.16 -34.31)"/><path class="cls-49" d="M162.06,84.11c0,.62-5.39,1.12-12.05,1.12s-12-.5-12-1.12S143.36,83,150,83,162.06,83.49,162.06,84.11Z" transform="translate(-42.16 -34.31)"/><path class="cls-109" d="M189.91,53.5c0,5.06-5.41,9.16-12.08,9.16s-12.08-4.1-12.08-9.16,5.41-9.17,12.08-9.17S189.91,48.43,189.91,53.5Z" transform="translate(-42.16 -34.31)"/><path class="cls-109" d="M168.29,56.45s-4.48,5.39-6.54,8l15.76-4.69Z" transform="translate(-42.16 -34.31)"/><path class="cls-110" d="M174.34,53.5a1.23,1.23,0,1,1-1.23-1.23A1.23,1.23,0,0,1,174.34,53.5Z" transform="translate(-42.16 -34.31)"/><path class="cls-110" d="M179.8,53.5a1.57,1.57,0,1,1-1.57-1.57A1.57,1.57,0,0,1,179.8,53.5Z" transform="translate(-42.16 -34.31)"/><path class="cls-110" d="M185.05,53.5a1.77,1.77,0,1,1-1.76-1.77A1.76,1.76,0,0,1,185.05,53.5Z" transform="translate(-42.16 -34.31)"/><path class="cls-111" d="M149,83.16s-5.71,1.94-7.16-.6.4-7.77.4-7.77,7.69-1.18,8.86-1.26,7.52-.39,8.08,1.3S154.22,83.1,149,83.16Z" transform="translate(-42.16 -34.31)"/><path class="cls-51" d="M149,64.93l-4.6-2.3V73a6.46,6.46,0,0,0,4.6,2.13c3.32,0,4.59-2,4.59-2v-9Z" transform="translate(-42.16 -34.31)"/><path class="cls-52" d="M153.56,66.68s-2.2,2-9.19,5.83V65.7Z" transform="translate(-42.16 -34.31)"/><path class="cls-62" d="M149,72.64v3.87l-1.18.42-1.66-2.85A6.54,6.54,0,0,1,149,72.64Z" transform="translate(-42.16 -34.31)"/><path class="cls-54" d="M144.38,70l-.89.45,2.11,7.24L149,72.64A10.48,10.48,0,0,1,144.38,70Z" transform="translate(-42.16 -34.31)"/><path class="cls-51" d="M141.76,57.13s1.09,8.42,1.32,8.83,4.47,2.73,5.89,2.63V48.21S140.06,44.51,141.76,57.13Z" transform="translate(-42.16 -34.31)"/><path class="cls-51" d="M156.16,57.13s-1.08,8.42-1.31,8.83-4.47,2.73-5.88,2.63V48.21S157.34,46.44,156.16,57.13Z" transform="translate(-42.16 -34.31)"/><path class="cls-51" d="M154.9,62.13s1.24.46,2-2c.88-2.83.27-4.1-.53-4a1.61,1.61,0,0,0-.67.18,1.59,1.59,0,0,0-.69.9Z" transform="translate(-42.16 -34.31)"/><path class="cls-51" d="M143,62.13s-1.25.46-2-2c-.88-2.83-.27-4.1.53-4a1.61,1.61,0,0,1,.67.18,1.59,1.59,0,0,1,.69.9Z" transform="translate(-42.16 -34.31)"/><path class="cls-55" d="M141,49.56c-.62,1.69.65,6.73.65,6.73l.83,1.29-.19-2.83s1.77-3.84,1.29-5.26l-1.13-1.62A7.78,7.78,0,0,0,141,49.56Z" transform="translate(-42.16 -34.31)"/><path class="cls-55" d="M157,49.56c.62,1.69-.65,6.73-.65,6.73l-.83,1.29.19-2.83s-1.77-3.84-1.28-5.26l1.12-1.62A7.78,7.78,0,0,1,157,49.56Z" transform="translate(-42.16 -34.31)"/><path class="cls-55" d="M149,44.33c-2.14,0-5.22,1-6.55,3.54l1.13,1.62a16.9,16.9,0,0,0,5.5,1.79c1.56.12,4.06.2,5.95-1.31l.51-2.1S154,44.34,149,44.33Z" transform="translate(-42.16 -34.31)"/><path class="cls-63" d="M149,72.64v3.87l1.16.42,1.68-2.85A6.6,6.6,0,0,0,149,72.64Z" transform="translate(-42.16 -34.31)"/><path class="cls-57" d="M153.56,70l1,.61-2.11,7.1-3.46-5A11.28,11.28,0,0,0,153.56,70Z" transform="translate(-42.16 -34.31)"/><path class="cls-58" d="M140.59,78.24l1-1.39.49-.7-1.76-2.89-.66-1.08v0s-6.87,3.13-6.88,3.15c-.49.53-1.38,5.27-2,9.38h14.72Z" transform="translate(-42.16 -34.31)"/><path class="cls-59" d="M157.33,78.24l-4.89,6.45h14.72c-.6-4.11-1.48-8.85-2-9.38,0,0-6.88-3.15-6.88-3.15l-2.43,4Z" transform="translate(-42.16 -34.31)"/><path class="cls-62" d="M149,84.69V76.51l-1.18.42s-.74,3.4-.93,5.13l.77,2.63Z" transform="translate(-42.16 -34.31)"/><path class="cls-63" d="M150.3,84.69l.77-2.63c-.19-1.73-.94-5.13-.94-5.13L149,76.51v8.18Z" transform="translate(-42.16 -34.31)"/><polygon class="cls-60" points="99.88 41.85 99.4 42.54 98.43 43.94 103.33 50.39 105.47 50.39 104.7 47.75 102.11 38.86 101.33 36.18 97.45 37.85 98.12 38.95 99.88 41.85"/><polygon class="cls-61" points="115.17 43.94 113.72 41.85 116.15 37.85 112.38 36.27 111.6 38.86 109.14 47.12 108.16 50.39 110.27 50.39 115.17 43.94"/><path class="cls-109" d="M137.28,56l.41,3.46c.12,1.1,1.41,1.86,2.87,1.69l.14,0-.82-7c0-.22,0-.43,0-.63a9.29,9.29,0,1,1,18.56,0c0,.2,0,.42,0,.63l-.76,6.45L155,64.23a1.18,1.18,0,0,0-1.35.33l-2.34,2.82a1.2,1.2,0,0,0,.16,1.67,1.19,1.19,0,0,0,1.66-.16l2.34-2.82a1.16,1.16,0,0,0,.15-1.27l2.65-3.63a2.25,2.25,0,0,0,2.37-1.71L161,56a2.21,2.21,0,0,0-1.72-2.16c0-.13,0-.26,0-.38a10.16,10.16,0,1,0-20.31,0c0,.12,0,.25,0,.38A2.21,2.21,0,0,0,137.28,56Z" transform="translate(-42.16 -34.31)"/></svg>