<svg id="OBJECTS" xmlns="http://www.w3.org/2000/svg" xmlns:xlink="http://www.w3.org/1999/xlink" viewBox="0 0 451.1 62.66"><defs><style>.cls-1{fill:#130751;}.cls-2{fill:url(#Degradado_sin_nombre_15);}</style><linearGradient id="Degradado_sin_nombre_15" x1="151.75" y1="257" x2="151.75" y2="315.09" gradientUnits="userSpaceOnUse"><stop offset="0" stop-color="#0a54cc"/><stop offset="0.3" stop-color="#083eb4"/><stop offset="0.93" stop-color="#040777"/><stop offset="1" stop-color="#04006f"/></linearGradient></defs><path class="cls-1" d="M213.18,264.53H197V253.14h46.07v11.39H226.69v48.55H213.18Z" transform="translate(-116.76 -252.08)"/><path class="cls-1" d="M285.91,287.73H263.86V302h24.63v11.12H250.34V253.14h36.91v11.12H263.86v12.45h22.05Z" transform="translate(-116.76 -252.08)"/><path class="cls-1" d="M341.66,311.48c-2.4,1.16-8.09,2.58-15.29,2.58-20.72,0-31.39-13-31.39-30.06,0-20.45,14.58-31.75,32.72-31.75,7,0,12.36,1.34,14.76,2.67l-2.84,10.67a28.68,28.68,0,0,0-11.38-2.22c-10.68,0-19,6.49-19,19.83,0,12,7.11,19.56,19.12,19.56a32.46,32.46,0,0,0,11.38-1.95Z" transform="translate(-116.76 -252.08)"/><path class="cls-1" d="M364.24,253.14v23h22.32v-23h13.52v59.94H386.56V288H364.24v25.08H350.73V253.14Z" transform="translate(-116.76 -252.08)"/><path class="cls-1" d="M412.7,253.14h7.83v53.45h25.61v6.49H412.7Z" transform="translate(-116.76 -252.08)"/><path class="cls-1" d="M521.4,308.61a29,29,0,0,1,.07-3.09h-.19V252.08h-7.83V312h8.1C521.52,310.87,521.44,309.73,521.4,308.61Z" transform="translate(-116.76 -252.08)"/><path class="cls-1" d="M502.51,282.49c0,20.54-12.54,31.57-27.83,31.57-15.92,0-26.95-12.36-26.95-30.51,0-19,11.74-31.47,27.75-31.47C491.93,252.08,502.51,264.61,502.51,282.49Zm-46.59.89c0,12.89,6.93,24.36,19.2,24.36s19.21-11.29,19.21-24.9c0-12-6.22-24.45-19.12-24.45S455.92,270.31,455.92,283.38Z" transform="translate(-116.76 -252.08)"/><path class="cls-1" d="M567.85,284.81c0,19.47-12.31,29.92-27.33,29.92-15.63,0-26.46-11.71-26.46-28.91,0-18,11.53-29.84,27.25-29.84C557.46,256,567.85,267.87,567.85,284.81Zm-45.76.84c0,12.22,6.81,23.1,18.87,23.1s18.86-10.71,18.86-23.61c0-11.37-6.11-23.17-18.78-23.17S522.09,273.26,522.09,285.65Z" transform="translate(-116.76 -252.08)"/><path class="cls-1" d="M502.29,286.9a244.93,244.93,0,0,0,.64,25,26.89,26.89,0,0,0-8.4-.09c-.12-3.15-.08-6.54-.19-9.68-.16-4.23,2.33-7.15,4.18-10.56C499.57,289.62,500.54,286.51,502.29,286.9Z" transform="translate(-116.76 -252.08)"/><path class="cls-2" d="M186.75,297.69V256.31a3,3,0,0,0-3-3h-64a3,3,0,0,0-3,3v41.38a3,3,0,0,0,3,3h24.9a3,3,0,0,1,3,3h0a3,3,0,0,1-3,3h-6.06a6.3,6.3,0,0,0-6.3,6.29H171.2a6.3,6.3,0,0,0-6.3-6.29h-6.06a3,3,0,0,1-3-3h0a3,3,0,0,1,3-3h24.9A3,3,0,0,0,186.75,297.69Zm-65.88-12.85h16.77a1.59,1.59,0,0,1,1.4.82,4.32,4.32,0,1,0,0-4.11,1.64,1.64,0,0,1-1.42.86H120.87v-5.68h8.53a1.59,1.59,0,0,1,1.4.82,4.32,4.32,0,1,0,0-4.11,1.64,1.64,0,0,1-1.42.86h-8.53v-5.43h16.77a1.59,1.59,0,0,1,1.4.82,4.32,4.32,0,1,0,0-4.11,1.63,1.63,0,0,1-1.42.85H120.87V258.6h56.66v34.08H120.87Zm19.95-1.22a2,2,0,1,1,2,2A2,2,0,0,1,140.82,283.62Zm-8.24-8.1a2,2,0,1,1,2,2A2,2,0,0,1,132.58,275.52Zm8.24-7.87a2,2,0,1,1,2,2A2,2,0,0,1,140.82,267.65Z" transform="translate(-116.76 -252.08)"/></svg>