<svg xmlns="http://www.w3.org/2000/svg" xmlns:xlink="http://www.w3.org/1999/xlink" viewBox="0 0 359.58 374.28"><defs><style>.cls-1{isolation:isolate;}.cls-2{fill:#828ba4;}.cls-2,.cls-38,.cls-56{opacity:0.3;}.cls-13,.cls-14,.cls-17,.cls-2,.cls-21,.cls-38,.cls-56{mix-blend-mode:multiply;}.cls-3{opacity:0.8;}.cls-4{fill:#454c61;}.cls-5{fill:#30384f;}.cls-18,.cls-23,.cls-53,.cls-6,.cls-65{fill:#fff;}.cls-7{fill:#f5d533;}.cls-8{fill:#ff6469;}.cls-9{fill:#75c1f8;}.cls-10{fill:#b8dffb;}.cls-11{fill:#3fa9f5;}.cls-12{fill:#fbeda7;}.cls-13{fill:#f9e88f;}.cls-14,.cls-23,.cls-65{font-size:15.4px;}.cls-14{fill:#79829d;font-family:Comfortaa;letter-spacing:-0.02em;}.cls-15,.cls-19,.cls-24,.cls-25,.cls-66,.cls-67{opacity:0.7;}.cls-15,.cls-19,.cls-24,.cls-25,.cls-60,.cls-66,.cls-67{mix-blend-mode:overlay;}.cls-15{fill:url(#Degradado_sin_nombre_12);}.cls-16{fill:#b4ecff;}.cls-17{fill:#95d0f9;}.cls-18{font-size:13px;letter-spacing:0.05em;}.cls-18,.cls-23,.cls-53,.cls-65{font-family:Comfortaa-Bold, Comfortaa Bold;font-weight:700;}.cls-19{fill:url(#Degradado_sin_nombre_12-2);}.cls-20{fill:#ffbcbe;}.cls-21{fill:#ffaaac;}.cls-22{fill:#ff7b80;}.cls-23{letter-spacing:0.05em;}.cls-24{fill:url(#Degradado_sin_nombre_12-3);}.cls-25{fill:url(#Degradado_sin_nombre_12-4);}.cls-26{fill:#4f5669;}.cls-27{fill:#3a4258;}.cls-28{fill:#7f8492;}.cls-29{fill:#6e7484;}.cls-30,.cls-59{fill:#07c;}.cls-31{fill:#eaecf0;}.cls-32{fill:#c8ccd7;}.cls-33{fill:#dfe2e8;}.cls-34{fill:#d0d3dc;}.cls-35{fill:#a4abba;}.cls-36{fill:#c0c4d1;}.cls-37{fill:#a7adbf;}.cls-38,.cls-41,.cls-63{fill:#616c8c;}.cls-39{fill:#b0b5c5;}.cls-40{fill:#9098ae;}.cls-41{fill-rule:evenodd;}.cls-42{fill:#4d4d4d;}.cls-43{fill:#333;}.cls-44{fill:#ffc1c3;}.cls-45{fill:#69bcf7;}.cls-46{fill:#596072;}.cls-47{fill:#898e9b;}.cls-48{fill:#a9d8fa;}.cls-49{fill:#f3f3f4;}.cls-50{fill:#8189a3;}.cls-51{fill:#e2e3e6;}.cls-52{fill:url(#Degradado_sin_nombre_5);}.cls-53{font-size:10.81px;letter-spacing:0.2em;}.cls-54{letter-spacing:0.18em;}.cls-55{fill:#9fa5b9;}.cls-56{fill:#878fa8;}.cls-57{fill:#626879;}.cls-58{fill:#cbced9;}.cls-59{opacity:0.6;}.cls-60{fill:url(#Degradado_sin_nombre_10);}.cls-61{fill:#666c7d;}.cls-62{fill:#c6cad6;}.cls-64{fill:#84c8f9;}.cls-65{letter-spacing:-0.03em;}.cls-66{fill:url(#Degradado_sin_nombre_12-5);}.cls-67{fill:url(#Degradado_sin_nombre_12-6);}</style><linearGradient id="Degradado_sin_nombre_12" x1="261.5" y1="95.05" x2="243.83" y2="41.63" gradientUnits="userSpaceOnUse"><stop offset="0" stop-color="#edfaff"/><stop offset="1" stop-color="#30384f" stop-opacity="0"/></linearGradient><linearGradient id="Degradado_sin_nombre_12-2" x1="128.26" y1="114.09" x2="110.59" y2="60.67" xlink:href="#Degradado_sin_nombre_12"/><linearGradient id="Degradado_sin_nombre_12-3" x1="198.05" y1="82.09" x2="180.38" y2="28.67" xlink:href="#Degradado_sin_nombre_12"/><linearGradient id="Degradado_sin_nombre_12-4" x1="99.71" y1="191.33" x2="82.04" y2="137.91" xlink:href="#Degradado_sin_nombre_12"/><linearGradient id="Degradado_sin_nombre_5" x1="140.94" y1="53.14" x2="156.66" y2="149.14" gradientUnits="userSpaceOnUse"><stop offset="0" stop-color="#3fa9f5"/><stop offset="1" stop-color="#65d8ff"/></linearGradient><linearGradient id="Degradado_sin_nombre_10" x1="501.72" y1="116.21" x2="533.63" y2="205.82" gradientTransform="translate(-294.63 504.07) rotate(-45)" gradientUnits="userSpaceOnUse"><stop offset="0" stop-color="#30384f" stop-opacity="0"/><stop offset="1" stop-color="#edfaff"/></linearGradient><linearGradient id="Degradado_sin_nombre_12-5" x1="147.57" y1="232.43" x2="129.9" y2="179.01" xlink:href="#Degradado_sin_nombre_12"/><linearGradient id="Degradado_sin_nombre_12-6" x1="308.95" y1="130.92" x2="291.28" y2="77.5" xlink:href="#Degradado_sin_nombre_12"/></defs><g class="cls-1"><g id="OBJECTS"><path class="cls-2" d="M335.13,239.73l-184.8,106.7-.12,0h0l-18,3.81a4.2,4.2,0,0,0-4.88,3.42h0a4.2,4.2,0,0,0,3.41,4.88l20.68-4.37,80.65,46.56-11.72,2.48a4.22,4.22,0,0,0-4.89,3.41h0a4.23,4.23,0,0,0,3.42,4.89l23.31-4.93,6.64,3.83v.06l42.59-25.42a19.45,19.45,0,0,0-.09,3.15c.9,15.95,21.72,27.75,46.51,26.36s44.18-15.44,43.28-31.39c-.82-14.68-18.51-25.83-40.64-26.44l93.25-53V296.7l0,0Z" transform="translate(-74.17 -40.42)"/><g class="cls-3"><polygon class="cls-4" points="112.53 100.4 42.53 141.72 41.69 141.3 41.69 90.17 112.52 49.28 113.35 49.7 112.53 100.4"/><polygon class="cls-5" points="113.37 100.82 42.53 141.72 42.53 90.59 113.37 49.7 113.37 100.82"/><polygon class="cls-6" points="49.18 96.19 47.21 97.33 47.21 95.72 49.18 94.58 49.18 96.19"/><polygon class="cls-7" points="78 79.55 51.37 94.92 51.37 93.31 78 77.94 78 79.55"/><polygon class="cls-6" points="49.18 99.97 47.21 101.11 47.21 99.5 49.18 98.36 49.18 99.97"/><polygon class="cls-7" points="63.67 91.6 51.38 98.7 51.38 97.09 63.67 89.99 63.67 91.6"/><polygon class="cls-6" points="49.18 103.75 47.21 104.89 47.21 103.28 49.18 102.14 49.18 103.75"/><polygon class="cls-7" points="70.03 91.71 51.38 102.48 51.38 100.87 70.03 90.1 70.03 91.71"/><polygon class="cls-6" points="49.18 107.53 47.21 108.67 47.21 107.06 49.18 105.92 49.18 107.53"/><polygon class="cls-7" points="73.64 93.41 51.38 106.26 51.38 104.65 73.64 91.79 73.64 93.41"/><polygon class="cls-6" points="49.18 113.03 47.21 114.17 47.21 112.55 49.18 111.42 49.18 113.03"/><polygon class="cls-8" points="65.48 103.62 51.38 111.76 51.38 110.15 65.48 102.01 65.48 103.62"/><polygon class="cls-6" points="49.18 116.81 47.21 117.95 47.21 116.33 49.18 115.2 49.18 116.81"/><polygon class="cls-8" points="77.26 100.6 51.38 115.54 51.38 113.93 77.26 98.99 77.26 100.6"/><polygon class="cls-6" points="49.18 120.59 47.21 121.73 47.21 120.11 49.18 118.98 49.18 120.59"/><polygon class="cls-8" points="61.58 113.43 51.38 119.32 51.38 117.71 61.58 111.82 61.58 113.43"/><polygon class="cls-6" points="49.18 124.37 47.21 125.51 47.21 123.89 49.18 122.76 49.18 124.37"/><polygon class="cls-8" points="69.62 112.57 51.38 123.1 51.38 121.49 69.62 110.95 69.62 112.57"/><polygon class="cls-6" points="91.13 71.59 92.64 70.72 92.64 69.49 91.13 70.36 91.13 71.59"/><polygon class="cls-6" points="104.76 62.49 94.31 68.52 94.31 69.75 104.76 63.72 104.76 62.49"/><polygon class="cls-6" points="91.13 74.47 92.64 73.6 92.64 72.37 91.13 73.24 91.13 74.47"/><polygon class="cls-6" points="99.14 68.62 94.31 71.41 94.31 72.63 99.14 69.85 99.14 68.62"/><polygon class="cls-6" points="91.13 77.35 92.64 76.48 92.64 75.25 91.13 76.12 91.13 77.35"/><polygon class="cls-6" points="101.64 70.06 94.31 74.29 94.31 75.52 101.64 71.29 101.64 70.06"/><polygon class="cls-6" points="91.13 80.23 92.64 79.37 92.64 78.14 91.13 79.01 91.13 80.23"/><polygon class="cls-6" points="103.05 72.12 94.31 77.17 94.31 78.4 103.05 73.35 103.05 72.12"/><polygon class="cls-6" points="91.13 84.43 92.64 83.56 92.64 82.33 91.13 83.2 91.13 84.43"/><polygon class="cls-6" points="101.12 77.43 94.31 81.36 94.31 82.59 101.12 78.66 101.12 77.43"/><polygon class="cls-6" points="91.13 87.31 92.64 86.44 92.64 85.22 91.13 86.08 91.13 87.31"/><polygon class="cls-6" points="94.31 84.25 94.31 85.48 106.81 78.26 106.81 77.03 94.31 84.25"/><polygon class="cls-6" points="91.13 90.19 92.64 89.33 92.64 88.1 91.13 88.97 91.13 90.19"/><polygon class="cls-6" points="99.24 84.29 94.31 87.13 94.31 88.36 99.24 85.52 99.24 84.29"/><polygon class="cls-6" points="91.13 93.08 92.64 92.21 92.64 90.98 91.13 91.85 91.13 93.08"/><polygon class="cls-6" points="94.31 91.24 103.13 86.15 103.13 84.92 94.31 90.01 94.31 91.24"/></g><g class="cls-3"><polygon class="cls-9" points="150.65 99.28 80.65 140.6 79.81 140.18 79.81 89.06 150.65 48.16 151.47 48.58 150.65 99.28"/><polygon class="cls-10" points="151.53 99.77 80.69 140.67 80.69 89.55 151.53 48.65 151.53 99.77"/><polygon class="cls-11" points="138.43 94.08 93.79 119.85 93.79 95.96 138.43 70.19 138.43 94.08"/><polygon class="cls-6" points="134.82 77.99 97.39 99.59 97.39 98.56 134.82 76.95 134.82 77.99"/><polygon class="cls-6" points="134.82 81.59 97.39 103.2 97.39 102.17 134.82 80.56 134.82 81.59"/><polygon class="cls-6" points="134.82 85.2 97.39 106.81 97.39 105.78 134.82 84.17 134.82 85.2"/><polygon class="cls-11" points="151.53 53.58 80.69 94.48 80.69 89.55 151.53 48.65 151.53 53.58"/></g><path class="cls-7" d="M237.24,68.93a8.91,8.91,0,0,0-1.27,4.3V97.05c0,2.79,5.72,6.71,8.14,5.32L263,88.66a9,9,0,0,0,3.14-3.35C257.19,80.26,246.66,73.22,237.24,68.93Z" transform="translate(-74.17 -40.42)"/><path class="cls-12" d="M263,88.66l-18.86,13.71c-2.42,1.39-8.14-2.53-8.14-5.32V73.23a9.65,9.65,0,0,1,4.36-7.57L261,53.75c2.41-1.4,8.43,1.47,8.46,3.94L267.34,81.1A9.66,9.66,0,0,1,263,88.66Z" transform="translate(-74.17 -40.42)"/><path class="cls-7" d="M237.24,68.93a8.91,8.91,0,0,0-1.27,4.3V97.05c0,2.79,5.72,6.71,8.14,5.32L263,88.66a9,9,0,0,0,3.14-3.35C257.19,80.26,246.66,73.22,237.24,68.93Z" transform="translate(-74.17 -40.42)"/><path class="cls-13" d="M237.24,68.93a8.91,8.91,0,0,0-1.27,4.3V97.05c0,2.79,5.72,6.71,8.14,5.32L263,88.66a9,9,0,0,0,3.14-3.35C257.19,80.26,246.66,73.22,237.24,68.93Z" transform="translate(-74.17 -40.42)"/><path class="cls-7" d="M265.29,90.21l-20.64,11.91c-2.41,1.39-4.37.26-4.37-2.52V75.77a9.68,9.68,0,0,1,4.37-7.57l20.64-11.91c2.41-1.39,4.37-.26,4.37,2.52V82.64A9.68,9.68,0,0,1,265.29,90.21Z" transform="translate(-74.17 -40.42)"/><text class="cls-14" transform="matrix(0.87, -0.5, 0, 1, 173.15, 48.12)">&lt;/&gt;</text><path class="cls-15" d="M269.66,65.17V58.81c0-2.78-2-3.91-4.37-2.52L244.65,68.2a9.68,9.68,0,0,0-4.37,7.57V92.6C248.57,80.39,258.83,70.5,269.66,65.17Z" transform="translate(-74.17 -40.42)"/><path class="cls-16" d="M129.73,107.7l-18.87,13.7c-2.41,1.4-8.13-2.53-8.13-5.31V92.26a9.67,9.67,0,0,1,4.36-7.57l20.64-11.91c2.41-1.39,8.43,1.47,8.46,4l-2.09,23.4A9.68,9.68,0,0,1,129.73,107.7Z" transform="translate(-74.17 -40.42)"/><path class="cls-11" d="M104,88a8.84,8.84,0,0,0-1.27,4.29v23.83c0,2.78,5.72,6.71,8.13,5.31l18.87-13.7a9.08,9.08,0,0,0,3.14-3.35C124,99.3,113.42,92.26,104,88Z" transform="translate(-74.17 -40.42)"/><path class="cls-11" d="M104,88a8.84,8.84,0,0,0-1.27,4.29v23.83c0,2.78,5.72,6.71,8.13,5.31l18.87-13.7a9.08,9.08,0,0,0,3.14-3.35C124,99.3,113.42,92.26,104,88Z" transform="translate(-74.17 -40.42)"/><path class="cls-17" d="M104,88a8.84,8.84,0,0,0-1.27,4.29v23.83c0,2.78,5.72,6.71,8.13,5.31l18.87-13.7a9.08,9.08,0,0,0,3.14-3.35C124,99.3,113.42,92.26,104,88Z" transform="translate(-74.17 -40.42)"/><path class="cls-11" d="M132.05,109.24l-20.64,11.91c-2.41,1.4-4.37.27-4.37-2.52V94.8a9.66,9.66,0,0,1,4.37-7.56l20.64-11.91c2.41-1.4,4.36-.27,4.36,2.52v23.83A9.62,9.62,0,0,1,132.05,109.24Z" transform="translate(-74.17 -40.42)"/><text class="cls-18" transform="matrix(0.87, -0.5, 0, 1, 36.73, 68.4)">{...}</text><path class="cls-19" d="M136.41,84.2V77.85c0-2.79-1.95-3.92-4.36-2.52L111.41,87.24A9.66,9.66,0,0,0,107,94.8v16.83C115.33,99.43,125.59,89.54,136.41,84.2Z" transform="translate(-74.17 -40.42)"/><path class="cls-20" d="M199.52,75.7,180.66,89.4c-2.41,1.4-8.14-2.53-8.14-5.31V60.26a9.65,9.65,0,0,1,4.37-7.57l20.63-11.91c2.41-1.39,8.43,1.47,8.46,3.95l-2.09,23.4A9.65,9.65,0,0,1,199.52,75.7Z" transform="translate(-74.17 -40.42)"/><path class="cls-8" d="M173.79,56a8.84,8.84,0,0,0-1.27,4.29V84.09c0,2.78,5.73,6.71,8.14,5.31l18.86-13.7a8.92,8.92,0,0,0,3.14-3.35C193.74,67.3,183.21,60.26,173.79,56Z" transform="translate(-74.17 -40.42)"/><path class="cls-21" d="M173.79,56a8.84,8.84,0,0,0-1.27,4.29V84.09c0,2.78,5.73,6.71,8.14,5.31l18.86-13.7a8.92,8.92,0,0,0,3.14-3.35C193.74,67.3,183.21,60.26,173.79,56Z" transform="translate(-74.17 -40.42)"/><path class="cls-22" d="M201.84,77.24,181.2,89.15c-2.41,1.4-4.36.27-4.36-2.52V62.8a9.66,9.66,0,0,1,4.37-7.56l20.64-11.91c2.41-1.4,4.37-.27,4.37,2.52V69.68A9.66,9.66,0,0,1,201.84,77.24Z" transform="translate(-74.17 -40.42)"/><text class="cls-23" transform="matrix(0.87, -0.5, 0, 1, 110.8, 34.81)">JS</text><path class="cls-24" d="M206.21,52.2V45.85c0-2.79-2-3.92-4.37-2.52L181.2,55.24a9.66,9.66,0,0,0-4.37,7.56V79.63C185.12,67.43,195.38,57.54,206.21,52.2Z" transform="translate(-74.17 -40.42)"/><path class="cls-7" d="M75.44,165.21a9,9,0,0,0-1.27,4.29v23.83c0,2.78,5.73,6.71,8.14,5.32l18.87-13.71a8.9,8.9,0,0,0,3.13-3.35C95.4,176.54,84.86,169.5,75.44,165.21Z" transform="translate(-74.17 -40.42)"/><path class="cls-12" d="M101.18,184.94,82.31,198.65c-2.41,1.39-8.14-2.54-8.14-5.32V169.5a9.66,9.66,0,0,1,4.37-7.56L99.18,150c2.41-1.39,8.43,1.47,8.45,3.95l-2.08,23.4A9.66,9.66,0,0,1,101.18,184.94Z" transform="translate(-74.17 -40.42)"/><path class="cls-7" d="M75.44,165.21a9,9,0,0,0-1.27,4.29v23.83c0,2.78,5.73,6.71,8.14,5.32l18.87-13.71a8.9,8.9,0,0,0,3.13-3.35C95.4,176.54,84.86,169.5,75.44,165.21Z" transform="translate(-74.17 -40.42)"/><path class="cls-13" d="M75.44,165.21a9,9,0,0,0-1.27,4.29v23.83c0,2.78,5.73,6.71,8.14,5.32l18.87-13.71a8.9,8.9,0,0,0,3.13-3.35C95.4,176.54,84.86,169.5,75.44,165.21Z" transform="translate(-74.17 -40.42)"/><path class="cls-7" d="M103.5,186.48,82.86,198.4c-2.41,1.39-4.37.26-4.37-2.53V172.05a9.66,9.66,0,0,1,4.37-7.57l20.63-11.91c2.42-1.4,4.37-.27,4.37,2.52v23.83A9.65,9.65,0,0,1,103.5,186.48Z" transform="translate(-74.17 -40.42)"/><text class="cls-14" transform="matrix(0.87, -0.5, 0, 1, 8.32, 146.33)">XML</text><path class="cls-25" d="M107.86,161.45v-6.36c0-2.79-2-3.92-4.37-2.52L82.86,164.48a9.66,9.66,0,0,0-4.37,7.57v16.82C86.77,176.67,97,166.78,107.86,161.45Z" transform="translate(-74.17 -40.42)"/><path class="cls-5" d="M302.29,336l.59,8.06a8.67,8.67,0,0,1-3,8c-4,3.37-10,2.09-14.35,0-3.48-1.67-13.87-6.36-18.25-13.41-1.08-1.74-3.6-5.68,1-8.13,3-1.59,9.2.86,13.62,1.87,2.71.62,7.1,1.29,7.1,1.29s3.93-2.64,7.91-1S302.57,332.69,302.29,336Z" transform="translate(-74.17 -40.42)"/><path class="cls-26" d="M285.47,327.76s-1,8.23,6.76,10,13.21-.48,14.12-4.86c.57-2.71,3.19-28.17,4.79-42.43l-20.41-15.84Z" transform="translate(-74.17 -40.42)"/><path class="cls-26" d="M365.69,295.63c-1-7.16-3.63-14-4.45-21.19L343,280s-28.31-12.41-36.26-13.5c-4.58-.62-8.55-.84-12.77,3A12.47,12.47,0,0,0,289.62,280l.36,3.36,30.84,16.5c0-.06,11.61,6.38,17.46,8.07,9,2.6,20.9.48,25.52-2.11.63-.36,1.47-.81,2.44-1.32A68.88,68.88,0,0,0,365.69,295.63Z" transform="translate(-74.17 -40.42)"/><path class="cls-27" d="M277,353l.59,8.06a8.64,8.64,0,0,1-3,8c-4,3.38-10,2.1-14.36,0-3.47-1.66-13.87-6.36-18.25-13.41-1.08-1.74-3.6-5.67,1-8.13,3-1.58,9.2.87,13.62,1.87,2.71.62,7.1,1.3,7.1,1.3s3.93-2.64,7.91-1S277.27,349.67,277,353Z" transform="translate(-74.17 -40.42)"/><path class="cls-5" d="M369,397.61c-1.13-.66-2.13-.59-2.74.05l-.06-.09-5.62,3.16L365,409l6.32-3.09c.63-.42,1-1.21,1-2.81A6.76,6.76,0,0,0,369,397.61Z" transform="translate(-74.17 -40.42)"/><ellipse class="cls-5" cx="362.81" cy="404.87" rx="2.75" ry="4.77" transform="translate(-228 195.23) rotate(-30)"/><path class="cls-5" d="M301,399.29a2.17,2.17,0,0,1,2.75,0l.06-.08,5.61,3.15L305,410.69l-6.32-3.08c-.63-.43-1-1.22-1-2.81A6.81,6.81,0,0,1,301,399.29Z" transform="translate(-74.17 -40.42)"/><path class="cls-5" d="M303.79,408.5c0,2.15,1.51,3,3.37,1.95a7.45,7.45,0,0,0,3.38-5.84c0-2.16-1.51-3-3.38-1.95A7.45,7.45,0,0,0,303.79,408.5Z" transform="translate(-74.17 -40.42)"/><path class="cls-5" d="M363.86,369.54a2.16,2.16,0,0,1,2.74,0l.06-.08,5.62,3.15-4.42,8.28-6.32-3.08c-.63-.42-1-1.22-1-2.81A6.79,6.79,0,0,1,363.86,369.54Z" transform="translate(-74.17 -40.42)"/><path class="cls-5" d="M366.66,378.75c0,2.15,1.51,3,3.37,1.95a7.46,7.46,0,0,0,3.37-5.84c0-2.16-1.51-3-3.37-1.95A7.45,7.45,0,0,0,366.66,378.75Z" transform="translate(-74.17 -40.42)"/><path class="cls-5" d="M311.17,369.54a2.17,2.17,0,0,0-2.75,0l-.06-.08-5.61,3.15,4.42,8.28,6.31-3.08c.64-.42,1-1.22,1-2.81A6.81,6.81,0,0,0,311.17,369.54Z" transform="translate(-74.17 -40.42)"/><path class="cls-5" d="M308.37,378.75c0,2.15-1.51,3-3.38,1.95a7.46,7.46,0,0,1-3.37-5.84c0-2.16,1.51-3,3.38-1.95A7.45,7.45,0,0,1,308.37,378.75Z" transform="translate(-74.17 -40.42)"/><path class="cls-28" d="M337.27,380.08,308.32,366a3.68,3.68,0,0,0-3.56.21,4,4,0,0,0-2.26,2.64v2.06l29.88,15Z" transform="translate(-74.17 -40.42)"/><path class="cls-28" d="M333.62,381.2,364.26,366a3.33,3.33,0,0,1,3.4.21c2.06,1.12,2.08,2.64,2.08,2.64v2.06L338.35,387Z" transform="translate(-74.17 -40.42)"/><path class="cls-4" d="M260.39,330.87h1.3a5.9,5.9,0,0,1,5.9,5.9v11.88a0,0,0,0,1,0,0h-13.1a0,0,0,0,1,0,0V336.77A5.9,5.9,0,0,1,260.39,330.87Z"/><path class="cls-5" d="M332.33,356.47v16.69a3.34,3.34,0,0,0,3.41,3.36c3.37,0,2.66-3,2.66-3V356.47Z" transform="translate(-74.17 -40.42)"/><path class="cls-4" d="M328.79,341.19v15.72a8.25,8.25,0,0,0,6.14,2.8,9.56,9.56,0,0,0,6.5-2.8v-18Z" transform="translate(-74.17 -40.42)"/><path class="cls-29" d="M259.33,346s-1,8,6.57,9.68,12.83-.47,13.72-4.72c.55-2.63,3.1-27.37,4.65-41.22l-19.83-15.4Z" transform="translate(-74.17 -40.42)"/><path class="cls-30" d="M311.17,303.3c8-5.14,13.52-8,20.21-9,9.63-1.4,22.36,2.9,29.46,5.89,4.59,1.93,18.15,7.67,15,15.16-2.26,5.32-13.37,9.17-21.51,13.1s-18.71,10.85-27.69,11.41-18.81-4.21-26.95-9.54-7.29-13-2-17.78C302,308.7,304.15,307.79,311.17,303.3Z" transform="translate(-74.17 -40.42)"/><path class="cls-29" d="M366.79,282.08,317.68,297s-28.31-12.41-36.26-13.49c-4.57-.62-8.55-.84-12.76,3A12.49,12.49,0,0,0,264.32,297l.36,3.37,30.84,16.5c0-.06,11.61,6.37,17.47,8.07,8.95,2.6,20.89.48,25.51-2.12s19.63-9.82,25.4-16.17S366.79,282.08,366.79,282.08Z" transform="translate(-74.17 -40.42)"/><path class="cls-5" d="M293.4,319.86v7.86a19.06,19.06,0,0,0,9.78,12.53c8.42,4.49,21.53,8.24,27.89,5.8s30.33-14.78,35.56-17.58,7.87-4.31,8.8-6.74.19-9.92.19-9.92S362,322.67,346.25,327.9s-21.75,8.24-29.42,6.37S293.4,319.86,293.4,319.86Z" transform="translate(-74.17 -40.42)"/><path class="cls-4" d="M327.73,344.56c-2.33-3.73-.79-7.84,1.72-11.06-4.87,1.38-8.52,1.76-12.62.77-7.67-1.87-23.43-14.41-23.43-14.41v7.86a19.06,19.06,0,0,0,9.78,12.53c7.81,4.17,19.66,7.69,26.41,6.23A16.2,16.2,0,0,1,327.73,344.56Z" transform="translate(-74.17 -40.42)"/><path class="cls-28" d="M301.07,400.85s-2.67-4.31,1.45-5.8,27-12.91,27-12.91,4.93.74,4.93,2.62a20.23,20.23,0,0,0,.56,4.11s-24.88,11.6-27.31,12.91S303.22,402.16,301.07,400.85Z" transform="translate(-74.17 -40.42)"/><path class="cls-28" d="M371,400.85s2.11-4.31-2-5.8-26.82-13.48-26.82-13.48-4.75.75-4.75,2.62v4.12s24.7,12.16,27.13,13.47S368.82,402.16,371,400.85Z" transform="translate(-74.17 -40.42)"/><path class="cls-31" d="M219.66,411.25h0a4.22,4.22,0,0,1-4.22-4.22V311.77h8.43V407A4.21,4.21,0,0,1,219.66,411.25Z" transform="translate(-74.17 -40.42)"/><path class="cls-32" d="M219.42,311.77v99.45l.24,0a4.21,4.21,0,0,0,4.21-4.22V311.77Z" transform="translate(-74.17 -40.42)"/><path class="cls-31" d="M131.4,358.17h0a4.22,4.22,0,0,1-4.22-4.22V258.69h8.43V354A4.22,4.22,0,0,1,131.4,358.17Z" transform="translate(-74.17 -40.42)"/><path class="cls-32" d="M131.16,258.69v99.46l.24,0a4.22,4.22,0,0,0,4.21-4.22V258.69Z" transform="translate(-74.17 -40.42)"/><path class="cls-31" d="M309,170.18h8.43a0,0,0,0,1,0,0v95.26a4.22,4.22,0,0,1-4.22,4.22h0a4.22,4.22,0,0,1-4.22-4.22V170.18A0,0,0,0,1,309,170.18Z"/><path class="cls-32" d="M387.11,210.6v99.45l.23,0a4.22,4.22,0,0,0,4.22-4.21V210.6Z" transform="translate(-74.17 -40.42)"/><path class="cls-33" d="M299.08,257h0a4.21,4.21,0,0,1-4.21-4.22V157.52h8.43v95.26A4.22,4.22,0,0,1,299.08,257Z" transform="translate(-74.17 -40.42)"/><path class="cls-34" d="M298.85,157.52V257a1.81,1.81,0,0,0,.23,0,4.22,4.22,0,0,0,4.22-4.22V157.52Z" transform="translate(-74.17 -40.42)"/><polygon class="cls-35" points="325.65 167.43 140.76 274.18 42.13 217.24 227.03 110.49 325.65 167.43"/><polygon class="cls-36" points="140.73 281.2 140.73 274.15 42.11 217.21 42.11 224.25 140.73 281.2"/><polygon class="cls-37" points="325.61 174.5 325.61 167.46 140.72 274.2 140.72 281.25 325.61 174.5"/><polygon class="cls-38" points="229.67 172.56 166.96 209.39 140.58 195.58 141.2 201.11 167.29 212.62 229.89 176.34 229.67 172.56"/><polygon class="cls-39" points="140.58 194.58 141.2 200.11 167.29 211.62 166.96 208.39 140.58 194.58"/><polygon class="cls-6" points="205.28 157.93 229.69 171.67 166.96 208.39 140.58 194.58 205.28 157.93"/><polygon class="cls-40" points="229.67 171.56 166.96 208.39 167.29 211.62 229.89 175.34 229.67 171.56"/><polygon class="cls-41" points="149.55 195.09 147.17 193.72 149.66 192.28 152.05 193.65 149.55 195.09"/><polygon class="cls-41" points="154.42 192.27 152.03 190.9 154.53 189.46 156.91 190.83 154.42 192.27"/><polygon class="cls-41" points="157.54 190.47 155.15 189.09 157.65 187.65 160.03 189.02 157.54 190.47"/><polygon class="cls-41" points="160.66 188.66 158.27 187.29 160.76 185.84 163.15 187.21 160.66 188.66"/><polygon class="cls-41" points="165.52 185.84 163.13 184.47 165.63 183.02 168.02 184.4 165.52 185.84"/><polygon class="cls-41" points="168.64 184.03 166.25 182.66 168.75 181.22 171.13 182.59 168.64 184.03"/><polygon class="cls-41" points="171.76 182.23 169.37 180.86 171.87 179.41 174.25 180.78 171.76 182.23"/><polygon class="cls-41" points="176.62 179.41 174.24 178.04 176.73 176.59 179.12 177.96 176.62 179.41"/><polygon class="cls-41" points="179.74 177.6 177.35 176.23 179.85 174.79 182.24 176.16 179.74 177.6"/><polygon class="cls-41" points="182.86 175.8 180.47 174.42 182.97 172.98 185.35 174.35 182.86 175.8"/><polygon class="cls-41" points="187.85 172.91 185.46 171.53 187.96 170.09 190.34 171.46 187.85 172.91"/><polygon class="cls-41" points="190.82 171.11 188.48 169.7 191.04 168.27 193.38 169.68 190.82 171.11"/><polygon class="cls-41" points="194.09 169.29 191.7 167.92 194.19 166.47 196.58 167.85 194.09 169.29"/><polygon class="cls-41" points="198.08 166.98 195.69 165.61 198.19 164.16 200.57 165.53 198.08 166.98"/><polygon class="cls-41" points="201.2 165.17 198.81 163.8 201.3 162.35 203.69 163.73 201.2 165.17"/><polygon class="cls-41" points="204.31 163.37 201.93 161.99 204.42 160.55 206.81 161.92 204.31 163.37"/><polygon class="cls-41" points="208.73 165.9 206.34 164.53 208.84 163.09 211.22 164.46 208.73 165.9"/><polygon class="cls-41" points="211.71 167.62 209.33 166.25 211.82 164.8 214.21 166.17 211.71 167.62"/><polygon class="cls-41" points="205.61 167.71 203.22 166.34 205.72 164.89 208.11 166.26 205.61 167.71"/><polygon class="cls-41" points="208.59 169.42 206.21 168.05 208.7 166.61 211.09 167.98 208.59 169.42"/><polygon class="cls-41" points="202.49 169.52 200.11 168.15 202.6 166.7 204.99 168.07 202.49 169.52"/><polygon class="cls-41" points="205.48 171.23 203.09 169.86 205.59 168.41 207.97 169.78 205.48 171.23"/><polygon class="cls-41" points="220.54 172.69 218.16 171.32 220.65 169.88 223.04 171.25 220.54 172.69"/><polygon class="cls-41" points="217.43 174.5 215.04 173.13 217.53 171.68 219.92 173.05 217.43 174.5"/><polygon class="cls-41" points="214.31 176.31 211.92 174.93 214.42 173.49 216.8 174.86 214.31 176.31"/><polygon class="cls-41" points="214.44 172.78 212.06 171.41 214.55 169.97 216.94 171.34 214.44 172.78"/><polygon class="cls-41" points="194.38 174.21 192 172.84 194.49 171.4 196.88 172.77 194.38 174.21"/><polygon class="cls-41" points="191.27 176.02 188.88 174.65 191.38 173.2 193.76 174.57 191.27 176.02"/><polygon class="cls-41" points="188.15 177.83 185.76 176.46 188.26 175.01 190.64 176.38 188.15 177.83"/><polygon class="cls-41" points="185.03 179.63 182.64 178.26 185.14 176.82 187.53 178.19 185.03 179.63"/><polygon class="cls-41" points="181.91 181.44 179.53 180.07 182.02 178.62 184.41 180 181.91 181.44"/><polygon class="cls-41" points="178.79 183.25 176.41 181.88 178.9 180.43 181.29 181.8 178.79 183.25"/><polygon class="cls-41" points="175.67 185.05 173.29 183.68 175.78 182.24 178.17 183.61 175.67 185.05"/><polygon class="cls-41" points="172.56 186.86 170.17 185.49 172.66 184.04 175.05 185.41 172.56 186.86"/><polygon class="cls-41" points="169.44 188.67 167.05 187.3 169.54 185.85 171.93 187.22 169.44 188.67"/><polygon class="cls-41" points="166.32 190.47 163.93 189.1 166.55 187.59 168.94 188.96 166.32 190.47"/><polygon class="cls-41" points="163.2 192.28 160.81 190.91 163.43 189.39 165.82 190.76 163.2 192.28"/><polygon class="cls-41" points="160.08 194.09 157.69 192.72 160.31 191.2 162.7 192.57 160.08 194.09"/><polygon class="cls-41" points="157.09 195.82 154.7 194.45 157.2 193 159.58 194.38 157.09 195.82"/><polygon class="cls-41" points="153.97 197.63 151.58 196.26 154.08 194.81 156.46 196.18 153.97 197.63"/><polygon class="cls-41" points="161.57 196.67 159.18 195.3 161.68 193.85 164.06 195.22 161.57 196.67"/><polygon class="cls-41" points="164.69 194.86 162.3 193.49 164.79 192.04 167.18 193.42 164.69 194.86"/><polygon class="cls-41" points="167.81 193.06 165.42 191.68 167.91 190.24 170.3 191.61 167.81 193.06"/><polygon class="cls-41" points="170.92 191.25 168.54 189.88 171.03 188.43 173.42 189.8 170.92 191.25"/><polygon class="cls-41" points="174.04 189.44 171.66 188.07 174.15 186.63 176.54 188 174.04 189.44"/><polygon class="cls-41" points="177.16 187.63 174.77 186.26 177.27 184.82 179.66 186.19 177.16 187.63"/><polygon class="cls-41" points="180.28 185.83 177.89 184.46 180.39 183.01 182.77 184.38 180.28 185.83"/><polygon class="cls-41" points="183.27 184.09 180.89 182.72 183.51 181.21 185.89 182.58 183.27 184.09"/><polygon class="cls-41" points="186.39 182.29 184 180.92 186.62 179.4 189.01 180.77 186.39 182.29"/><polygon class="cls-41" points="189.51 180.48 187.12 179.11 189.74 177.59 192.13 178.96 189.51 180.48"/><polygon class="cls-41" points="192.63 178.67 190.24 177.3 192.74 175.86 195.12 177.23 192.63 178.67"/><polygon class="cls-41" points="195.75 176.87 193.36 175.5 195.85 174.05 198.24 175.42 195.75 176.87"/><polygon class="cls-41" points="196.61 179.81 194.1 178.37 196.6 176.93 199.1 178.37 196.61 179.81"/><polygon class="cls-41" points="193.49 181.62 190.99 180.18 193.48 178.73 195.99 180.17 193.49 181.62"/><polygon class="cls-41" points="190.37 183.42 187.87 181.98 190.36 180.54 192.87 181.98 190.37 183.42"/><polygon class="cls-41" points="187.25 185.23 184.75 183.79 187.24 182.34 189.75 183.78 187.25 185.23"/><polygon class="cls-41" points="184.14 187.04 181.63 185.6 184.13 184.15 186.63 185.59 184.14 187.04"/><polygon class="cls-41" points="181.02 188.84 178.51 187.4 181.01 185.96 183.51 187.4 181.02 188.84"/><polygon class="cls-41" points="177.9 190.65 175.39 189.21 177.89 187.76 180.39 189.21 177.9 190.65"/><polygon class="cls-41" points="174.78 192.46 172.27 191.02 174.77 189.57 177.28 191.01 174.78 192.46"/><polygon class="cls-41" points="171.66 194.26 169.16 192.82 171.78 191.31 174.28 192.75 171.66 194.26"/><polygon class="cls-41" points="168.54 196.07 166.04 194.63 168.66 193.11 171.16 194.55 168.54 196.07"/><polygon class="cls-41" points="165.43 197.88 162.92 196.44 165.54 194.92 168.04 196.36 165.43 197.88"/><polygon class="cls-41" points="169.91 198.58 167.52 197.21 170.02 195.77 172.41 197.14 169.91 198.58"/><polygon class="cls-41" points="173.03 196.78 170.64 195.41 173.14 193.96 175.52 195.33 173.03 196.78"/><polygon class="cls-41" points="176.15 194.97 173.76 193.6 176.26 192.15 178.64 193.53 176.15 194.97"/><polygon class="cls-41" points="179.27 193.16 176.88 191.79 179.37 190.35 181.76 191.72 179.27 193.16"/><polygon class="cls-41" points="182.38 191.36 180 189.99 182.49 188.54 184.88 189.91 182.38 191.36"/><polygon class="cls-41" points="185.5 189.55 183.12 188.18 185.61 186.73 188 188.1 185.5 189.55"/><polygon class="cls-41" points="188.62 187.74 186.24 186.37 188.73 184.93 191.12 186.3 188.62 187.74"/><polygon class="cls-41" points="191.74 185.94 189.35 184.56 191.85 183.12 194.24 184.49 191.74 185.94"/><polygon class="cls-41" points="194.86 184.13 192.47 182.76 194.97 181.31 197.35 182.69 194.86 184.13"/><polygon class="cls-41" points="197.98 182.32 195.59 180.95 198.09 179.51 200.47 180.88 197.98 182.32"/><polygon class="cls-41" points="207.33 176.9 204.95 175.53 207.44 174.09 209.83 175.46 207.33 176.9"/><polygon class="cls-41" points="208.69 179.56 206.31 178.19 210.42 175.8 212.81 177.17 208.69 179.56"/><polygon class="cls-41" points="204.08 182.23 201.69 180.86 205.68 178.55 208.07 179.92 204.08 182.23"/><polygon class="cls-41" points="199.46 184.91 197.08 183.53 201.07 181.22 203.46 182.59 199.46 184.91"/><polygon class="cls-41" points="175.01 199.07 172.63 197.7 176.62 195.39 179.01 196.76 175.01 199.07"/><polygon class="cls-41" points="170.4 201.74 168.01 200.37 172 198.06 174.39 199.43 170.4 201.74"/><polygon class="cls-41" points="165.78 204.42 163.4 203.05 167.39 200.73 169.78 202.1 165.78 204.42"/><polygon class="cls-41" points="201.1 180.52 198.71 179.15 204.2 175.97 206.58 177.34 201.1 180.52"/><polygon class="cls-41" points="197.5 172.41 195.12 171.03 198.61 169.01 201 170.38 197.5 172.41"/><polygon class="cls-41" points="156.95 199.34 154.57 197.97 158.56 195.66 160.94 197.03 156.95 199.34"/><polygon class="cls-41" points="162.8 202.7 160.41 201.33 166.9 197.57 169.29 198.94 162.8 202.7"/><polygon class="cls-41" points="159.94 201.06 157.43 199.62 162.42 196.73 164.93 198.17 159.94 201.06"/><polygon class="cls-41" points="179.63 196.4 177.24 195.02 196.45 183.9 198.84 185.27 179.63 196.4"/><path class="cls-41" d="M273.78,218.35,271.4,217l1.7-1c.15-.09.13-.18.1-.29s-.12,0-.12,0h0c0-.06.06-.09,0-.13l-2.46-1.45,5.12-3,5.26,3Z" transform="translate(-74.17 -40.42)"/><path class="cls-38" d="M229.24,235.17s3,1.45,3.62,3.11a11,11,0,0,0,4.87,5.58,16.44,16.44,0,0,0,4.86,1.66s2.48,2.17,4.34,3.51,23.59,13.76,27.52,15.11,14.17,1.45,20.48.2A100.58,100.58,0,0,0,307.14,261s-.1-5.17-6.31-7.24-25.14-3.2-27.73-4.86S248,238.17,248,238.17s-14.9-9.31-16.56-8.07S229.24,235.17,229.24,235.17Z" transform="translate(-74.17 -40.42)"/><path class="cls-38" d="M272.9,208.28a7.11,7.11,0,0,0,3.2,1.86c2.28.72,3.42.83,3.73,2.07s-6.21.82-6.21.82a3.17,3.17,0,0,0,2.07,1.76c1.55.42,2.38,1.35,3.62,2.28a11.16,11.16,0,0,0,5.59,1.55,6.15,6.15,0,0,1,2.41.31l.35,1.86,26.41,12.42,5.28-3.93S304.55,217,299,215.83s-15-6-15.52-6.21-7.57-4.44-8.08-4S272.9,208.28,272.9,208.28Z" transform="translate(-74.17 -40.42)"/><path class="cls-42" d="M336.15,301.9a19.71,19.71,0,0,1,.56-20.77c8.42-10.67,21.89-11.79,33.12-19.08,2.36-1.43,6.32-2,8.18-.17-1-4.68-3.39-5.55-5-5.64-3.56-.18-6.29,2.2-19.27,8.61-15.53,7.67-18.15,6.92-21.71,9.92s-5.61,10.1-5,17.77,6.17,13.85,10.66,13.66a11.6,11.6,0,0,0,3.05-.52A8,8,0,0,1,336.15,301.9Z" transform="translate(-74.17 -40.42)"/><path class="cls-43" d="M369.83,262.05c-11.23,7.29-24.7,8.41-33.12,19.08a19.71,19.71,0,0,0-.56,20.77,8,8,0,0,0,4.54,3.78c3.24-1,7.24-3.44,18.47-8.27,8.62-3.71,13.2-6.92,15.72-11.6,1.8-3.35,2.48-7.36,3.18-13.29a34.09,34.09,0,0,0-.05-10.64C376.15,260,372.19,260.62,369.83,262.05Z" transform="translate(-74.17 -40.42)"/><path class="cls-44" d="M292.2,214.56s-3.72-7.87-5.34-9-5.53-1.1-8.18-1.35c-2-.2-6.17.7-6.45,2.47s1.07,2.08,2.84,2.67,4.27,1.12,5.05,1.76.68,1.76-.71,1.48-3.35-1.73-4.94-1.32c-1.26.32-1.54,2.22,1.12,2.93s2,1.32,3.61,2,3.63,2,5.47,1.8c2.13-.22,6.36,2.73,6.36,2.73l5.19-4.15Z" transform="translate(-74.17 -40.42)"/><path class="cls-11" d="M348.7,212.73,327,218l-27.94-6.85a9,9,0,0,0-9.82,2.48c-3.34,4.84-1.82,6.48-1.82,6.48L324,236.41s5.17,3,13.82,1.62c8-1.29,31.5,4.68,31.5,4.68a30.27,30.27,0,0,0-1.64-19.91C362.75,211.8,352.07,211.24,348.7,212.73Z" transform="translate(-74.17 -40.42)"/><path class="cls-45" d="M343.08,212.85s-15,3.4-24.12,10.42c-8,6.14-12.71,20.39-11.95,45.67.54,17.61-.38,18.1.71,23.89.67,3.56,4,8.81,9.13,11.47,6.14,3.16,11.77,5.61,20.38,3.75s28.1-11.71,28.1-11.71,5.93-13.25,5.93-20,1-31.2-1.71-43.25C365,212.73,349.17,211.5,343.08,212.85Z" transform="translate(-74.17 -40.42)"/><path class="cls-44" d="M345,204.85l1.52,13.92s-.51,5.69-8.54,7.11c-8.25,1.45-9.77-4.14-9.77-4.14l.2-3.33-1.06-7.67Z" transform="translate(-74.17 -40.42)"/><path class="cls-44" d="M313.59,179.47s-1.5,14.46-1.26,19.28c.23,4.39,2.24,13.24,8.37,15.47,5.1,1.86,11.12-1.31,17.42-5.74s8.31-5.51,9.24-9.24,7.34-21.64,7.34-21.64Z" transform="translate(-74.17 -40.42)"/><path class="cls-5" d="M355.34,174.92a17.48,17.48,0,0,0-8.95-12.26c-7.93-4.2-15.86-4-23.06-1.75-6.79,2.11-10,5.24-11.39,8a13,13,0,0,0-1.29,4.13,10.7,10.7,0,0,0,1.16,5.12c1.15,2.26,3.34,3.75,4.95,5.66a9.55,9.55,0,0,1,2.32,5.31,37.45,37.45,0,0,1,.2,5.74l2.16.79s-.41-5.18,2.56-5.56c4.55-.58,4.88,6,4.2,7.93-2.91,8.28,1.55,9.79,1.55,9.79,5.18,2.13,10.7,2.68,15.4-.79a24.44,24.44,0,0,0,8.19-11.71C355.51,189.07,356.59,181.39,355.34,174.92Z" transform="translate(-74.17 -40.42)"/><path class="cls-44" d="M248.06,246.89l-5.12-2.73s-1.51,1.05-4.74-.78c-3.87-2.19-3.68-4.32-5.19-5.61a58.21,58.21,0,0,0-5-3.51c-2.31-1.66.14-5.89,3.64-6,1.14,0,2.78,0,6.18,1.4,2.1.84,4.86,3.84,4.86,3.84a26.45,26.45,0,0,0-2.34-3.28c-.76-.74.3-2.35,1.83-1.07s3.88,4.3,4,5.37a27.09,27.09,0,0,0,1.27,4.22l4.86,2.81Z" transform="translate(-74.17 -40.42)"/><path class="cls-11" d="M312.75,230.06l-31.61,16.83-27.76-11s-5.43-2.84-9.43,3.53a7.17,7.17,0,0,0-.29,6.66s23.88,14.62,32.24,17.24c4.13,1.3,8.57,1.76,17.3,1,9.72-.82,17.54-4.33,24-7.61,4.46-2.26,10.22-9.38,8.47-18.1C323.88,229.71,318.37,227.82,312.75,230.06Z" transform="translate(-74.17 -40.42)"/><path class="cls-30" d="M350.18,260.74c-8.51,3.27-17.4,6.73-20.77,7.67s-7.48,7.85-7.11,15.71S324,298.9,327,301.71s8.42,5.8,17,1.68,20.39-9.16,23.76-11.6,6.47-5.39,7.67-9a61.24,61.24,0,0,0,2.24-19.64c-.34-7-4.3-13.47-10.85-10.48S357.48,257.93,350.18,260.74Z" transform="translate(-74.17 -40.42)"/><path class="cls-5" d="M332,274.77c3.56-3,6.18-2.25,21.71-9.92,13-6.41,15.71-8.79,19.27-8.61,2.43.13,6.73,2.06,5.05,16.28-.7,5.93-1.38,9.94-3.18,13.29-2.52,4.68-7.1,7.89-15.72,11.6-14.78,6.36-17,8.6-21.52,8.79s-10.1-6-10.66-13.66S328.48,277.76,332,274.77Z" transform="translate(-74.17 -40.42)"/><path class="cls-46" d="M353.35,282.16l9-4.57s2.44-1.48,4.63,6c.85,2.87.6,11.41.62,20.4,0,14.37-.06,30.42-.06,30.42l-9,4.57s-.62-5.87-.67-13.42C357.76,310.05,357.64,286.15,353.35,282.16Z" transform="translate(-74.17 -40.42)"/><path class="cls-4" d="M353.35,282.16l0,47.62-4.81-1.5v6l10,4.7V292.18s-.22-4.59-2.08-7.55C353.34,279.67,353.35,282.16,353.35,282.16Z" transform="translate(-74.17 -40.42)"/><g class="cls-3"><polygon class="cls-9" points="100.18 166.45 30.19 207.77 29.35 207.35 29.34 156.23 100.18 115.33 101.01 115.75 100.18 166.45"/><polygon class="cls-6" points="101.03 166.87 30.19 207.76 30.19 156.64 101.02 115.75 101.03 166.87"/><polygon class="cls-11" points="101.02 120.68 30.19 161.57 30.19 156.64 101.02 115.75 101.02 120.68"/><polygon class="cls-47" points="64.25 149.9 36.66 165.82 36.66 164.72 64.25 148.8 64.25 149.9"/><polygon class="cls-47" points="64.25 154.64 36.66 170.57 36.66 169.47 64.25 153.54 64.25 154.64"/><polygon class="cls-47" points="64.25 159.38 36.66 175.31 36.66 174.21 64.25 158.28 64.25 159.38"/><polygon class="cls-47" points="64.25 164.13 36.66 180.05 36.66 178.95 64.25 163.03 64.25 164.13"/><polygon class="cls-47" points="64.25 168.87 36.66 184.79 36.66 183.69 64.25 167.77 64.25 168.87"/><polygon class="cls-48" points="94.87 162.29 71.72 175.66 71.72 143.23 94.87 129.87 94.87 162.29"/><polygon class="cls-47" points="64.25 173.61 36.66 189.54 36.66 188.44 64.25 172.51 64.25 173.61"/></g><path class="cls-38" d="M203,215.6v.12h0a1.54,1.54,0,0,0,.78.91l13.94,8.05a4.15,4.15,0,0,0,2.08.47h0a4.55,4.55,0,0,0,1-.13l.1,0,.37-.11a2.71,2.71,0,0,0,.42-.2l37.88-21.87a2,2,0,0,0,.61-.53l0-.07a.93.93,0,0,0,.15-.34s0,0,0,0a1,1,0,0,0,0-.23c0-.24,0-2.88,0-2.88l-2.14,1-12.57-7.26a4.37,4.37,0,0,0-4,0l-28,16.15h0l-8,4.61,0-.05c-.75-.75-2.7-.22-2.7-.22l0,2.42A.74.74,0,0,0,203,215.6Z" transform="translate(-74.17 -40.42)"/><path class="cls-39" d="M267.93,102.37a17.05,17.05,0,0,0-1.75-1.29c-.45-.26-.77-.42-1-.53l-.14-.06-.2-.08h0a1.92,1.92,0,0,0-1.33.28L182.7,147.36a5.13,5.13,0,0,0-2.32,4v59.2a1.64,1.64,0,0,0,.67,1.49h0s2.25,1.81,2.92,1.79.68-2.35.68-2.35l-.19-.6,79.08-45.66a5.12,5.12,0,0,0,2.32-4V107.68l.18-.13C267.11,106.58,267.93,102.37,267.93,102.37Z" transform="translate(-74.17 -40.42)"/><path class="cls-49" d="M265.85,114.32v-6.64l.18-.13c1.08-1,1.9-5.18,1.9-5.18a17.05,17.05,0,0,0-1.75-1.29c-.45-.26-.77-.42-1-.53l-.14-.06-.2-.08h0a1.92,1.92,0,0,0-1.33.28L182.7,147.36a4.71,4.71,0,0,0-1.62,1.69l9.54,6.3,75.18-41Z" transform="translate(-74.17 -40.42)"/><path class="cls-37" d="M260.4,200.88s0,0,0,0a1,1,0,0,0,0-.23c0-.24,0-2.88,0-2.88l-2.14,1-12.57-7.26a4.37,4.37,0,0,0-4,0l-36,20.76,0-.05c-.75-.75-2.7-.22-2.7-.22l0,2.42a.74.74,0,0,0,0,.21v.12h0a1.54,1.54,0,0,0,.78.91l13.94,8.05a4.41,4.41,0,0,0,4,0l37.88-21.87a2,2,0,0,0,.61-.53l0-.07A.93.93,0,0,0,260.4,200.88Z" transform="translate(-74.17 -40.42)"/><path class="cls-50" d="M260.38,197.72l-2.14,1-12.57-7.26a4.37,4.37,0,0,0-4,0l-28,16.15,6.12,8.5v8a4.1,4.1,0,0,0,1.89-.47l37.88-21.87a2,2,0,0,0,.61-.53l0-.07a.93.93,0,0,0,.15-.34s0,0,0,0a1,1,0,0,0,0-.23C260.42,200.36,260.38,197.72,260.38,197.72Z" transform="translate(-74.17 -40.42)"/><path class="cls-51" d="M259.6,199.27l-37.88,21.87a4.34,4.34,0,0,1-4,0l-13.94-8a1.22,1.22,0,0,1,0-2.3l37.88-21.87a4.43,4.43,0,0,1,4,0l13.93,8A1.21,1.21,0,0,1,259.6,199.27Z" transform="translate(-74.17 -40.42)"/><polygon class="cls-50" points="162.66 161.87 152.57 167.69 152.56 146.03 162.66 140.2 162.66 161.87"/><polygon class="cls-37" points="152.57 167.46 149.07 165.44 149.07 143.77 152.58 145.8 152.57 167.46"/><polygon class="cls-52" points="190.92 123.28 112.07 168.79 112.07 111.89 190.91 66.37 190.92 123.28"/><text class="cls-53" transform="matrix(0.87, -0.5, 0, 1, 126.41, 136.87)">{.<tspan class="cls-54" x="9.63" y="0">C</tspan><tspan x="17.84" y="0">ODE};</tspan></text><polygon class="cls-49" points="190.98 123.23 112.14 168.75 111.47 168.37 190.32 122.85 190.98 123.23"/><polygon class="cls-55" points="191.13 123.33 190.3 122.85 190.31 65.95 191.13 66.43 191.13 123.33"/><path class="cls-34" d="M268.4,103.73c0-1.48-1-2.08-2.32-1.34l-80.83,46.67a5.12,5.12,0,0,0-2.32,4v59.2c0,1.48,1,2.08,2.32,1.34l80.83-46.67a5.13,5.13,0,0,0,2.32-4ZM186.24,209.21v-56.9l78.85-45.52v56.9Z" transform="translate(-74.17 -40.42)"/><g class="cls-3"><polygon class="cls-4" points="249.61 113.07 179.62 154.38 178.77 153.96 178.77 102.84 249.61 61.95 250.44 62.37 249.61 113.07"/><polygon class="cls-5" points="250.45 113.49 179.62 154.38 179.61 103.26 250.45 62.37 250.45 113.49"/><polygon class="cls-6" points="186.26 108.85 184.29 109.99 184.29 108.38 186.26 107.24 186.26 108.85"/><polygon class="cls-11" points="215.08 92.22 188.46 107.59 188.46 105.97 215.08 90.61 215.08 92.22"/><polygon class="cls-6" points="186.26 112.63 184.29 113.77 184.29 112.16 186.26 111.02 186.26 112.63"/><polygon class="cls-11" points="200.76 104.27 188.46 111.37 188.46 109.75 200.76 102.66 200.76 104.27"/><polygon class="cls-6" points="186.26 116.42 184.29 117.55 184.29 115.94 186.26 114.8 186.26 116.42"/><polygon class="cls-11" points="207.12 104.38 188.46 115.15 188.46 113.53 207.12 102.76 207.12 104.38"/><polygon class="cls-6" points="186.26 120.19 184.29 121.33 184.29 119.72 186.26 118.58 186.26 120.19"/><polygon class="cls-11" points="210.73 106.07 188.46 118.93 188.46 117.31 210.73 104.46 210.73 106.07"/><polygon class="cls-6" points="186.27 125.69 184.29 126.83 184.29 125.22 186.26 124.08 186.27 125.69"/><polygon class="cls-7" points="202.56 116.28 188.46 124.42 188.46 122.81 202.56 114.67 202.56 116.28"/><polygon class="cls-6" points="186.27 129.47 184.29 130.61 184.29 129 186.27 127.86 186.27 129.47"/><polygon class="cls-7" points="214.34 113.26 188.46 128.21 188.46 126.59 214.34 111.65 214.34 113.26"/><polygon class="cls-6" points="186.27 133.25 184.29 134.39 184.29 132.78 186.27 131.64 186.27 133.25"/><polygon class="cls-7" points="198.66 126.1 188.46 131.99 188.46 130.37 198.66 124.48 198.66 126.1"/><polygon class="cls-6" points="186.27 137.03 184.3 138.17 184.29 136.56 186.27 135.42 186.27 137.03"/><polygon class="cls-7" points="206.71 125.23 188.46 135.77 188.46 134.16 206.71 123.62 206.71 125.23"/><polygon class="cls-6" points="228.22 84.25 229.72 83.38 229.72 82.16 228.22 83.02 228.22 84.25"/><polygon class="cls-6" points="241.85 75.15 231.4 81.19 231.4 82.42 241.85 76.38 241.85 75.15"/><polygon class="cls-6" points="228.22 87.13 229.72 86.27 229.72 85.04 228.22 85.91 228.22 87.13"/><polygon class="cls-6" points="236.22 81.28 231.4 84.07 231.4 85.3 236.22 82.51 236.22 81.28"/><polygon class="cls-6" points="228.22 90.02 229.72 89.15 229.72 87.92 228.22 88.79 228.22 90.02"/><polygon class="cls-6" points="238.72 82.72 231.4 86.95 231.4 88.18 238.72 83.95 238.72 82.72"/><polygon class="cls-6" points="228.22 92.9 229.72 92.03 229.72 90.8 228.22 91.67 228.22 92.9"/><polygon class="cls-6" points="240.14 84.79 231.4 89.84 231.4 91.07 240.14 86.02 240.14 84.79"/><polygon class="cls-6" points="228.22 97.09 229.72 96.23 229.72 95 228.22 95.86 228.22 97.09"/><polygon class="cls-6" points="238.21 90.1 231.4 94.03 231.4 95.26 238.21 91.33 238.21 90.1"/><polygon class="cls-6" points="228.22 99.98 229.72 99.11 229.72 97.88 228.22 98.75 228.22 99.98"/><polygon class="cls-6" points="231.4 96.91 231.4 98.14 243.9 90.92 243.9 89.69 231.4 96.91"/><polygon class="cls-6" points="228.22 102.86 229.72 101.99 229.72 100.76 228.22 101.63 228.22 102.86"/><polygon class="cls-6" points="236.33 96.95 231.4 99.8 231.4 101.03 236.33 98.18 236.33 96.95"/><polygon class="cls-6" points="228.22 105.74 229.72 104.88 229.72 103.65 228.22 104.51 228.22 105.74"/><polygon class="cls-6" points="231.4 103.91 240.21 98.82 240.21 97.59 231.4 102.68 231.4 103.91"/></g><path class="cls-56" d="M236.59,264.89l-36.34-20.08a5.32,5.32,0,0,0-4.85,0l-23.8,12.91a2,2,0,0,0,.21,3.51L207.87,282a5.32,5.32,0,0,0,4.85,0l23.58-13.62C237.64,267.65,237.93,265.67,236.59,264.89Z" transform="translate(-74.17 -40.42)"/><path class="cls-57" d="M236.3,267.42,212.72,281a5.32,5.32,0,0,1-4.85,0l-36.06-20.81a2,2,0,0,1-.21-3.51l23.8-12.91a5.32,5.32,0,0,1,4.85,0l36.34,20.08C237.93,264.67,237.64,266.65,236.3,267.42Z" transform="translate(-74.17 -40.42)"/><path class="cls-58" d="M236.3,266.42,212.72,280a5.32,5.32,0,0,1-4.85,0l-36.06-20.81c-1.33-.78-1.33-2,0-2.8l23.59-13.62a5.32,5.32,0,0,1,4.85,0l36.05,20.81C237.64,264.4,237.64,265.65,236.3,266.42Z" transform="translate(-74.17 -40.42)"/><polygon class="cls-59" points="134.61 237.36 100.07 217.41 123.65 203.79 158.2 223.74 134.61 237.36"/><path class="cls-60" d="M213,253l-15.13-8.74-23.59,13.62L198,271.56c0-.21.08-.42.13-.63A29.37,29.37,0,0,1,213,253Z" transform="translate(-74.17 -40.42)"/><path class="cls-61" d="M223.51,271.49a.61.61,0,0,1,0,1.16,2.22,2.22,0,0,1-2,0,.61.61,0,0,1,0-1.16A2.22,2.22,0,0,1,223.51,271.49Z" transform="translate(-74.17 -40.42)"/><path class="cls-38" d="M307.9,202.51h0a12.45,12.45,0,0,0-.44-1.52c0-.06,0-.13-.08-.2l-.15-.39c0-.09-.08-.18-.11-.27s-.12-.25-.17-.37l-.15-.3c-.05-.12-.11-.24-.18-.37s-.11-.21-.17-.32a3.72,3.72,0,0,0-.19-.34c-.07-.13-.15-.26-.23-.39l-.17-.28c-.14-.22-.28-.44-.43-.65l-.14-.19c-.11-.16-.23-.31-.34-.45a2.31,2.31,0,0,0-.2-.24l-.32-.39-.21-.23c-.11-.13-.22-.24-.34-.36l-.22-.22a3.8,3.8,0,0,0-.37-.33l-.22-.2-.42-.32a1.56,1.56,0,0,0-.2-.16,6.29,6.29,0,0,0-.64-.41,25,25,0,0,0-2.32-1.21h0l-.08,0-.47-.19-.6-.22-.25-.09-.2-.05c-.2-.06-.41-.1-.61-.14l-.37-.08a5.67,5.67,0,0,0-.91-.07h-.06l-.22,0q-.33,0-.66.06l-.33.07a4.67,4.67,0,0,0-.64.18l-.3.1a7.72,7.72,0,0,0-.93.43c-.25.14-.48.28-.71.44l-.14.1-.06,0,0,0c-.19.14-.37.29-.55.44l0,0-.23.2h0c-.12.11-.23.22-.34.34l-.05.06a6.29,6.29,0,0,0-.53.65l0,0a5.41,5.41,0,0,0-.53,5.27s6.65,5.31,10.67,6.55,7.76-.42,7.76-2.9A6.32,6.32,0,0,0,307.9,202.51Z" transform="translate(-74.17 -40.42)"/><path class="cls-62" d="M289.14,199.54s6.8,5.21,10.82,6.45,7.77-.42,7.77-2.9-2.51-7.88-6.22-10-6.19-2.78-9-1.24S287.91,196.14,289.14,199.54Z" transform="translate(-74.17 -40.42)"/><path class="cls-63" d="M292.54,191.81a6.59,6.59,0,0,0-3.78,5.61.74.74,0,0,1,0,.14s6.93,5.31,11,6.57c3.65,1.12,7.08-.11,7.77-2.18-.56-2.72-2.87-7-6.08-8.9C297.8,190.88,295.32,190.27,292.54,191.81Z" transform="translate(-74.17 -40.42)"/><path class="cls-6" d="M292.54,191.81a7.89,7.89,0,0,0-3.07,2.93,15.7,15.7,0,0,0,2.47,1c3.65,1.13,7.08-.1,7.77-2.17.25-1,0-1.18-.54-1.78C296.67,190.72,294.7,190.61,292.54,191.81Z" transform="translate(-74.17 -40.42)"/><path class="cls-64" d="M295.63,192c1.06.64,1.69,1.87,1.42,2s-1.33-.23-2.39-.86-1.7-1.27-1.43-1.43A2.72,2.72,0,0,1,295.63,192Z" transform="translate(-74.17 -40.42)"/><path class="cls-20" d="M149,226l-18.86,13.71c-2.42,1.39-8.14-2.53-8.14-5.32V210.6A9.65,9.65,0,0,1,126.4,203L147,191.13c2.41-1.4,8.43,1.46,8.46,3.94l-2.09,23.41A9.66,9.66,0,0,1,149,226Z" transform="translate(-74.17 -40.42)"/><path class="cls-8" d="M123.31,206.31A8.91,8.91,0,0,0,122,210.6v23.83c0,2.79,5.72,6.71,8.14,5.32L149,226a9,9,0,0,0,3.14-3.35C143.26,217.64,132.73,210.6,123.31,206.31Z" transform="translate(-74.17 -40.42)"/><path class="cls-21" d="M123.31,206.31A8.91,8.91,0,0,0,122,210.6v23.83c0,2.79,5.72,6.71,8.14,5.32L149,226a9,9,0,0,0,3.14-3.35C143.26,217.64,132.73,210.6,123.31,206.31Z" transform="translate(-74.17 -40.42)"/><path class="cls-22" d="M151.36,227.59,130.72,239.5c-2.41,1.39-4.37.26-4.37-2.52V213.15a9.68,9.68,0,0,1,4.37-7.57l20.64-11.91c2.41-1.39,4.36-.26,4.36,2.52V220A9.68,9.68,0,0,1,151.36,227.59Z" transform="translate(-74.17 -40.42)"/><text class="cls-65" transform="matrix(0.87, -0.5, 0, 1, 56.6, 186.81)">C++</text><path class="cls-66" d="M155.72,202.55v-6.36c0-2.78-1.95-3.91-4.36-2.52l-20.64,11.91a9.68,9.68,0,0,0-4.37,7.57V230C134.64,217.77,144.9,207.88,155.72,202.55Z" transform="translate(-74.17 -40.42)"/><path class="cls-16" d="M310.42,124.52l-18.87,13.71c-2.41,1.39-8.13-2.53-8.13-5.31V109.09a9.66,9.66,0,0,1,4.37-7.57l20.64-11.91c2.41-1.39,8.43,1.47,8.46,3.94L314.79,117A9.66,9.66,0,0,1,310.42,124.52Z" transform="translate(-74.17 -40.42)"/><path class="cls-11" d="M284.69,104.8a8.86,8.86,0,0,0-1.28,4.29v23.83c0,2.78,5.72,6.7,8.13,5.31l18.87-13.71a9.05,9.05,0,0,0,3.14-3.34C304.64,116.13,294.11,109.09,284.69,104.8Z" transform="translate(-74.17 -40.42)"/><path class="cls-11" d="M284.69,104.8a8.86,8.86,0,0,0-1.28,4.29v23.83c0,2.78,5.72,6.7,8.13,5.31l18.87-13.71a9.05,9.05,0,0,0,3.14-3.34C304.64,116.13,294.11,109.09,284.69,104.8Z" transform="translate(-74.17 -40.42)"/><path class="cls-17" d="M284.69,104.8a8.86,8.86,0,0,0-1.28,4.29v23.83c0,2.78,5.72,6.7,8.13,5.31l18.87-13.71a9.05,9.05,0,0,0,3.14-3.34C304.64,116.13,294.11,109.09,284.69,104.8Z" transform="translate(-74.17 -40.42)"/><path class="cls-11" d="M312.74,126.07,292.1,138c-2.41,1.39-4.37.27-4.37-2.52V111.63a9.66,9.66,0,0,1,4.37-7.56l20.64-11.92c2.41-1.39,4.36-.26,4.36,2.53V118.5A9.65,9.65,0,0,1,312.74,126.07Z" transform="translate(-74.17 -40.42)"/><text class="cls-23" transform="matrix(0.87, -0.5, 0, 1, 218.67, 85.64)">PHP</text><path class="cls-67" d="M317.1,101V94.68c0-2.79-2-3.92-4.36-2.53L292.1,104.07a9.66,9.66,0,0,0-4.37,7.56v16.83C296,116.26,306.28,106.37,317.1,101Z" transform="translate(-74.17 -40.42)"/></g></g></svg>